<svg width="28" height="19" viewBox="0 0 28 19" fill="none" xmlns="http://www.w3.org/2000/svg">
<path d="M1.35401 18.3096C0.97484 18.3096 0.65438 18.1548 0.392628 17.8452C0.130876 17.5356 0 17.1519 0 16.6942V14.5404C0 14.0827 0.128258 13.699 0.384775 13.3894C0.641292 13.0798 0.959134 12.925 1.3383 12.925C1.71747 12.925 2.03793 13.0798 2.29968 13.3894C2.56143 13.699 2.69231 14.0827 2.69231 14.5404V16.6942C2.69231 17.1519 2.56405 17.5356 2.30753 17.8452C2.05102 18.1548 1.73317 18.3096 1.35401 18.3096ZM6.06555 18.3096C5.68638 18.3096 5.36592 18.1548 5.10417 17.8452C4.84241 17.5356 4.71154 17.1519 4.71154 16.6942L4.71154 11.7225C4.71154 11.2783 4.8398 10.8991 5.09632 10.585C5.35283 10.2709 5.67067 10.1138 6.04984 10.1138C6.42901 10.1138 6.74947 10.2686 7.01122 10.5783C7.27297 10.8879 7.40385 11.2715 7.40385 11.7292L7.40385 16.701C7.40385 17.1452 7.27559 17.5244 7.01907 17.8385C6.76255 18.1526 6.44471 18.3096 6.06555 18.3096ZM10.7771 18.3096C10.3979 18.3096 10.0775 18.1548 9.8157 17.8452C9.55395 17.5356 9.42308 17.1519 9.42308 16.6942L9.42308 9.15577C9.42308 8.69808 9.55134 8.31442 9.80785 8.00481C10.0644 7.69519 10.3822 7.54038 10.7614 7.54038C11.1405 7.54038 11.461 7.69519 11.7228 8.00481C11.9845 8.31442 12.1154 8.69808 12.1154 9.15577L12.1154 16.6942C12.1154 17.1519 11.9871 17.5356 11.7306 17.8452C11.4741 18.1548 11.1562 18.3096 10.7771 18.3096ZM15.4886 18.3096C15.1095 18.3096 14.789 18.1548 14.5272 17.8452C14.2655 17.5356 14.1346 17.1519 14.1346 16.6942L14 6.92789C14 6.47019 14.1283 6.08654 14.3848 5.77692C14.6413 5.46731 14.9591 5.3125 15.3383 5.3125C15.7175 5.3125 16.0379 5.46731 16.2997 5.77692C16.5614 6.08654 16.6923 6.47019 16.6923 6.92789L16.8269 16.6942C16.8269 17.1519 16.6987 17.5356 16.4421 17.8452C16.1856 18.1548 15.8678 18.3096 15.4886 18.3096Z" fill="#B8CBFC"/>
<path d="M25.3227 5.0206L18.6856 12.2454C17.8205 13.1978 16.77 13.674 15.5342 13.674C14.2982 13.674 13.2476 13.1978 12.3825 12.2454L11.1554 10.8984C10.8083 10.5174 10.3869 10.3269 9.8911 10.3269C9.39531 10.3269 8.97388 10.5174 8.62683 10.8984L2.26826 17.8782C1.99557 18.1775 1.6857 18.3204 1.33865 18.3068C0.991589 18.2932 0.681718 18.1367 0.409031 17.8374C0.136344 17.5381 0 17.1911 0 16.7965C0 16.402 0.136344 16.055 0.409031 15.7557L6.73041 8.81665C7.59805 7.86424 8.65162 7.38803 9.8911 7.38803C11.1306 7.38803 12.1842 7.86424 13.0518 8.81665L14.3161 10.2045C14.673 10.5854 15.0969 10.7759 15.5878 10.7759C16.0786 10.7759 16.4976 10.5854 16.8446 10.2045L23.4263 2.93888H20.4143C20.0351 2.93888 19.7171 2.79888 19.4606 2.51887C19.204 2.23886 19.0757 1.89191 19.0757 1.47802C19.0757 1.06412 19.204 0.714312 19.4606 0.428587C19.7171 0.142862 20.0351 0 20.4143 0H26.6614C27.0406 0 27.3586 0.140821 27.6151 0.422464C27.8717 0.704107 28 1.0531 28 1.46944V8.32684C28 8.74318 27.8725 9.09217 27.6174 9.37382C27.3623 9.65546 27.0462 9.79628 26.6692 9.79628C26.2921 9.79628 25.9734 9.65546 25.7131 9.37382C25.4529 9.09217 25.3227 8.74318 25.3227 8.32684V5.0206Z" fill="#2D65F2" fill-opacity="0.6"/>
</svg>
