<svg width="26" height="28" viewBox="0 0 26 28" fill="none" xmlns="http://www.w3.org/2000/svg">
<g id="Group 1707478710">
<circle id="Ellipse 1913" cx="13.3732" cy="15.4621" r="9.33707" fill="#B8CBFC"/>
<path id="Ellipse 1914" d="M25.9119 15.4609C25.9119 17.4249 25.4505 19.3614 24.565 21.1144C23.6795 22.8673 22.3945 24.3878 20.8137 25.5531C19.2328 26.7185 17.4003 27.4962 15.4639 27.8236C13.5274 28.151 11.5411 28.0189 9.66504 27.438L12.6321 17.8563C13.0073 17.9725 13.4045 17.9989 13.7918 17.9335C14.1791 17.868 14.5456 17.7125 14.8618 17.4794C15.1779 17.2463 15.4349 16.9422 15.612 16.5916C15.7892 16.241 15.8814 15.8537 15.8814 15.4609H25.9119Z" fill="#2D65F2" fillOpacity="0.6"/>
<path id="Ellipse 1915" d="M2.43945 4.5292C3.87539 3.09327 5.58009 1.95422 7.45622 1.1771C9.33236 0.399979 11.3432 -2.4216e-08 13.3739 0V12.3709C12.9678 12.3709 12.5656 12.4509 12.1904 12.6063C11.8151 12.7618 11.4742 12.9896 11.187 13.2768L2.43945 4.5292Z" fill="#2D65F2" fillOpacity="0.6"/>
<path id="Ellipse 1916" d="M1.02367 20.5954C-0.337311 17.3199 -0.34136 13.6379 1.01241 10.3594L10.9017 14.4429C10.6309 15.0986 10.6317 15.835 10.9039 16.4901L1.02367 20.5954Z" fill="#2D65F2" fillOpacity="0.6"/>
</g>
</svg>
