<svg width="28" height="28" viewBox="0 0 28 28" fill="none" xmlns="http://www.w3.org/2000/svg">
<g id="Group 1707478709">
<path id="Union" d="M21.4798 10.5664C24.3586 10.5664 26.8423 12.294 28 14.7928H23.8499C21.9999 14.7928 20.5006 16.3303 20.5006 18.2268C20.5006 20.1233 21.9999 21.6607 23.8499 21.6607H27.7297C26.4822 23.8715 24.1502 25.3589 21.4798 25.3589C18.5896 25.3589 16.0967 23.6176 14.9452 21.1028C14.809 21.1224 14.6697 21.1324 14.5283 21.1324H2.90566C1.30115 21.1324 0 19.8316 0 18.2268C0 16.622 1.30115 15.3211 2.90566 15.3211L14.5283 15.3211C14.5974 15.3211 14.6666 15.3234 14.7347 15.3283C15.7696 12.5442 18.3998 10.5664 21.4798 10.5664Z" fill="#B8CBFC"/>
<path id="Union_2" d="M2.4502 6.52019C2.4502 3.64136 4.17775 1.15772 6.67661 0V4.15006C6.67661 6.00015 8.21405 7.49941 10.1106 7.49941C12.0071 7.49941 13.5445 6.00015 13.5445 4.15006V0.270342C15.7553 1.51784 17.2426 3.84979 17.2426 6.52019C17.2426 9.41038 15.5014 11.9033 12.9866 13.0548C13.0062 13.191 13.0162 13.3303 13.0162 13.4717L13.0162 25.0943C13.0162 26.6989 11.7153 28 10.1106 28C8.5058 28 7.20491 26.6989 7.20491 25.0943L7.20491 13.4717C7.20491 13.4026 7.20723 13.3334 7.21214 13.2653C4.42797 12.2304 2.4502 9.60024 2.4502 6.52019Z" fill="#2D65F2" fillOpacity="0.6"/>
</g>
</svg>
