<svg width="34" height="28" viewBox="0 0 34 28" fill="none" xmlns="http://www.w3.org/2000/svg">
<g id="Group 1707478708">
<rect id="Rectangle 34631056" x="6.625" y="13" width="20" height="15" rx="3.81818" fill="#B8CBFC"/>
<g id="Union">
<path d="M0 8.22444C4.34517 2.84893 10.2896 -0.108922 16.5255 0.00306807C22.7608 0.115058 28.777 3.287 33.25 8.82062L31.2235 11.3305C27.3036 6.47871 22.032 3.69873 16.5674 3.59992C11.1029 3.5044 5.89384 6.09663 2.0864 10.8068L0 8.22444Z" fill="#2D65F2" fillOpacity="0.6"/>
<path d="M5.01735 12.9774C8.07008 9.2027 12.2456 7.1243 16.6267 7.20335C21.0071 7.2824 25.2332 9.50903 28.3757 13.3957L26.3765 15.8727C23.7797 12.6579 20.2877 10.8167 16.6679 10.7508C13.0482 10.6882 9.59812 12.4043 7.07513 15.5235L5.01735 12.9774Z" fill="#2D65F2" fillOpacity="0.6"/>
<path d="M16.7165 14.1171C13.9945 14.071 11.3997 15.3621 9.50295 17.7073L11.2972 19.9274C12.732 18.152 14.694 17.177 16.7531 17.2133C18.8116 17.2495 20.7975 18.2969 22.2743 20.125L24.0173 17.9676C22.0646 15.5532 19.4385 14.1665 16.7165 14.1171Z" fill="#2D65F2" fillOpacity="0.6"/>
</g>
<rect id="Rectangle 34631053" x="9.625" y="22" width="14" height="3" rx="1.41504" fill="white"/>
</g>
</svg>
