<svg width="24" height="24" viewBox="0 0 24 24" fill="none" xmlns="http://www.w3.org/2000/svg">
<g clipPath="url(#clip0_3988_23913)">
<path fillRule="evenodd" clipRule="evenodd" d="M15.562 2.50684C16.4447 2.50684 17.3773 2.81532 18.2316 3.15584L18.8568 3.41212C20.3518 4.03858 21.1918 5.35319 21.8432 6.79713C22.9003 9.14042 23.6348 12.2644 23.8887 14.6397C24.0097 15.7669 24.0394 16.9012 23.8222 17.6641C23.5885 18.4792 22.7936 19.0558 22.0212 19.509L21.6391 19.7262L21.2428 19.9468C21.0372 20.0607 20.8295 20.1731 20.6199 20.2838L20.0006 20.6041L19.1499 21.0277L18.4653 21.3647C18.3254 21.4401 18.1719 21.4866 18.0137 21.5016C17.8555 21.5165 17.6959 21.4995 17.5444 21.4516C17.3929 21.4037 17.2526 21.3258 17.1317 21.2227C17.0109 21.1195 16.912 20.9931 16.8409 20.851C16.7699 20.7088 16.7281 20.5539 16.718 20.3953C16.708 20.2367 16.7299 20.0778 16.7825 19.9278C16.8351 19.7779 16.9172 19.64 17.0241 19.5224C17.1309 19.4048 17.2603 19.3099 17.4046 19.2433L18.3419 18.7805L17.6537 18.058C16.0045 18.7343 14.0623 19.1175 11.999 19.1175C9.93573 19.1175 7.99347 18.7354 6.34427 18.058L5.65611 18.7793L6.59699 19.2421C6.73644 19.3117 6.8608 19.4081 6.96299 19.5259C7.06517 19.6436 7.14316 19.7803 7.19252 19.9281C7.24188 20.076 7.26163 20.2321 7.25065 20.3876C7.23967 20.5431 7.19817 20.6949 7.12853 20.8343C7.05888 20.9738 6.96245 21.0981 6.84474 21.2003C6.72703 21.3025 6.59034 21.3805 6.44249 21.4299C6.14388 21.5295 5.81791 21.5065 5.53628 21.3659L4.89083 21.0455C4.41387 20.8082 3.93572 20.5733 3.46351 20.3253L2.36246 19.7262L1.9816 19.509C1.2092 19.0558 0.413078 18.4792 0.180529 17.6641C-0.0377827 16.9012 -0.00693443 15.7681 0.1129 14.6385C0.366805 12.2644 1.10123 9.14042 2.15838 6.79713C2.80976 5.35319 3.64978 4.03858 5.14474 3.41212C6.13663 2.99685 7.33853 2.50684 8.43958 2.50684C9.15503 2.50684 9.71742 3.16533 9.61419 3.86772C10.4039 3.75237 11.2009 3.69408 11.999 3.69331C12.8189 3.69331 13.6197 3.75263 14.3886 3.86891C14.3657 3.70042 14.3789 3.52899 14.4272 3.36597C14.4756 3.20296 14.558 3.05207 14.6691 2.9233C14.7801 2.79453 14.9173 2.69082 15.0714 2.61902C15.2255 2.54723 15.392 2.50899 15.562 2.50684ZM8.14296 10.2189C7.59229 10.2189 7.06416 10.4377 6.67478 10.8271C6.28539 11.2165 6.06663 11.7446 6.06663 12.2953C6.06663 12.8459 6.28539 13.3741 6.67478 13.7634C7.06416 14.1528 7.59229 14.3716 8.14296 14.3716C8.69364 14.3716 9.22176 14.1528 9.61115 13.7634C10.0005 13.3741 10.2193 12.8459 10.2193 12.2953C10.2193 11.7446 10.0005 11.2165 9.61115 10.8271C9.22176 10.4377 8.69364 10.2189 8.14296 10.2189ZM15.8551 10.2189C15.3044 10.2189 14.7763 10.4377 14.3869 10.8271C13.9975 11.2165 13.7787 11.7446 13.7787 12.2953C13.7787 12.8459 13.9975 13.3741 14.3869 13.7634C14.7763 14.1528 15.3044 14.3716 15.8551 14.3716C16.4057 14.3716 16.9339 14.1528 17.3232 13.7634C17.7126 13.3741 17.9314 12.8459 17.9314 12.2953C17.9314 11.7446 17.7126 11.2165 17.3232 10.8271C16.9339 10.4377 16.4057 10.2189 15.8551 10.2189Z" fill="white"/>
</g>
<defs>
<clipPath id="clip0_3988_23913">
<rect width="24" height="24" fill="white"/>
</clipPath>
</defs>
</svg>
