<svg width="64" height="64" viewBox="0 0 64 64" fill="none" xmlns="http://www.w3.org/2000/svg">
<g id="Favicon">
<g id="Group">
<g id="Group_2">
<path id="Vector" d="M45 13.6669V22.4431C45 23.3631 44.2622 24.11 43.3497 24.11H38.4984C36.7991 24.11 35.1635 24.7184 33.8739 25.8164C33.7189 25.9467 33.5687 26.0868 33.425 26.2319L33.092 26.5682C32.9859 26.6754 32.8847 26.7859 32.7868 26.898C31.6327 28.217 30.9912 29.9218 30.9912 31.6925V36.5925C30.9912 37.5125 30.2534 38.2594 29.3409 38.2594H20.6519C19.7395 38.2594 19 37.5125 19 36.5925V27.8163C19 26.8963 19.7395 26.1495 20.6519 26.1495H25.8346C27.7379 26.1495 29.5613 25.3861 30.9063 24.0275C31.5789 23.3483 32.1061 22.547 32.4636 21.6764C32.8211 20.8059 33.0088 19.8628 33.0088 18.9016V13.6669C33.0088 12.7469 33.7482 12 34.6607 12H43.3497C44.2622 11.9984 45 12.7452 45 13.6669Z" fill="#2D65F2"/>
<path id="Vector_2" d="M45.0002 27.0153V38.2613H33.8725C33.2734 38.2613 32.787 37.77 32.787 37.1649V30.7793C32.8392 29.5823 33.3191 28.4662 34.1582 27.6138L34.4471 27.3186C35.3351 26.4168 36.5136 25.9189 37.7689 25.9189H43.9147C44.5154 25.9189 45.0002 26.4085 45.0002 27.0153Z" fill="#2D65F2"/>
<path id="Vector_3" d="M31.2149 40.7541V52.0001H20.0872C19.4881 52.0001 19.0017 51.5088 19.0017 50.9037V44.5198C19.0539 43.3228 19.5339 42.2066 20.3729 41.3542L20.6618 41.0591C21.5498 40.1573 22.7284 39.6593 23.9836 39.6593H30.1294C30.7285 39.6577 31.2149 40.149 31.2149 40.7541Z" fill="#2D65F2"/>
</g>
<path id="Vector_4" d="M25.1082 24.3358C28.4808 24.3358 31.2149 21.5744 31.2149 18.1679C31.2149 14.7615 28.4808 12 25.1082 12C21.7357 12 19.0016 14.7615 19.0016 18.1679C19.0016 21.5744 21.7357 24.3358 25.1082 24.3358Z" fill="#2D65F2"/>
</g>
</g>
</svg>
