<svg width="24" height="24" viewBox="0 0 24 24" fill="none" xmlns="http://www.w3.org/2000/svg">
<path d="M13.0286 2.00123C13.7583 1.99843 14.488 2.00576 15.2176 2.02323L15.4116 2.03023C15.6356 2.03823 15.8566 2.04823 16.1236 2.06023C17.1876 2.11023 17.9136 2.27823 18.5506 2.52523C19.2106 2.77923 19.7666 3.12323 20.3226 3.67923C20.831 4.17884 21.2244 4.78318 21.4756 5.45023C21.7226 6.08723 21.8906 6.81423 21.9406 7.87823C21.9526 8.14423 21.9626 8.36623 21.9706 8.59023L21.9766 8.78423C21.9943 9.51342 22.002 10.2428 21.9996 10.9722L22.0006 11.7182V13.0282C22.003 13.758 21.9954 14.4877 21.9776 15.2172L21.9716 15.4112C21.9636 15.6352 21.9536 15.8562 21.9416 16.1232C21.8916 17.1872 21.7216 17.9132 21.4756 18.5502C21.2252 19.218 20.8317 19.8228 20.3226 20.3222C19.8225 20.8306 19.2179 21.224 18.5506 21.4752C17.9136 21.7222 17.1876 21.8902 16.1236 21.9402C15.8566 21.9522 15.6356 21.9622 15.4116 21.9702L15.2176 21.9762C14.4881 21.994 13.7583 22.0017 13.0286 21.9992L12.2826 22.0002H10.9736C10.2438 22.0027 9.5141 21.995 8.78458 21.9772L8.59058 21.9712C8.35319 21.9626 8.11585 21.9526 7.87858 21.9412C6.81458 21.8912 6.08858 21.7212 5.45058 21.4752C4.78326 21.2246 4.17881 20.8311 3.67958 20.3222C3.17062 19.8225 2.7768 19.2178 2.52558 18.5502C2.27858 17.9132 2.11058 17.1872 2.06058 16.1232C2.04944 15.8859 2.03944 15.6486 2.03058 15.4112L2.02558 15.2172C2.00714 14.4877 1.99881 13.758 2.00058 13.0282V10.9722C1.99779 10.2428 2.00512 9.51343 2.02258 8.78423L2.02958 8.59023C2.03758 8.36623 2.04758 8.14423 2.05958 7.87823C2.10958 6.81323 2.27758 6.08823 2.52458 5.45023C2.77595 4.78285 3.17054 4.17868 3.68058 3.68023C4.17947 3.17098 4.78354 2.7768 5.45058 2.52523C6.08858 2.27823 6.81358 2.11023 7.87858 2.06023L8.59058 2.03023L8.78458 2.02523C9.51376 2.0068 10.2432 1.99847 10.9726 2.00023L13.0286 2.00123ZM12.0006 7.00023C10.6745 7.00023 9.40272 7.52701 8.46504 8.4647C7.52736 9.40238 7.00058 10.6741 7.00058 12.0002C7.00058 13.3263 7.52736 14.5981 8.46504 15.5358C9.40272 16.4734 10.6745 17.0002 12.0006 17.0002C13.3267 17.0002 14.5984 16.4734 15.5361 15.5358C16.4738 14.5981 17.0006 13.3263 17.0006 12.0002C17.0006 10.6741 16.4738 9.40238 15.5361 8.4647C14.5984 7.52701 13.3267 7.00023 12.0006 7.00023ZM12.0006 9.00023C12.3945 9.00016 12.7847 9.0777 13.1487 9.2284C13.5127 9.3791 13.8434 9.60003 14.122 9.87856C14.4007 10.1571 14.6217 10.4878 14.7725 10.8517C14.9233 11.2157 15.001 11.6058 15.0011 11.9997C15.0011 12.3937 14.9236 12.7838 14.7729 13.1478C14.6222 13.5118 14.4013 13.8426 14.1228 14.1212C13.8442 14.3998 13.5135 14.6209 13.1496 14.7717C12.7856 14.9225 12.3955 15.0002 12.0016 15.0002C11.2059 15.0002 10.4429 14.6842 9.88026 14.1216C9.31765 13.5589 9.00158 12.7959 9.00158 12.0002C9.00158 11.2046 9.31765 10.4415 9.88026 9.87891C10.4429 9.3163 11.2059 9.00023 12.0016 9.00023M17.2516 5.50023C16.929 5.51314 16.6239 5.65038 16.4002 5.8832C16.1765 6.11602 16.0516 6.42636 16.0516 6.74923C16.0516 7.0721 16.1765 7.38244 16.4002 7.61526C16.6239 7.84808 16.929 7.98532 17.2516 7.99823C17.5831 7.99823 17.901 7.86653 18.1355 7.63211C18.3699 7.39769 18.5016 7.07975 18.5016 6.74823C18.5016 6.41671 18.3699 6.09877 18.1355 5.86435C17.901 5.62993 17.5831 5.49823 17.2516 5.49823" fill="white"/>
</svg>
