<svg width="24" height="24" viewBox="0 0 24 24" fill="none" xmlns="http://www.w3.org/2000/svg">
<path d="M17.303 2.25H6.697C5.51758 2.25 4.38647 2.71852 3.5525 3.5525C2.71852 4.38647 2.25 5.51758 2.25 6.697V17.303C2.25 18.4824 2.71852 19.6135 3.5525 20.4475C4.38647 21.2815 5.51758 21.75 6.697 21.75H17.303C18.4824 21.75 19.6135 21.2815 20.4475 20.4475C21.2815 19.6135 21.75 18.4824 21.75 17.303V6.697C21.75 5.51758 21.2815 4.38647 20.4475 3.5525C19.6135 2.71852 18.4824 2.25 17.303 2.25ZM8.843 17.992C8.84614 18.0464 8.83811 18.1009 8.81942 18.1521C8.80072 18.2034 8.77176 18.2502 8.7343 18.2898C8.69684 18.3294 8.65167 18.361 8.60158 18.3825C8.55149 18.404 8.49752 18.4151 8.443 18.415H6.663C6.55574 18.4121 6.45386 18.3674 6.37911 18.2904C6.30437 18.2135 6.2627 18.1103 6.263 18.003V10.6C6.26153 10.5466 6.27079 10.4934 6.29023 10.4435C6.30967 10.3937 6.33891 10.3483 6.3762 10.31C6.41349 10.2717 6.45808 10.2413 6.50734 10.2205C6.5566 10.1997 6.60953 10.189 6.663 10.189H8.443C8.49651 10.1888 8.5495 10.1994 8.59882 10.2202C8.64815 10.2409 8.6928 10.2714 8.73012 10.3097C8.76744 10.3481 8.79666 10.3935 8.81605 10.4434C8.83545 10.4933 8.84461 10.5465 8.843 10.6V17.992ZM7.52 8.632C7.32729 8.63056 7.13674 8.59117 6.95925 8.51608C6.78176 8.441 6.62079 8.33169 6.48554 8.1944C6.35029 8.05711 6.24341 7.89452 6.171 7.71593C6.09858 7.53733 6.06206 7.34621 6.0635 7.1535C6.06494 6.96079 6.10433 6.77024 6.17942 6.59275C6.2545 6.41526 6.36381 6.25429 6.5011 6.11904C6.63839 5.98379 6.80098 5.87691 6.97957 5.8045C7.15817 5.73208 7.34928 5.69556 7.542 5.697C7.92452 5.70944 8.28703 5.87087 8.55219 6.14686C8.81734 6.42284 8.96415 6.79152 8.96128 7.17423C8.9584 7.55694 8.80609 7.92337 8.53682 8.19535C8.26755 8.46732 7.90266 8.6233 7.52 8.63M18.337 17.98C18.3368 18.0811 18.2972 18.1782 18.2266 18.2506C18.1561 18.323 18.0601 18.3651 17.959 18.368H16.08C15.9788 18.3649 15.8828 18.3226 15.8123 18.25C15.7418 18.1774 15.7022 18.0802 15.702 17.979V14.555C15.702 14.044 15.858 12.332 14.346 12.332C13.167 12.332 12.934 13.532 12.889 14.066V18.057C12.889 18.1584 12.8496 18.2558 12.779 18.3286C12.7085 18.4014 12.6123 18.4439 12.511 18.447H10.688C10.6368 18.447 10.5862 18.4369 10.5389 18.4173C10.4916 18.3977 10.4487 18.3689 10.4126 18.3327C10.3764 18.2965 10.3478 18.2535 10.3283 18.2062C10.3088 18.1589 10.2989 18.1082 10.299 18.057V10.564C10.3019 10.4626 10.3443 10.3663 10.4171 10.2957C10.49 10.2251 10.5875 10.1857 10.689 10.186H12.511C12.6125 10.1857 12.71 10.2251 12.7829 10.2957C12.8557 10.3663 12.8981 10.4626 12.901 10.564V11.209C13.167 10.8196 13.5343 10.5103 13.9633 10.3143C14.3922 10.1183 14.8665 10.0432 15.335 10.097C18.37 10.097 18.359 12.932 18.359 14.544L18.337 17.98Z" fill="white"/>
</svg>
