<svg width="28" height="28" viewBox="0 0 28 28" fill="none" xmlns="http://www.w3.org/2000/svg">
<g id="Frame 1707481695">
<g id="Group 1707478577">
<g id="Exclude" filter="url(#filter0_ii_2523_22381)">
<path fillRule="evenodd" clipRule="evenodd" d="M8.22274 24.6993C4.29539 22.4621 1.86764 18.0398 2.40486 13.267C3.12462 6.87098 8.89812 2.26895 15.3011 2.98808C21.7032 3.7072 26.3097 9.47523 25.59 15.8712C25.3609 17.9067 24.6198 19.7603 23.5096 21.3188C22.4035 22.6151 20.7165 23.8214 19.5368 21.1279C19.3176 20.6282 18.8372 19.7186 17.5343 19.7311C15.6016 19.7504 14.5088 21.455 15.278 24.7054C15.4643 25.4895 14.9713 26.132 13.9927 26.2245C13.5661 26.2647 13.1249 26.2491 12.6885 26.2002C11.0907 26.0207 9.61064 25.4776 8.29096 24.7383C8.26847 24.7257 8.24523 24.7124 8.22274 24.6993ZM17.6498 17.3547C17.5932 18.5626 16.5673 19.4958 15.3581 19.4392C14.149 19.3827 13.2148 18.3576 13.2716 17.1495C13.3283 15.9417 14.3543 15.0084 15.5634 15.0651C16.7725 15.1217 17.7065 16.1468 17.6498 17.3547Z" fill="#2D65F2"/>
</g>
<g id="Vector" filter="url(#filter1_ii_2523_22381)">
<path d="M11.9632 5.56457C11.9162 6.56622 12.6908 7.41621 13.6934 7.46314C14.696 7.51007 15.5467 6.73621 15.5937 5.73457C15.6407 4.73293 14.8661 3.88294 13.8636 3.836C12.861 3.78915 12.0102 4.56301 11.9632 5.56457Z" fill="#B8CBFC"/>
</g>
<g id="Vector_2" filter="url(#filter2_ii_2523_22381)">
<path d="M12.4765 22.5407C12.4296 23.5423 11.5788 24.3162 10.5762 24.2694C9.91117 24.2382 9.34682 23.8535 9.05554 23.3059C8.97742 23.0885 8.9394 22.8526 8.95095 22.6075C8.9537 22.5484 8.95952 22.4898 8.96786 22.4324C9.09938 21.5173 9.90811 20.8348 10.8513 20.879C11.518 20.9102 12.0823 21.2972 12.3727 21.8468C12.4311 22.0105 12.4674 22.1842 12.4763 22.3649C12.4791 22.423 12.4794 22.4816 12.4765 22.5407Z" fill="#B8CBFC"/>
</g>
<g id="Vector_3" filter="url(#filter3_ii_2523_22381)">
<path d="M8.36626 6.04688C8.39549 6.05047 8.42365 6.05673 8.45249 6.0617C8.48149 6.05949 8.51019 6.05589 8.53964 6.05505C9.47385 6.17009 10.1756 6.98653 10.1308 7.94124C10.086 8.89595 9.31088 9.64328 8.37001 9.67042C8.34079 9.66683 8.31255 9.66056 8.28386 9.65559C8.25471 9.65781 8.22602 9.66147 8.19656 9.66232C7.26251 9.54728 6.56059 8.73084 6.60535 7.77613C6.65019 6.82142 7.42548 6.07416 8.36626 6.04688ZM6.77888 7.78423C6.77612 7.84301 6.77628 7.90118 6.77903 7.95874C6.7762 7.90111 6.77605 7.84294 6.77888 7.78423ZM6.80696 7.54926C6.81338 7.51357 6.8192 7.47756 6.82769 7.44263C6.8192 7.47764 6.81338 7.51357 6.80696 7.54926ZM6.84934 7.36711C6.85753 7.33845 6.86503 7.3094 6.87459 7.28135C6.86503 7.3094 6.85761 7.33845 6.84934 7.36711ZM6.90703 7.19818C6.91652 7.17456 6.92509 7.15049 6.93557 7.12733C6.92517 7.15049 6.9166 7.17456 6.90703 7.19818ZM6.97972 7.03912C6.98967 7.01985 6.99893 7.00006 7.00964 6.98125C6.99893 7.00006 6.98959 7.01985 6.97972 7.03912ZM7.06625 6.88945C7.07605 6.87424 7.08515 6.85865 7.09541 6.84374C7.08508 6.85865 7.07597 6.87424 7.06625 6.88945ZM7.16572 6.7498C7.1746 6.73849 7.18317 6.72664 7.19235 6.71555C7.18317 6.72664 7.1746 6.73841 7.16572 6.7498ZM7.27705 6.62115C7.2847 6.6132 7.29189 6.60495 7.29969 6.59708C7.29189 6.60487 7.2847 6.6132 7.27705 6.62115ZM7.39893 6.50436C7.40482 6.49923 7.4104 6.49381 7.41645 6.48869C7.4104 6.49373 7.40482 6.49916 7.39893 6.50436ZM7.81561 6.23078C7.8163 6.23048 7.81714 6.2301 7.81768 6.22979C7.81714 6.23017 7.8163 6.23056 7.81561 6.23078ZM7.53015 6.39987C7.5342 6.39696 7.5381 6.3939 7.54216 6.391C7.53803 6.3939 7.5342 6.39704 7.53015 6.39987ZM7.66932 6.30867C7.67162 6.3073 7.67383 6.30592 7.67605 6.30455C7.67383 6.30585 7.67169 6.3073 7.66932 6.30867ZM7.29235 9.13367C7.28684 9.12809 7.28171 9.12213 7.27628 9.11639C7.28179 9.1222 7.28684 9.12809 7.29235 9.13367ZM7.53359 9.34128C7.53152 9.33967 7.52946 9.33807 7.52731 9.33654C7.52946 9.33807 7.53145 9.33975 7.53359 9.34128ZM7.40834 9.24267C7.40451 9.23938 7.40092 9.23602 7.39725 9.23273C7.401 9.23594 7.40451 9.23938 7.40834 9.24267ZM6.85164 8.37969C6.85899 8.40415 6.86518 8.42891 6.87337 8.45291C6.86511 8.42891 6.85883 8.40415 6.85164 8.37969ZM6.98117 8.70195C6.98944 8.718 6.99709 8.73443 7.00589 8.75018C6.99709 8.73436 6.98944 8.718 6.98117 8.70195ZM7.16603 8.98874C7.17276 8.99738 7.17919 9.00632 7.1863 9.01481C7.17926 9.00632 7.17276 8.99746 7.16603 8.98874Z" fill="#B8CBFC"/>
</g>
<g id="Vector_4" filter="url(#filter4_ii_2523_22381)">
<path d="M5.34761 14.2804C4.61133 14.2459 3.99848 13.7781 3.74323 13.1354C3.72089 13.0069 3.71171 12.8742 3.71814 12.7384C3.76511 11.7368 4.61585 10.9629 5.61846 11.0098C6.35481 11.0443 6.96751 11.5121 7.22283 12.1548C7.24517 12.2834 7.25443 12.4161 7.248 12.5518C7.20102 13.5535 6.35029 14.3274 5.34761 14.2804Z" fill="#B8CBFC"/>
</g>
<g id="Vector_5" filter="url(#filter5_ii_2523_22381)">
<path d="M8.10356 18.701C8.05658 19.7025 7.20585 20.4765 6.20316 20.4295C5.53812 20.3984 4.97377 20.0137 4.68257 19.466C4.60437 19.2487 4.56634 19.0127 4.57782 18.7676C4.58065 18.7085 4.58639 18.6501 4.59481 18.5924C4.72633 17.6774 5.53498 16.995 6.47829 17.0391C7.14494 17.0703 7.70922 17.4573 7.99965 18.0071C8.05811 18.1707 8.09438 18.3445 8.10318 18.5251C8.10601 18.583 8.10631 18.6417 8.10356 18.701Z" fill="#B8CBFC"/>
</g>
</g>
</g>
<defs>
<filter id="filter0_ii_2523_22381" x="1.62629" y="2.21028" width="24.7416" height="24.7406" filterUnits="userSpaceOnUse" color-interpolation-filters="sRGB">
<feFlood flood-opacity="0" result="BackgroundImageFix"/>
<feBlend mode="normal" in="SourceGraphic" in2="BackgroundImageFix" result="shape"/>
<feColorMatrix in="SourceAlpha" type="matrix" values="0 0 0 0 0 0 0 0 0 0 0 0 0 0 0 0 0 0 127 0" result="hardAlpha"/>
<feOffset dx="0.703784" dy="0.703784"/>
<feGaussianBlur stdDeviation="0.351892"/>
<feComposite in2="hardAlpha" operator="arithmetic" k2="-1" k3="1"/>
<feColorMatrix type="matrix" values="0 0 0 0 1 0 0 0 0 1 0 0 0 0 1 0 0 0 0.32 0"/>
<feBlend mode="normal" in2="shape" result="effect1_innerShadow_2523_22381"/>
<feColorMatrix in="SourceAlpha" type="matrix" values="0 0 0 0 0 0 0 0 0 0 0 0 0 0 0 0 0 0 127 0" result="hardAlpha"/>
<feOffset dx="-0.703784" dy="-0.703784"/>
<feGaussianBlur stdDeviation="0.351892"/>
<feComposite in2="hardAlpha" operator="arithmetic" k2="-1" k3="1"/>
<feColorMatrix type="matrix" values="0 0 0 0 0 0 0 0 0 0 0 0 0 0 0 0 0 0 0.05 0"/>
<feBlend mode="normal" in2="effect1_innerShadow_2523_22381" result="effect2_innerShadow_2523_22381"/>
</filter>
<filter id="filter1_ii_2523_22381" x="11.2572" y="3.1302" width="5.04233" height="5.03843" filterUnits="userSpaceOnUse" color-interpolation-filters="sRGB">
<feFlood flood-opacity="0" result="BackgroundImageFix"/>
<feBlend mode="normal" in="SourceGraphic" in2="BackgroundImageFix" result="shape"/>
<feColorMatrix in="SourceAlpha" type="matrix" values="0 0 0 0 0 0 0 0 0 0 0 0 0 0 0 0 0 0 127 0" result="hardAlpha"/>
<feOffset dx="0.703784" dy="0.703784"/>
<feGaussianBlur stdDeviation="0.351892"/>
<feComposite in2="hardAlpha" operator="arithmetic" k2="-1" k3="1"/>
<feColorMatrix type="matrix" values="0 0 0 0 1 0 0 0 0 1 0 0 0 0 1 0 0 0 0.32 0"/>
<feBlend mode="normal" in2="shape" result="effect1_innerShadow_2523_22381"/>
<feColorMatrix in="SourceAlpha" type="matrix" values="0 0 0 0 0 0 0 0 0 0 0 0 0 0 0 0 0 0 127 0" result="hardAlpha"/>
<feOffset dx="-0.703784" dy="-0.703784"/>
<feGaussianBlur stdDeviation="0.351892"/>
<feComposite in2="hardAlpha" operator="arithmetic" k2="-1" k3="1"/>
<feColorMatrix type="matrix" values="0 0 0 0 0 0 0 0 0 0 0 0 0 0 0 0 0 0 0.05 0"/>
<feBlend mode="normal" in2="effect1_innerShadow_2523_22381" result="effect2_innerShadow_2523_22381"/>
</filter>
<filter id="filter2_ii_2523_22381" x="8.24543" y="20.1732" width="4.93687" height="4.8021" filterUnits="userSpaceOnUse" color-interpolation-filters="sRGB">
<feFlood flood-opacity="0" result="BackgroundImageFix"/>
<feBlend mode="normal" in="SourceGraphic" in2="BackgroundImageFix" result="shape"/>
<feColorMatrix in="SourceAlpha" type="matrix" values="0 0 0 0 0 0 0 0 0 0 0 0 0 0 0 0 0 0 127 0" result="hardAlpha"/>
<feOffset dx="0.703784" dy="0.703784"/>
<feGaussianBlur stdDeviation="0.351892"/>
<feComposite in2="hardAlpha" operator="arithmetic" k2="-1" k3="1"/>
<feColorMatrix type="matrix" values="0 0 0 0 1 0 0 0 0 1 0 0 0 0 1 0 0 0 0.32 0"/>
<feBlend mode="normal" in2="shape" result="effect1_innerShadow_2523_22381"/>
<feColorMatrix in="SourceAlpha" type="matrix" values="0 0 0 0 0 0 0 0 0 0 0 0 0 0 0 0 0 0 127 0" result="hardAlpha"/>
<feOffset dx="-0.703784" dy="-0.703784"/>
<feGaussianBlur stdDeviation="0.351892"/>
<feComposite in2="hardAlpha" operator="arithmetic" k2="-1" k3="1"/>
<feColorMatrix type="matrix" values="0 0 0 0 0 0 0 0 0 0 0 0 0 0 0 0 0 0 0.05 0"/>
<feBlend mode="normal" in2="effect1_innerShadow_2523_22381" result="effect2_innerShadow_2523_22381"/>
</filter>
<filter id="filter3_ii_2523_22381" x="5.89973" y="5.34309" width="4.93687" height="5.03159" filterUnits="userSpaceOnUse" color-interpolation-filters="sRGB">
<feFlood flood-opacity="0" result="BackgroundImageFix"/>
<feBlend mode="normal" in="SourceGraphic" in2="BackgroundImageFix" result="shape"/>
<feColorMatrix in="SourceAlpha" type="matrix" values="0 0 0 0 0 0 0 0 0 0 0 0 0 0 0 0 0 0 127 0" result="hardAlpha"/>
<feOffset dx="0.703784" dy="0.703784"/>
<feGaussianBlur stdDeviation="0.351892"/>
<feComposite in2="hardAlpha" operator="arithmetic" k2="-1" k3="1"/>
<feColorMatrix type="matrix" values="0 0 0 0 1 0 0 0 0 1 0 0 0 0 1 0 0 0 0.32 0"/>
<feBlend mode="normal" in2="shape" result="effect1_innerShadow_2523_22381"/>
<feColorMatrix in="SourceAlpha" type="matrix" values="0 0 0 0 0 0 0 0 0 0 0 0 0 0 0 0 0 0 127 0" result="hardAlpha"/>
<feOffset dx="-0.703784" dy="-0.703784"/>
<feGaussianBlur stdDeviation="0.351892"/>
<feComposite in2="hardAlpha" operator="arithmetic" k2="-1" k3="1"/>
<feColorMatrix type="matrix" values="0 0 0 0 0 0 0 0 0 0 0 0 0 0 0 0 0 0 0.05 0"/>
<feBlend mode="normal" in2="effect1_innerShadow_2523_22381" result="effect2_innerShadow_2523_22381"/>
</filter>
<filter id="filter4_ii_2523_22381" x="3.01301" y="10.304" width="4.94077" height="4.68198" filterUnits="userSpaceOnUse" color-interpolation-filters="sRGB">
<feFlood flood-opacity="0" result="BackgroundImageFix"/>
<feBlend mode="normal" in="SourceGraphic" in2="BackgroundImageFix" result="shape"/>
<feColorMatrix in="SourceAlpha" type="matrix" values="0 0 0 0 0 0 0 0 0 0 0 0 0 0 0 0 0 0 127 0" result="hardAlpha"/>
<feOffset dx="0.703784" dy="0.703784"/>
<feGaussianBlur stdDeviation="0.351892"/>
<feComposite in2="hardAlpha" operator="arithmetic" k2="-1" k3="1"/>
<feColorMatrix type="matrix" values="0 0 0 0 1 0 0 0 0 1 0 0 0 0 1 0 0 0 0.32 0"/>
<feBlend mode="normal" in2="shape" result="effect1_innerShadow_2523_22381"/>
<feColorMatrix in="SourceAlpha" type="matrix" values="0 0 0 0 0 0 0 0 0 0 0 0 0 0 0 0 0 0 127 0" result="hardAlpha"/>
<feOffset dx="-0.703784" dy="-0.703784"/>
<feGaussianBlur stdDeviation="0.351892"/>
<feComposite in2="hardAlpha" operator="arithmetic" k2="-1" k3="1"/>
<feColorMatrix type="matrix" values="0 0 0 0 0 0 0 0 0 0 0 0 0 0 0 0 0 0 0.05 0"/>
<feBlend mode="normal" in2="effect1_innerShadow_2523_22381" result="effect2_innerShadow_2523_22381"/>
</filter>
<filter id="filter5_ii_2523_22381" x="3.87239" y="16.3333" width="4.93687" height="4.8021" filterUnits="userSpaceOnUse" color-interpolation-filters="sRGB">
<feFlood flood-opacity="0" result="BackgroundImageFix"/>
<feBlend mode="normal" in="SourceGraphic" in2="BackgroundImageFix" result="shape"/>
<feColorMatrix in="SourceAlpha" type="matrix" values="0 0 0 0 0 0 0 0 0 0 0 0 0 0 0 0 0 0 127 0" result="hardAlpha"/>
<feOffset dx="0.703784" dy="0.703784"/>
<feGaussianBlur stdDeviation="0.351892"/>
<feComposite in2="hardAlpha" operator="arithmetic" k2="-1" k3="1"/>
<feColorMatrix type="matrix" values="0 0 0 0 1 0 0 0 0 1 0 0 0 0 1 0 0 0 0.32 0"/>
<feBlend mode="normal" in2="shape" result="effect1_innerShadow_2523_22381"/>
<feColorMatrix in="SourceAlpha" type="matrix" values="0 0 0 0 0 0 0 0 0 0 0 0 0 0 0 0 0 0 127 0" result="hardAlpha"/>
<feOffset dx="-0.703784" dy="-0.703784"/>
<feGaussianBlur stdDeviation="0.351892"/>
<feComposite in2="hardAlpha" operator="arithmetic" k2="-1" k3="1"/>
<feColorMatrix type="matrix" values="0 0 0 0 0 0 0 0 0 0 0 0 0 0 0 0 0 0 0.05 0"/>
<feBlend mode="normal" in2="effect1_innerShadow_2523_22381" result="effect2_innerShadow_2523_22381"/>
</filter>
</defs>
</svg>
