<svg width="28" height="28" viewBox="0 0 28 28" fill="none" xmlns="http://www.w3.org/2000/svg">
<g id="Frame 1707481698">
<g id="Group 1707478666">
<g id="Vector" filter="url(#filter0_ii_2523_22412)">
<path d="M3.86691 19.9668C2.86266 18.2508 2.30079 16.2557 2.3355 14.1295C2.43722 7.87647 7.80239 2.80997 14.2009 2.91569C20.7931 3.02377 26.055 8.47606 25.6449 15.0312C25.2913 20.6878 20.6187 25.2936 14.833 25.6881C13.0812 25.8072 11.4069 25.5468 9.88275 24.9843C9.14571 24.7122 8.33762 24.6837 7.58282 24.907L3.04347 26.2474L4.15269 22.6594C4.42959 21.76 4.34321 20.7817 3.86691 19.9668Z" fill="#2D65F2"/>
</g>
<path id="Vector_2" d="M13.7491 8.15527L12.5478 11.7677C12.48 11.9713 12.2863 12.1086 12.0683 12.1086H8.18127C7.69206 12.1086 7.48943 12.72 7.885 13.0009L11.0294 15.2335C11.2062 15.3589 11.2804 15.5814 11.2126 15.785L10.0114 19.3975C9.86041 19.8519 10.3924 20.2298 10.788 19.9489L13.9323 17.7163C14.1091 17.5908 14.3489 17.5908 14.5257 17.7163L17.67 19.9489C18.0656 20.2298 18.5976 19.8519 18.4466 19.3975L17.2454 15.785C17.1776 15.5814 17.2519 15.3589 17.4287 15.2335L20.573 13.0009C20.9686 12.72 20.7651 12.1086 20.2767 12.1086H16.3897C16.1709 12.1086 15.9772 11.9713 15.9094 11.7677L14.7081 8.15527C14.558 7.70085 13.9 7.70085 13.7491 8.15527Z" fill="#B8CBFC"/>
</g>
</g>
<defs>
<filter id="filter0_ii_2523_22412" x="-1.46498" y="-0.884897" width="30.9319" height="30.9309" filterUnits="userSpaceOnUse" color-interpolation-filters="sRGB">
<feFlood flood-opacity="0" result="BackgroundImageFix"/>
<feBlend mode="normal" in="SourceGraphic" in2="BackgroundImageFix" result="shape"/>
<feColorMatrix in="SourceAlpha" type="matrix" values="0 0 0 0 0 0 0 0 0 0 0 0 0 0 0 0 0 0 127 0" result="hardAlpha"/>
<feOffset dx="3.79896" dy="3.79896"/>
<feGaussianBlur stdDeviation="1.89948"/>
<feComposite in2="hardAlpha" operator="arithmetic" k2="-1" k3="1"/>
<feColorMatrix type="matrix" values="0 0 0 0 1 0 0 0 0 1 0 0 0 0 1 0 0 0 0.32 0"/>
<feBlend mode="normal" in2="shape" result="effect1_innerShadow_2523_22412"/>
<feColorMatrix in="SourceAlpha" type="matrix" values="0 0 0 0 0 0 0 0 0 0 0 0 0 0 0 0 0 0 127 0" result="hardAlpha"/>
<feOffset dx="-3.79896" dy="-3.79896"/>
<feGaussianBlur stdDeviation="1.89948"/>
<feComposite in2="hardAlpha" operator="arithmetic" k2="-1" k3="1"/>
<feColorMatrix type="matrix" values="0 0 0 0 0 0 0 0 0 0 0 0 0 0 0 0 0 0 0.05 0"/>
<feBlend mode="normal" in2="effect1_innerShadow_2523_22412" result="effect2_innerShadow_2523_22412"/>
</filter>
</defs>
</svg>
