<svg width="18" height="18" viewBox="0 0 18 18" fill="none" xmlns="http://www.w3.org/2000/svg">
<g id="Icons">
<path id="Vector" d="M8.47992 9.5321V11.9602C8.47992 12.1057 8.53133 12.2298 8.63414 12.3325C8.73694 12.4353 8.86049 12.4867 9.00479 12.4867C9.14909 12.4867 9.27257 12.4353 9.37522 12.3325C9.47786 12.2298 9.52917 12.1057 9.52917 11.9602V9.5321H11.9609C12.1036 9.5321 12.2264 9.4807 12.3293 9.37788C12.4323 9.27507 12.4837 9.15152 12.4837 9.00722C12.4837 8.86292 12.4323 8.73945 12.3293 8.63681C12.2264 8.53417 12.1036 8.48285 11.9609 8.48285H9.52917V6.03596C9.52917 5.8933 9.47768 5.7705 9.37469 5.66756C9.27169 5.56461 9.14883 5.51314 9.0061 5.51314C8.86059 5.51314 8.73652 5.56461 8.63388 5.66756C8.53124 5.7705 8.47992 5.8933 8.47992 6.03596V8.48285H6.03663C5.89121 8.48285 5.76711 8.53435 5.66435 8.63733C5.56159 8.74032 5.51021 8.86318 5.51021 9.00592C5.51021 9.15142 5.56159 9.2755 5.66435 9.37815C5.76711 9.48078 5.89121 9.5321 6.03663 9.5321H8.47992ZM8.9987 15.9734C8.0343 15.9734 7.12764 15.7902 6.27871 15.4236C5.42979 15.057 4.69134 14.5596 4.06336 13.9312C3.43539 13.3028 2.93841 12.565 2.57242 11.7177C2.20643 10.8703 2.02344 9.965 2.02344 9.00163C2.02344 8.03723 2.20672 7.13057 2.57328 6.28164C2.93983 5.43272 3.4373 4.69427 4.06569 4.06629C4.69406 3.43832 5.43191 2.94134 6.27922 2.57535C7.12653 2.20936 8.03187 2.02637 8.99525 2.02637C9.95965 2.02637 10.8663 2.20965 11.7152 2.57621C12.5642 2.94276 13.3026 3.44023 13.9306 4.06862C14.5586 4.69699 15.0555 5.43483 15.4215 6.28215C15.7875 7.12946 15.9705 8.0348 15.9705 8.99818C15.9705 9.96258 15.7872 10.8692 15.4207 11.7182C15.0541 12.5671 14.5566 13.3055 13.9283 13.9335C13.2999 14.5615 12.562 15.0585 11.7147 15.4245C10.8674 15.7904 9.96207 15.9734 8.9987 15.9734Z" fill="#2D65F2"/>
</g>
</svg>
