<svg width="24" height="24" viewBox="0 0 24 24" fill="none" xmlns="http://www.w3.org/2000/svg">
<path d="M14.5078 18.2057L17.5057 15.198C17.6551 15.0493 17.8293 14.975 18.0285 14.975C18.2275 14.975 18.4046 15.0493 18.5598 15.198C18.7148 15.3468 18.7907 15.5251 18.7875 15.7327C18.7843 15.9404 18.7084 16.1186 18.5598 16.2673L15.1405 19.6865C14.9593 19.8673 14.7442 19.9578 14.495 19.9578C14.2458 19.9578 14.0308 19.8673 13.85 19.6865L12.5557 18.377C12.4071 18.2282 12.3312 18.0541 12.328 17.8548C12.3248 17.6554 12.4007 17.4782 12.5557 17.323C12.7046 17.1743 12.8797 17.1031 13.081 17.1093C13.2823 17.1154 13.4586 17.1867 13.6098 17.323L14.5078 18.2057ZM6.904 21C6.64783 21 6.43317 20.9133 6.26 20.74C6.08667 20.5668 6 20.3522 6 20.096V4.64425C6 4.38808 6.08667 4.17342 6.26 4.00025C6.43317 3.82708 6.64783 3.7405 6.904 3.7405H8.7115V2.904C8.7115 2.64783 8.79817 2.43317 8.9715 2.26C9.14467 2.08667 9.35933 2 9.6155 2H11.5C11.7562 2 11.9708 2.08667 12.144 2.26C12.3173 2.43317 12.404 2.64783 12.404 2.904V3.7405H14.2135C14.4698 3.7405 14.6843 3.82708 14.8568 4.00025C15.0293 4.17342 15.1155 4.38808 15.1155 4.64425V11.0173C15.1155 11.1814 15.06 11.3248 14.949 11.4473C14.8382 11.5696 14.7007 11.6423 14.5365 11.6655C13.8815 11.7743 13.2732 11.9794 12.7115 12.2808C12.15 12.5821 11.6524 12.9616 11.2188 13.4192C10.7229 13.9422 10.3286 14.5487 10.0357 15.2385C9.74275 15.9282 9.59625 16.6724 9.59625 17.4712C9.59625 17.9094 9.64175 18.333 9.73275 18.742C9.82375 19.1508 9.96025 19.5452 10.1423 19.925C10.2564 20.1827 10.2484 20.4263 10.1183 20.6558C9.98808 20.8853 9.79417 21 9.5365 21H6.904Z" fill="#2D65F2"/>
</svg>
