<svg width="24" height="24" viewBox="0 0 24 24" fill="none" xmlns="http://www.w3.org/2000/svg">
<path d="M8.84485 21.5961C8.60093 21.5961 8.39914 21.5159 8.23947 21.3554C8.07982 21.1949 8 20.9941 8 20.7528V5.38172C8 5.14047 8.08023 4.93962 8.2407 4.77915C8.40115 4.61868 8.602 4.53845 8.84325 4.53845H10.5903V3.84328C10.5903 3.60203 10.6706 3.40117 10.831 3.2407C10.9915 3.08023 11.1924 3 11.4336 3H13.298C13.5361 3 13.7361 3.08023 13.8982 3.2407C14.0603 3.40117 14.1413 3.60203 14.1413 3.84328V4.53845H15.8904C16.1287 4.53845 16.3285 4.61868 16.4898 4.77915C16.651 4.93962 16.7317 5.14047 16.7317 5.38172V20.7528C16.7317 20.9941 16.6506 21.1949 16.4886 21.3554C16.3265 21.5159 16.1265 21.5961 15.8884 21.5961H8.84485ZM9.399 7.99998H15.3326V5.92785H9.399V7.99998Z" fill="#2D65F2"/>
</svg>
