<svg width="33" height="33" viewBox="0 0 33 33" fill="none" xmlns="http://www.w3.org/2000/svg">
<g id="Icons">
<path id="Vector" d="M16.502 28.8973C14.7855 28.8973 13.1743 28.5717 11.6687 27.9203C10.163 27.2689 8.85072 26.3845 7.73183 25.2671C6.61294 24.1497 5.72817 22.8388 5.07753 21.3344C4.42688 19.83 4.10156 18.2196 4.10156 16.503C4.10156 14.7864 4.42725 13.1753 5.07863 11.6696C5.72998 10.164 6.61437 8.8517 7.7318 7.73281C8.8492 6.61392 10.1601 5.72915 11.6645 5.07851C13.1689 4.42786 14.7793 4.10254 16.4959 4.10254C18.2125 4.10254 19.8236 4.42823 21.3293 5.07961C22.8349 5.73096 24.1472 6.61535 25.2661 7.73277C26.385 8.85017 27.2698 10.1611 27.9204 11.6655C28.571 13.1699 28.8964 14.7803 28.8964 16.4969C28.8964 18.2135 28.5707 19.8246 27.9193 21.3302C27.2679 22.8359 26.3836 24.1482 25.2661 25.2671C24.1487 26.386 22.8378 27.2707 21.3334 27.9214C19.8291 28.572 18.2186 28.8973 16.502 28.8973ZM16.4656 25.4153C16.6973 25.4153 16.8979 25.3305 17.0675 25.1608C17.2372 24.9912 17.322 24.7913 17.322 24.5613V23.8253C18.3271 23.6973 19.2472 23.3216 20.0823 22.6984C20.9173 22.0751 21.3348 21.1244 21.3348 19.8464C21.3348 18.9197 21.0671 18.1089 20.5316 17.4141C19.9962 16.7193 18.9314 16.0923 17.3374 15.5333C15.9357 15.0547 15.0139 14.6401 14.572 14.2897C14.1301 13.9393 13.9092 13.4495 13.9092 12.8204C13.9092 12.1914 14.1447 11.6758 14.6156 11.2736C15.0866 10.8715 15.7366 10.6704 16.5656 10.6704C17.0614 10.6704 17.4962 10.7632 17.8701 10.9486C18.2441 11.1341 18.5637 11.3816 18.8291 11.691C18.9783 11.8781 19.1562 12.0093 19.3631 12.0845C19.5699 12.1597 19.7667 12.1546 19.9535 12.0691C20.1893 11.9734 20.3494 11.8133 20.4338 11.5886C20.5183 11.364 20.4943 11.1576 20.3618 10.9692C20.0166 10.4649 19.5829 10.0506 19.0609 9.72634C18.5388 9.40205 17.9814 9.21762 17.3887 9.17304V8.43787C17.3887 8.20832 17.3039 8.00871 17.1342 7.83904C16.9646 7.66939 16.7639 7.58457 16.5323 7.58457C16.3007 7.58457 16.1 7.66939 15.9304 7.83904C15.7607 8.00871 15.6759 8.20832 15.6759 8.43787V9.17304C14.5571 9.37388 13.6975 9.82177 13.0971 10.5167C12.4966 11.2117 12.1964 11.9796 12.1964 12.8204C12.1964 13.8085 12.4909 14.5976 13.0798 15.1877C13.6687 15.7779 14.6486 16.3192 16.0195 16.8115C17.4255 17.3311 18.3817 17.7924 18.8881 18.1953C19.3945 18.5982 19.6477 19.1485 19.6477 19.8461C19.6477 20.682 19.3432 21.2938 18.7342 21.6814C18.1253 22.069 17.4468 22.2628 16.699 22.2628C16.0656 22.2628 15.4865 22.1047 14.9615 21.7884C14.4365 21.4722 14.0024 21.0093 13.6592 20.3999C13.5378 20.1905 13.3727 20.0446 13.1637 19.9621C12.9547 19.8797 12.7495 19.8795 12.548 19.9616C12.3185 20.0522 12.1534 20.2129 12.0527 20.4436C11.9519 20.6743 11.9548 20.8906 12.0613 21.0924C12.442 21.8265 12.9259 22.41 13.513 22.843C14.1001 23.276 14.7988 23.5817 15.6092 23.7602V24.5618C15.6092 24.7915 15.6941 24.9912 15.8637 25.1608C16.0334 25.3305 16.234 25.4153 16.4656 25.4153Z" fill="#999999"/>
</g>
</svg>
