<svg width="24" height="24" viewBox="0 0 24 24" fill="none" xmlns="http://www.w3.org/2000/svg">
<path d="M6.904 21C6.64783 21 6.43317 20.9133 6.26 20.74C6.08667 20.5668 6 20.3522 6 20.096V4.64425C6 4.38808 6.08667 4.17342 6.26 4.00025C6.43317 3.82708 6.64783 3.7405 6.904 3.7405H8.7115V2H12.404V3.7405H14.2135C14.4698 3.7405 14.6843 3.82708 14.8568 4.00025C15.0293 4.17342 15.1155 4.38808 15.1155 4.64425V11.5963C13.5705 11.6963 12.2644 12.3062 11.1972 13.426C10.1299 14.5458 9.59625 15.8942 9.59625 17.4712C9.59625 18.1352 9.70075 18.7673 9.90975 19.3673C10.1186 19.9673 10.4167 20.5115 10.804 21H6.904ZM7.5 7.423H13.6155V5.23075H7.5V7.423ZM15.0962 21.2402V18.423H13.077L16.0193 13.7598V16.577H18.0385L15.0962 21.2402Z" fill="#2D65F2"/>
</svg>
