<svg width="18" height="18" viewBox="0 0 18 18" fill="none" xmlns="http://www.w3.org/2000/svg">
<path d="M9.01327 13.8737L11.407 8.33785C11.4542 8.22883 11.4456 8.12804 11.3813 8.03549C11.317 7.94294 11.2285 7.89666 11.1157 7.89666H9.37633V4.13907C9.37633 4.04896 9.33282 3.99789 9.24581 3.98586C9.15879 3.97385 9.09857 4.00636 9.06516 4.0834L6.67144 9.62933C6.62185 9.7403 6.6292 9.84163 6.6935 9.93335C6.7578 10.0251 6.84753 10.0709 6.96268 10.0709H8.70208V13.8148C8.70208 13.9079 8.74499 13.9603 8.8308 13.9717C8.91662 13.9832 8.97745 13.9505 9.01327 13.8737ZM8.99936 15.9736C8.0353 15.9736 7.12858 15.7917 6.2792 15.428C5.42984 15.0643 4.69073 14.5678 4.06187 13.9385C3.433 13.3092 2.93654 12.5702 2.57246 11.7215C2.2084 10.8728 2.02637 9.96608 2.02637 9.00128C2.02637 8.03218 2.20822 7.12416 2.57194 6.27723C2.93565 5.43028 3.43215 4.69211 4.06145 4.06274C4.69077 3.43338 5.42976 2.93666 6.27844 2.57258C7.12711 2.20852 8.03385 2.02649 8.99865 2.02649C9.96775 2.02649 10.8758 2.20831 11.7229 2.57196C12.57 2.9356 13.3083 3.43202 13.9378 4.06122C14.5673 4.69042 15.0639 5.42837 15.4277 6.27507C15.7915 7.12177 15.9734 8.03027 15.9734 9.00057C15.9734 9.96463 15.7916 10.8714 15.4279 11.7207C15.0642 12.5701 14.5677 13.3092 13.9384 13.9381C13.309 14.5669 12.5711 15.0634 11.7246 15.4275C10.8781 15.7915 9.96966 15.9736 8.99936 15.9736Z" fill="#2D65F2"/>
</svg>
