<svg width="18" height="18" viewBox="0 0 18 18" fill="none" xmlns="http://www.w3.org/2000/svg">
<path d="M7.4742 14.5969V13.164L5.36108 11.0509C5.24195 10.9318 5.14883 10.7932 5.0817 10.6352C5.0147 10.4774 4.9812 10.3124 4.9812 10.1402V7.0431C4.9812 6.68985 5.10633 6.38791 5.35658 6.13729C5.60683 5.88666 5.90833 5.76135 6.26108 5.76135H7.15245L6.62614 6.2841V3.2841C6.62614 3.14148 6.67751 3.01873 6.78026 2.91585C6.88314 2.81285 7.0067 2.76135 7.15095 2.76135C7.2952 2.76135 7.41858 2.81285 7.52108 2.91585C7.62358 3.01873 7.67483 3.14148 7.67483 3.2841V5.73116H10.3248V3.2841C10.3248 3.14148 10.3762 3.01873 10.4791 2.91585C10.5818 2.81285 10.7054 2.76135 10.8498 2.76135C10.994 2.76135 11.1175 2.81285 11.2201 2.91585C11.3227 3.01873 11.374 3.14148 11.374 3.2841V6.2841L10.8513 5.76135H11.7391C12.0918 5.76135 12.3933 5.88666 12.6436 6.13729C12.8938 6.38779 13.019 6.68966 13.019 7.04291V10.1399C13.019 10.3101 12.9855 10.4747 12.9185 10.6337C12.8513 10.7927 12.7582 10.9318 12.6391 11.0509L10.526 13.164V14.5969C10.526 14.775 10.4635 14.9265 10.3385 15.0514C10.2133 15.1763 10.0631 15.2387 9.88789 15.2387H8.11601C7.93789 15.2387 7.78639 15.1763 7.66151 15.0514C7.53664 14.9265 7.4742 14.775 7.4742 14.5969Z" fill="#2D65F2"/>
</svg>
