<svg width="18" height="18" viewBox="0 0 18 18" fill="none" xmlns="http://www.w3.org/2000/svg">
<path d="M6.35973 15.9735C6.17761 15.9735 6.02667 15.9136 5.90692 15.7939C5.78717 15.6741 5.72729 15.5232 5.72729 15.3411V3.8128C5.72729 3.63068 5.78717 3.47974 5.90692 3.35999C6.02667 3.24024 6.17761 3.18036 6.35973 3.18036H7.67017V2.65893C7.67017 2.4768 7.73005 2.32586 7.8498 2.20611C7.96955 2.08636 8.12048 2.02649 8.30261 2.02649H9.7008C9.88055 2.02649 10.0309 2.08636 10.1519 2.20611C10.2728 2.32586 10.3332 2.4768 10.3332 2.65893V3.18036H11.6437C11.8234 3.18036 11.9737 3.24024 12.0946 3.35999C12.2156 3.47974 12.2761 3.63068 12.2761 3.8128V7.4503C12.2761 7.5978 12.2253 7.72255 12.1237 7.82455C12.0219 7.92643 11.8994 7.98868 11.7562 8.0113C10.6134 8.20455 9.65767 8.74555 8.88892 9.6343C8.12017 10.5229 7.73579 11.5678 7.73579 12.7689C7.73579 13.2058 7.79505 13.6301 7.91355 14.0419C8.03205 14.4537 8.20448 14.8452 8.43086 15.2164C8.53086 15.3885 8.53861 15.5577 8.45411 15.7239C8.36961 15.8903 8.23448 15.9735 8.04873 15.9735H6.35973ZM12.334 15.9735C12.2498 15.9735 12.18 15.9484 12.1248 15.8981C12.0695 15.8477 12.0313 15.7827 12.01 15.7031L11.914 15.132C11.689 15.0695 11.494 14.9911 11.3289 14.8969C11.1637 14.8026 11.0084 14.6805 10.8627 14.5305L10.3092 14.754C10.2325 14.7862 10.1579 14.7909 10.0854 14.7681C10.013 14.7453 9.95542 14.7005 9.91267 14.6336L9.6468 14.1945C9.5968 14.1272 9.57998 14.0534 9.59636 13.9731C9.61273 13.8927 9.65217 13.8249 9.71467 13.7696L10.1804 13.3948C10.1179 13.1639 10.0867 12.9492 10.0867 12.7507C10.0867 12.5521 10.1179 12.3362 10.1804 12.1031L9.71467 11.7281C9.65217 11.6729 9.61273 11.6051 9.59636 11.5247C9.57998 11.4443 9.5968 11.3706 9.6468 11.3034L9.91267 10.8641C9.95542 10.7997 10.013 10.7561 10.0854 10.7332C10.1579 10.7105 10.2325 10.714 10.3092 10.7437L10.8627 10.9672C11.0084 10.8197 11.1637 10.6979 11.3289 10.6016C11.494 10.5055 11.689 10.4262 11.914 10.3637L12.0134 9.79555C12.0313 9.71468 12.0682 9.64893 12.124 9.5983C12.1798 9.54755 12.2498 9.52218 12.334 9.52218H12.8075C12.8892 9.52218 12.9577 9.5473 13.013 9.59755C13.0682 9.64793 13.1065 9.71293 13.1277 9.79255L13.2237 10.3637C13.4487 10.4262 13.6438 10.5046 13.8089 10.5988C13.974 10.6931 14.1307 10.814 14.2788 10.9616L14.8285 10.7379C14.9053 10.7082 14.9799 10.7047 15.0524 10.7276C15.1248 10.7504 15.1836 10.794 15.2289 10.8585L15.4945 11.2976C15.5422 11.3672 15.5578 11.4422 15.5414 11.5226C15.525 11.603 15.4869 11.6696 15.4269 11.7223L14.9574 12.1009C15.0199 12.3317 15.0511 12.5464 15.0511 12.7449C15.0511 12.9436 15.0199 13.1582 14.9574 13.389L15.4269 13.7676C15.4869 13.8227 15.525 13.8905 15.5414 13.971C15.5578 14.0514 15.5422 14.1251 15.4945 14.1922L15.2257 14.6344C15.1843 14.6982 15.1273 14.7412 15.0547 14.7634C14.982 14.7855 14.909 14.7813 14.8355 14.7508L14.2788 14.5305C14.1307 14.6805 13.974 14.8026 13.8089 14.8969C13.6438 14.9911 13.4487 15.0695 13.2237 15.132L13.1244 15.7001C13.1065 15.781 13.0697 15.8467 13.0139 15.8974C12.958 15.9481 12.8892 15.9735 12.8075 15.9735H12.334ZM12.569 14.3055C12.9959 14.3055 13.3622 14.1526 13.6679 13.8469C13.9737 13.5411 14.1265 13.1747 14.1265 12.7477C14.1265 12.3209 13.9737 11.9546 13.6679 11.6488C13.3622 11.3431 12.9959 11.1902 12.569 11.1902C12.142 11.1902 11.7756 11.3431 11.4699 11.6488C11.1641 11.9546 11.0112 12.3209 11.0112 12.7477C11.0112 13.1747 11.1641 13.5411 11.4699 13.8469C11.7756 14.1526 12.142 14.3055 12.569 14.3055Z" fill="#2D65F2"/>
</svg>
