<svg width="60" height="60" viewBox="0 0 60 60" fill="none" xmlns="http://www.w3.org/2000/svg">
<rect width="60" height="60" rx="30" fill="#FF0000" fillOpacity="0.06"/>
<path d="M30.0002 37.7165C30.3674 37.7165 30.6731 37.5959 30.9172 37.3547C31.1613 37.1135 31.2834 36.8093 31.2834 36.442C31.2834 36.0748 31.1628 35.7691 30.9216 35.525C30.6804 35.2809 30.3762 35.1588 30.0089 35.1588C29.6417 35.1588 29.336 35.2794 29.0919 35.5206C28.8478 35.7618 28.7257 36.066 28.7257 36.4333C28.7257 36.8005 28.8463 37.1062 29.0875 37.3503C29.3287 37.5944 29.6329 37.7165 30.0002 37.7165ZM30.0219 31.795C30.3426 31.795 30.617 31.6809 30.8451 31.4525C31.0732 31.2241 31.1872 30.9484 31.1872 30.6252V23.0915C31.1872 22.7745 31.0728 22.5016 30.8439 22.2728C30.615 22.044 30.342 21.9297 30.0249 21.9297C29.7015 21.9297 29.4258 22.044 29.1977 22.2728C28.9696 22.5016 28.8556 22.7745 28.8556 23.0915V30.6252C28.8556 30.9484 28.9698 31.2241 29.1983 31.4525C29.4267 31.6809 29.7013 31.795 30.0219 31.795ZM30.0084 45.4969C27.8653 45.4969 25.8505 45.0896 23.964 44.275C22.0775 43.4605 20.4365 42.355 19.041 40.9586C17.6455 39.5622 16.5411 37.9225 15.7278 36.0396C14.9145 34.1567 14.5078 32.1448 14.5078 30.004C14.5078 27.8609 14.9151 25.8461 15.7297 23.9596C16.5442 22.0731 17.6497 20.4321 19.0461 19.0366C20.4425 17.6411 22.0822 16.5367 23.9651 15.7234C25.848 14.9101 27.8599 14.5034 30.0007 14.5034C32.1438 14.5034 34.1586 14.9107 36.0451 15.7253C37.9316 16.5398 39.5726 17.6453 40.9681 19.0418C42.3636 20.4381 43.4681 22.0778 44.2814 23.9607C45.0947 25.8436 45.5013 27.8555 45.5013 29.9963C45.5013 32.1394 45.094 34.1543 44.2794 36.0408C43.4649 37.9273 42.3594 39.5683 40.963 40.9638C39.5666 42.3593 37.9269 43.4637 36.044 44.277C34.1611 45.0903 32.1492 45.4969 30.0084 45.4969Z" fill="#FF0000"/>
</svg>
