<svg width="16" height="16" viewBox="0 0 16 16" fill="none" xmlns="http://www.w3.org/2000/svg">
<rect width="16" height="16" rx="8" fill="#FF0000"/>
<path d="M8.00015 8.49797L5.47995 11.0182C5.41072 11.0874 5.32835 11.1218 5.23284 11.1213C5.13733 11.1208 5.05416 11.0852 4.98332 11.0143C4.91506 10.9435 4.88156 10.8618 4.88285 10.7691C4.88413 10.6765 4.91891 10.5961 4.98717 10.5278L7.50352 8.00135L4.98717 5.4749C4.92211 5.40984 4.88877 5.33019 4.88717 5.23596C4.88557 5.14173 4.91891 5.0592 4.98717 4.98837C5.05544 4.91754 5.13653 4.88108 5.23044 4.879C5.32434 4.87691 5.40751 4.91129 5.47995 4.98212L8.00015 7.50472L10.5227 4.98212C10.5904 4.9145 10.6719 4.88092 10.7675 4.8814C10.863 4.88188 10.9469 4.91754 11.0194 4.98837C11.086 5.0592 11.1187 5.14093 11.1174 5.23356C11.1162 5.32618 11.0814 5.40663 11.0131 5.4749L8.49677 8.00135L11.0131 10.5278C11.0782 10.5929 11.1115 10.6725 11.1131 10.7667C11.1147 10.861 11.0814 10.9435 11.0131 11.0143C10.9449 11.0852 10.8638 11.1216 10.7699 11.1237C10.676 11.1258 10.5936 11.0906 10.5227 11.0182L8.00015 8.49797Z" fill="white"/>
</svg>
