<svg width="16" height="16" viewBox="0 0 16 16" fill="none" xmlns="http://www.w3.org/2000/svg">
<rect width="16" height="16" rx="8" fill="#FF0000"/>
<path d="M8.00015 8.49602L5.47995 11.0162C5.41072 11.0854 5.32835 11.1198 5.23284 11.1193C5.13733 11.1189 5.05416 11.0832 4.98332 11.0124C4.91506 10.9415 4.88156 10.8598 4.88285 10.7672C4.88413 10.6746 4.91891 10.5941 4.98717 10.5258L7.50352 7.99939L4.98717 5.47294C4.92211 5.40788 4.88877 5.32824 4.88717 5.234C4.88557 5.13978 4.91891 5.05725 4.98717 4.98642C5.05544 4.91558 5.13653 4.87913 5.23044 4.87704C5.32434 4.87496 5.40751 4.90933 5.47995 4.98017L8.00015 7.50277L10.5227 4.98017C10.5904 4.91254 10.6719 4.87897 10.7675 4.87944C10.863 4.87993 10.9469 4.91558 11.0194 4.98642C11.086 5.05725 11.1187 5.13898 11.1174 5.23161C11.1162 5.32423 11.0814 5.40468 11.0131 5.47294L8.49677 7.99939L11.0131 10.5258C11.0782 10.5909 11.1115 10.6705 11.1131 10.7648C11.1147 10.859 11.0814 10.9415 11.0131 11.0124C10.9449 11.0832 10.8638 11.1197 10.7699 11.1217C10.676 11.1238 10.5936 11.0887 10.5227 11.0162L8.00015 8.49602Z" fill="white"/>
</svg>
