<svg width="60" height="60" viewBox="0 0 60 60" fill="none" xmlns="http://www.w3.org/2000/svg">
<rect width="60" height="60" rx="30" fill="#FF0000" fillOpacity="0.06"/>
<path fillRule="evenodd" clipRule="evenodd" d="M30 45.5C38.5604 45.5 45.5 38.5604 45.5 30C45.5 21.4396 38.5604 14.5 30 14.5C21.4396 14.5 14.5 21.4396 14.5 30C14.5 38.5604 21.4396 45.5 30 45.5ZM23.9332 22.2891C23.4792 21.8351 22.7431 21.8351 22.2891 22.2891C21.8352 22.7431 21.8352 23.4791 22.2891 23.9331L36.9027 38.5467C37.3567 39.0007 38.0927 39.0007 38.5467 38.5467C39.0007 38.0927 39.0007 37.3566 38.5467 36.9027L23.9332 22.2891Z" fill="#FF0000"/>
</svg>
