<svg width="32" height="32" viewBox="0 0 32 32" fill="none" xmlns="http://www.w3.org/2000/svg">
<g id="Group 1707478577">
<g id="Exclude" filter="url(#filter0_ii_1356_35531)">
<path fillRule="evenodd" clipRule="evenodd" d="M8.0727 29.8769C2.69181 26.8087 -0.634472 20.7439 0.101583 14.1983C1.08774 5.42663 8.99804 -0.884721 17.7708 0.101508C26.5424 1.08774 32.8538 8.99817 31.8677 17.7697C31.5538 20.5613 30.5384 23.1035 29.0174 25.2408C27.5018 27.0186 25.1905 28.6729 23.5742 24.9789C23.2739 24.2937 22.6157 23.0462 20.8305 23.0634C18.1826 23.0898 16.6853 25.4276 17.7392 29.8853C17.9944 30.9606 17.319 31.8418 15.9782 31.9685C15.3936 32.0237 14.7891 32.0024 14.1913 31.9352C12.0021 31.6891 9.97426 30.9443 8.16616 29.9304C8.13535 29.9132 8.10351 29.8949 8.0727 29.8769ZM20.9888 19.8043C20.9112 21.4608 19.5056 22.7407 17.8488 22.6631C16.1924 22.5855 14.9124 21.1797 14.9902 19.5229C15.0678 17.8665 16.4736 16.5865 18.1302 16.6642C19.7868 16.7419 21.0665 18.1478 20.9888 19.8043Z" fill="#B8CBFC"/>
</g>
<g id="Vector" filter="url(#filter1_ii_1356_35531)">
<path d="M13.1951 3.63754C13.1307 5.01122 14.192 6.17692 15.5656 6.24129C16.9393 6.30565 18.1049 5.24436 18.1692 3.87068C18.2336 2.497 17.1724 1.3313 15.7988 1.26693C14.4251 1.20267 13.2594 2.26396 13.1951 3.63754Z" fill="white"/>
</g>
<g id="Vector_2" filter="url(#filter2_ii_1356_35531)">
<path d="M13.9028 26.918C13.8384 28.2916 12.6728 29.353 11.2992 29.2887C10.388 29.2459 9.61476 28.7183 9.21568 27.9673C9.10864 27.6692 9.05654 27.3457 9.07237 27.0095C9.07615 26.9285 9.08411 26.8482 9.09554 26.7694C9.27574 25.5144 10.3838 24.5784 11.6761 24.639C12.5895 24.6818 13.3626 25.2125 13.7605 25.9664C13.8405 26.1908 13.8903 26.4291 13.9025 26.6768C13.9063 26.7565 13.9067 26.8369 13.9028 26.918Z" fill="#2D65F2"/>
</g>
<g id="Vector_3" filter="url(#filter3_ii_1356_35531)">
<path d="M8.27031 4.2959C8.31036 4.30083 8.34894 4.30942 8.38846 4.31623C8.42819 4.31319 8.4675 4.30827 8.50786 4.30711C9.78782 4.46488 10.7493 5.58456 10.6879 6.89388C10.6266 8.2032 9.56454 9.22811 8.27545 9.26533C8.23541 9.2604 8.19673 9.2518 8.15741 9.24499C8.11747 9.24803 8.07816 9.25306 8.03781 9.25422C6.75805 9.09645 5.79635 7.97677 5.85767 6.66745C5.9191 5.35813 6.98133 4.33332 8.27031 4.2959ZM6.09543 6.67856C6.09165 6.75918 6.09186 6.83895 6.09563 6.91789C6.09175 6.83885 6.09155 6.75907 6.09543 6.67856ZM6.13389 6.35632C6.1427 6.30736 6.15067 6.25799 6.16231 6.21008C6.15067 6.25809 6.1427 6.30736 6.13389 6.35632ZM6.19197 6.10651C6.20319 6.0672 6.21346 6.02736 6.22656 5.98889C6.21346 6.02736 6.20329 6.0672 6.19197 6.10651ZM6.27101 5.87484C6.28401 5.84244 6.29575 5.80942 6.31011 5.77766C6.29586 5.80942 6.28412 5.84244 6.27101 5.87484ZM6.3706 5.65669C6.38423 5.63027 6.39691 5.60312 6.41159 5.57733C6.39691 5.60312 6.38413 5.63027 6.3706 5.65669ZM6.48916 5.45143C6.50258 5.43057 6.51506 5.40918 6.5291 5.38874C6.51495 5.40918 6.50248 5.43057 6.48916 5.45143ZM6.62544 5.25991C6.6376 5.24439 6.64934 5.22814 6.66192 5.21294C6.64934 5.22814 6.6376 5.24429 6.62544 5.25991ZM6.77797 5.08348C6.78845 5.07258 6.7983 5.06126 6.809 5.05046C6.7983 5.06115 6.78845 5.07258 6.77797 5.08348ZM6.94496 4.9233C6.95303 4.91628 6.96068 4.90883 6.96896 4.90181C6.96068 4.90873 6.95303 4.91617 6.94496 4.9233ZM7.51586 4.54812C7.5168 4.5477 7.51796 4.54717 7.51869 4.54675C7.51796 4.54728 7.5168 4.5478 7.51586 4.54812ZM7.12474 4.78C7.1303 4.77602 7.13564 4.77182 7.1412 4.76784C7.13554 4.77182 7.1303 4.77612 7.12474 4.78ZM7.31543 4.65494C7.31857 4.65305 7.32161 4.65116 7.32465 4.64928C7.32161 4.65106 7.31868 4.65305 7.31543 4.65494ZM6.79893 8.52922C6.79139 8.52156 6.78436 8.51339 6.77692 8.50553C6.78447 8.51349 6.79139 8.52156 6.79893 8.52922ZM7.12946 8.81393C7.12663 8.81173 7.1238 8.80953 7.12086 8.80743C7.1238 8.80953 7.12652 8.81184 7.12946 8.81393ZM6.95785 8.6787C6.95261 8.67419 6.94769 8.66958 6.94266 8.66508C6.94779 8.66948 6.95261 8.67419 6.95785 8.6787ZM6.19512 7.49518C6.20518 7.52873 6.21367 7.56269 6.22489 7.59561C6.21357 7.56269 6.20497 7.52873 6.19512 7.49518ZM6.37259 7.93714C6.38391 7.95916 6.3944 7.98169 6.40645 8.00329C6.3944 7.98159 6.38391 7.95916 6.37259 7.93714ZM6.62586 8.33046C6.63509 8.34231 6.64389 8.35457 6.65364 8.36621C6.64399 8.35457 6.63509 8.34241 6.62586 8.33046Z" fill="white"/>
</g>
<g id="Vector_4" filter="url(#filter4_ii_1356_35531)">
<path d="M4.13167 15.5903C3.1229 15.543 2.28322 14.9014 1.93351 14.02C1.9029 13.8438 1.89032 13.6617 1.89913 13.4756C1.96349 12.1019 3.12909 11.0406 4.50277 11.105C5.51165 11.1522 6.35112 11.7938 6.70093 12.6752C6.73154 12.8515 6.74423 13.0336 6.73542 13.2197C6.67106 14.5934 5.50546 15.6548 4.13167 15.5903Z" fill="white"/>
</g>
<g id="Vector_5" filter="url(#filter5_ii_1356_35531)">
<path d="M7.90979 21.6522C7.84543 23.0258 6.67984 24.0872 5.30605 24.0227C4.39487 23.9802 3.62165 23.4526 3.22267 22.7014C3.11554 22.4034 3.06344 22.0797 3.07916 21.7435C3.08304 21.6625 3.0909 21.5824 3.10243 21.5034C3.28264 20.2485 4.39057 19.3126 5.68301 19.3731C6.59639 19.4159 7.3695 19.9467 7.76744 20.7006C7.84753 20.925 7.89722 21.1633 7.90927 21.411C7.91315 21.4905 7.91357 21.5709 7.90979 21.6522Z" fill="#2D65F2"/>
</g>
</g>
<defs>
<filter id="filter0_ii_1356_35531" x="-0.80355" y="-0.80355" width="33.5763" height="33.6071" filterUnits="userSpaceOnUse" color-interpolation-filters="sRGB">
<feFlood flood-opacity="0" result="BackgroundImageFix"/>
<feBlend mode="normal" in="SourceGraphic" in2="BackgroundImageFix" result="shape"/>
<feColorMatrix in="SourceAlpha" type="matrix" values="0 0 0 0 0 0 0 0 0 0 0 0 0 0 0 0 0 0 127 0" result="hardAlpha"/>
<feOffset dx="0.80355" dy="0.80355"/>
<feGaussianBlur stdDeviation="0.401775"/>
<feComposite in2="hardAlpha" operator="arithmetic" k2="-1" k3="1"/>
<feColorMatrix type="matrix" values="0 0 0 0 1 0 0 0 0 1 0 0 0 0 1 0 0 0 0.32 0"/>
<feBlend mode="normal" in2="shape" result="effect1_innerShadow_1356_35531"/>
<feColorMatrix in="SourceAlpha" type="matrix" values="0 0 0 0 0 0 0 0 0 0 0 0 0 0 0 0 0 0 127 0" result="hardAlpha"/>
<feOffset dx="-0.80355" dy="-0.80355"/>
<feGaussianBlur stdDeviation="0.401775"/>
<feComposite in2="hardAlpha" operator="arithmetic" k2="-1" k3="1"/>
<feColorMatrix type="matrix" values="0 0 0 0 0 0 0 0 0 0 0 0 0 0 0 0 0 0 0.05 0"/>
<feBlend mode="normal" in2="effect1_innerShadow_1356_35531" result="effect2_innerShadow_1356_35531"/>
</filter>
<filter id="filter1_ii_1356_35531" x="12.3887" y="0.46061" width="6.58684" height="6.58696" filterUnits="userSpaceOnUse" color-interpolation-filters="sRGB">
<feFlood flood-opacity="0" result="BackgroundImageFix"/>
<feBlend mode="normal" in="SourceGraphic" in2="BackgroundImageFix" result="shape"/>
<feColorMatrix in="SourceAlpha" type="matrix" values="0 0 0 0 0 0 0 0 0 0 0 0 0 0 0 0 0 0 127 0" result="hardAlpha"/>
<feOffset dx="0.80355" dy="0.80355"/>
<feGaussianBlur stdDeviation="0.401775"/>
<feComposite in2="hardAlpha" operator="arithmetic" k2="-1" k3="1"/>
<feColorMatrix type="matrix" values="0 0 0 0 1 0 0 0 0 1 0 0 0 0 1 0 0 0 0.32 0"/>
<feBlend mode="normal" in2="shape" result="effect1_innerShadow_1356_35531"/>
<feColorMatrix in="SourceAlpha" type="matrix" values="0 0 0 0 0 0 0 0 0 0 0 0 0 0 0 0 0 0 127 0" result="hardAlpha"/>
<feOffset dx="-0.80355" dy="-0.80355"/>
<feGaussianBlur stdDeviation="0.401775"/>
<feComposite in2="hardAlpha" operator="arithmetic" k2="-1" k3="1"/>
<feColorMatrix type="matrix" values="0 0 0 0 0 0 0 0 0 0 0 0 0 0 0 0 0 0 0.05 0"/>
<feBlend mode="normal" in2="effect1_innerShadow_1356_35531" result="effect2_innerShadow_1356_35531"/>
</filter>
<filter id="filter2_ii_1356_35531" x="8.26603" y="23.8327" width="6.44304" height="6.26237" filterUnits="userSpaceOnUse" color-interpolation-filters="sRGB">
<feFlood flood-opacity="0" result="BackgroundImageFix"/>
<feBlend mode="normal" in="SourceGraphic" in2="BackgroundImageFix" result="shape"/>
<feColorMatrix in="SourceAlpha" type="matrix" values="0 0 0 0 0 0 0 0 0 0 0 0 0 0 0 0 0 0 127 0" result="hardAlpha"/>
<feOffset dx="0.80355" dy="0.80355"/>
<feGaussianBlur stdDeviation="0.401775"/>
<feComposite in2="hardAlpha" operator="arithmetic" k2="-1" k3="1"/>
<feColorMatrix type="matrix" values="0 0 0 0 1 0 0 0 0 1 0 0 0 0 1 0 0 0 0.32 0"/>
<feBlend mode="normal" in2="shape" result="effect1_innerShadow_1356_35531"/>
<feColorMatrix in="SourceAlpha" type="matrix" values="0 0 0 0 0 0 0 0 0 0 0 0 0 0 0 0 0 0 127 0" result="hardAlpha"/>
<feOffset dx="-0.80355" dy="-0.80355"/>
<feGaussianBlur stdDeviation="0.401775"/>
<feComposite in2="hardAlpha" operator="arithmetic" k2="-1" k3="1"/>
<feColorMatrix type="matrix" values="0 0 0 0 0 0 0 0 0 0 0 0 0 0 0 0 0 0 0.05 0"/>
<feBlend mode="normal" in2="effect1_innerShadow_1356_35531" result="effect2_innerShadow_1356_35531"/>
</filter>
<filter id="filter3_ii_1356_35531" x="5.05137" y="3.49235" width="6.44285" height="6.57658" filterUnits="userSpaceOnUse" color-interpolation-filters="sRGB">
<feFlood flood-opacity="0" result="BackgroundImageFix"/>
<feBlend mode="normal" in="SourceGraphic" in2="BackgroundImageFix" result="shape"/>
<feColorMatrix in="SourceAlpha" type="matrix" values="0 0 0 0 0 0 0 0 0 0 0 0 0 0 0 0 0 0 127 0" result="hardAlpha"/>
<feOffset dx="0.80355" dy="0.80355"/>
<feGaussianBlur stdDeviation="0.401775"/>
<feComposite in2="hardAlpha" operator="arithmetic" k2="-1" k3="1"/>
<feColorMatrix type="matrix" values="0 0 0 0 1 0 0 0 0 1 0 0 0 0 1 0 0 0 0.32 0"/>
<feBlend mode="normal" in2="shape" result="effect1_innerShadow_1356_35531"/>
<feColorMatrix in="SourceAlpha" type="matrix" values="0 0 0 0 0 0 0 0 0 0 0 0 0 0 0 0 0 0 127 0" result="hardAlpha"/>
<feOffset dx="-0.80355" dy="-0.80355"/>
<feGaussianBlur stdDeviation="0.401775"/>
<feComposite in2="hardAlpha" operator="arithmetic" k2="-1" k3="1"/>
<feColorMatrix type="matrix" values="0 0 0 0 0 0 0 0 0 0 0 0 0 0 0 0 0 0 0.05 0"/>
<feBlend mode="normal" in2="effect1_innerShadow_1356_35531" result="effect2_innerShadow_1356_35531"/>
</filter>
<filter id="filter4_ii_1356_35531" x="1.09281" y="10.2986" width="6.4489" height="6.09794" filterUnits="userSpaceOnUse" color-interpolation-filters="sRGB">
<feFlood flood-opacity="0" result="BackgroundImageFix"/>
<feBlend mode="normal" in="SourceGraphic" in2="BackgroundImageFix" result="shape"/>
<feColorMatrix in="SourceAlpha" type="matrix" values="0 0 0 0 0 0 0 0 0 0 0 0 0 0 0 0 0 0 127 0" result="hardAlpha"/>
<feOffset dx="0.80355" dy="0.80355"/>
<feGaussianBlur stdDeviation="0.401775"/>
<feComposite in2="hardAlpha" operator="arithmetic" k2="-1" k3="1"/>
<feColorMatrix type="matrix" values="0 0 0 0 1 0 0 0 0 1 0 0 0 0 1 0 0 0 0.32 0"/>
<feBlend mode="normal" in2="shape" result="effect1_innerShadow_1356_35531"/>
<feColorMatrix in="SourceAlpha" type="matrix" values="0 0 0 0 0 0 0 0 0 0 0 0 0 0 0 0 0 0 127 0" result="hardAlpha"/>
<feOffset dx="-0.80355" dy="-0.80355"/>
<feGaussianBlur stdDeviation="0.401775"/>
<feComposite in2="hardAlpha" operator="arithmetic" k2="-1" k3="1"/>
<feColorMatrix type="matrix" values="0 0 0 0 0 0 0 0 0 0 0 0 0 0 0 0 0 0 0.05 0"/>
<feBlend mode="normal" in2="effect1_innerShadow_1356_35531" result="effect2_innerShadow_1356_35531"/>
</filter>
<filter id="filter5_ii_1356_35531" x="2.27287" y="18.5668" width="6.4431" height="6.26225" filterUnits="userSpaceOnUse" color-interpolation-filters="sRGB">
<feFlood flood-opacity="0" result="BackgroundImageFix"/>
<feBlend mode="normal" in="SourceGraphic" in2="BackgroundImageFix" result="shape"/>
<feColorMatrix in="SourceAlpha" type="matrix" values="0 0 0 0 0 0 0 0 0 0 0 0 0 0 0 0 0 0 127 0" result="hardAlpha"/>
<feOffset dx="0.80355" dy="0.80355"/>
<feGaussianBlur stdDeviation="0.401775"/>
<feComposite in2="hardAlpha" operator="arithmetic" k2="-1" k3="1"/>
<feColorMatrix type="matrix" values="0 0 0 0 1 0 0 0 0 1 0 0 0 0 1 0 0 0 0.32 0"/>
<feBlend mode="normal" in2="shape" result="effect1_innerShadow_1356_35531"/>
<feColorMatrix in="SourceAlpha" type="matrix" values="0 0 0 0 0 0 0 0 0 0 0 0 0 0 0 0 0 0 127 0" result="hardAlpha"/>
<feOffset dx="-0.80355" dy="-0.80355"/>
<feGaussianBlur stdDeviation="0.401775"/>
<feComposite in2="hardAlpha" operator="arithmetic" k2="-1" k3="1"/>
<feColorMatrix type="matrix" values="0 0 0 0 0 0 0 0 0 0 0 0 0 0 0 0 0 0 0.05 0"/>
<feBlend mode="normal" in2="effect1_innerShadow_1356_35531" result="effect2_innerShadow_1356_35531"/>
</filter>
</defs>
</svg>
