<svg width="24" height="24" viewBox="0 0 24 24" fill="none" xmlns="http://www.w3.org/2000/svg">
<path d="M6.38834 21.2998C5.91899 21.2998 5.51721 21.1327 5.18299 20.7984C4.84876 20.4642 4.68164 20.0624 4.68164 19.5931V10.3296C4.68164 9.86029 4.84876 9.4585 5.18299 9.12426C5.51721 8.79005 5.91899 8.62294 6.38834 8.62294H14.9595V6.66021C14.9595 5.84241 14.6713 5.1452 14.0949 4.56859C13.5185 3.99199 12.8185 3.70369 11.9951 3.70369C11.2803 3.70369 10.6526 3.93013 10.1119 4.38301C9.57117 4.83591 9.49988 5.00174 9.2633 5.63059C9.21685 5.80662 9.12447 5.94791 8.98615 6.05444C8.84785 6.16097 8.68961 6.21424 8.51143 6.21424C8.30308 6.21424 8.13256 6.14341 7.99988 6.00174C7.86718 5.86007 7.81853 5.69601 7.85393 5.50954C7.99988 4.50174 8.49988 4.00174 9.12377 3.36286C9.93518 2.65741 10.8931 2.30469 11.9976 2.30469C13.2126 2.30469 14.2431 2.72776 15.0893 3.57391C15.9354 4.42006 16.3585 5.45166 16.3585 6.66871V8.62294H17.6114C18.0807 8.62294 18.4825 8.79005 18.8167 9.12426C19.151 9.4585 19.3181 9.86029 19.3181 10.3296V19.5931C19.3181 20.0624 19.151 20.4642 18.8167 20.7984C18.4825 21.1327 18.0807 21.2998 17.6114 21.2998H6.38834ZM11.9991 16.6508C12.4681 16.6508 12.867 16.4866 13.1959 16.1582C13.5248 15.8299 13.6893 15.4312 13.6893 14.9622C13.6893 14.4931 13.5251 14.0942 13.1967 13.7653C12.8684 13.4364 12.4697 13.2719 12.0007 13.2719C11.5317 13.2719 11.1327 13.4361 10.8038 13.7645C10.4749 14.0929 10.3105 14.4915 10.3105 14.9605C10.3105 15.4296 10.4746 15.8285 10.803 16.1574C11.1314 16.4863 11.53 16.6508 11.9991 16.6508Z" fill="#2D65F2"/>
</svg>
