<svg width="141" height="26" viewBox="0 0 141 26" fill="none" xmlns="http://www.w3.org/2000/svg">
<g id="Group">
<g id="Group_2">
<path id="Vector" d="M35.088 3.48242C35.3934 3.48242 35.5467 3.63567 35.5467 3.9411V5.91192C35.5467 6.21842 35.3934 6.3706 35.088 6.3706H25.774V11.7161H34.1428C34.4482 11.7161 34.6015 11.8694 34.6015 12.1748V14.0642C34.6015 14.3878 34.4482 14.5496 34.1428 14.5496H25.774V21.8939C25.774 22.2175 25.6122 22.3793 25.2886 22.3793H22.8591C22.5526 22.3793 22.4004 22.2175 22.4004 21.8939V3.9411C22.4004 3.63567 22.5536 3.48242 22.8591 3.48242H35.088Z" fill="#2D65F2"/>
<path id="Vector_2" d="M38.921 22.3804C38.5974 22.3804 38.4355 22.2186 38.4355 21.8949V3.9411C38.4355 3.63567 38.5974 3.48242 38.921 3.48242H41.1619C41.4855 3.48242 41.6474 3.63567 41.6474 3.9411V21.8939C41.6474 22.2175 41.4855 22.3793 41.1619 22.3793H38.921V22.3804Z" fill="#2D65F2"/>
<path id="Vector_3" d="M48.7482 16.359V18.3031C48.7482 18.9696 48.879 19.4326 49.1394 19.693C49.3998 19.9545 49.8639 20.0842 50.5294 20.0842H53.3908C54.3445 20.0842 54.8214 19.6159 54.8214 18.6803V18.1948C54.8214 17.8712 54.9833 17.7093 55.3069 17.7093H57.6014C57.9068 17.7093 58.0601 17.8712 58.0601 18.1948V18.7349C58.0601 20.0488 57.7407 21.0069 57.102 21.6102C56.4633 22.2136 55.4237 22.5148 53.9834 22.5148H49.7717C48.3314 22.5148 47.265 22.1686 46.5727 21.4752C45.8794 20.7829 45.5332 19.7166 45.5332 18.2763V12.5535C45.5332 11.1142 45.8794 10.0522 46.5727 9.36739C47.265 8.68366 48.3314 8.3418 49.7717 8.3418H53.9566C55.3959 8.3418 56.4579 8.68366 57.1427 9.36739C57.8264 10.0511 58.1683 11.1132 58.1683 12.5535V15.9014C58.1683 16.2079 58.0065 16.3601 57.6828 16.3601H48.7482V16.359ZM50.5304 10.7713C49.8649 10.7713 49.4009 10.8978 49.1405 11.1496C48.879 11.4014 48.7493 11.8698 48.7493 12.5535V13.9306H54.9586V12.5535C54.9586 11.8698 54.8322 11.4014 54.5803 11.1496C54.3285 10.8978 53.8601 10.7713 53.1764 10.7713H50.5304Z" fill="#2D65F2"/>
<path id="Vector_4" d="M64.8107 16.359V18.3031C64.8107 18.9696 64.9415 19.4326 65.2019 19.693C65.4623 19.9545 65.9264 20.0842 66.5919 20.0842H69.4532C70.407 20.0842 70.8839 19.6159 70.8839 18.6803V18.1948C70.8839 17.8712 71.0458 17.7093 71.3694 17.7093H73.6639C73.9693 17.7093 74.1225 17.8712 74.1225 18.1948V18.7349C74.1225 20.0488 73.8032 21.0069 73.1645 21.6102C72.5257 22.2136 71.4862 22.5148 70.0459 22.5148H65.8342C64.3939 22.5148 63.3275 22.1686 62.6352 21.4752C61.9419 20.7829 61.5957 19.7166 61.5957 18.2763V12.5535C61.5957 11.1142 61.9419 10.0522 62.6352 9.36739C63.3275 8.68366 64.3939 8.3418 65.8342 8.3418H70.0191C71.4584 8.3418 72.5204 8.68366 73.2052 9.36739C73.8889 10.0511 74.2308 11.1132 74.2308 12.5535V15.9014C74.2308 16.2079 74.069 16.3601 73.7453 16.3601H64.8107V16.359ZM66.5919 10.7713C65.9264 10.7713 65.4623 10.8978 65.2019 11.1496C64.9404 11.4014 64.8107 11.8698 64.8107 12.5535V13.9306H71.02V12.5535C71.02 11.8698 70.8936 11.4014 70.6417 11.1496C70.3899 10.8978 69.9216 10.7713 69.2378 10.7713H66.5919Z" fill="#2D65F2"/>
<path id="Vector_5" d="M81.8997 11.0947V17.8173C81.8997 18.4828 82.0304 18.9469 82.2908 19.2073C82.5512 19.4688 83.0153 19.5985 83.6808 19.5985H85.328C85.6516 19.5985 85.8134 19.7603 85.8134 20.0839V21.8929C85.8134 22.2166 85.6516 22.3784 85.328 22.3784H82.8985C81.4581 22.3784 80.3972 22.0322 79.7134 21.3389C79.0297 20.6466 78.6878 19.5802 78.6878 18.1399V11.0936H76.447C76.1405 11.0936 75.9883 10.9414 75.9883 10.6349V8.93418C75.9883 8.62875 76.1415 8.4755 76.447 8.4755H78.6878V6.26142C78.6878 5.95599 78.8411 5.80273 79.1465 5.80273H81.4142C81.7378 5.80273 81.8997 5.95599 81.8997 6.26142V8.4755H85.328C85.6516 8.4755 85.8134 8.62875 85.8134 8.93418V10.6349C85.8134 10.9414 85.6516 11.0936 85.328 11.0936H81.8997V11.0947Z" fill="#2D65F2"/>
<path id="Vector_6" d="M89.5128 22.3804C89.1892 22.3804 89.0273 22.2186 89.0273 21.8949V3.9411C89.0273 3.63567 89.1892 3.48242 89.5128 3.48242H91.7537C92.0773 3.48242 92.2392 3.63567 92.2392 3.9411V9.98858H92.401C92.581 9.57491 92.9357 9.19661 93.4673 8.85475C93.9978 8.51288 94.7137 8.34141 95.6139 8.34141H97.3682C98.8075 8.34141 99.8695 8.68328 100.553 9.36701C101.237 10.0507 101.579 11.1128 101.579 12.5531V18.1419C101.579 19.5822 101.237 20.6486 100.553 21.3409C99.8695 22.0342 98.8075 22.3804 97.3682 22.3804H89.5128ZM96.5859 19.7344C97.2696 19.7344 97.7379 19.6037 97.9898 19.3433C98.2416 19.0828 98.3681 18.6188 98.3681 17.9533V12.7428C98.3681 12.0591 98.2416 11.5907 97.9898 11.3389C97.7379 11.0871 97.2696 10.9606 96.5859 10.9606H94.0214C93.3559 10.9606 92.8918 11.0871 92.6314 11.3389C92.3699 11.5907 92.2402 12.0591 92.2402 12.7428V19.7344H96.5859Z" fill="#2D65F2"/>
<path id="Vector_7" d="M105.952 22.3804C105.629 22.3804 105.467 22.2186 105.467 21.8949V3.9411C105.467 3.63567 105.629 3.48242 105.952 3.48242H108.193C108.517 3.48242 108.679 3.63567 108.679 3.9411V21.8939C108.679 22.2175 108.517 22.3793 108.193 22.3793H105.952V22.3804Z" fill="#2D65F2"/>
<path id="Vector_8" d="M116.805 22.5148C115.365 22.5148 114.298 22.1686 113.606 21.4752C112.913 20.7829 112.566 19.7166 112.566 18.2763V12.5535C112.566 11.1142 112.913 10.0522 113.606 9.36739C114.298 8.68366 115.365 8.3418 116.805 8.3418H121.422C122.861 8.3418 123.923 8.68366 124.608 9.36739C125.292 10.0511 125.633 11.1132 125.633 12.5535V18.2763C125.633 19.7166 125.292 20.7829 124.608 21.4752C123.924 22.1686 122.862 22.5148 121.422 22.5148H116.805ZM120.638 19.8152C121.304 19.8152 121.768 19.6844 122.028 19.424C122.289 19.1636 122.419 18.691 122.419 18.0062V12.8225C122.419 12.1388 122.293 11.6704 122.041 11.4186C121.789 11.1667 121.321 11.0403 120.637 11.0403H117.559C116.894 11.0403 116.43 11.1667 116.169 11.4186C115.908 11.6704 115.778 12.1388 115.778 12.8225V18.0062C115.778 18.6899 115.909 19.1625 116.169 19.424C116.43 19.6855 116.894 19.8152 117.559 19.8152H120.638Z" fill="#2D65F2"/>
<path id="Vector_9" d="M128.035 22.3803C127.873 22.3803 127.747 22.345 127.657 22.2721C127.566 22.2003 127.521 22.1103 127.521 22.002C127.521 21.8766 127.557 21.7684 127.63 21.6784L132.085 15.1186L128.063 9.1526C127.991 9.06258 127.954 8.95434 127.954 8.82896C127.954 8.72072 127.995 8.63605 128.076 8.57282C128.157 8.50959 128.268 8.47852 128.413 8.47852H130.708C130.888 8.47852 131.031 8.50531 131.139 8.55996C131.248 8.61355 131.346 8.71321 131.436 8.85681L132.489 10.4493L133.919 12.6634H134.108L135.539 10.4493L136.591 8.85681C136.681 8.71321 136.78 8.61355 136.888 8.55996C136.996 8.50638 137.14 8.47852 137.32 8.47852H139.641C139.928 8.47852 140.073 8.59533 140.073 8.82896C140.073 8.95541 140.037 9.06365 139.965 9.1526L135.943 15.1186L140.37 21.6784C140.442 21.7684 140.478 21.8766 140.478 22.002C140.478 22.1103 140.437 22.2003 140.357 22.2721C140.276 22.3439 140.154 22.3803 139.993 22.3803H137.725C137.545 22.3803 137.401 22.3493 137.293 22.286C137.185 22.2228 137.086 22.1199 136.996 21.9752L135.646 19.9508L134.107 17.5749H133.918L132.379 19.9508L131.03 21.9752C130.94 22.1199 130.842 22.2228 130.733 22.286C130.625 22.3493 130.481 22.3803 130.301 22.3803H128.035Z" fill="#2D65F2"/>
</g>
<g id="Group_3">
<g id="Group_4">
<path id="Vector_10" d="M17.0814 1.08347V6.78801C17.0814 7.38601 16.597 7.87148 15.9979 7.87148H12.8129C11.6973 7.87148 10.6235 8.26693 9.77685 8.98067C9.67504 9.06533 9.57645 9.15642 9.48214 9.25073L9.26352 9.46935C9.19386 9.53901 9.12741 9.61081 9.06311 9.68369C8.30544 10.541 7.88427 11.6491 7.88427 12.8001V15.9852C7.88427 16.5832 7.39987 17.0686 6.8008 17.0686H1.09626C0.497189 17.0686 0.0117188 16.5832 0.0117188 15.9852V10.2806C0.0117188 9.68262 0.497189 9.19715 1.09626 9.19715H4.49884C5.74841 9.19715 6.94548 8.70096 7.82854 7.8179C8.27007 7.37637 8.61623 6.85553 8.85092 6.28968C9.08562 5.72384 9.20886 5.11084 9.20886 4.48605V1.08347C9.20886 0.485471 9.69433 1.7709e-06 10.2934 1.7709e-06H15.9979C16.597 -0.00106991 17.0814 0.484399 17.0814 1.08347Z" fill="#2D65F2"/>
<path id="Vector_11" d="M17.0808 9.75954V17.0695H9.77517C9.38186 17.0695 9.0625 16.7501 9.0625 16.3568V12.2062C9.09679 11.4281 9.41187 10.7026 9.96271 10.1486L10.1524 9.95673C10.7354 9.37052 11.5091 9.04688 12.3333 9.04688H16.3681C16.7625 9.04688 17.0808 9.36517 17.0808 9.75954Z" fill="#2D65F2"/>
<path id="Vector_12" d="M8.03001 18.6901V26H0.724384C0.331078 26 0.0117188 25.6807 0.0117188 25.2874V21.1378C0.0460125 20.3598 0.361085 19.6343 0.911928 19.0802L1.10161 18.8884C1.68461 18.3022 2.45836 17.9785 3.28248 17.9785H7.31735C7.71065 17.9774 8.03001 18.2968 8.03001 18.6901Z" fill="#2D65F2"/>
</g>
<path id="Vector_13" d="M4.02086 8.0183C6.23506 8.0183 8.03001 6.22334 8.03001 4.00915C8.03001 1.79495 6.23506 0 4.02086 0C1.80667 0 0.0117188 1.79495 0.0117188 4.00915C0.0117188 6.22334 1.80667 8.0183 4.02086 8.0183Z" fill="#2D65F2"/>
</g>
</g>
</svg>
