<svg width="33" height="33" viewBox="0 0 33 33" fill="none" xmlns="http://www.w3.org/2000/svg">
<g id="Icons">
<path id="Vector" d="M8.01128 24.9783V26.2886C8.01128 26.6504 7.88397 26.9579 7.62935 27.2112C7.37473 27.4644 7.06555 27.5911 6.70182 27.5911C6.33808 27.5911 6.03122 27.4644 5.78122 27.2112C5.53124 26.9579 5.40625 26.6504 5.40625 26.2886V17.0181C5.40625 16.8922 5.41522 16.7663 5.43315 16.6405C5.45111 16.5146 5.48116 16.3883 5.52332 16.2614L7.90108 9.58861C8.05659 9.13325 8.32718 8.76727 8.71285 8.49067C9.09854 8.21409 9.5365 8.07581 10.0267 8.07581H22.9677C23.4579 8.07581 23.8959 8.21409 24.2816 8.49067C24.6673 8.76727 24.94 9.13325 25.0998 9.58861L27.4711 16.2609C27.5133 16.3862 27.5433 16.5121 27.5613 16.6386C27.5792 16.7651 27.5882 16.8916 27.5882 17.0181V26.2886C27.5882 26.6504 27.4609 26.9579 27.2063 27.2112C26.9517 27.4644 26.6425 27.5911 26.2788 27.5911C25.915 27.5911 25.6081 27.4644 25.3582 27.2112C25.1082 26.9579 24.9832 26.6504 24.9832 26.2886V24.9783H8.01128ZM8.02795 14.7643H24.9665L23.3601 10.2104C23.3259 10.1249 23.2746 10.0587 23.2062 10.0116C23.1378 9.96464 23.0566 9.94114 22.9626 9.94114H10.0319C9.93783 9.94114 9.85663 9.96464 9.78825 10.0116C9.71987 10.0587 9.66858 10.1249 9.63438 10.2104L8.02795 14.7643ZM10.4996 21.5475C10.969 21.5475 11.3679 21.3833 11.6966 21.0547C12.0252 20.7262 12.1895 20.3273 12.1895 19.8579C12.1895 19.3886 12.0253 18.9897 11.6967 18.661C11.3682 18.3324 10.9693 18.1681 10.4999 18.1681C10.0306 18.1681 9.63163 18.3323 9.30298 18.6609C8.97436 18.9894 8.81005 19.3883 8.81005 19.8576C8.81005 20.327 8.97432 20.726 9.30285 21.0546C9.63138 21.3832 10.0303 21.5475 10.4996 21.5475ZM22.4945 21.5475C22.9638 21.5475 23.3628 21.3833 23.6915 21.0547C24.0201 20.7262 24.1844 20.3273 24.1844 19.8579C24.1844 19.3886 24.0201 18.9897 23.6916 18.661C23.3631 18.3324 22.9641 18.1681 22.4948 18.1681C22.0255 18.1681 21.6265 18.3323 21.2979 18.6609C20.9692 18.9894 20.8049 19.3883 20.8049 19.8576C20.8049 20.327 20.9692 20.726 21.2977 21.0546C21.6263 21.3832 22.0252 21.5475 22.4945 21.5475Z" fill="#2D65F2"/>
</g>
</svg>
