<svg width="137" height="24" viewBox="0 0 137 24" fill="none" xmlns="http://www.w3.org/2000/svg">
<path d="M32.3874 3.21484C32.6693 3.21484 32.8108 3.3563 32.8108 3.63824V5.45745C32.8108 5.74038 32.6693 5.88085 32.3874 5.88085H23.7899V10.8152H31.5149C31.7968 10.8152 31.9383 10.9566 31.9383 11.2386V12.9826C31.9383 13.2814 31.7968 13.4307 31.5149 13.4307H23.7899V20.21C23.7899 20.5088 23.6405 20.6581 23.3418 20.6581H21.0992C20.8163 20.6581 20.6758 20.5088 20.6758 20.21V3.63824C20.6758 3.3563 20.8172 3.21484 21.0992 3.21484H32.3874Z" fill="#2D65F2"/>
<path d="M35.9266 20.6591C35.6279 20.6591 35.4785 20.5098 35.4785 20.211V3.63824C35.4785 3.3563 35.6279 3.21484 35.9266 3.21484H37.9951C38.2939 3.21484 38.4433 3.3563 38.4433 3.63824V20.21C38.4433 20.5088 38.2939 20.6581 37.9951 20.6581H35.9266V20.6591Z" fill="#2D65F2"/>
<path d="M44.997 15.1017V16.8962C44.997 17.5115 45.1177 17.9388 45.3581 18.1792C45.5985 18.4206 46.0268 18.5403 46.6411 18.5403H49.2824C50.1628 18.5403 50.6031 18.108 50.6031 17.2444V16.7963C50.6031 16.4975 50.7524 16.3481 51.0512 16.3481H53.1691C53.4511 16.3481 53.5925 16.4975 53.5925 16.7963V17.2948C53.5925 18.5077 53.2977 19.392 52.7082 19.949C52.1186 20.5059 51.159 20.7839 49.8295 20.7839H45.9417C44.6122 20.7839 43.6279 20.4644 42.9889 19.8243C42.3488 19.1853 42.0293 18.201 42.0293 16.8714V11.5889C42.0293 10.2603 42.3488 9.28 42.9889 8.64788C43.6279 8.01674 44.6122 7.70117 45.9417 7.70117H49.8047C51.1333 7.70117 52.1136 8.01674 52.7458 8.64788C53.3769 9.27901 53.6925 10.2593 53.6925 11.5889V14.6793C53.6925 14.9622 53.5431 15.1027 53.2443 15.1027H44.997V15.1017ZM46.6421 9.94378C46.0278 9.94378 45.5995 10.0605 45.3591 10.293C45.1177 10.5255 44.998 10.9578 44.998 11.5889V12.8601H50.7297V11.5889C50.7297 10.9578 50.6129 10.5255 50.3805 10.293C50.148 10.0605 49.7157 9.94378 49.0846 9.94378H46.6421Z" fill="#2D65F2"/>
<path d="M59.8232 15.1017V16.8962C59.8232 17.5115 59.9439 17.9388 60.1843 18.1792C60.4246 18.4206 60.853 18.5403 61.4673 18.5403H64.1086C64.989 18.5403 65.4292 18.108 65.4292 17.2444V16.7963C65.4292 16.4975 65.5786 16.3481 65.8773 16.3481H67.9953C68.2773 16.3481 68.4187 16.4975 68.4187 16.7963V17.2948C68.4187 18.5077 68.1239 19.392 67.5343 19.949C66.9447 20.5059 65.9852 20.7839 64.6556 20.7839H60.7679C59.4384 20.7839 58.4541 20.4644 57.815 19.8243C57.175 19.1853 56.8555 18.201 56.8555 16.8714V11.5889C56.8555 10.2603 57.175 9.28 57.815 8.64788C58.4541 8.01674 59.4384 7.70117 60.7679 7.70117H64.6309C65.9595 7.70117 66.9398 8.01674 67.5719 8.64788C68.2031 9.27901 68.5186 10.2593 68.5186 11.5889V14.6793C68.5186 14.9622 68.3693 15.1027 68.0705 15.1027H59.8232V15.1017ZM61.4673 9.94378C60.853 9.94378 60.4246 10.0605 60.1843 10.293C59.9429 10.5255 59.8232 10.9578 59.8232 11.5889V12.8601H65.5549V11.5889C65.5549 10.9578 65.4381 10.5255 65.2057 10.293C64.9732 10.0605 64.5409 9.94378 63.9098 9.94378H61.4673Z" fill="#2D65F2"/>
<path d="M75.5973 10.2423V16.4478C75.5973 17.0621 75.718 17.4905 75.9583 17.7309C76.1987 17.9722 76.6271 18.0919 77.2414 18.0919H78.7619C79.0606 18.0919 79.21 18.2413 79.21 18.5401V20.2099C79.21 20.5086 79.0606 20.658 78.7619 20.658H76.5193C75.1897 20.658 74.2104 20.3385 73.5792 19.6985C72.9481 19.0594 72.6325 18.0751 72.6325 16.7456V10.2413H70.564C70.2811 10.2413 70.1406 10.1008 70.1406 9.81792V8.24799C70.1406 7.96606 70.2821 7.82459 70.564 7.82459H72.6325V5.78082C72.6325 5.49889 72.774 5.35742 73.0559 5.35742H75.1492C75.4479 5.35742 75.5973 5.49889 75.5973 5.78082V7.82459H78.7619C79.0606 7.82459 79.21 7.96606 79.21 8.24799V9.81792C79.21 10.1008 79.0606 10.2413 78.7619 10.2413H75.5973V10.2423Z" fill="#2D65F2"/>
<path d="M82.6259 20.6591C82.3271 20.6591 82.1777 20.5098 82.1777 20.211V3.63824C82.1777 3.3563 82.3271 3.21484 82.6259 3.21484H84.6944C84.9931 3.21484 85.1425 3.3563 85.1425 3.63824V9.22053H85.2919C85.4581 8.83868 85.7855 8.48948 86.2762 8.17391C86.7658 7.85835 87.4266 7.70006 88.2576 7.70006H89.877C91.2055 7.70006 92.1859 8.01563 92.817 8.64677C93.4482 9.2779 93.7637 10.2582 93.7637 11.5878V16.7467C93.7637 18.0762 93.4482 19.0605 92.817 19.6996C92.1859 20.3396 91.2055 20.6591 89.877 20.6591H82.6259ZM89.1548 18.2167C89.786 18.2167 90.2183 18.096 90.4508 17.8556C90.6832 17.6152 90.8 17.1869 90.8 16.5726V11.7629C90.8 11.1317 90.6832 10.6994 90.4508 10.467C90.2183 10.2345 89.786 10.1178 89.1548 10.1178H86.7876C86.1733 10.1178 85.7449 10.2345 85.5046 10.467C85.2632 10.6994 85.1435 11.1317 85.1435 11.7629V18.2167H89.1548Z" fill="#2D65F2"/>
<path d="M97.8016 20.6591C97.5029 20.6591 97.3535 20.5098 97.3535 20.211V3.63824C97.3535 3.3563 97.5029 3.21484 97.8016 3.21484H99.8702C100.169 3.21484 100.318 3.3563 100.318 3.63824V20.21C100.318 20.5088 100.169 20.6581 99.8702 20.6581H97.8016V20.6591Z" fill="#2D65F2"/>
<path d="M107.819 20.7839C106.489 20.7839 105.505 20.4644 104.866 19.8243C104.226 19.1853 103.906 18.201 103.906 16.8714V11.5889C103.906 10.2603 104.226 9.28 104.866 8.64788C105.505 8.01674 106.489 7.70117 107.819 7.70117H112.08C113.409 7.70117 114.389 8.01674 115.021 8.64788C115.653 9.27901 115.968 10.2593 115.968 11.5889V16.8714C115.968 18.201 115.653 19.1853 115.021 19.8243C114.39 20.4644 113.41 20.7839 112.08 20.7839H107.819ZM111.357 18.292C111.972 18.292 112.4 18.1713 112.64 17.9309C112.881 17.6905 113.001 17.2543 113.001 16.6222V11.8372C113.001 11.2061 112.885 10.7738 112.652 10.5413C112.42 10.3088 111.987 10.1921 111.356 10.1921H108.515C107.901 10.1921 107.472 10.3088 107.232 10.5413C106.991 10.7738 106.871 11.2061 106.871 11.8372V16.6222C106.871 17.2533 106.992 17.6895 107.232 17.9309C107.472 18.1723 107.901 18.292 108.515 18.292H111.357Z" fill="#2D65F2"/>
<path d="M118.185 20.6596C118.035 20.6596 117.919 20.6269 117.836 20.5597C117.752 20.4934 117.711 20.4103 117.711 20.3104C117.711 20.1946 117.744 20.0947 117.811 20.0116L121.923 13.9565L118.211 8.44938C118.144 8.36628 118.111 8.26637 118.111 8.15063C118.111 8.05072 118.148 7.97257 118.222 7.9142C118.298 7.85584 118.4 7.82715 118.534 7.82715H120.652C120.818 7.82715 120.951 7.85188 121.051 7.90233C121.151 7.95179 121.242 8.04379 121.325 8.17635L122.296 9.64637L123.617 11.6901H123.791L125.111 9.64637L126.083 8.17635C126.166 8.04379 126.257 7.95179 126.357 7.90233C126.457 7.85287 126.589 7.82715 126.756 7.82715H128.898C129.163 7.82715 129.297 7.93498 129.297 8.15063C129.297 8.26736 129.263 8.36727 129.197 8.44938L125.484 13.9565L129.571 20.0116C129.637 20.0947 129.671 20.1946 129.671 20.3104C129.671 20.4103 129.633 20.4934 129.559 20.5597C129.484 20.626 129.372 20.6596 129.223 20.6596H127.13C126.963 20.6596 126.831 20.6309 126.731 20.5725C126.631 20.5142 126.54 20.4192 126.457 20.2857L125.21 18.417L123.79 16.2238H123.616L122.195 18.417L120.95 20.2857C120.867 20.4192 120.776 20.5142 120.676 20.5725C120.576 20.6309 120.443 20.6596 120.277 20.6596H118.185Z" fill="#2D65F2"/>
<path d="M15.7664 1.00012V6.26586C15.7664 6.81785 15.3193 7.26598 14.7663 7.26598H11.8263C10.7965 7.26598 9.80524 7.63101 9.02374 8.28985C8.92976 8.368 8.83875 8.45208 8.75169 8.53914L8.54989 8.74094C8.48559 8.80524 8.42425 8.87152 8.3649 8.93879C7.66551 9.73018 7.27673 10.7531 7.27673 11.8155V14.7555C7.27673 15.3075 6.8296 15.7557 6.27661 15.7557H1.01088C0.457892 15.7557 0.00976562 15.3075 0.00976562 14.7555V9.4898C0.00976562 8.9378 0.457892 8.48967 1.01088 8.48967H4.15172C5.30518 8.48967 6.41016 8.03166 7.22529 7.21652C7.63286 6.80895 7.95239 6.32818 8.16903 5.80586C8.38568 5.28354 8.49944 4.71769 8.49944 4.14097V1.00012C8.49944 0.448127 8.94756 1.63468e-06 9.50055 1.63468e-06H14.7663C15.3193 -0.000987607 15.7664 0.447137 15.7664 1.00012Z" fill="#2D65F2"/>
<path d="M15.7667 9.00941V15.757H9.02308C8.66003 15.757 8.36523 15.4622 8.36523 15.0992V11.2678C8.39689 10.5497 8.68773 9.87994 9.1962 9.36851L9.37129 9.19143C9.90944 8.65031 10.6237 8.35156 11.3844 8.35156H15.1089C15.4729 8.35156 15.7667 8.64537 15.7667 9.00941Z" fill="#2D65F2"/>
<path d="M7.41127 17.2526V24.0002H0.667611C0.304559 24.0002 0.00976562 23.7054 0.00976562 23.3423V19.512C0.0414214 18.7938 0.332258 18.1241 0.840728 17.6126L1.01582 17.4356C1.55397 16.8945 2.2682 16.5957 3.02893 16.5957H6.75342C7.11648 16.5947 7.41127 16.8895 7.41127 17.2526Z" fill="#2D65F2"/>
<path d="M3.71052 7.40151C5.75438 7.40151 7.41127 5.74462 7.41127 3.70075C7.41127 1.65688 5.75438 0 3.71052 0C1.66665 0 0.00976562 1.65688 0.00976562 3.70075C0.00976562 5.74462 1.66665 7.40151 3.71052 7.40151Z" fill="#2D65F2"/>
<path d="M134.179 9.51881C132.661 9.51881 131.426 8.28424 131.426 6.76576C131.426 5.24727 132.66 4.0127 134.179 4.0127C135.696 4.0127 136.932 5.24727 136.932 6.76576C136.932 8.28424 135.697 9.51881 134.179 9.51881ZM134.179 4.29067C132.814 4.29067 131.704 5.40159 131.704 6.76576C131.704 8.13091 132.815 9.24084 134.179 9.24084C135.544 9.24084 136.654 8.12992 136.654 6.76576C136.655 5.40159 135.544 4.29067 134.179 4.29067Z" fill="#2D65F2"/>
<path d="M132.856 6.12778H132.238V5.83496H133.82V6.12778H133.203V7.6987H132.857V6.12778H132.856Z" fill="#2D65F2"/>
<path d="M135.792 7.69772L135.789 6.46216L135.177 7.48404H135.023L134.41 6.47798V7.69772H134.08V5.83398H134.365L135.105 7.06955L135.832 5.83398H136.117L136.12 7.69772H135.792Z" fill="#2D65F2"/>
</svg>
