<svg width="28" height="29" viewBox="0 0 28 29" fill="none" xmlns="http://www.w3.org/2000/svg">
<g id="Icons">
<path id="Vector" d="M7.3161 18.8929C7.72677 18.8929 8.07587 18.7491 8.36342 18.4617C8.65098 18.1742 8.79476 17.8252 8.79476 17.4145C8.79476 17.0038 8.65103 16.6547 8.36356 16.3672C8.0761 16.0796 7.72703 15.9358 7.31636 15.9358C6.90572 15.9358 6.55661 16.0796 6.26905 16.367C5.9815 16.6545 5.83773 17.0036 5.83773 17.4142C5.83773 17.8249 5.98146 18.174 6.26893 18.4616C6.5564 18.7491 6.90545 18.8929 7.3161 18.8929ZM17.8116 18.8929C18.2223 18.8929 18.5714 18.7491 18.859 18.4617C19.1465 18.1742 19.2903 17.8252 19.2903 17.4145C19.2903 17.0038 19.1465 16.6547 18.8591 16.3672C18.5716 16.0796 18.2226 15.9358 17.8119 15.9358C17.4012 15.9358 17.0521 16.0796 16.7646 16.367C16.477 16.6545 16.3333 17.0036 16.3333 17.4142C16.3333 17.8249 16.477 18.174 16.7644 18.4616C17.0519 18.7491 17.401 18.8929 17.8116 18.8929ZM5.13881 21.8712V23.0413C5.13881 23.3579 5.02741 23.627 4.80462 23.8486C4.58184 24.0702 4.31131 24.181 3.99303 24.181C3.67476 24.181 3.40625 24.0702 3.1875 23.8486C2.96875 23.627 2.85938 23.3579 2.85938 23.0413V14.9296C2.85938 14.8166 2.86723 14.7036 2.88294 14.5906C2.89865 14.4775 2.92508 14.3691 2.96222 14.2651L5.01885 8.41423C5.15492 8.01952 5.39291 7.69874 5.73282 7.45187C6.07271 7.20499 6.45955 7.08154 6.89336 7.08154H17.1836V8.71371H6.9068C6.82454 8.71371 6.75349 8.73428 6.69365 8.77543C6.63382 8.81655 6.58895 8.87451 6.55902 8.94932L5.15342 12.9575H17.1836C17.1836 13.4032 17.3444 13.7867 17.6661 14.1079C17.9878 14.4291 18.371 14.5897 18.8157 14.5897H22.2686V23.0413C22.2686 23.3579 22.1572 23.627 21.9344 23.8486C21.7116 24.0702 21.4411 24.181 21.1228 24.181C20.8046 24.181 20.536 24.0702 20.3173 23.8486C20.0986 23.627 19.9892 23.3579 19.9892 23.0413V21.8712H5.13881Z" fill="#2D65F2"/>
<path id="Union" d="M22.0241 11.7934C22.0241 12.2573 22.4001 12.6334 22.8641 12.6334C23.328 12.6334 23.7041 12.2573 23.7041 11.7934V9.2734H26.2241C26.688 9.2734 27.0641 8.89732 27.0641 8.4334C27.0641 7.96948 26.688 7.5934 26.2241 7.5934H23.7041V5.0734C23.7041 4.60948 23.328 4.2334 22.8641 4.2334C22.4001 4.2334 22.0241 4.60948 22.0241 5.0734V7.5934H19.5041C19.0401 7.5934 18.6641 7.96948 18.6641 8.4334C18.6641 8.89732 19.0401 9.2734 19.5041 9.2734H22.0241V11.7934Z" fill="#2D65F2"/>
</g>
</svg>
