<svg width="16" height="16" viewBox="0 0 16 16" fill="none" xmlns="http://www.w3.org/2000/svg">
<g id="Icons">
<path id="Vector" d="M2.9411 12.8787C2.62607 12.8787 2.35791 12.7681 2.13662 12.5468C1.91533 12.3255 1.80469 12.0573 1.80469 11.7422V4.25763C1.80469 3.94251 1.91533 3.6743 2.13662 3.45301C2.35791 3.23173 2.62607 3.12109 2.9411 3.12109H13.0657C13.3807 3.12109 13.6489 3.23173 13.8702 3.45301C14.0914 3.6743 14.2021 3.94251 14.2021 4.25763V11.7422C14.2021 12.0573 14.0914 12.3255 13.8702 12.5468C13.6489 12.7681 13.3807 12.8787 13.0657 12.8787H2.9411ZM2.73735 7.69028H13.2694V5.66979H2.73735V7.69028Z" fill="#151515"/>
</g>
</svg>
