<svg width="28" height="29" viewBox="0 0 28 29" fill="none" xmlns="http://www.w3.org/2000/svg">
<g id="Icons">
<path id="Vector" d="M5.14498 25.277C4.59367 25.277 4.12439 25.0834 3.73713 24.6961C3.34988 24.3089 3.15625 23.8396 3.15625 23.2883V12.4761C3.15625 11.9248 3.34988 11.4555 3.73713 11.0682C4.12439 10.681 4.59367 10.4873 5.14498 10.4873H22.863C23.4143 10.4873 23.8836 10.681 24.2708 11.0682C24.6581 11.4555 24.8517 11.9248 24.8517 12.4761V23.2883C24.8517 23.8396 24.6581 24.3089 24.2708 24.6961C23.8836 25.0834 23.4143 25.277 22.863 25.277H5.14498ZM12.033 21.869L18.0132 17.8822L12.033 13.8954V21.869ZM5.12722 8.82481V7.19265H22.8807V8.82481H5.12722ZM8.58011 5.53012V3.89795H19.4278V5.53012H8.58011Z" fill="#2D65F2"/>
</g>
</svg>
