<svg width="34" height="39" viewBox="0 0 34 39" fill="none" xmlns="http://www.w3.org/2000/svg">
<g id="Group 1707478387">
<g id="Group 4">
<path id="Vector" d="M17.8737 4.93928C20.0472 4.93928 22.1718 5.5838 23.979 6.79133C25.7861 7.99887 27.1946 9.71518 28.0264 11.7232C28.8581 13.7313 29.0757 15.9409 28.6517 18.0727C28.2277 20.2044 27.1811 22.1625 25.6442 23.6994C24.1074 25.2363 22.1493 26.283 20.0176 26.707C17.8859 27.131 15.6764 26.9134 13.6684 26.0816C11.6604 25.2499 9.9441 23.8413 8.7366 22.0341C7.5291 20.2269 6.8846 18.1022 6.8846 15.9287C6.8846 13.0141 8.04238 10.2189 10.1032 8.15801C12.1641 6.09709 14.9592 4.93928 17.8737 4.93928ZM17.8737 3.05764C14.6924 3.06128 11.6258 4.24644 9.26879 6.38323C6.9118 8.52001 5.43244 11.4561 5.11768 14.6219C4.80293 17.7878 5.67521 20.9577 7.56533 23.5167C9.45545 26.0758 12.2287 27.8416 15.347 28.4716C18.4654 29.1016 21.7066 28.5509 24.4419 26.9263C27.1772 25.3018 29.2116 22.7191 30.1505 19.6794C31.0894 16.6396 30.8658 13.3595 29.5232 10.4753C28.1806 7.59105 25.8146 5.30832 22.8841 4.0699C21.2991 3.39892 19.5949 3.05463 17.8737 3.05764Z" fill="#999999"/>
<path id="Vector_2" d="M11.9504 26.0444L9.76562 24.417L8.19537 26.5252L10.3802 28.1526L11.9504 26.0444Z" fill="#999999"/>
<path id="Vector_3" opacity="0.5" d="M25.8374 23.8927C30.2358 19.4942 30.2358 12.3627 25.8374 7.96421C21.439 3.56567 14.3078 3.56567 9.90935 7.96421C5.51093 12.3627 5.51093 19.4942 9.90935 23.8927C14.3078 28.2913 21.439 28.2913 25.8374 23.8927Z" fill="#DDDDDD"/>
<g id="Group" opacity="0.49">
<path id="Vector_4" d="M27.4451 16.7316C27.2321 16.7316 27.0278 16.647 26.8772 16.4964C26.7266 16.3458 26.642 16.1415 26.642 15.9285C26.6402 13.6024 25.7153 11.372 24.0705 9.72714C22.4257 8.08228 20.1954 7.15741 17.8693 7.15558C17.7616 7.15911 17.6542 7.14094 17.5537 7.10214C17.4531 7.06335 17.3614 7.00473 17.2839 6.92976C17.2065 6.8548 17.1449 6.76503 17.1028 6.66578C17.0607 6.56654 17.0391 6.45985 17.0391 6.35205C17.0391 6.24426 17.0607 6.13757 17.1028 6.03833C17.1449 5.93908 17.2065 5.84931 17.2839 5.77435C17.3614 5.69938 17.4531 5.64076 17.5537 5.60197C17.6542 5.56317 17.7616 5.545 17.8693 5.54853C20.6213 5.55149 23.2597 6.64605 25.2056 8.59204C27.1515 10.538 28.2461 13.1765 28.249 15.9285C28.2488 16.1416 28.164 16.3459 28.0133 16.4965C27.8625 16.6471 27.6582 16.7316 27.4451 16.7316Z" fill="white"/>
</g>
<g id="Vector_5" style="mix-blend-mode:multiply">
<path d="M17.8722 4.66553C15.6446 4.66553 13.4671 5.3261 11.6149 6.56371C9.76276 7.80133 8.31917 9.56039 7.46671 11.6185C6.61426 13.6765 6.39121 15.9412 6.82579 18.126C7.26037 20.3109 8.33305 22.3178 9.90819 23.893C11.4833 25.4681 13.4902 26.5408 15.675 26.9754C17.8597 27.41 20.1243 27.187 22.1823 26.3345C24.2403 25.482 25.9994 24.0384 27.2369 22.1862C28.4745 20.334 29.1351 18.1563 29.1351 15.9287C29.1351 14.4496 28.8438 12.985 28.2777 11.6185C27.7117 10.252 26.8821 9.01031 25.8363 7.96443C24.7904 6.91855 23.5488 6.08891 22.1823 5.52288C20.8159 4.95686 19.3513 4.66553 17.8722 4.66553ZM17.8722 26.9173C15.6987 26.9173 13.5741 26.2727 11.7669 25.0652C9.95973 23.8576 8.55123 22.1412 7.71951 20.1331C6.8878 18.125 6.67023 15.9153 7.09431 13.7836C7.5184 11.6518 8.5651 9.69369 10.102 8.15682C11.639 6.61995 13.5971 5.57338 15.7289 5.14945C17.8606 4.72551 20.0702 4.94326 22.0782 5.77516C24.0862 6.60706 25.8024 8.01574 27.0098 9.82305C28.2172 11.6304 28.8615 13.7552 28.8614 15.9287C28.8614 17.3718 28.5771 18.8008 28.0248 20.134C27.4726 21.4673 26.6631 22.6787 25.6427 23.6991C24.6222 24.7195 23.4108 25.5289 22.0775 26.0811C20.7443 26.6332 19.3153 26.9174 17.8722 26.9173Z" fill="#002D9F"/>
</g>
<g id="Vector_6" style="mix-blend-mode:multiply">
<path d="M11.2847 26.9391L9.71474 29.048L9.14062 28.6202L10.7115 26.5122L11.2847 26.9391Z" fill="#6F6464"/>
</g>
<path id="Vector_7" d="M10.3255 28.0903L8.26767 26.5576C7.91273 26.2932 7.41069 26.3666 7.14632 26.7215L0.671473 35.4148C0.407103 35.7697 0.480523 36.2718 0.835461 36.5362L2.89326 38.0689C3.2482 38.3333 3.75024 38.2599 4.01461 37.9049L10.4895 29.2117C10.7538 28.8568 10.6804 28.3547 10.3255 28.0903Z" fill="#303030"/>
<g id="Vector_8" style="mix-blend-mode:screen">
<path d="M8.84754 26.9878C8.68803 26.8748 8.49063 26.8287 8.29758 26.8594C8.10454 26.8902 7.93119 26.9952 7.81465 27.1522L1.27299 35.932C1.15565 36.0891 1.10486 36.2861 1.1316 36.4804C1.15834 36.6746 1.26045 36.8505 1.41587 36.9701L0.79097 36.5044C0.712449 36.4456 0.646301 36.3719 0.596311 36.2874C0.546321 36.203 0.51347 36.1095 0.499639 36.0124C0.485808 35.9153 0.491268 35.8163 0.515707 35.7213C0.540145 35.6263 0.583082 35.537 0.642061 35.4586L7.18372 26.6788C7.24238 26.5999 7.316 26.5335 7.40038 26.4831C7.48476 26.4328 7.57823 26.3996 7.67545 26.3855C7.77268 26.3713 7.87173 26.3765 7.96696 26.4007C8.06218 26.4248 8.1517 26.4676 8.23039 26.5264L8.84754 26.9878Z" fill="#6F6464"/>
</g>
</g>
</g>
</svg>
