<svg width="28" height="29" viewBox="0 0 28 29" fill="none" xmlns="http://www.w3.org/2000/svg">
<g id="Icons">
<path id="Vector" d="M9.33073 13.9474L11.0807 8.97368H21.5807L23.3307 13.9474M21.5807 19.4737C21.1166 19.4737 20.6715 19.299 20.3433 18.9881C20.0151 18.6772 19.8307 18.2555 19.8307 17.8158C19.8307 17.3761 20.0151 16.9544 20.3433 16.6435C20.6715 16.3326 21.1166 16.1579 21.5807 16.1579C22.0449 16.1579 22.49 16.3326 22.8182 16.6435C23.1464 16.9544 23.3307 17.3761 23.3307 17.8158C23.3307 18.2555 23.1464 18.6772 22.8182 18.9881C22.49 19.299 22.0449 19.4737 21.5807 19.4737ZM11.0807 19.4737C10.6166 19.4737 10.1715 19.299 9.84329 18.9881C9.5151 18.6772 9.33073 18.2555 9.33073 17.8158C9.33073 17.3761 9.5151 16.9544 9.84329 16.6435C10.1715 16.3326 10.6166 16.1579 11.0807 16.1579C11.5449 16.1579 11.99 16.3326 12.3182 16.6435C12.6464 16.9544 12.8307 17.3761 12.8307 17.8158C12.8307 18.2555 12.6464 18.6772 12.3182 18.9881C11.99 19.299 11.5449 19.4737 11.0807 19.4737ZM23.2374 8.42105C22.9924 7.75789 22.3274 7.31579 21.5807 7.31579H11.0807C10.3341 7.31579 9.66906 7.75789 9.42406 8.42105L6.9974 15.0526V23.8947C6.9974 24.1879 7.12031 24.469 7.33911 24.6763C7.5579 24.8836 7.85464 25 8.16406 25H9.33073C9.64015 25 9.9369 24.8836 10.1557 24.6763C10.3745 24.469 10.4974 24.1879 10.4974 23.8947V22.7895H22.1641V23.8947C22.1641 24.1879 22.287 24.469 22.5058 24.6763C22.7246 24.8836 23.0213 25 23.3307 25H24.4974C24.8068 25 25.1036 24.8836 25.3224 24.6763C25.5411 24.469 25.6641 24.1879 25.6641 23.8947V15.0526L23.2374 8.42105ZM17.4041 5.10526C17.1591 4.44211 16.4941 4 15.7474 4H5.2474C4.50073 4 3.83573 4.44211 3.59073 5.10526L1.16406 11.7368V20.5789C1.16406 20.8721 1.28698 21.1532 1.50577 21.3605C1.72456 21.5678 2.02131 21.6842 2.33073 21.6842H3.4974C3.80682 21.6842 4.10356 21.5678 4.32235 21.3605C4.54115 21.1532 4.66406 20.8721 4.66406 20.5789V16.0584C4.44871 15.9852 4.2507 15.8726 4.08135 15.7268C3.912 15.5811 3.77464 15.4052 3.67712 15.2091C3.5796 15.013 3.52384 14.8007 3.51302 14.5842C3.5022 14.3677 3.53653 14.1513 3.61406 13.9474C3.87073 13.2842 4.5124 12.8421 5.2474 12.8421H5.32906L6.14573 10.6316H3.4974L5.2474 5.65789H17.6024L17.4041 5.10526Z" fill="#2D65F2"/>
</g>
</svg>
