<svg width="60" height="60" viewBox="0 0 60 60" fill="none" xmlns="http://www.w3.org/2000/svg">
<rect width="60" height="60" rx="30" fill="#4DB429" fillOpacity="0.06"/>
<path d="M29.9995 45.4974C27.8545 45.4974 25.8389 45.0931 23.9526 44.2844C22.0663 43.4757 20.4238 42.3724 19.0251 40.9744C17.6265 39.5763 16.5226 37.9346 15.7135 36.0491C14.9045 34.1637 14.5 32.1484 14.5 30.0034C14.5 27.8499 14.9044 25.8321 15.7132 23.9501C16.522 22.068 17.6256 20.4277 19.0239 19.029C20.4222 17.6304 22.0642 16.5265 23.95 15.7174C25.8358 14.9084 27.8514 14.5039 29.9967 14.5039C31.4059 14.5039 32.7724 14.6863 34.0961 15.0512C35.4198 15.4161 36.6869 15.9553 37.8974 16.669C38.1955 16.8485 38.3824 17.0979 38.4583 17.4174C38.5342 17.7368 38.4722 18.0274 38.2724 18.2892C38.0673 18.5594 37.798 18.7224 37.4647 18.7779C37.1314 18.8335 36.8125 18.7715 36.508 18.592C35.5112 18.0162 34.4623 17.5795 33.3614 17.2819C32.2604 16.9844 31.1389 16.8356 29.9967 16.8356C26.3386 16.8356 23.2299 18.1152 20.6706 20.6745C18.1113 23.2338 16.8317 26.3425 16.8317 30.0007C16.8317 33.6588 18.1113 36.7675 20.6706 39.3268C23.2299 41.8861 26.3386 43.1657 29.9967 43.1657C33.6549 43.1657 36.7636 41.8861 39.3229 39.3268C41.8822 36.7675 43.1618 33.6588 43.1618 30.0007C43.1618 29.6418 43.1495 29.2943 43.125 28.9582C43.1004 28.6222 43.0539 28.2795 42.9855 27.9301C42.93 27.5976 42.9839 27.2851 43.1474 26.9924C43.3108 26.6998 43.5554 26.5081 43.881 26.4173C44.1943 26.3265 44.4868 26.3717 44.7587 26.5527C45.0306 26.7338 45.1944 26.9819 45.2499 27.2971C45.3215 27.7319 45.38 28.1738 45.4254 28.6226C45.4708 29.0714 45.4935 29.5307 45.4935 30.0007C45.4935 32.146 45.0892 34.1616 44.2805 36.0474C43.4718 37.9332 42.3685 39.5753 40.9705 40.9735C39.5724 42.3718 37.9328 43.4754 36.0516 44.2842C34.1705 45.093 32.1531 45.4974 29.9995 45.4974ZM27.665 33.6113L43.0144 18.2571C43.2398 18.0317 43.5109 17.9141 43.8277 17.9045C44.1444 17.8949 44.4263 18.0136 44.6733 18.2606C44.9071 18.4943 45.024 18.7691 45.024 19.0848C45.024 19.4005 44.9059 19.6764 44.6698 19.9125L28.673 35.9141C28.3803 36.2068 28.0443 36.3532 27.665 36.3532C27.2858 36.3532 26.9524 36.2068 26.665 35.9141L22.1586 31.4077C21.9279 31.1823 21.8098 30.9104 21.8045 30.592C21.7991 30.2736 21.9172 29.9937 22.1586 29.7523C22.3947 29.5162 22.6693 29.3981 22.9823 29.3981C23.2954 29.3981 23.5726 29.5162 23.814 29.7523L27.665 33.6113Z" fill="#4DB429"/>
</svg>
