<svg width="16" height="16" viewBox="0 0 16 16" fill="none" xmlns="http://www.w3.org/2000/svg">
<rect width="16" height="16" rx="8" fill="#2D65F2"/>
<path d="M6.78732 9.7655L11.0662 5.48665C11.1364 5.41645 11.219 5.38056 11.314 5.37896C11.409 5.37735 11.4932 5.41325 11.5666 5.48665C11.6384 5.56004 11.6743 5.64345 11.6743 5.73688C11.6743 5.83031 11.6384 5.91292 11.5666 5.98471L7.08972 10.4616C7.0019 10.5494 6.9011 10.5934 6.78732 10.5934C6.67354 10.5934 6.57354 10.5494 6.48732 10.4616L4.44021 8.41452C4.36842 8.34433 4.33236 8.26212 4.33203 8.16788C4.33172 8.07366 4.36825 7.98985 4.44165 7.91646C4.51505 7.84306 4.59846 7.80636 4.69188 7.80636C4.78531 7.80636 4.86872 7.84306 4.94212 7.91646L6.78732 9.7655Z" fill="white"/>
</svg>
