<svg width="16" height="16" viewBox="0 0 16 16" fill="none" xmlns="http://www.w3.org/2000/svg">
<rect width="16" height="16" rx="8" fill="#4DB429"/>
<path d="M6.78341 9.76745L11.0623 5.4886C11.1325 5.41841 11.2151 5.38251 11.3101 5.38091C11.4051 5.3793 11.4893 5.4152 11.5627 5.4886C11.6345 5.56199 11.6704 5.6454 11.6704 5.73884C11.6704 5.83226 11.6345 5.91487 11.5627 5.98666L7.08581 10.4636C6.99799 10.5514 6.89719 10.5953 6.78341 10.5953C6.66963 10.5953 6.56963 10.5514 6.48341 10.4636L4.4363 8.41647C4.36451 8.34628 4.32845 8.26407 4.32813 8.16984C4.32781 8.07561 4.36435 7.9918 4.43774 7.91841C4.51114 7.84501 4.59455 7.80831 4.68798 7.80831C4.7814 7.80831 4.86481 7.84501 4.93821 7.91841L6.78341 9.76745Z" fill="white"/>
</svg>
