<svg width="158" height="100" viewBox="0 0 158 100" fill="none" xmlns="http://www.w3.org/2000/svg">
<g id="Group 1707478363">
<g id="Group 29">
<path id="Vector" d="M33.729 89.535C37.8388 89.0991 49.5453 87.7291 59.5704 91.8389C59.5704 91.8389 63.5949 89.7532 62.9951 83.8494C62.3954 77.9457 57.5764 72.7695 48.3925 72.7695C39.2086 72.7695 30.8648 79.1359 33.729 89.535Z" fill="#6F6464"/>
<path id="Vector_2" d="M124.153 92.1146C125.851 90.4161 142.899 87.8668 149.898 91.4732C149.898 91.4732 153.921 90.2646 152.45 82.8971C150.98 75.5296 146.468 72.4139 137.797 72.1643C129.125 71.9148 123.068 79.337 122.796 83.5802C122.524 87.8233 124.153 92.1146 124.153 92.1146Z" fill="#6F6464"/>
<path id="Vector_3" d="M33.7337 89.5354C33.2355 89.3486 32.4573 89.1306 31.8345 88.5391C31.2118 87.9475 30.1613 84.9861 30.0286 83.0904C29.9655 82.1882 30.4997 82.0444 30.4956 81.409C30.4846 79.7277 30.589 76.0227 30.589 75.7425C30.589 75.4623 30.589 75.0264 31.1807 74.1858C31.7723 73.3451 32.0334 72.7869 32.6751 72.5357C34.0195 72.009 33.5716 70.8583 33.5874 70.0647C33.6594 66.4876 35.279 61.2137 35.6397 60.0191C36.171 58.2595 37.5942 54.8509 42.4512 49.9004C42.4512 49.9004 41.6727 48.5305 41.2991 48.2191C40.9255 47.9077 41.6727 47.7209 42.7314 47.4718C43.79 47.2228 58.2674 45.0121 75.2667 45.0121C92.2659 45.0121 102.416 45.5725 112.814 51.9241C123.213 58.2757 128.444 60.9533 129.378 61.4515C129.876 61.5138 138.531 63.2575 141.458 64.3783C144.385 65.4992 151.11 66.7447 154.036 73.0963C154.783 74.7154 155.344 76.4589 156.153 77.2062C156.963 77.9534 157.71 81.6274 157.212 83.8068C156.714 85.9863 155.406 87.543 156.901 88.7885C158.395 90.034 158.084 90.283 157.025 90.6566C155.966 91.0302 153.725 91.9021 152.168 91.9021C150.612 91.9021 149.89 91.8502 149.902 91.4715C150.326 77.5788 140.945 75.6123 137.029 75.8368C124.679 76.5452 124.729 87.7283 124.157 92.1128C121.977 92.4242 97.8079 92.1511 88.779 91.9019C79.7502 91.6529 60.8205 91.8397 59.5752 91.8397C59.4506 89.7848 59.8242 75.2715 46.8103 75.338C34.6055 75.4001 34.1695 85.5501 33.7337 89.5354Z" fill="#2D65F2"/>
<path id="Vector_4" d="M125.438 63.0689C125.438 63.0689 127.194 61.5247 127.568 61.2692" stroke="#303030" strokeWidth="0.0756093" stroke-miterlimit="10" strokeLinecap="round" stroke-linejoin="round"/>
<path id="Vector_5" d="M131.461 62.2544C131.803 62.9757 132.924 64.2522 133.422 64.5636C133.921 64.875 135.633 65.342 136.94 65.7467C138.248 66.1515 145.596 68.1517 146.187 68.6305" stroke="#303030" strokeWidth="0.0756093" stroke-miterlimit="10" strokeLinecap="round" stroke-linejoin="round"/>
<path id="Vector_6" d="M75.6797 68.8991C75.6797 68.1905 76.1467 67.0555 77.9837 67.0555C79.8207 67.0555 80.0569 68.286 80.0387 68.9391C80.0206 69.5923 79.666 70.8855 77.9531 70.7298C76.2401 70.574 75.6797 69.8486 75.6797 68.8991Z" fill="#2D65F2"/>
<path id="Vector_7" d="M71.9711 47.815C68.6708 47.8013 55.3454 48.6868 53.7264 49.1227C52.1073 49.5585 51.8583 50.1189 51.2979 50.804C50.7375 51.489 47.375 56.5951 47.375 59.2105C47.375 61.8259 48.1844 61.5769 49.6789 61.6391C51.1733 61.7013 72.0333 63.0714 74.0881 63.0714C74.2116 58.5255 73.2163 50.3057 71.9711 47.815Z" fill="#303030"/>
<path id="Vector_8" d="M70.3501 59.5604C70.4248 60.8206 69.3727 61.8593 68.1133 61.7737C64.9468 61.5585 60.5822 61.1877 56.1703 60.9112C52.7153 60.6949 50.219 60.5386 49.7143 60.5174C49.5682 60.5115 49.4283 60.5081 49.2949 60.5051C49.064 60.4997 48.7577 60.4926 48.6198 60.4621C48.5767 60.36 48.4844 60.0444 48.4844 59.209C48.4844 57.0756 51.5342 52.2697 52.154 51.5124C52.2315 51.4176 52.3034 51.3254 52.3737 51.2351C52.7617 50.7367 52.9563 50.4864 54.0063 50.2037C55.198 49.8828 62.4636 49.2189 67.0128 49.0035C68.0279 48.9555 68.9276 49.6424 69.1564 50.6325C69.7028 52.9945 70.1659 56.4509 70.3501 59.5604Z" fill="#F6F6F6"/>
<path id="Vector_9" d="M119.391 59.7413C119.283 59.3346 119.187 59.032 119.114 58.8965C116.312 57.0284 104.543 50.0541 97.9425 49.2445C91.3421 48.435 73.9692 47.6878 71.9766 47.8122C72.288 49.3067 74.0314 61.3249 74.0936 63.0686C76.3975 63.38 116.125 65.8086 120.546 65.933C120.521 65.649 120.464 65.2266 120.387 64.7288C120.127 63.2078 119.561 61.0932 119.391 59.7413Z" fill="#303030"/>
<path id="Vector_10" d="M119.383 59.7441C115.095 57.0696 103.357 50.8037 97.7756 50.1192C92.0288 49.4144 78.3318 48.7714 73.5156 48.6914C74.0159 51.847 74.9787 58.9635 75.2929 61.8714C81.0818 62.3377 110.282 64.2002 120.379 64.7318C120.143 63.2147 119.71 60.9868 119.383 59.7441Z" fill="#F6F6F6"/>
<path id="Vector_11" d="M119.382 59.7405C117.974 58.8619 115.761 57.5956 113.227 56.2671C113.52 57.9945 114.245 62.408 114.348 64.3886C116.722 64.5278 118.788 64.6447 120.379 64.7284C120.142 63.2114 119.71 60.9833 119.382 59.7405Z" fill="#303030"/>
<path id="Vector_12" d="M110.8 61.4201C110.956 61.1398 112.057 60.0189 113.234 59.9877C114.412 59.9565 116.903 60.6728 117.961 61.5757C118.086 62.0428 117.626 63.4142 116.811 64.5649C115.782 65.0632 112.263 64.7829 110.956 64.5649C110.521 64.1629 110.489 62.541 110.8 61.4201Z" fill="#002D9F"/>
<path id="Vector_13" d="M111.049 63.194C111.018 63.0071 111.018 61.7306 111.049 61.4503C111.08 61.1708 111.921 60.4222 112.552 60.1194C111.659 60.4297 110.925 61.1944 110.8 61.4191C110.489 62.5401 110.521 64.1619 110.956 64.564C112.263 64.782 115.782 65.0622 116.811 64.564C117.036 64.2462 117.233 63.9119 117.399 63.5843C115.481 63.6382 111.53 63.4469 111.049 63.194Z" fill="#002D9F"/>
<path id="Vector_14" d="M119.094 58.8969C121.865 60.5471 126.348 63.0382 126.598 64.1592C126.847 65.2801 125.446 65.7472 124.231 65.934C123.423 66.0583 121.06 65.9531 120.526 65.934L119.094 58.8969Z" fill="#303030"/>
<path id="Vector_15" d="M119.258 59.6689C120.974 60.7234 124.674 63.3825 125.048 63.7251C125.422 64.0676 125.588 64.3175 125.276 64.5877C124.965 64.8578 124.424 64.844 123.615 64.844C122.805 64.844 120.96 64.7629 120.287 64.7271L119.258 59.6689Z" fill="#303030"/>
<path id="Vector_16" d="M74.0842 63.0707C72.7144 65.437 71.3443 68.2392 71.9671 77.7666C72.5898 87.294 73.6484 88.4149 75.4542 88.5395C77.2601 88.6641 119.167 89.5358 119.727 89.5982C120.225 88.7887 121.097 85.1147 121.346 78.3895C121.595 71.6642 121.033 67.1574 120.537 65.9353L74.0842 63.0707Z" stroke="#303030" strokeWidth="0.0756093" stroke-miterlimit="10" strokeLinecap="round" stroke-linejoin="round"/>
<path id="Vector_17" d="M73.8148 68.8286C73.7894 69.1077 73.9704 69.4513 74.6867 69.389C75.9585 69.2784 79.7072 69.5056 80.3534 69.6381C80.9606 69.7627 81.4743 68.7544 80.6959 68.5171C79.9174 68.2799 77.5825 68.2473 76.4302 68.2369C74.562 68.2199 73.877 68.1435 73.8148 68.8286Z" fill="#002D9F"/>
<path id="Vector_18" opacity="0.45" d="M153.485 72.6435C152.744 71.6974 150.521 69.4637 146.694 68.6304C143.139 67.8564 142.859 69.2389 142.893 69.59C142.895 69.6049 142.897 69.6199 142.9 69.635C142.902 69.6412 142.903 69.6472 142.905 69.6516C142.953 69.8482 143.081 70.0488 143.304 70.2614C144.643 71.538 149.064 74.7141 151.71 75.8662C152.359 76.1483 152.668 75.3057 153.088 75.3057C153.509 75.3057 154.513 75.656 154.606 75.7494C154.489 75.2357 153.859 72.9704 153.485 72.6435Z" fill="white"/>
<path id="Vector_19" d="M153.485 72.6435C152.744 71.6974 150.521 69.4637 146.694 68.6304C143.139 67.8564 142.859 69.2389 142.893 69.59C142.895 69.6049 142.897 69.6199 142.9 69.635C142.902 69.6412 142.903 69.6472 142.905 69.6516C142.953 69.8482 143.081 70.0488 143.304 70.2614C144.643 71.538 149.064 74.7141 151.71 75.8662C152.359 76.1483 152.668 75.3057 153.088 75.3057C153.509 75.3057 154.513 75.656 154.606 75.7494C154.489 75.2357 153.859 72.9704 153.485 72.6435Z" fill="white"/>
<path id="Vector_20" d="M35.6395 60.0167C35.2423 61.1998 33.6591 66.4852 33.5872 70.0623C33.5771 70.5607 33.7496 71.1998 33.5469 71.7367H33.5472C33.9515 71.3812 34.9167 70.7898 35.0723 69.3263C35.2279 67.8632 33.8785 59.8196 42.4511 49.8978C39.9672 52.5367 37.5197 54.4172 35.6395 60.0167Z" fill="#303030"/>
<path id="Vector_21" opacity="0.2" d="M61.8806 88.8811C61.5069 85.3005 59.6359 73.581 47.372 73.3139C33.9197 73.0209 31.8359 84.491 31.8359 88.5385C32.4586 89.1301 33.237 89.3479 33.7352 89.5348C34.171 85.5495 34.607 75.3992 46.8115 75.337C59.8257 75.2707 59.4521 89.7838 59.5765 91.8387C59.8147 91.8387 60.7013 91.8318 62.0401 91.8226C62.0246 90.8337 61.9783 89.8181 61.8806 88.8811Z" fill="white"/>
<path id="Vector_22" opacity="0.2" d="M137.123 73.5965C123.907 73.8149 122.459 86.2379 122.344 90.0431L122.522 92.2019C123.328 92.1804 123.893 92.152 124.149 92.1154C124.721 87.7309 124.671 76.5478 137.022 75.8394C140.938 75.6147 150.319 77.5812 149.894 91.4739C150.617 91.1057 151.914 89.8808 151.881 87.8531C151.787 82.1714 147.87 73.4189 137.123 73.5965Z" fill="white"/>
<path id="Vector_23" d="M137.116 99.6869C143.1 99.6869 147.951 94.8359 147.951 88.8518C147.951 82.8678 143.1 78.0167 137.116 78.0167C131.132 78.0167 126.281 82.8678 126.281 88.8518C126.281 94.8359 131.132 99.6869 137.116 99.6869Z" fill="#303030"/>
<path id="Vector_24" d="M137.118 96.3987C141.287 96.3987 144.666 93.0192 144.666 88.8503C144.666 84.6815 141.287 81.302 137.118 81.302C132.95 81.302 129.57 84.6815 129.57 88.8503C129.57 93.0192 132.95 96.3987 137.118 96.3987Z" fill="#999999"/>
<path id="Vector_25" d="M138.792 87.7902L142.32 85.8887C142.667 85.7018 142.773 85.2514 142.542 84.9325C141.71 83.7848 140.524 82.9116 139.143 82.4746C138.767 82.3556 138.372 82.5968 138.304 82.985L137.607 86.9341C137.489 87.6026 138.195 88.1121 138.792 87.7902ZM136.628 86.9377L135.905 82.9925C135.833 82.6048 135.437 82.3663 135.062 82.4879C133.685 82.9342 132.504 83.8158 131.68 84.9699C131.451 85.2903 131.56 85.7401 131.908 85.9245L135.45 87.8018C136.049 88.1196 136.751 87.6052 136.628 86.9377ZM136.394 90.6869L134.646 94.2958C134.475 94.6495 134.651 95.0762 135.024 95.1999C135.685 95.4188 136.391 95.538 137.125 95.538C137.859 95.538 138.564 95.4188 139.225 95.1999C139.598 95.0762 139.774 94.6495 139.603 94.2958L137.856 90.6869C137.559 90.0762 136.689 90.0762 136.394 90.6869ZM143.068 88.1679L139.096 88.7204C138.424 88.8138 138.156 89.6418 138.647 90.1111L141.543 92.8844C141.825 93.1553 142.285 93.1203 142.517 92.8048C143.331 91.6973 143.811 90.3303 143.811 88.8508C143.811 88.834 143.811 88.8172 143.811 88.8004C143.808 88.4097 143.455 88.1141 143.068 88.1679ZM135.152 88.734L131.175 88.209C130.789 88.158 130.438 88.4542 130.438 88.8433C130.438 88.8457 130.438 88.8482 130.438 88.8508C130.438 90.3467 130.929 91.7273 131.76 92.841C131.994 93.1553 132.454 93.1872 132.735 92.9143L135.611 90.1216C136.098 89.6489 135.825 88.8228 135.152 88.734Z" fill="#6F6464"/>
<path id="Vector_26" d="M46.3823 100C52.5392 100 57.5303 95.0088 57.5303 88.8518C57.5303 82.6947 52.5392 77.7034 46.3823 77.7034C40.2255 77.7034 35.2344 82.6947 35.2344 88.8518C35.2344 95.0088 40.2255 100 46.3823 100Z" fill="#303030"/>
<path id="Vector_27" d="M46.3834 96.6181C50.6726 96.6181 54.1497 93.1409 54.1497 88.8516C54.1497 84.5623 50.6726 81.0851 46.3834 81.0851C42.0943 81.0851 38.6172 84.5623 38.6172 88.8516C38.6172 93.1409 42.0943 96.6181 46.3834 96.6181Z" fill="#999999"/>
<path id="Vector_28" d="M48.0883 87.7597L51.7185 85.8032C52.0752 85.611 52.1841 85.1475 51.9465 84.8194C51.0912 83.6385 49.8703 82.74 48.4496 82.2905C48.0629 82.1682 47.6564 82.4163 47.5859 82.8157L46.8693 86.879C46.7479 87.5667 47.4736 88.0909 48.0883 87.7597ZM45.8623 86.8825L45.1173 82.8232C45.0441 82.4243 44.6357 82.179 44.2499 82.304C42.8329 82.7632 41.618 83.6702 40.7704 84.8579C40.535 85.1876 40.6471 85.6504 41.005 85.8402L44.6491 87.7716C45.2662 88.0986 45.9882 87.5693 45.8623 86.8825ZM45.6206 90.7401L43.8225 94.4534C43.6463 94.8172 43.8279 95.2564 44.2116 95.3837C44.8911 95.609 45.6174 95.7315 46.3725 95.7315C47.1277 95.7315 47.8538 95.609 48.5335 95.3837C48.9172 95.2564 49.0988 94.8174 48.9226 94.4534L47.1245 90.7401C46.8202 90.1116 45.9249 90.1116 45.6206 90.7401ZM52.488 88.1483L48.4014 88.7166C47.7098 88.8128 47.4344 89.6645 47.9386 90.1477L50.9182 93.0011C51.2093 93.2798 51.6823 93.2439 51.9209 92.9192C52.758 91.7798 53.2527 90.3732 53.2527 88.8509C53.2527 88.8335 53.2527 88.8164 53.2525 88.799C53.2493 88.3971 52.8862 88.093 52.488 88.1483ZM44.3427 88.7308L40.2514 88.1907C39.8544 88.1382 39.4926 88.4429 39.4922 88.8433C39.4922 88.8459 39.4922 88.8483 39.4922 88.8509C39.4922 90.3902 39.9985 91.8106 40.8526 92.9566C41.0936 93.2798 41.567 93.3129 41.8562 93.0319L44.8154 90.1585C45.3164 89.672 45.0351 88.8221 44.3427 88.7308Z" fill="#6F6464"/>
</g>
<g id="Group 4">
<path id="Vector_29" d="M45.9336 12.8132C51.5704 12.8132 57.0807 14.4849 61.7675 17.6167C66.4543 20.7486 70.1073 25.2 72.2644 30.408C74.4215 35.6161 74.9859 41.3469 73.8862 46.8758C72.7865 52.4047 70.0722 57.4832 66.0863 61.4693C62.1005 65.4554 57.0222 68.17 51.4937 69.2697C45.9652 70.3695 40.2348 69.8051 35.027 67.6478C29.8193 65.4905 25.3682 61.8374 22.2365 57.1502C19.1049 52.4631 17.4334 46.9525 17.4334 41.3153C17.4334 33.7561 20.4361 26.5065 25.7809 21.1613C31.1257 15.8161 38.3749 12.8132 45.9336 12.8132ZM45.9336 7.93303C37.6828 7.94248 29.7296 11.0163 23.6167 16.5582C17.5039 22.1002 13.6672 29.7152 12.8509 37.926C12.0346 46.1369 14.2968 54.3583 19.1988 60.9955C24.1009 67.6326 31.2932 72.2124 39.3806 73.8464C47.468 75.4804 55.874 74.0521 62.968 69.8386C70.062 65.6251 75.3383 58.9268 77.7733 51.043C80.2084 43.1592 79.6286 34.6519 76.1465 27.1714C72.6643 19.6908 66.5281 13.7704 58.928 10.5584C54.8172 8.81818 50.3976 7.92524 45.9336 7.93303Z" fill="#999999"/>
<path id="Vector_30" d="M30.573 67.5525L24.9062 63.3314L20.8335 68.7997L26.5002 73.0208L30.573 67.5525Z" fill="#999999"/>
<path id="Vector_31" opacity="0.5" d="M66.5968 61.9679C78.0041 50.5599 78.0041 32.0639 66.5968 20.6559C55.1896 9.24788 36.6948 9.24787 25.2875 20.6559C13.8802 32.0639 13.8802 50.5599 25.2875 61.9679C36.6948 73.3759 55.1896 73.3759 66.5968 61.9679Z" fill="#DDDDDD"/>
<g id="Group" opacity="0.49">
<path id="Vector_32" d="M70.777 43.3985C70.2246 43.3985 69.6949 43.179 69.3043 42.7884C68.9137 42.3978 68.6943 41.868 68.6943 41.3155C68.6895 35.2824 66.2909 29.4977 62.0251 25.2317C57.7593 20.9656 51.975 18.5668 45.9423 18.5621C45.6629 18.5713 45.3845 18.5241 45.1237 18.4235C44.8629 18.3229 44.6249 18.1708 44.4241 17.9764C44.2232 17.782 44.0635 17.5492 43.9544 17.2918C43.8453 17.0344 43.7891 16.7576 43.7891 16.4781C43.7891 16.1985 43.8453 15.9218 43.9544 15.6644C44.0635 15.407 44.2232 15.1742 44.4241 14.9797C44.6249 14.7853 44.8629 14.6333 45.1237 14.5327C45.3845 14.4321 45.6629 14.3849 45.9423 14.3941C53.0795 14.4017 59.9222 17.2406 64.9689 22.2877C70.0157 27.3348 72.8543 34.1779 72.862 41.3155C72.8614 41.8682 72.6415 42.398 72.2506 42.7885C71.8596 43.1791 71.3296 43.3985 70.777 43.3985Z" fill="white"/>
</g>
<g id="Vector_33" style="mix-blend-mode:multiply">
<path d="M45.9367 12.1035C40.1595 12.1035 34.512 13.8168 29.7084 17.0266C24.9048 20.2365 21.1609 24.7988 18.9501 30.1366C16.7392 35.4744 16.1608 41.3479 17.2878 47.0145C18.4149 52.6811 21.1969 57.8862 25.282 61.9715C29.3671 66.0569 34.5719 68.8391 40.2381 69.9662C45.9043 71.0934 51.7775 70.5149 57.1149 68.3039C62.4524 66.0929 67.0144 62.3487 70.224 57.5449C73.4337 52.741 75.1468 47.0931 75.1468 41.3155C75.1468 37.4794 74.3913 33.6807 72.9233 30.1366C71.4554 26.5924 69.3038 23.3721 66.5914 20.6595C63.879 17.9469 60.6589 15.7952 57.1149 14.3271C53.571 12.8591 49.7726 12.1035 45.9367 12.1035ZM45.9367 69.8154C40.2998 69.8154 34.7895 68.1437 30.1026 65.0118C25.4157 61.8798 21.7627 57.4283 19.6057 52.2201C17.4486 47.0119 16.8844 41.2809 17.9842 35.752C19.0841 30.2231 21.7987 25.1445 25.7848 21.1585C29.7708 17.1725 34.8493 14.4581 40.3779 13.3586C45.9066 12.2591 51.6371 12.8238 56.8448 14.9814C62.0525 17.139 66.5035 20.7926 69.6349 25.48C72.7662 30.1674 74.4374 35.6783 74.4369 41.3155C74.4369 45.0584 73.6997 48.7646 72.2674 52.2225C70.8351 55.6804 68.7358 58.8223 66.0893 61.4688C63.4428 64.1152 60.3009 66.2145 56.8431 67.6466C53.3853 69.0787 49.6793 69.8157 45.9367 69.8154Z" fill="#002D9F"/>
</g>
<g id="Vector_34" style="mix-blend-mode:multiply">
<path d="M28.8502 69.8695L24.7781 75.3394L23.2891 74.2298L27.3634 68.7621L28.8502 69.8695Z" fill="#6F6464"/>
</g>
<path id="Vector_35" d="M26.3552 72.8559L21.0183 68.8806C20.0978 68.1949 18.7957 68.3853 18.1101 69.3059L1.31763 91.8526C0.63199 92.7732 0.822404 94.0753 1.74293 94.761L7.07982 98.7364C8.00035 99.4221 9.30241 99.2316 9.98805 98.311L26.7805 75.7644C27.4662 74.8438 27.2757 73.5416 26.3552 72.8559Z" fill="#303030"/>
<g id="Vector_36" style="mix-blend-mode:screen">
<path d="M22.5211 69.9976C22.1074 69.7045 21.5955 69.585 21.0948 69.6647C20.5941 69.7444 20.1446 70.017 19.8423 70.424L2.87656 93.1953C2.57225 93.6028 2.44053 94.1136 2.50987 94.6175C2.57922 95.1213 2.84406 95.5776 3.24713 95.8877L1.62645 94.6799C1.42281 94.5273 1.25125 94.336 1.12161 94.1171C0.991957 93.8981 0.906759 93.6557 0.870889 93.4038C0.835018 93.1518 0.849178 92.8953 0.912559 92.6488C0.97594 92.4024 1.0873 92.1708 1.24026 91.9674L18.206 69.1961C18.3581 68.9917 18.5491 68.8193 18.7679 68.6888C18.9868 68.5583 19.2292 68.4722 19.4813 68.4355C19.7335 68.3988 19.9904 68.4122 20.2373 68.4749C20.4843 68.5376 20.7165 68.6484 20.9205 68.801L22.5211 69.9976Z" fill="#6F6464"/>
</g>
</g>
</g>
</svg>
