<svg width="178" height="121" viewBox="0 0 178 121" fill="none" xmlns="http://www.w3.org/2000/svg">
<path d="M17.0274 80.6898C21.9604 80.1666 36.0121 78.5221 48.0456 83.4552C48.0456 83.4552 52.8764 80.9517 52.1564 73.8654C51.4366 66.7793 45.6522 60.5664 34.6284 60.5664C23.6047 60.5664 13.5893 68.2079 17.0274 80.6898Z" fill="#6F6464"/>
<path d="M125.554 83.7854C127.593 81.7467 148.056 78.6869 156.457 83.0156C156.457 83.0156 161.286 81.5649 159.52 72.7217C157.755 63.8786 152.339 60.139 141.931 59.8394C131.522 59.5398 124.252 68.4486 123.925 73.5418C123.599 78.6346 125.554 83.7854 125.554 83.7854Z" fill="#6F6464"/>
<path d="M17.0141 80.6907C16.4161 80.4665 15.482 80.2048 14.7344 79.4949C13.987 78.7848 12.726 75.2303 12.5668 72.9548C12.491 71.872 13.1323 71.6994 13.1273 70.9368C13.1141 68.9187 13.2395 64.4716 13.2395 64.1353C13.2395 63.7989 13.2395 63.2758 13.9496 62.2668C14.6597 61.2578 14.9732 60.5878 15.7434 60.2862C17.3572 59.6541 16.8195 58.2728 16.8386 57.3203C16.9249 53.0268 18.8689 46.6966 19.3019 45.2627C19.9396 43.1507 21.648 39.0594 27.478 33.1174C27.478 33.1174 26.5436 31.4731 26.0952 31.0993C25.6467 30.7255 26.5436 30.5013 27.8143 30.2024C29.085 29.9035 46.4627 27.25 66.8675 27.25C87.2723 27.25 99.4553 27.9227 111.937 35.5464C124.42 43.1702 130.698 46.3841 131.819 46.9821C132.417 47.0567 142.806 49.1497 146.319 50.495C149.832 51.8404 157.905 53.3353 161.417 60.9591C162.314 62.9025 162.987 64.9952 163.958 65.8921C164.93 66.789 165.827 71.1989 165.229 73.8148C164.631 76.4308 163.062 78.2993 164.855 79.7943C166.649 81.2892 166.275 81.5881 165.005 82.0365C163.734 82.485 161.044 83.5315 159.175 83.5315C157.307 83.5315 156.441 83.4691 156.454 83.0146C156.964 66.3395 145.704 63.979 141.003 64.2485C126.178 65.0988 126.239 78.5218 125.552 83.7844C122.936 84.1582 93.9245 83.8304 83.0869 83.5312C72.2492 83.2323 49.5273 83.4566 48.0326 83.4566C47.883 80.9901 48.3315 63.57 32.7103 63.6498C18.0606 63.7243 17.5372 75.9073 17.0141 80.6907Z" fill="#2D65F2"/>
<path d="M127.086 48.9217C127.086 48.9217 129.195 47.0685 129.643 46.7617" stroke="#303030" stroke-width="0.102361" stroke-miterlimit="10" stroke-linecap="round" stroke-linejoin="round"/>
<path d="M134.332 47.9492C134.743 48.815 136.088 50.3471 136.686 50.7209C137.284 51.0947 139.34 51.6553 140.909 52.1409C142.479 52.6268 151.299 55.0276 152.009 55.6023" stroke="#303030" stroke-width="0.102361" stroke-miterlimit="10" stroke-linecap="round" stroke-linejoin="round"/>
<path d="M67.3574 55.9197C67.3574 55.0692 67.918 53.707 70.1228 53.707C72.3277 53.707 72.6111 55.1838 72.5893 55.9677C72.5676 56.7516 72.142 58.3037 70.0861 58.1169C68.0301 57.9299 67.3574 57.0592 67.3574 55.9197Z" fill="#2D65F2"/>
<path d="M62.9063 30.6135C58.9449 30.5971 42.95 31.6599 41.0066 32.1831C39.0632 32.7062 38.7643 33.3789 38.0916 34.2011C37.4189 35.0234 33.3828 41.1522 33.3828 44.2914C33.3828 47.4306 34.3544 47.1317 36.1482 47.2063C37.9421 47.281 62.981 48.9255 65.4475 48.9255C65.5957 43.4691 64.401 33.6031 62.9063 30.6135Z" fill="#303030"/>
<path d="M60.9786 44.7172C61.0683 46.2298 59.8054 47.4765 58.2937 47.3738C54.4928 47.1155 49.2539 46.6704 43.9581 46.3386C39.811 46.0789 36.8146 45.8912 36.2087 45.8659C36.0334 45.8587 35.8654 45.8547 35.7054 45.8511C35.4282 45.8446 35.0605 45.8361 34.895 45.7995C34.8432 45.6769 34.7324 45.2981 34.7324 44.2954C34.7324 41.7347 38.3932 35.9662 39.1372 35.0572C39.2302 34.9435 39.3166 34.8327 39.4009 34.7244C39.8666 34.1262 40.1002 33.8257 41.3606 33.4865C42.791 33.1012 51.5121 32.3043 56.9728 32.0458C58.1912 31.9882 59.2711 32.8127 59.5458 34.0011C60.2016 36.8362 60.7575 40.9849 60.9786 44.7172Z" fill="#F6F6F6"/>
<path d="M119.817 44.9323C119.688 44.4442 119.573 44.0809 119.485 43.9184C116.121 41.6761 101.995 33.305 94.0721 32.3332C86.1494 31.3616 65.2961 30.4647 62.9043 30.614C63.2781 32.4078 65.3708 46.8331 65.4455 48.926C68.2109 49.2998 115.897 52.2148 121.204 52.3641C121.174 52.0233 121.106 51.5163 121.013 50.9188C120.701 49.0931 120.021 46.5551 119.817 44.9323Z" fill="#303030"/>
<path d="M119.826 44.9344C114.678 41.7242 100.589 34.2033 93.8896 33.3817C86.9915 32.5357 70.5506 31.7639 64.7695 31.668C65.37 35.4556 66.5257 43.9974 66.9028 47.4877C73.8515 48.0474 108.902 50.2829 121.021 50.9211C120.737 49.1001 120.219 46.426 119.826 44.9344Z" fill="#F6F6F6"/>
<path d="M119.822 44.9306C118.131 43.876 115.475 42.3562 112.434 40.7617C112.786 42.8349 113.655 48.1321 113.78 50.5091C116.628 50.6762 119.108 50.8165 121.018 50.917C120.734 49.0963 120.215 46.4221 119.822 44.9306Z" fill="#303030"/>
<path d="M109.501 46.943C109.688 46.6066 111.01 45.2613 112.423 45.2238C113.836 45.1864 116.826 46.0461 118.097 47.1298C118.246 47.6903 117.695 49.3364 116.716 50.7174C115.481 51.3154 111.258 50.9791 109.688 50.7174C109.167 50.2349 109.128 48.2884 109.501 46.943Z" fill="#002D9F"/>
<path d="M109.8 49.0768C109.763 48.8526 109.763 47.3205 109.8 46.9841C109.838 46.6487 110.847 45.7502 111.604 45.3867C110.532 45.7592 109.651 46.6769 109.501 46.9467C109.128 48.292 109.167 50.2386 109.688 50.7211C111.258 50.9828 115.481 51.3191 116.716 50.7211C116.986 50.3397 117.222 49.9385 117.422 49.5453C115.12 49.6101 110.377 49.3804 109.8 49.0768Z" fill="#002D9F"/>
<path d="M119.482 43.918C122.808 45.8986 128.19 48.8884 128.489 50.2338C128.788 51.5792 127.106 52.1397 125.649 52.364C124.679 52.5131 121.842 52.3868 121.202 52.364L119.482 43.918Z" fill="#303030"/>
<path d="M119.67 44.8398C121.729 46.1054 126.171 49.2968 126.62 49.7081C127.068 50.1191 127.267 50.4191 126.894 50.7433C126.52 51.0676 125.871 51.051 124.899 51.051C123.928 51.051 121.713 50.9536 120.905 50.9106L119.67 44.8398Z" fill="#303030"/>
<path d="M65.4436 48.9258C63.7993 51.7661 62.1548 55.1295 62.9024 66.5651C63.6498 78.0008 64.9205 79.3461 67.0881 79.4957C69.2557 79.6453 119.558 80.6915 120.23 80.7664C120.828 79.7948 121.875 75.3849 122.174 67.3127C122.473 59.2405 121.797 53.831 121.202 52.3641L65.4436 48.9258Z" stroke="#303030" stroke-width="0.102361" stroke-miterlimit="10" stroke-linecap="round" stroke-linejoin="round"/>
<path d="M65.1102 55.8407C65.0797 56.1757 65.2969 56.5881 66.1566 56.5134C67.6832 56.3807 72.1825 56.6533 72.9581 56.8123C73.6869 56.9619 74.3035 55.7517 73.3692 55.4669C72.4348 55.1822 69.6324 55.1432 68.2494 55.1306C66.0071 55.1102 65.1848 55.0185 65.1102 55.8407Z" fill="#002D9F"/>
<path opacity="0.45" d="M160.736 60.419C159.846 59.2835 157.178 56.6026 152.585 55.6025C148.317 54.6736 147.982 56.3328 148.022 56.7542C148.025 56.7721 148.027 56.79 148.031 56.8082C148.033 56.8156 148.035 56.8228 148.037 56.8282C148.094 57.064 148.248 57.3049 148.515 57.56C150.122 59.0922 155.429 62.9041 158.606 64.2869C159.383 64.6255 159.755 63.6142 160.259 63.6142C160.764 63.6142 161.969 64.0346 162.081 64.1467C161.941 63.5301 161.184 60.8113 160.736 60.419Z" fill="white"/>
<path d="M160.736 60.419C159.846 59.2835 157.178 56.6026 152.585 55.6025C148.317 54.6736 147.982 56.3328 148.022 56.7542C148.025 56.7721 148.027 56.79 148.031 56.8082C148.033 56.8156 148.035 56.8228 148.037 56.8282C148.094 57.064 148.248 57.3049 148.515 57.56C150.122 59.0922 155.429 62.9041 158.606 64.2869C159.383 64.6255 159.755 63.6142 160.259 63.6142C160.764 63.6142 161.969 64.0346 162.081 64.1467C161.941 63.5301 161.184 60.8113 160.736 60.419Z" fill="white"/>
<path d="M19.3009 45.2666C18.8242 46.6867 16.9238 53.0308 16.8375 57.3243C16.8254 57.9225 17.0324 58.6896 16.7891 59.334H16.7895C17.2747 58.9073 18.4333 58.1974 18.6201 56.4408C18.8069 54.6847 17.1871 45.0301 27.4771 33.1211C24.4956 36.2885 21.5577 38.5456 19.3009 45.2666Z" fill="#303030"/>
<path opacity="0.2" d="M50.7901 79.9066C50.3417 75.6088 48.0958 61.5421 33.375 61.2215C17.2278 60.8699 14.7266 74.6372 14.7266 79.4954C15.4739 80.2055 16.4083 80.467 17.0063 80.6912C17.5294 75.9077 18.0528 63.7245 32.7023 63.6498C48.3236 63.5702 47.8752 80.9901 48.0245 83.4566C48.3104 83.4566 49.3746 83.4483 50.9816 83.4373C50.963 82.2502 50.9074 81.0313 50.7901 79.9066Z" fill="white"/>
<path opacity="0.2" d="M141.123 61.554C125.259 61.8161 123.521 76.7273 123.383 81.2946L123.597 83.8858C124.564 83.86 125.242 83.8259 125.55 83.7819C126.237 78.5193 126.177 65.0963 141.001 64.2461C145.703 63.9763 156.963 66.3368 156.453 83.0119C157.32 82.57 158.877 81.0997 158.837 78.6659C158.724 71.8463 154.023 61.3407 141.123 61.554Z" fill="white"/>
<path d="M141.113 92.8737C148.295 92.8737 154.118 87.0511 154.118 79.8685C154.118 72.6859 148.295 66.8633 141.113 66.8633C133.93 66.8633 128.107 72.6859 128.107 79.8685C128.107 87.0511 133.93 92.8737 141.113 92.8737Z" fill="#303030"/>
<path d="M141.115 88.9289C146.119 88.9289 150.175 84.8725 150.175 79.8688C150.175 74.865 146.119 70.8086 141.115 70.8086C136.111 70.8086 132.055 74.865 132.055 79.8688C132.055 84.8725 136.111 88.9289 141.115 88.9289Z" fill="#999999"/>
<path d="M143.113 78.5961L147.348 76.3139C147.764 76.0896 147.891 75.549 147.614 75.1663C146.616 73.7888 145.192 72.7408 143.535 72.2163C143.084 72.0735 142.609 72.363 142.527 72.8289L141.691 77.5687C141.55 78.3709 142.396 78.9824 143.113 78.5961ZM140.517 77.5729L139.648 72.8379C139.562 72.3726 139.086 72.0863 138.636 72.2322C136.983 72.7679 135.566 73.8261 134.577 75.2111C134.303 75.5957 134.433 76.1356 134.851 76.3569L139.102 78.61C139.821 78.9914 140.664 78.3741 140.517 77.5729ZM140.235 82.0727L138.137 86.4041C137.932 86.8286 138.144 87.3407 138.591 87.4892C139.384 87.752 140.231 87.895 141.112 87.895C141.993 87.895 142.84 87.752 143.633 87.4892C144.081 87.3407 144.292 86.8286 144.087 86.4041L141.989 82.0727C141.634 81.3397 140.59 81.3397 140.235 82.0727ZM148.246 79.0495L143.479 79.7125C142.672 79.8246 142.351 80.8184 142.939 81.3816L146.415 84.7101C146.754 85.0352 147.306 84.9933 147.584 84.6146C148.561 83.2853 149.138 81.6447 149.138 79.869C149.138 79.8488 149.138 79.8286 149.138 79.8085C149.134 79.3396 148.71 78.9849 148.246 79.0495ZM138.744 79.7289L133.972 79.0988C133.508 79.0376 133.087 79.393 133.086 79.86C133.086 79.863 133.086 79.8659 133.086 79.869C133.086 81.6644 133.676 83.3214 134.673 84.6581C134.954 85.0352 135.506 85.0736 135.843 84.746L139.295 81.3942C139.88 80.8269 139.552 79.8354 138.744 79.7289Z" fill="#6F6464"/>
<path d="M32.186 93.2508C39.5763 93.2508 45.5673 87.2598 45.5673 79.8695C45.5673 72.4793 39.5763 66.4883 32.186 66.4883C24.7957 66.4883 18.8047 72.4793 18.8047 79.8695C18.8047 87.2598 24.7957 93.2508 32.186 93.2508Z" fill="#303030"/>
<path d="M32.1951 89.1949C37.3436 89.1949 41.5172 85.0213 41.5172 79.8728C41.5172 74.7244 37.3436 70.5508 32.1951 70.5508C27.0467 70.5508 22.873 74.7244 22.873 79.8728C22.873 85.0213 27.0467 89.1949 32.1951 89.1949Z" fill="#999999"/>
<path d="M34.2588 78.5587L38.616 76.2106C39.0441 75.9799 39.1748 75.4236 38.8896 75.0298C37.8631 73.6125 36.3977 72.5342 34.6925 71.9947C34.2283 71.8478 33.7404 72.1456 33.6559 72.625L32.7957 77.5017C32.65 78.3271 33.5211 78.9563 34.2588 78.5587ZM31.5872 77.506L30.6929 72.634C30.605 72.1552 30.1149 71.8608 29.6518 72.0108C27.9511 72.562 26.4929 73.6506 25.4756 75.076C25.1931 75.4718 25.3276 76.0272 25.7572 76.255L30.131 78.5731C30.8716 78.9655 31.7383 78.3303 31.5872 77.506ZM31.297 82.1359L29.1388 86.5926C28.9274 87.0292 29.1453 87.5563 29.6059 87.709C30.4214 87.9795 31.2932 88.1266 32.1995 88.1266C33.1059 88.1266 33.9774 87.9795 34.7932 87.709C35.2537 87.5563 35.4717 87.0294 35.2602 86.5926L33.102 82.1359C32.7368 81.3816 31.6623 81.3816 31.297 82.1359ZM39.5396 79.0251L34.6346 79.7072C33.8045 79.8227 33.474 80.845 34.0792 81.4248L37.6554 84.8495C38.0048 85.184 38.5725 85.141 38.8589 84.7512C39.8637 83.3837 40.4574 81.6955 40.4574 79.8685C40.4574 79.8476 40.4574 79.827 40.4572 79.8061C40.4534 79.3238 40.0175 78.9588 39.5396 79.0251ZM29.7633 79.7243L24.8527 79.076C24.3762 79.013 23.9419 79.3788 23.9414 79.8593C23.9414 79.8624 23.9414 79.8653 23.9414 79.8685C23.9414 81.7159 24.5491 83.4207 25.5742 84.7961C25.8635 85.184 26.4317 85.2237 26.7788 84.8865L30.3306 81.4378C30.932 80.8539 30.5943 79.8339 29.7633 79.7243Z" fill="#6F6464"/>
<path fill-rule="evenodd" clip-rule="evenodd" d="M173.334 0.251634V0.25H177.035V18.1581C177.035 19.1802 176.206 20.0087 175.184 20.0087C174.162 20.0087 173.334 19.1802 173.334 18.1581V3.95279H158.145C157.123 3.95279 156.295 3.12426 156.295 2.10221C156.295 1.08017 157.123 0.251634 158.145 0.251634H173.334ZM4.666 3.95291H19.8545C20.8765 3.95291 21.705 3.12438 21.705 2.10234C21.705 1.08029 20.8765 0.25176 19.8545 0.25176H2.81542L0.964844 0.25189V18.1582C0.964844 19.1803 1.79337 20.0088 2.81542 20.0088C3.83746 20.0088 4.666 19.1803 4.666 18.1582V3.95291ZM2.81542 100.493C3.83746 100.493 4.666 101.321 4.666 102.343V116.549H19.8545C20.8765 116.549 21.705 117.377 21.705 118.399C21.705 119.421 20.8765 120.25 19.8545 120.25L0.964844 120.25V102.343C0.964844 101.321 1.79337 100.493 2.81542 100.493ZM175.184 100.493C176.206 100.493 177.035 101.321 177.035 102.344V120.25L158.145 120.25C157.123 120.25 156.295 119.421 156.295 118.399C156.295 117.377 157.123 116.549 158.145 116.549H173.334V102.344C173.334 101.321 174.162 100.493 175.184 100.493Z" fill="#DDDDDD"/>
<mask id="path-30-inside-1_5452_30290" fill="white">
<path d="M4.99609 37.9648H172.996V115.965H4.99609V37.9648Z"/>
</mask>
<path d="M4.99609 37.9648H172.996V115.965H4.99609V37.9648Z" fill="url(#paint0_linear_5452_30290)" fill-opacity="0.2"/>
<path d="M4.99609 38.8901H172.996V37.0396H4.99609V38.8901Z" fill="#303030" mask="url(#path-30-inside-1_5452_30290)"/>
<defs>
<linearGradient id="paint0_linear_5452_30290" x1="88.9961" y1="37.9648" x2="88.9961" y2="115.965" gradientUnits="userSpaceOnUse">
<stop offset="0.471259" stop-color="#2D65F2"/>
<stop offset="1" stop-color="white" stop-opacity="0"/>
</linearGradient>
</defs>
</svg>
