<svg width="148" height="100" viewBox="0 0 148 100" fill="none" xmlns="http://www.w3.org/2000/svg">
<g id="Group 22">
<g id="Group 29">
<path id="Vector" d="M14.0261 67.0336C18.1369 66.5977 29.8467 65.2273 39.8746 69.3381C39.8746 69.3381 43.9002 67.2519 43.3002 61.3466C42.7004 55.4416 37.8801 50.2642 28.6936 50.2642C19.5072 50.2642 11.161 56.632 14.0261 67.0336Z" fill="#6F6464"/>
<path id="Vector_2" d="M104.466 69.612C106.165 67.9131 123.217 65.3633 130.218 68.9705C130.218 68.9705 134.242 67.7616 132.771 60.3923C131.3 53.0231 126.787 49.9067 118.113 49.657C109.439 49.4074 103.381 56.8314 103.109 61.0756C102.837 65.3197 104.466 69.612 104.466 69.612Z" fill="#6F6464"/>
<path id="Vector_3" d="M14.016 67.0339C13.5177 66.8471 12.7392 66.629 12.1162 66.0374C11.4934 65.4456 10.4425 62.4836 10.3099 60.5874C10.2467 59.685 10.7811 59.5412 10.777 58.9057C10.766 57.2239 10.8704 53.518 10.8704 53.2377C10.8704 52.9575 10.8704 52.5215 11.4622 51.6807C12.054 50.8398 12.3152 50.2815 12.9571 50.0302C14.3019 49.5034 13.8538 48.3524 13.8697 47.5586C13.9416 43.9807 15.5617 38.7055 15.9225 37.5106C16.4539 35.7506 17.8776 32.3412 22.7359 27.3895C22.7359 27.3895 21.9572 26.0193 21.5835 25.7078C21.2098 25.3963 21.9572 25.2094 23.0162 24.9603C24.0751 24.7113 38.5565 22.5 55.5605 22.5C72.5645 22.5 82.717 23.0606 93.1188 29.4137C103.521 35.7668 108.753 38.445 109.687 38.9434C110.185 39.0056 118.843 40.7497 121.77 41.8709C124.698 42.992 131.425 44.2378 134.352 50.5909C135.099 52.2104 135.66 53.9543 136.47 54.7018C137.279 55.4492 138.027 59.1241 137.529 61.304C137.03 63.484 135.722 65.0411 137.217 66.2869C138.712 67.5326 138.4 67.7817 137.342 68.1554C136.283 68.5292 134.04 69.4012 132.483 69.4012C130.926 69.4012 130.205 69.3493 130.216 68.9705C130.641 55.0745 121.258 53.1075 117.34 53.3321C104.986 54.0407 105.036 65.2265 104.464 69.612C102.284 69.9235 78.108 69.6503 69.0766 69.401C60.0453 69.152 41.1103 69.3388 39.8647 69.3388C39.7401 67.2834 40.1138 52.7667 27.0962 52.8332C14.8881 52.8952 14.4519 63.0477 14.016 67.0339Z" fill="#2D65F2"/>
<path id="Vector_4" d="M105.742 40.5624C105.742 40.5624 107.499 39.0181 107.873 38.7625" stroke="#303030" strokeWidth="0.0853011" stroke-miterlimit="10" strokeLinecap="round" stroke-linejoin="round"/>
<path id="Vector_5" d="M111.781 39.748C112.124 40.4695 113.245 41.7463 113.743 42.0578C114.242 42.3693 115.954 42.8364 117.262 43.2411C118.57 43.6461 125.92 45.6467 126.512 46.1257" stroke="#303030" strokeWidth="0.0853011" stroke-miterlimit="10" strokeLinecap="round" stroke-linejoin="round"/>
<path id="Vector_6" d="M55.9688 46.3925C55.9688 45.6837 56.4359 44.5486 58.2733 44.5486C60.1106 44.5486 60.3468 45.7792 60.3287 46.4325C60.3106 47.0857 59.9559 48.3791 58.2426 48.2235C56.5293 48.0677 55.9688 47.3421 55.9688 46.3925Z" fill="#2D65F2"/>
<path id="Vector_7" d="M52.2592 25.3026C48.958 25.289 35.6289 26.1747 34.0094 26.6106C32.3899 27.0466 32.1408 27.6072 31.5802 28.2924C31.0197 28.9776 27.6562 34.0849 27.6562 36.7009C27.6562 39.3169 28.4659 39.0678 29.9608 39.13C31.4556 39.1923 52.3214 40.5627 54.3768 40.5627C54.5003 36.0157 53.5048 27.794 52.2592 25.3026Z" fill="#303030"/>
<path id="Vector_8" d="M50.6531 37.0525C50.7278 38.3131 49.6754 39.352 48.4156 39.2664C45.2482 39.0512 40.8825 38.6803 36.4693 38.4037C33.0134 38.1873 30.5164 38.0309 30.0115 38.0098C29.8654 38.0038 29.7254 38.0005 29.592 37.9975C29.3611 37.9921 29.0546 37.985 28.9167 37.9545C28.8736 37.8523 28.7812 37.5367 28.7812 36.7011C28.7812 34.5672 31.8319 29.7601 32.4519 29.0026C32.5294 28.9078 32.6014 28.8155 32.6716 28.7253C33.0597 28.2267 33.2544 27.9764 34.3047 27.6936C35.4967 27.3726 42.7643 26.7085 47.3149 26.4931C48.3302 26.4451 49.2301 27.1321 49.459 28.1225C50.0056 30.4851 50.4688 33.9423 50.6531 37.0525Z" fill="#F6F6F6"/>
<path id="Vector_9" d="M99.685 37.2346C99.5779 36.8278 99.4818 36.5251 99.408 36.3896C96.6052 34.5211 84.8332 27.5452 78.231 26.7353C71.6287 25.9257 54.251 25.1782 52.2578 25.3027C52.5693 26.7975 54.3132 38.8186 54.3755 40.5627C56.68 40.8742 96.4183 43.3034 100.841 43.4278C100.816 43.1438 100.759 42.7213 100.681 42.2233C100.422 40.7019 99.8552 38.5869 99.685 37.2346Z" fill="#303030"/>
<path id="Vector_10" d="M99.6926 37.2343C95.4032 34.5591 83.6624 28.2917 78.0793 27.6071C72.3308 26.9021 58.6301 26.2589 53.8125 26.179C54.3129 29.3353 55.276 36.4535 55.5903 39.3621C61.3808 39.8285 90.5895 41.6914 100.689 42.2232C100.452 40.7058 100.02 38.4773 99.6926 37.2343Z" fill="#F6F6F6"/>
<path id="Vector_11" d="M99.6884 37.2348C98.2793 36.356 96.0662 35.0895 93.5312 33.7607C93.8246 35.4884 94.5494 39.9027 94.6531 41.8836C97.027 42.0228 99.0934 42.1398 100.685 42.2235C100.448 40.7062 100.016 38.4777 99.6884 37.2348Z" fill="#303030"/>
<path id="Vector_12" d="M91.0891 38.9121C91.2448 38.6318 92.3465 37.5107 93.5241 37.4795C94.7016 37.4483 97.193 38.1647 98.2519 39.0678C98.3766 39.5349 97.9167 40.9066 97.1009 42.0575C96.072 42.5558 92.5528 42.2755 91.2448 42.0575C90.8105 41.6554 90.7776 40.0333 91.0891 38.9121Z" fill="#002D9F"/>
<path id="Vector_13" d="M91.3382 40.6872C91.307 40.5003 91.307 39.2235 91.3382 38.9432C91.3692 38.6637 92.2103 37.915 92.8413 37.6121C91.9481 37.9224 91.2139 38.6872 91.0891 38.912C90.7776 40.0332 90.8105 41.6553 91.2448 42.0574C92.5528 42.2754 96.0719 42.5557 97.1009 42.0574C97.3262 41.7395 97.5232 41.4053 97.6893 41.0775C95.771 41.1315 91.8188 40.9402 91.3382 40.6872Z" fill="#002D9F"/>
<path id="Vector_14" d="M99.4062 36.3894C102.178 38.0399 106.662 40.5315 106.912 41.6526C107.161 42.7737 105.759 43.2409 104.545 43.4277C103.737 43.552 101.373 43.4468 100.839 43.4277L99.4062 36.3894Z" fill="#303030"/>
<path id="Vector_15" d="M99.5625 37.1597C101.279 38.2143 104.98 40.8738 105.354 41.2165C105.728 41.559 105.894 41.809 105.582 42.0792C105.271 42.3494 104.73 42.3356 103.92 42.3356C103.111 42.3356 101.265 42.2545 100.592 42.2186L99.5625 37.1597Z" fill="#303030"/>
<path id="Vector_16" d="M54.3739 40.563C53.0037 42.9299 51.6333 45.7328 52.2563 55.2624C52.879 64.7921 53.938 65.9133 55.7443 66.0379C57.5507 66.1626 99.4689 67.0344 100.029 67.0968C100.528 66.2872 101.4 62.6123 101.649 55.8854C101.898 49.1586 101.335 44.6507 100.839 43.4283L54.3739 40.563Z" stroke="#303030" strokeWidth="0.0853011" stroke-miterlimit="10" strokeLinecap="round" stroke-linejoin="round"/>
<path id="Vector_17" d="M54.096 46.3241C54.0706 46.6033 54.2517 46.9469 54.9681 46.8847C56.2402 46.7741 59.9897 47.0013 60.636 47.1338C61.2433 47.2584 61.7572 46.25 60.9785 46.0127C60.1999 45.7753 57.8646 45.7428 56.712 45.7324C54.8435 45.7154 54.1582 45.6389 54.096 46.3241Z" fill="#002D9F"/>
<path id="Vector_18" opacity="0.45" d="M133.784 50.1389C133.043 49.1927 130.819 46.9586 126.992 46.1252C123.436 45.3511 123.156 46.7338 123.19 47.0849C123.192 47.0999 123.194 47.1148 123.197 47.13C123.198 47.1361 123.2 47.1421 123.202 47.1466C123.25 47.3432 123.378 47.5439 123.601 47.7565C124.94 49.0333 129.362 52.2099 132.009 53.3622C132.657 53.6444 132.967 52.8016 133.387 52.8016C133.808 52.8016 134.812 53.152 134.905 53.2454C134.789 52.7316 134.158 50.4659 133.784 50.1389Z" fill="white"/>
<path id="Vector_19" d="M133.784 50.1389C133.043 49.1927 130.819 46.9586 126.992 46.1252C123.436 45.3511 123.156 46.7338 123.19 47.0849C123.192 47.0999 123.194 47.1148 123.197 47.13C123.198 47.1361 123.2 47.1421 123.202 47.1466C123.25 47.3432 123.378 47.5439 123.601 47.7565C124.94 49.0333 129.362 52.2099 132.009 53.3622C132.657 53.6444 132.967 52.8016 133.387 52.8016C133.808 52.8016 134.812 53.152 134.905 53.2454C134.789 52.7316 134.158 50.4659 133.784 50.1389Z" fill="white"/>
<path id="Vector_20" d="M15.9213 37.5102C15.524 38.6936 13.9404 43.9803 13.8685 47.5582C13.8584 48.0568 14.0309 48.696 13.8281 49.233H13.8285C14.2329 48.8774 15.1983 48.2858 15.354 46.822C15.5097 45.3586 14.1598 37.3131 22.7349 27.3889C20.2502 30.0285 17.802 31.9094 15.9213 37.5102Z" fill="#303030"/>
<path id="Vector_21" opacity="0.2" d="M42.1624 66.3797C41.7886 62.7982 39.9171 51.0759 27.6497 50.8087C14.1938 50.5157 12.1094 61.9886 12.1094 66.037C12.7322 66.6288 13.5108 66.8466 14.0092 67.0335C14.4451 63.0473 14.8812 52.8946 27.0891 52.8324C40.1069 52.7661 39.7332 67.2826 39.8577 69.338C40.0959 69.338 40.9827 69.3311 42.3219 69.3219C42.3064 68.3327 42.2601 67.317 42.1624 66.3797Z" fill="white"/>
<path id="Vector_22" opacity="0.2" d="M117.44 51.0888C104.22 51.3073 102.771 63.7333 102.656 67.5393L102.835 69.6987C103.641 69.6772 104.205 69.6488 104.462 69.6121C105.035 65.2266 104.984 54.0408 117.338 53.3322C121.256 53.1075 130.639 55.0745 130.215 68.9705C130.937 68.6022 132.235 67.377 132.201 65.3488C132.107 59.6658 128.19 50.9111 117.44 51.0888Z" fill="white"/>
<path id="Vector_23" d="M117.431 77.1866C123.417 77.1866 128.269 72.3344 128.269 66.3489C128.269 60.3634 123.417 55.5112 117.431 55.5112C111.446 55.5112 106.594 60.3634 106.594 66.3489C106.594 72.3344 111.446 77.1866 117.431 77.1866Z" fill="#303030"/>
<path id="Vector_24" d="M117.433 73.8991C121.603 73.8991 124.983 70.5188 124.983 66.349C124.983 62.1791 121.603 58.7988 117.433 58.7988C113.263 58.7988 109.883 62.1791 109.883 66.349C109.883 70.5188 113.263 73.8991 117.433 73.8991Z" fill="#999999"/>
<path id="Vector_25" d="M119.098 65.2884L122.627 63.3866C122.974 63.1997 123.08 62.7492 122.849 62.4302C122.017 61.2824 120.831 60.409 119.45 59.9719C119.074 59.8529 118.678 60.0941 118.61 60.4824L117.913 64.4322C117.795 65.1008 118.501 65.6103 119.098 65.2884ZM116.934 64.4358L116.21 60.4899C116.139 60.1022 115.742 59.8636 115.367 59.9852C113.99 60.4316 112.809 61.3134 111.985 62.4676C111.756 62.7881 111.865 63.238 112.213 63.4224L115.755 65.3C116.355 65.6178 117.057 65.1034 116.934 64.4358ZM116.7 68.1856L114.952 71.7951C114.78 72.1488 114.957 72.5756 115.33 72.6993C115.991 72.9183 116.697 73.0375 117.431 73.0375C118.165 73.0375 118.871 72.9183 119.531 72.6993C119.904 72.5756 120.081 72.1488 119.91 71.7951L118.162 68.1856C117.866 67.5748 116.995 67.5748 116.7 68.1856ZM123.375 65.6662L119.403 66.2187C118.731 66.3122 118.463 67.1403 118.953 67.6097L121.85 70.3834C122.132 70.6544 122.592 70.6194 122.824 70.3038C123.638 69.1961 124.119 67.8289 124.119 66.3492C124.119 66.3324 124.119 66.3155 124.119 66.2987C124.115 65.908 123.762 65.6124 123.375 65.6662ZM115.457 66.2324L111.48 65.7073C111.094 65.6563 110.743 65.9525 110.742 66.3417C110.742 66.3441 110.742 66.3466 110.742 66.3492C110.742 67.8453 111.234 69.2262 112.065 70.3401C112.299 70.6544 112.759 70.6863 113.04 70.4133L115.917 67.6202C116.404 67.1474 116.13 66.3211 115.457 66.2324Z" fill="#6F6464"/>
<path id="Vector_26" d="M26.6589 77.5001C32.8175 77.5001 37.81 72.5076 37.81 66.349C37.81 60.1905 32.8175 55.198 26.6589 55.198C20.5003 55.198 15.5078 60.1905 15.5078 66.349C15.5078 72.5076 20.5003 77.5001 26.6589 77.5001Z" fill="#303030"/>
<path id="Vector_27" d="M26.6668 74.1173C30.9572 74.1173 34.4352 70.6393 34.4352 66.3489C34.4352 62.0586 30.9572 58.5806 26.6668 58.5806C22.3765 58.5806 18.8984 62.0586 18.8984 66.3489C18.8984 70.6393 22.3765 74.1173 26.6668 74.1173Z" fill="#999999"/>
<path id="Vector_28" d="M28.3869 65.2575L32.0179 63.3008C32.3746 63.1085 32.4836 62.6449 32.2459 62.3168C31.3905 61.1357 30.1693 60.2371 28.7483 59.7875C28.3615 59.6651 27.9549 59.9132 27.8845 60.3127L27.1677 64.3767C27.0462 65.0645 27.7722 65.5888 28.3869 65.2575ZM26.1605 64.3802L25.4153 60.3202C25.3421 59.9213 24.9336 59.6759 24.5478 59.8009C23.1304 60.2602 21.9153 61.1674 21.0675 62.3553C20.8321 62.6851 20.9442 63.1479 21.3022 63.3378L24.9471 65.2695C25.5643 65.5965 26.2865 65.0671 26.1605 64.3802ZM25.9187 68.2385L24.1202 71.9524C23.944 72.3162 24.1256 72.7555 24.5094 72.8828C25.189 73.1081 25.9155 73.2307 26.6708 73.2307C27.4261 73.2307 28.1524 73.1081 28.8322 72.8828C29.216 72.7555 29.3976 72.3164 29.2214 71.9524L27.4229 68.2385C27.1185 67.6099 26.2231 67.6099 25.9187 68.2385ZM32.7876 65.6462L28.7001 66.2146C28.0083 66.3108 27.7329 67.1627 28.2372 67.6459L31.2174 70.4998C31.5086 70.7786 31.9817 70.7427 32.2203 70.4179C33.0576 69.2783 33.5524 67.8715 33.5524 66.349C33.5524 66.3316 33.5524 66.3144 33.5522 66.297C33.549 65.8951 33.1858 65.5909 32.7876 65.6462ZM24.6406 66.2288L20.5485 65.6886C20.1514 65.6361 19.7894 65.9409 19.7891 66.3413C19.7891 66.3439 19.7891 66.3463 19.7891 66.349C19.7891 67.8885 20.2954 69.3091 21.1498 70.4553C21.3908 70.7786 21.8643 70.8117 22.1536 70.5306L25.1134 67.6568C25.6145 67.1702 25.3331 66.3202 24.6406 66.2288Z" fill="#6F6464"/>
</g>
<path id="Vector (Stroke)" fillRule="evenodd" clipRule="evenodd" d="M144.281 0.00136151V0H147.366V14.9234C147.366 15.7751 146.675 16.4656 145.823 16.4656C144.972 16.4656 144.281 15.7751 144.281 14.9234V3.08566H131.624C130.772 3.08566 130.082 2.39521 130.082 1.54351C130.082 0.691804 130.772 0.00136151 131.624 0.00136151H144.281ZM3.72492 3.08576H16.382C17.2337 3.08576 17.9241 2.39532 17.9241 1.54361C17.9241 0.69191 17.2337 0.00146703 16.382 0.00146703H2.18277L0.640625 0.00157495V14.9235C0.640625 15.7752 1.33107 16.4657 2.18277 16.4657C3.03448 16.4657 3.72492 15.7752 3.72492 14.9235V3.08576ZM2.18277 83.5357C3.03448 83.5357 3.72492 84.2262 3.72492 85.0779V96.9157H16.382C17.2337 96.9157 17.9241 97.6061 17.9241 98.4578C17.9241 99.3095 17.2337 100 16.382 100L0.640625 100V85.0779C0.640625 84.2262 1.33107 83.5357 2.18277 83.5357ZM145.823 83.5358C146.675 83.5358 147.366 84.2262 147.366 85.0779V100L131.624 100C130.772 100 130.082 99.3096 130.082 98.4578C130.082 97.6061 130.772 96.9157 131.624 96.9157H144.281V85.0779C144.281 84.2262 144.972 83.5358 145.823 83.5358Z" fill="#DDDDDD"/>
<g id="Rectangle 34631020">
<mask id="path-30-inside-1_3271_20634" fill="white">
<path d="M4 31.4285H144V96.4285H4V31.4285Z"/>
</mask>
<path d="M4 31.4285H144V96.4285H4V31.4285Z" fill="url(#paint0_linear_3271_20634)" fillOpacity="0.2"/>
<path d="M4 32.1995H144V30.6574H4V32.1995Z" fill="#303030" mask="url(#path-30-inside-1_3271_20634)"/>
</g>
</g>
<defs>
<linearGradient id="paint0_linear_3271_20634" x1="74" y1="31.4285" x2="74" y2="96.4285" gradientUnits="userSpaceOnUse">
<stop offset="0.471259" stopColor="#2D65F2"/>
<stop offset="1" stopColor="white" stop-opacity="0"/>
</linearGradient>
</defs>
</svg>
