<svg width="110" height="110" viewBox="0 0 110 110" fill="none" xmlns="http://www.w3.org/2000/svg">
<g id="Frame 1707481657">
<path id="Vector" d="M42.4416 62.74L38.068 58.3665C38.0616 58.354 38.0553 58.3419 38.0493 58.3311C38.0382 58.3111 38.0151 58.2706 37.9781 58.2335C37.9296 58.1851 37.871 58.1551 37.8083 58.1426C37.7682 58.1346 37.728 58.1351 37.7194 58.1352C37.7187 58.1352 37.7183 58.1352 37.718 58.1352C37.7171 58.1352 37.7157 58.1352 37.7141 58.1352C37.6934 58.1349 37.6181 58.1339 37.5485 58.1571C37.5026 58.1724 37.4382 58.204 37.3868 58.2701C37.3846 58.2729 37.3825 58.2758 37.3804 58.2786L30.0006 62.7065L30.0004 62.7062L29.989 62.7138C29.7 62.9065 29.2989 63.0097 28.9438 63.0097H22.1768H22.1638L22.1508 63.0109C21.7107 63.0509 21.3104 62.691 21.2592 62.1931V53.318V53.3001L21.257 53.2824C21.157 52.4826 21.5565 51.6799 22.3117 51.2771L22.3118 51.2774L22.3236 51.2704L27.7968 48.0085V59.5689C27.7968 59.7601 27.9115 60.0277 28.1983 60.0277C28.2596 60.0277 28.3098 60.0125 28.342 60.0005C28.3703 59.9898 28.3963 59.9769 28.4093 59.9703H28.4502L28.5186 59.929L47.7844 48.2892C48.1724 48.0678 48.5038 47.9373 48.8652 47.9824L48.8829 47.9847H48.9008H59.2234H59.2364L59.2493 47.9835C59.6895 47.9435 60.0897 48.3034 60.1409 48.8013V61.7481C60.1409 61.9393 60.2556 62.2069 60.5423 62.2069L60.5484 62.2069C60.6103 62.207 60.7558 62.2074 60.8907 62.0902L82.0891 48.3399L82.0891 48.3399L82.0921 48.3379C82.3987 48.1335 82.8031 47.9847 83.1947 47.9847H87.8398H87.8529L87.8658 47.9835C88.3059 47.9435 88.7063 48.3034 88.7574 48.8014V57.7911C88.7574 58.3204 88.7006 58.6984 88.5501 59.0054C88.4027 59.3061 88.1496 59.5701 87.6945 59.8379L87.6931 59.8387L82.1624 63.1347V52.9166C82.1624 52.7254 82.0477 52.4578 81.761 52.4578L81.7549 52.4578C81.693 52.4576 81.5475 52.4573 81.4125 52.5745L65.8915 62.6546L65.8887 62.6565C65.5996 62.8492 65.1986 62.9524 64.8434 62.9524H54.5208H54.5078L54.4949 62.9536C54.0547 62.9936 53.6544 62.6337 53.6033 62.1357V49.189C53.6033 49.0898 53.5633 48.9952 53.5266 48.9339C53.5057 48.8992 53.475 48.8565 53.4318 48.819C53.3914 48.784 53.3125 48.7302 53.2018 48.7302L53.1958 48.7302C53.1344 48.73 52.991 48.7297 52.8571 48.8437L42.7666 55.0007C42.7139 55.0195 42.6743 55.0483 42.6494 55.0699C42.6061 55.1074 42.5754 55.1501 42.5545 55.1848C42.5178 55.2461 42.4778 55.3407 42.4778 55.4399C42.4778 55.5621 42.5372 55.6528 42.571 55.6979C42.6051 55.7434 42.6466 55.7848 42.6721 55.8103L42.6765 55.8147L49.8716 63.0097H43.4527H43.4349L43.4172 63.012C43.0387 63.0593 42.7202 62.9683 42.4416 62.74ZM27.7842 47.7177C27.7842 47.7178 27.7842 47.7178 27.7843 47.7179L27.7842 47.7177Z" fill="#333333" stroke="#333333" strokeWidth="0.573477"/>
</g>
</svg>
