<svg width="110" height="110" viewBox="0 0 110 110" fill="none" xmlns="http://www.w3.org/2000/svg">
<g id="Frame 1707481668">
<g id="Vector Logo">
<path id="Vector" fillRule="evenodd" clipRule="evenodd" d="M25.4985 42.1155V68.1155H84.5033V42.1155H25.4985ZM83.6726 67.2848H26.33V42.947H83.6726V67.2848ZM27.1615 43.7784V66.4533H82.8411V43.7784H27.1615ZM45.7078 52.2765H34.0934C33.7405 52.2765 33.4308 52.7183 33.4308 52.9832V56.7828C33.4308 57.5775 33.6517 57.6631 34.2263 57.6631H42.0857C43.3662 57.6631 43.2782 56.9117 43.2782 56.161H38.9935V53.777H45.7078V57.6663C45.7078 59.4774 43.8527 60.0519 43.1469 60.0519H33.4748C31.9727 60.0519 31.0012 58.7259 31.0012 57.7984V52.2325C31.0012 51.2162 32.2384 49.8909 33.4748 49.8909H45.7078V52.2765ZM63.585 60.0519H61.1994V52.5854L56.8155 60.0519H54.6508L50.3069 52.3645V60.0519H47.9221V49.8885H51.7634L55.7136 57.0909L59.875 49.8885H63.5858V60.0519H63.585ZM78.803 52.2765H68.6579C68.3042 52.2765 67.9953 52.7183 67.9953 52.9832V56.7828C67.9953 57.5775 68.2162 57.6631 68.7908 57.6631H78.803V60.0487H68.0393C66.5372 60.0487 65.5657 58.7227 65.5657 57.7952V52.2325C65.5657 51.2162 66.8021 49.8909 68.0393 49.8909H78.803V52.2765Z" fill="#333333"/>
</g>
</g>
</svg>
