<svg width="110" height="110" viewBox="0 0 110 110" fill="none" xmlns="http://www.w3.org/2000/svg">
<g id="Frame 1707481679">
<path id="Vector" fillRule="evenodd" clipRule="evenodd" d="M53.7324 72.0661C50.6747 70.1505 48.421 63.5401 48.421 55.6842C48.421 55.3959 48.4222 55.1113 48.4295 54.8279L48.4319 54.8315C39.9253 53.4949 33.7795 49.8327 33.6214 45.5003L33.5971 45.5514C31.516 48.1384 30.3277 51.1292 30.3277 54.3158C30.3277 63.6933 40.621 71.3765 53.6777 72.0564L53.7324 72.0661ZM26.3943 54.9994C26.3943 44.5078 39.4522 36 55.5593 36C71.6676 36 84.7255 44.5078 84.7255 54.9994C84.7255 65.4922 71.6676 74 55.5593 74C39.4522 74 26.3943 65.4922 26.3943 54.9994ZM55.5605 38.7415C58.6705 38.7415 61.3159 43.4594 62.2962 50.0419L62.2987 50.0309C68.3496 49.0895 72.5847 46.9173 72.5847 44.3886C72.5847 40.9964 64.9623 38.2489 55.5605 38.2489C46.1599 38.2489 38.5376 40.9964 38.5376 44.3886C38.5376 46.9173 42.7726 49.0883 48.8224 50.0309L48.826 50.0419C49.8063 43.4594 52.4517 38.7415 55.5605 38.7415ZM57.4433 72.0552C70.5 71.3753 80.7945 63.6921 80.7945 54.3146C80.7945 51.128 79.605 48.1372 77.5252 45.5502L77.4996 45.4991C77.3427 49.8314 71.1969 53.4936 62.6891 54.8303L62.6927 54.8267C62.6988 55.1101 62.7012 55.3947 62.7012 55.6829C62.7012 63.5388 60.4463 70.1493 57.3898 72.0649L57.4433 72.0552ZM55.5605 50.5296C56.9104 50.5312 58.2598 50.4736 59.6046 50.3569C58.96 46.1388 57.3922 43.1614 55.5617 43.1614C53.7312 43.1614 52.1659 46.1401 51.52 50.3581C52.8641 50.4742 54.2114 50.5306 55.5605 50.5296ZM55.5605 66.1538C57.9018 66.1538 59.8126 61.2814 59.9135 55.1721L59.9257 55.1758C57.0221 55.4433 54.1001 55.4433 51.1965 55.1758L51.2087 55.1721C51.3096 61.2814 53.2192 66.1538 55.5605 66.1538Z" fill="#333333"/>
</g>
</svg>
