<svg width="110" height="110" viewBox="0 0 110 110" fill="none" xmlns="http://www.w3.org/2000/svg">
<g id="Frame 1707481653" clipPath="url(#clip0_5153_33218)">
<g id="Group 1707478682">
<path id="Vector" d="M109.652 55.4419L109.653 55.4416L109.683 55.4342C109.682 55.4347 109.682 55.4353 109.681 55.4358C109.652 55.4643 109.622 55.4937 109.591 55.5241C109.214 55.8541 108.304 56.3717 107.262 56.8633C106.221 57.3545 105.067 57.8108 104.217 58.0205C102.738 58.3842 97.4326 59.1264 92.0783 59.823C86.7285 60.5191 81.344 61.1678 79.7171 61.3446L79.7162 61.3447L77.9001 61.557C77.9 61.557 77.8999 61.557 77.8998 61.557C73.0154 62.0998 66.8111 62.7839 63.674 63.0905L63.6739 63.0899L63.6623 63.0923C63.0948 63.2058 62.502 63.1611 61.9524 63.0013C59.7231 62.1954 57.3751 61.7923 55.0268 61.8158C52.678 61.7686 50.3293 62.1718 48.1228 63.0016C47.5735 63.1611 46.9575 63.2057 46.39 63.0923L46.3901 63.0918L46.3792 63.0906C44.8208 62.9278 42.5299 62.6791 40.0194 62.4066C37.4355 62.1261 34.6189 61.8204 32.1288 61.557C32.1286 61.557 32.1283 61.557 32.1281 61.5569L30.3364 61.3448L30.3361 61.3447C28.7091 61.1561 23.3184 60.4778 17.9627 59.7582C12.6029 59.0381 7.29035 58.278 5.81126 57.9259L5.8107 57.9257C4.96158 57.728 3.80836 57.272 2.7672 56.7779C1.723 56.2823 0.810641 55.7574 0.435022 55.4273L0.435419 55.4269L0.425717 55.42C0.405782 55.4057 0.385753 55.3903 0.366029 55.374C1.94887 55.7278 3.55719 55.9641 5.16701 56.0114L5.167 56.0115H5.17047C5.17046 56.0115 5.1728 56.0115 5.1775 56.0117C5.20281 56.0127 5.29644 56.0163 5.45632 56.0225L6.26167 56.054L9.1279 56.1669C11.5003 56.2606 14.6671 56.3859 17.8568 56.5128C24.2377 56.7665 30.7063 57.0259 31.094 57.0494L31.094 57.0495L31.0988 57.0496C32.2786 57.0727 33.4134 57.4428 34.4108 58.0923L34.4127 58.0936C36.2394 59.2323 38.2095 60.087 40.2993 60.5857L40.3011 60.5861C42.8558 61.1538 45.4819 61.5087 48.1087 61.6034V61.6035H48.1129C48.1197 61.6035 48.1266 61.6034 48.133 61.603C48.1345 61.603 48.1512 61.6025 48.1684 61.5972C48.1732 61.5957 48.1863 61.5915 48.2006 61.5818C48.2129 61.5734 48.2496 61.5446 48.2524 61.4898C48.255 61.4365 48.223 61.4046 48.2132 61.3958C48.201 61.3848 48.1893 61.379 48.1848 61.3768C48.1698 61.3696 48.1548 61.3666 48.1522 61.3661L48.1519 61.366C48.1331 61.362 48.0992 61.3578 48.0622 61.3535C47.9834 61.3445 47.8613 61.3326 47.7345 61.3208C47.6074 61.309 47.4745 61.2972 47.3733 61.2883L47.2501 61.2776L47.2152 61.2746L47.2059 61.2738L47.2035 61.2736L47.2029 61.2736L47.2028 61.2736L47.2027 61.2736L47.1984 61.3239L47.2027 61.2735L47.1988 61.2733C46.2861 61.2265 45.3718 61.086 44.453 60.9211L44.453 60.921L44.4482 60.9203C42.0551 60.5918 39.7326 59.9353 37.5273 58.9508L37.3455 58.8372L37.3179 58.82L37.2854 58.8193C37.0104 58.8134 36.8147 58.7914 36.6761 58.7637L37.5855 58.7956L37.5868 58.7956C38.553 58.8192 39.5462 58.8429 39.8312 58.8429H39.9202L39.9346 58.7924C39.9451 58.7882 39.9597 58.7832 39.979 58.7776C40.0398 58.7599 40.1285 58.7417 40.2388 58.7237C40.4582 58.6879 40.7485 58.655 41.0399 58.627C41.3306 58.5991 41.6202 58.5763 41.8372 58.5605C41.9456 58.5526 42.0359 58.5464 42.099 58.5423L42.1721 58.5375L42.1913 58.5363L42.1962 58.536L42.1975 58.5359L42.1978 58.5359L42.1978 58.5359L42.1906 58.4181L42.1978 58.5359L42.1906 58.3002H36.6695H36.6686H36.6678H36.667H36.6661H36.6653H36.6645H36.6637H36.6628H36.662H36.6612H36.6603H36.6595H36.6587H36.6579H36.657H36.6562H36.6554H36.6545H36.6537H36.6529H36.652H36.6512H36.6504H36.6496H36.6487H36.6479H36.6471H36.6462H36.6454H36.6446H36.6438H36.6429H36.6421H36.6413H36.6404H36.6396H36.6388H36.638H36.6371H36.6363H36.6355H36.6347H36.6338H36.633H36.6322H36.6313H36.6305H36.6297H36.6289H36.628H36.6272H36.6264H36.6256H36.6247H36.6239H36.6231H36.6222H36.6214H36.6206H36.6198H36.6189H36.6181H36.6173H36.6165H36.6156H36.6148H36.614H36.6132H36.6123H36.6115H36.6107H36.6099H36.609H36.6082H36.6074H36.6066H36.6058H36.6049H36.6041H36.6033H36.6025H36.6016H36.6008H36.6H36.5992H36.5984H36.5975H36.5967H36.5959H36.5951H36.5942H36.5934H36.5926H36.5918H36.591H36.5901H36.5893H36.5885H36.5877H36.5869H36.586H36.5852H36.5844H36.5836H36.5828H36.582H36.5811H36.5803H36.5795H36.5787H36.5779H36.5771H36.5762H36.5754H36.5746H36.5738H36.573H36.5722H36.5713H36.5705H36.5697H36.5689H36.5681H36.5673H36.5665H36.5657H36.5648H36.564H36.5632H36.5624H36.5616H36.5608H36.56H36.5592H36.5583H36.5575H36.5567H36.5559H36.5551H36.5543H36.5535H36.5527H36.5519H36.5511H36.5503H36.5495H36.5486H36.5478H36.547H36.5462H36.5454H36.5446H36.5438H36.543H36.5422H36.5414H36.5406H36.5398H36.539H36.5382H36.5374H36.5366H36.5358H36.535H36.5342H36.5334H36.5326H36.5318H36.531H36.5302H36.5294H36.5286H36.5278H36.527H36.5262H36.5254H36.5246H36.5238H36.523H36.5222H36.5214H36.5206H36.5198H36.519H36.5182H36.5174H36.5166H36.5159H36.5151H36.5143H36.5135H36.5127H36.5119H36.5111H36.5103H36.5095H36.5087H36.508H36.5072H36.5064H36.5056H36.5048H36.504H36.5032H36.5024H36.5017H36.5009H36.5001H36.4993H36.4985H36.4977H36.497H36.4962H36.4954H36.4946H36.4938H36.4931H36.4923H36.4915H36.4907H36.4899H36.4892H36.4884H36.4876H36.4868H36.4861H36.4853H36.4845H36.4837H36.483H36.4822H36.4814H36.4806H36.4799H36.4791H36.4783H36.4776H36.4768H36.476H36.4752H36.4745H36.4737H36.4729H36.4722H36.4714H36.4706H36.4699H36.4691H36.4683H36.4676H36.4668H36.4661H36.4653H36.4645H36.4638H36.463H36.4622H36.4615H36.4607H36.46H36.4592H36.4585H36.4577H36.4569H36.4562H36.4554H36.4547H36.4539H36.4532H36.4524H36.4517H36.4509H36.4502H36.4494H36.4487H36.4479H36.4472H36.4464H36.4457H36.4449H36.4442H36.4434H36.4427H36.4419H36.4412H36.4405H36.4397H36.439H36.4382H36.4375H36.4367H36.436H36.4353H36.4345H36.4338H36.4331H36.4323H36.4316H36.4308H36.4301H36.4294H36.4286H36.4279H36.4272H36.4264H36.4257H36.425H36.4243H36.4235H36.4228H36.4221H36.4213H36.4206H36.4199H36.4192H36.4184H36.4177H36.417H36.4163H36.4155H36.4148H36.4141H36.4134H36.4127H36.4119H36.4112H36.4105H36.4098H36.4091H36.4084H36.4076H36.4069H36.4062H36.4055H36.4048H36.4041H36.4034H36.4027H36.402H36.4013H36.4005H36.3998H36.3991H36.3984H36.3977H36.397H36.3963H36.3956H36.3949H36.3942H36.3935H36.3928H36.3921H36.3914H36.3907H36.39H36.3893H36.3886H36.3879H36.3872H36.3866H36.3859H36.3852H36.3845H36.3838H36.3831H36.3824H36.3817H36.381H36.3804H36.3797H36.379H36.3783H36.3776H36.3769H36.3763H36.3756H36.3749H36.3742H36.3735H36.3729H36.3722H36.3715H36.3708H36.3702H36.3695H36.3688H36.3682H36.3675H36.3668H36.3661H36.3655H36.3648H36.3641H36.3635H36.3628H36.3622H36.3615H36.3608H36.3602H36.3595H36.3588H36.3582H36.3575H36.3569H36.3562H36.3556H36.3549H36.3543H36.3536H36.353H36.3523H36.3517H36.351H36.3504H36.3497H36.3491H36.3484H36.3478H36.3471H36.3465H36.3458H36.3452H36.3446H36.3439H36.3433H36.3426H36.342H36.3414H36.3407H36.3401H36.3395H36.3388H36.3382H36.3376H36.3369H36.3363H36.3357H36.3351H36.3344H36.3338H36.3332H36.3326H36.3319H36.3313H36.3307H36.3301H36.3295H36.3288H36.3282H36.3276H36.327H36.3264H36.3258H36.3252H36.3246H36.3241C36.2934 58.2821 36.2625 58.264 36.2314 58.2457C35.8618 58.0287 35.4629 57.7945 35.0833 57.5413L35.0536 57.5215H35.0178C34.6095 57.5215 34.3647 57.4827 34.2198 57.438C35.429 57.4743 37.2449 57.4743 37.8718 57.4743H37.8728H38.038H38.1269L38.1404 57.4271C38.1546 57.422 38.1746 57.4159 38.2012 57.4091C38.2752 57.3903 38.382 57.371 38.5136 57.3518C38.7757 57.3136 39.1225 57.2777 39.47 57.2468C39.817 57.2159 40.1627 57.1902 40.4219 57.1721C40.5514 57.1631 40.6592 57.156 40.7346 57.1512L40.822 57.1457L40.845 57.1443L40.8508 57.1439L40.8523 57.1438L40.8527 57.1438L40.8528 57.1438L40.8457 57.026L40.8528 57.1438L40.8457 56.9081H34.0014C32.885 56.4834 31.6979 56.271 30.5101 56.2946C30.2877 56.2943 26.5603 56.2011 22.0073 56.0873C15.3341 55.9204 6.88721 55.7093 5.10238 55.6811C3.57217 55.6354 2.06295 55.4341 0.574144 55.1415C0.638411 55.1395 0.707787 55.1384 0.781851 55.1384L0.783368 55.1384L8.12082 55.044C8.1209 55.044 8.12099 55.044 8.12108 55.044C19.2813 54.9497 40.0912 54.8553 41.0345 54.8553H41.2468V54.8554L41.2519 54.8552C42.3474 54.8086 43.418 54.9485 44.4413 55.2973L44.4412 55.2975L44.4478 55.2993L44.8692 55.4164C46.0566 55.8198 47.2679 56.0809 48.5265 56.1997L48.5265 56.1999L48.5333 56.2001C49.8096 56.2474 54.7875 56.2474 54.9787 56.2474H54.979H54.9792C55.1703 56.2474 60.1247 56.2474 61.4246 56.2001L61.4246 56.2002L61.4294 56.1999C62.6653 56.1048 63.9012 55.8435 65.0898 55.4161L65.5102 55.2993L65.5103 55.2995L65.5175 55.297C66.5164 54.9485 67.6103 54.8086 68.6824 54.8552V54.8553H68.6875H68.9235C69.4786 54.8553 76.9081 54.9207 85.208 54.9937C91.0092 55.0448 97.2355 55.0996 101.837 55.1384C101.837 55.1384 101.837 55.1384 101.837 55.1384L109.151 55.2328H109.153C109.238 55.2328 109.317 55.2335 109.388 55.235C107.9 55.5266 106.388 55.7068 104.854 55.7756C104.854 55.7756 104.853 55.7756 104.853 55.7756L79.4255 56.2946C79.4247 56.2946 79.4239 56.2946 79.4231 56.2946C78.2357 56.2711 77.049 56.4836 75.933 56.9081H75.9075H69.3246L69.317 57.1438L69.3246 57.026L69.3171 57.1438L69.3171 57.1438L69.3175 57.1438L69.3188 57.1439L69.3243 57.1442L69.3457 57.1456L69.4271 57.1512C69.4973 57.156 69.5977 57.1631 69.7184 57.1721C69.9598 57.1901 70.2819 57.2158 70.6052 57.2467C70.929 57.2776 71.2521 57.3135 71.4963 57.3516C71.6189 57.3708 71.7181 57.39 71.7866 57.4086C71.8102 57.415 71.828 57.4208 71.8407 57.4256L71.8532 57.4695L71.9371 57.4742C72.3304 57.496 74.38 57.4583 75.7172 57.4337C75.7318 57.4334 75.7464 57.4332 75.7609 57.4329C75.6135 57.48 75.3624 57.5215 74.9401 57.5215H74.9044L74.8747 57.5413C74.5956 57.7274 74.3085 57.9018 74.0356 58.0676C73.905 58.147 73.7776 58.2244 73.6558 58.3002H73.5245H67.8145L67.8072 58.5359L67.8145 58.4181L67.8073 58.5359L67.8073 58.5359L67.8076 58.5359L67.8088 58.536L67.8137 58.5363L67.8327 58.5375L67.9051 58.5423C67.9675 58.5464 68.0569 58.5526 68.1642 58.5605C68.379 58.5763 68.6656 58.5991 68.9534 58.627C69.2418 58.655 69.5291 58.6878 69.7463 58.7237C69.8555 58.7417 69.9432 58.7599 70.0033 58.7775C70.0222 58.783 70.0366 58.788 70.0469 58.7922L70.0614 58.8429H70.1504C70.4118 58.8429 71.4521 58.8192 72.4419 58.7956L72.4432 58.7956L73.4092 58.7617C73.2698 58.7941 73.0599 58.8193 72.7458 58.8193H72.7153L72.6885 58.8341L72.4807 58.9496C70.2746 59.9348 67.9511 60.5917 65.557 60.9202L65.5522 60.9211C64.6358 61.0856 63.7196 61.203 62.8034 61.2735L62.8024 61.2736L62.8067 61.3238L62.8024 61.2736L62.8024 61.2736L62.8022 61.2736L62.8016 61.2736L62.7992 61.2738L62.79 61.2746L62.755 61.2776L62.6318 61.2883C62.5307 61.2972 62.3978 61.309 62.2706 61.3208C62.1438 61.3326 62.0218 61.3445 61.943 61.3535C61.906 61.3578 61.8721 61.362 61.8533 61.366C61.8519 61.3663 61.8361 61.3692 61.8203 61.3768C61.8159 61.379 61.8042 61.3848 61.792 61.3957C61.7822 61.4046 61.7501 61.4365 61.7528 61.4897C61.7555 61.5445 61.7923 61.5734 61.8045 61.5818C61.8189 61.5915 61.8319 61.5957 61.8368 61.5972C61.854 61.6025 61.8706 61.603 61.8722 61.603C61.8748 61.6032 61.8775 61.6033 61.8802 61.6033C61.8842 61.6034 61.8882 61.6035 61.8922 61.6035V61.6036L61.8965 61.6034C64.5233 61.5087 67.1259 61.1538 69.7039 60.5862L69.7071 60.5854C71.7948 60.0634 73.7885 59.2329 75.593 58.0932L75.5955 58.0916C76.568 57.4432 77.7259 57.0728 78.9064 57.0496L78.9064 57.0499L78.9151 57.0491C79.2881 57.0141 85.7528 56.7725 92.1391 56.5393C95.3303 56.4228 98.4993 56.3085 100.874 56.2234C102.061 56.1808 103.049 56.1455 103.742 56.1208L104.548 56.0922L104.762 56.0847C104.814 56.083 104.836 56.0822 104.835 56.0823L104.838 56.0822C106.474 56.0348 108.063 55.8213 109.652 55.4419ZM48.1208 61.3674L48.1202 61.3674L48.1208 61.3674ZM61.8844 61.3674C61.8824 61.3673 61.8828 61.3672 61.8849 61.3674L61.8844 61.3674ZM41.5439 57.4119L41.5435 57.4121L41.5487 57.4202C41.7813 57.782 42.9668 58.9521 45.4891 59.5708C46.0233 59.7043 47.1995 59.7808 48.6816 59.8249C50.1699 59.8692 51.9822 59.881 53.7993 59.881H56.2059C58.023 59.881 59.8353 59.8692 61.3265 59.8249C62.8121 59.7808 63.9938 59.7043 64.5393 59.5709L64.5394 59.5709C65.8028 59.261 66.7353 58.8074 67.3747 58.3901C67.6942 58.1816 67.941 57.9819 68.1193 57.8134C68.2952 57.6472 68.4108 57.5057 68.4611 57.4123C68.5022 57.336 68.5357 57.2698 68.5553 57.2151C68.5724 57.1671 68.5933 57.0911 68.5557 57.0207C68.5158 56.9459 68.4376 56.926 68.3896 56.9181C68.3358 56.9093 68.2674 56.9081 68.192 56.9081H41.8131C41.7965 56.9081 41.78 56.908 41.7638 56.9079C41.7107 56.9076 41.6613 56.9074 41.6226 56.9102C41.5966 56.9122 41.5669 56.9159 41.5388 56.9254C41.5098 56.9351 41.4737 56.9538 41.4477 56.9913C41.4214 57.0294 41.4165 57.0709 41.4187 57.1042C41.4208 57.1361 41.4298 57.1675 41.4402 57.1958C41.4607 57.2524 41.4971 57.3243 41.5439 57.4119Z" fill="#333333" stroke="#333333" strokeWidth="0.235949"/>
<path id="Vector_2" d="M54.2097 58.2124L54.2716 58.2496L54.3329 58.2113L54.8319 57.8994L54.3675 58.2272L54.3176 58.2625V58.3236V58.6539H53.9636V58.3236V58.2595L53.9099 58.2246L53.3713 57.8753H53.6478L54.2097 58.2124Z" fill="#333333" stroke="#333333" strokeWidth="0.235949"/>
<path id="Vector_3" d="M58.4237 58.5836V58.6544H58.0462V57.8758H58.4237V58.5836Z" fill="#333333" stroke="#333333" strokeWidth="0.235949"/>
<path id="Vector_4" d="M60.9006 58.2533V58.3005V58.3713V58.5836V58.6544H60.5467V57.8758H60.9006V57.9466V58.1825V58.2533Z" fill="#333333" stroke="#333333" strokeWidth="0.235949"/>
<path id="Vector_5" d="M48.0424 58.2297V58.2769V58.3477V58.6544H47.6648V57.8758H48.0424V58.1589V58.2297ZM49.5524 58.1589V57.8758H49.9299V58.6544H49.5524V58.3477V58.2769V58.2297V58.1589Z" fill="#333333" stroke="#333333" strokeWidth="0.235949"/>
<path id="Vector_6" d="M52.6276 58.1231C52.5528 58.1585 52.4486 58.1899 52.3209 58.2128C52.3506 58.1717 52.3596 58.1269 52.3596 58.0881C52.3596 58.0273 52.3265 57.9837 52.2961 57.9577C52.2666 57.9324 52.2308 57.9151 52.1972 57.9025C52.1737 57.8937 52.1476 57.8858 52.1193 57.8787C52.3633 57.8881 52.5227 57.9187 52.6212 57.9565C52.68 57.979 52.7102 58.0015 52.7245 58.017C52.7366 58.03 52.7371 58.0375 52.7371 58.0407C52.7366 58.0426 52.7341 58.0491 52.7233 58.0606C52.7065 58.0781 52.6761 58.1001 52.6276 58.1231ZM50.6844 57.8758H51.0855V57.9466V58.6544H50.6844V57.8758ZM51.89 58.3495C51.9205 58.3482 51.949 58.3465 51.9756 58.3442L52.1592 58.4499L52.5553 58.678H52.3498L52.2789 58.6278C52.217 58.584 52.1332 58.5244 52.0449 58.4612C51.9932 58.4241 51.9404 58.3861 51.89 58.3495Z" fill="#333333" stroke="#333333" strokeWidth="0.235949"/>
<path id="Vector_7" d="M63.4732 57.9462V58.6776H63.0721V57.899H63.4732V57.9462ZM65.0157 58.1418C64.9403 58.1747 64.834 58.2022 64.7014 58.2183C64.7342 58.1782 64.7473 58.1322 64.7473 58.0877C64.7473 58.0269 64.7142 57.9833 64.6838 57.9573C64.6576 57.9348 64.6264 57.9187 64.5962 57.9065C64.7906 57.9192 64.923 57.9468 65.0089 57.9797C65.0677 58.0022 65.0979 58.0247 65.1122 58.0402C65.1242 58.0532 65.1248 58.0606 65.1248 58.0638C65.1243 58.0658 65.1218 58.0719 65.1116 58.0824C65.0952 58.0992 65.0649 58.1204 65.0157 58.1418ZM64.2543 58.3493C64.2848 58.348 64.3135 58.3463 64.3404 58.3442L64.5233 58.4495L64.9194 58.6776H64.7139L64.643 58.6274C64.5811 58.5836 64.4973 58.524 64.409 58.4608C64.3573 58.4237 64.3046 58.3858 64.2543 58.3493Z" fill="#333333" stroke="#333333" strokeWidth="0.235949"/>
<path id="Vector_8" d="M56.0963 58.1668C56.1706 58.1928 56.2654 58.2054 56.3657 58.2058L56.878 58.2524C57.0705 58.2752 57.2014 58.3139 57.2834 58.3573C57.3541 58.3947 57.3775 58.4291 57.3849 58.4513C57.3821 58.4659 57.3715 58.4858 57.3366 58.5112C57.2915 58.5441 57.2185 58.5756 57.1172 58.6019C57.0437 58.6211 56.96 58.6363 56.8693 58.648C56.9006 58.6335 56.9303 58.6125 56.9523 58.5809C56.9841 58.5349 56.9847 58.4868 56.9847 58.4654C56.9847 58.392 56.9318 58.3494 56.9067 58.3326C56.8759 58.3121 56.8386 58.2976 56.8018 58.2871C56.7278 58.266 56.6302 58.2535 56.5191 58.2531L56.0772 58.2065C55.9703 58.1947 55.8824 58.1847 55.8088 58.1724C55.7346 58.1601 55.6827 58.1465 55.6461 58.1304C55.6114 58.1151 55.5961 58.0999 55.5875 58.086C55.5783 58.0711 55.569 58.0447 55.569 57.9935C55.569 57.9793 55.5741 57.9597 55.6125 57.9328C55.6535 57.9042 55.7188 57.8783 55.8057 57.8576C55.8658 57.8433 55.9317 57.8325 55.9993 57.8246C55.9949 57.8276 55.9906 57.8308 55.9864 57.8343C55.9419 57.871 55.9229 57.9205 55.9229 57.9699C55.9229 58.0312 55.9546 58.0772 55.9877 58.1065C56.0196 58.1348 56.0588 58.1537 56.0963 58.1668Z" fill="#333333" stroke="#333333" strokeWidth="0.235949"/>
<path id="Vector_9" d="M45.8262 58.6927C45.5548 58.6754 45.3104 58.6327 45.1221 58.5665C44.9963 58.5222 44.9029 58.47 44.8429 58.4143C44.7848 58.3604 44.7615 58.3074 44.7615 58.2531C44.7615 58.1987 44.7848 58.1457 44.8429 58.0918C44.9029 58.0361 44.9963 57.9839 45.1221 57.9396C45.3282 57.8672 45.6015 57.8228 45.904 57.8092C45.79 57.8271 45.6771 57.8535 45.5761 57.8877C45.4739 57.9222 45.3767 57.9673 45.3026 58.0252C45.2296 58.0824 45.1626 58.166 45.1626 58.2766C45.1626 58.3914 45.2357 58.4727 45.3119 58.525C45.3888 58.5779 45.4888 58.616 45.5917 58.6441C45.6656 58.6643 45.7454 58.6803 45.8262 58.6927Z" fill="#333333" stroke="#333333" strokeWidth="0.235949"/>
<path id="Vector_10" d="M51.4516 48.1421L51.417 48.1767V48.2256V48.3199V50.1132H50.0485V48.2727V48.2239L50.014 48.1893L49.9196 48.0949L49.9197 48.0948L49.9154 48.091L47.6173 46.0076H48.9442L49.8779 46.7819L50.9146 47.6773L50.9152 47.6778L51.1034 47.8424L51.1811 47.9104L51.2587 47.8424L51.4475 47.6773L51.4477 47.6771L53.349 46.0076H53.6689C53.2825 46.3744 52.8079 46.8301 52.4058 47.2174C52.1653 47.449 51.9507 47.6563 51.7962 47.8056L51.6138 47.982L51.5645 48.0298L51.5516 48.0422L51.5484 48.0454L51.5476 48.0462L51.5473 48.0464L51.5473 48.0464L51.6294 48.1312L51.5473 48.0464L51.5459 48.0478L51.4516 48.1421Z" fill="#333333" stroke="#333333" strokeWidth="0.235949"/>
<path id="Vector_11" d="M69.0882 49.6885V49.8064H69.2062H74.3499V50.0896H67.8377V46.0076H69.0882V49.6885Z" fill="#333333" stroke="#333333" strokeWidth="0.235949"/>
<path id="Vector_12" d="M78.9507 49.6649V49.7828H79.0687H84.3775V50.066H77.7474V46.0076H84.2831V46.3144H79.0687H78.9507V46.4323V47.7773V47.8952H79.0687H84.1887V48.202H79.0687H78.9507V48.3199V49.6649Z" fill="#333333" stroke="#333333" strokeWidth="0.235949"/>
<path id="Vector_13" d="M31.8087 47.9188H31.9267V47.8008V47.6121V46.0076H33.2008V50.0896H31.9267V49.4525V48.3199V48.202H31.8087H27.6089H27.4909V48.3199V48.4851V50.0896H26.1932V46.0076H27.4909V46.6447V47.8008V47.9188H27.6089H31.8087Z" fill="#333333" stroke="#333333" strokeWidth="0.235949"/>
<path id="Vector_14" d="M43.0194 50.1129C42.8554 49.9426 42.4562 49.5657 42.0231 49.157L42.0017 49.1368C41.6238 48.7801 41.2196 48.3986 40.9137 48.1006C41.4263 48.0769 41.9483 47.9928 42.449 47.8926L42.4577 47.8909L42.4661 47.8878C42.7663 47.7787 42.9921 47.5023 42.9921 47.1635C42.9921 46.958 42.8779 46.7598 42.7098 46.6448C42.5022 46.4686 42.1701 46.3911 41.7917 46.353C41.4054 46.314 40.9405 46.314 40.4486 46.314H40.4439H39.3821H39.2405H39.1226V46.432V46.5736V47.5882V50.0657H37.8484V45.9601H41.7888V45.9604L41.7961 45.9599C42.5314 45.9139 43.291 46.0517 43.9821 46.3509C44.2483 46.4744 44.433 46.7412 44.455 47.0261C44.454 47.2398 44.3789 47.4445 44.1607 47.6165C43.935 47.7944 43.5474 47.9439 42.9085 48.0136L42.9085 48.0136L42.9067 48.0138L42.5292 48.061L42.2595 48.0947L42.4683 48.2687L42.7514 48.5046L42.7514 48.5047L42.7545 48.5071C43.0632 48.7472 43.6907 49.3569 44.191 49.8428C44.2899 49.939 44.3838 50.0302 44.4694 50.1129H43.0194Z" fill="#333333" stroke="#333333" strokeWidth="0.235949"/>
<path id="Vector_15" d="M59.8394 50.1601C58.8516 50.1601 57.8626 50.0741 56.8925 49.9428L56.9787 49.5695C57.8725 49.7656 58.8069 49.853 59.74 49.8534C60.2981 49.9012 60.8562 49.8279 61.3898 49.6339L61.3898 49.6339L61.3909 49.6335C61.6181 49.5483 61.7918 49.3475 61.8207 49.0878L61.8214 49.0878V49.0747C61.8214 48.9071 61.7505 48.7811 61.6445 48.6902C61.5433 48.6034 61.4125 48.5505 61.289 48.5134L61.2891 48.5133L61.2837 48.512C60.9993 48.4409 60.6622 48.3683 60.346 48.3438C59.5933 48.2601 59.1762 48.1952 58.8774 48.1487C58.8406 48.1429 58.8056 48.1375 58.772 48.1323L58.7721 48.132L58.7643 48.1314C58.2368 48.0855 57.7339 47.9483 57.254 47.6974C57.0106 47.5543 56.8695 47.2908 56.8898 47.0068L56.8901 47.0068V46.9984C56.8901 46.813 56.966 46.6613 57.1177 46.5302C57.2729 46.396 57.5073 46.2843 57.8173 46.1921C58.4933 46.0292 59.1656 45.937 59.8354 45.9601L59.8354 45.9602H59.8394C60.8764 45.9602 61.8927 46.0469 62.9101 46.179L62.8587 46.4615C62.0669 46.3301 61.2725 46.2433 60.4765 46.2433C60.0245 46.2433 59.567 46.2671 59.1073 46.3638L59.1073 46.3638L59.103 46.3648C58.7928 46.4424 58.5653 46.6386 58.5653 46.9276H58.5646L58.5661 46.9406C58.5951 47.2017 58.7955 47.4318 59.0572 47.4907C59.3456 47.5627 59.6342 47.6108 59.9231 47.6349C60.3916 47.6818 61.0491 47.7757 61.6861 47.8701L61.6861 47.8703L61.6928 47.8709C62.1974 47.9168 62.6999 48.0541 63.1553 48.3044C63.4018 48.4487 63.5438 48.6929 63.5438 48.9804H63.5437L63.544 48.9866C63.5535 49.1679 63.4798 49.3298 63.312 49.4792C63.1412 49.6313 62.8766 49.7663 62.5193 49.8818C61.6798 50.1084 60.819 50.2245 59.9367 50.2089L59.9124 50.1601H59.8394Z" fill="#333333" stroke="#333333" strokeWidth="0.235949"/>
<path id="Vector_16" d="M18.9489 50.1364L18.9462 50.1364C17.9244 50.1597 16.8798 49.9739 15.9287 49.5799C15.1279 49.2133 14.7254 48.704 14.7254 48.06C14.7254 47.3949 15.1483 46.9081 15.9288 46.5401C16.9054 46.1453 17.9501 45.9369 18.9934 45.9601L18.9934 45.9601H18.996C19.835 45.9601 20.6749 46.0259 21.5159 46.1367L21.5855 46.4844C20.855 46.3995 20.1031 46.3376 19.35 46.3376C18.6523 46.3376 17.9542 46.4579 17.3034 46.6989L17.3034 46.6988L17.3006 46.7C16.7056 46.938 16.1175 47.3429 16.1175 48.0364C16.1175 48.7043 16.6783 49.1336 17.3021 49.3735L17.3021 49.3735L17.3034 49.374C17.9542 49.615 18.6523 49.7353 19.35 49.7353V49.7353L19.3534 49.7352C20.1005 49.7133 20.8282 49.6709 21.574 49.589L21.4744 49.9591C20.6314 50.0703 19.7897 50.1364 18.9489 50.1364Z" fill="#333333" stroke="#333333" strokeWidth="0.235949"/>
<path id="Vector_17" d="M93.3429 48.5313C93.7078 48.8151 94.5241 49.603 95.0404 50.1134H93.6077C93.4627 49.9637 93.1324 49.6541 92.7591 49.3043C92.7076 49.2559 92.6552 49.2068 92.6024 49.1573C92.2124 48.7916 91.7949 48.3981 91.4895 48.0941C92.0033 48.0614 92.5307 47.9913 93.0417 47.8686L93.0418 47.8687L93.0453 47.8677C93.3552 47.7832 93.5805 47.5013 93.5805 47.164C93.5805 46.9586 93.4663 46.7604 93.2982 46.6454C93.0905 46.4691 92.7585 46.3917 92.3801 46.3536C91.9938 46.3146 91.5288 46.3146 91.037 46.3146H91.0322H89.9705H89.8289H89.7109V46.4326V46.5978V47.6123V50.0898H88.4368V45.9843H92.3771V45.9845L92.3845 45.9841C93.1202 45.9381 93.8803 46.0761 94.5717 46.3757L94.5717 46.3758L94.5763 46.3775C94.8358 46.4773 95.0213 46.74 95.0433 47.0267C95.0424 47.2537 94.9662 47.464 94.7485 47.6382C94.523 47.8186 94.1359 47.968 93.4969 48.0378L93.4969 48.0377L93.4951 48.038L93.1175 48.0852L92.8479 48.1189L93.0567 48.2929L93.3398 48.5288L93.3397 48.5289L93.3429 48.5313Z" fill="#333333" stroke="#333333" strokeWidth="0.235949"/>
</g>
</g>
<defs>
<clipPath id="clip0_5153_33218">
<rect width="110" height="110" fill="white"/>
</clipPath>
</defs>
</svg>
