<svg width="110" height="110" viewBox="0 0 110 110" fill="none" xmlns="http://www.w3.org/2000/svg">
<g id="Frame 1707481658">
<path id="Vector" fillRule="evenodd" clipRule="evenodd" d="M68.1482 60.4722L68.8094 58.6718H65.7783L66.2462 57.2987H69.5315L70.2537 55.3153H64.0492L63.9678 55.5696L64.1204 55.712C64.2831 55.8646 64.273 56.0476 64.1407 56.4545L61.5471 63.9202H67.3447L68.0465 61.9267H64.6595L65.1579 60.4823H68.1482V60.4722ZM60.9164 55.3255L57.7633 61.4995H57.6921L57.5294 55.3255H54.8849L54.7831 55.5493L55.0069 55.6815C55.2205 55.834 55.2815 55.9866 55.312 56.424L55.668 63.9202H58.6076L63.3576 55.3255H60.9164ZM37.2275 56.4342L30.7178 58.5701L29.9245 60.7468H35.6611L36.4138 58.7024H32.4368L36.9528 57.1767L37.2275 56.4342ZM43.3913 58.4481C43.2387 58.8142 43.076 58.9058 42.8624 58.9872C42.72 59.0482 42.4148 59.0685 42.1199 59.0685H40.9807L41.6011 57.2885H42.9844C43.3913 57.2885 43.5642 57.5021 43.5642 57.7463C43.5642 57.8988 43.493 58.1836 43.3913 58.4481ZM43.1879 55.3255H39.4652L39.394 55.5493L39.5465 55.6916C39.7093 55.8442 39.6991 56.0273 39.5567 56.4342L36.9528 63.9202H39.3228L40.3399 60.9502H41.1434L42.0385 63.9202H44.4288L43.2997 60.879C43.9507 60.7773 44.2762 60.584 44.6118 60.2992C45.0594 59.8924 45.3747 59.3228 45.629 58.4786C46.0053 57.258 45.7815 56.5562 45.5374 56.2002C45.2119 55.7018 44.5101 55.3255 43.1879 55.3255ZM75.1054 58.4481C74.9528 58.8142 74.7901 58.9058 74.5765 58.9872C74.4341 59.0482 74.129 59.0685 73.834 59.0685H72.6948L73.3051 57.2885H74.6782C75.0851 57.2885 75.258 57.5021 75.258 57.7463C75.2885 57.8988 75.2071 58.1836 75.1054 58.4481ZM74.902 55.3255H71.1793L71.1081 55.5493L71.2607 55.6916C71.4234 55.8442 71.4132 56.0273 71.281 56.4342L68.667 63.9202H71.0471L72.0642 60.9502H72.8677L73.7628 63.9202H76.1531L75.0342 60.879C75.6852 60.7773 76.0107 60.584 76.3361 60.2992C76.7837 59.8924 77.099 59.3228 77.3533 58.4786C77.7296 57.258 77.5058 56.5562 77.2617 56.2002C76.9261 55.7018 76.2243 55.3255 74.902 55.3255ZM79.7842 66.8597C73.2441 70.2264 64.5273 72.0776 55.2307 72.0776C45.9341 72.0776 37.2173 70.2264 30.6771 66.8597C24.3913 63.6253 20.9229 59.4143 20.9229 55C20.9229 50.5857 24.3913 46.3747 30.6771 43.1403C37.2173 39.7837 45.9341 37.9224 55.2307 37.9224C64.5273 37.9224 73.2441 39.7736 79.7842 43.1403C86.0701 46.3747 89.5283 50.5857 89.5283 55C89.5385 59.4143 86.0803 63.6253 79.7842 66.8597ZM80.6691 41.4315C73.8645 37.9325 64.8324 36 55.2307 36C45.629 36 36.5968 37.9325 29.7922 41.4315C25.7644 43.5064 19.0005 48.0225 19.0005 55C19.0005 61.9673 25.7644 66.4936 29.7922 68.5685C36.5968 72.0675 45.629 74 55.2307 74C64.8324 74 73.8645 72.0776 80.6691 68.5685C84.697 66.4936 91.4609 61.9775 91.4609 55C91.471 48.0225 84.7071 43.5064 80.6691 41.4315ZM78.8688 65.1001C71.8404 68.7211 63.0931 70.0942 55.2307 70.0942C47.3683 70.0942 38.6311 68.7211 31.5926 65.1001C27.8699 63.1879 22.9266 59.6585 22.9266 55C22.9266 50.3415 27.8699 46.8223 31.5926 44.8999C38.6311 41.2789 47.3683 39.9058 55.2307 39.9058C63.0931 39.9058 71.8404 41.2789 78.8688 44.8999C82.5915 46.8121 87.5347 50.3415 87.5347 55C87.5449 59.6483 82.6017 63.1777 78.8688 65.1001ZM79.235 44.1981C72.0947 40.5262 63.205 39.1124 55.2307 39.1124C47.2564 39.1124 38.3667 40.5161 31.2264 44.1981C27.2189 46.2628 22.1333 49.9855 22.1333 55C22.1333 60.0145 27.2291 63.7372 31.2366 65.8019C38.3768 69.4738 47.2665 70.8774 55.2409 70.8774C63.2152 70.8774 72.1049 69.4738 79.2451 65.8019C83.2628 63.7372 88.3484 60.0145 88.3484 55C88.3383 49.9855 83.2526 46.2628 79.235 44.1981ZM51.508 59.7805C51.213 60.6247 50.9791 61.1638 50.6333 61.53C50.3586 61.8148 50.0128 62.0182 49.1889 62.0182C48.5481 62.0182 48.1921 61.7537 48.1921 61.2655C48.1921 60.9502 48.2735 60.462 48.6193 59.5161C48.9143 58.6718 49.1482 58.1328 49.4941 57.7666C49.7585 57.4818 50.1145 57.2784 50.9384 57.2784C51.5792 57.2784 51.9352 57.5428 51.9352 58.031C51.9453 58.3464 51.8538 58.8346 51.508 59.7805ZM51.3758 55.2238H51.1011C49.4737 55.2238 48.5481 55.6611 47.7853 56.4647C46.8394 57.4615 45.9443 60.167 45.9646 61.591C45.985 63.0455 46.9309 64.0525 48.9143 64.0525H49.2093C50.8367 64.0525 51.7724 63.6151 52.5353 62.8116C53.4812 61.8148 54.3559 59.1092 54.3356 57.6852C54.3153 56.2307 53.3693 55.2238 51.3758 55.2238ZM34.2269 53.4743H40.1161L40.8281 51.4299H37.4004L39.6584 44.8897H36.7087L36.6375 45.1135L36.7901 45.2559C36.9528 45.4085 36.9427 45.6017 36.8104 45.9984L34.2269 53.4743ZM49.7483 53.4641H51.9148L53.8067 47.9106L54.9154 53.4641H57.0819L60.0315 44.8796H57.7633L56.1868 49.5482L55.2815 44.8796H52.2301L52.1589 45.1033L52.3115 45.2457C52.4743 45.3983 52.4641 45.5915 52.3319 45.9882L49.7483 53.4641ZM63.1338 46.924H64.0797C64.7205 46.924 65.0765 47.1376 65.0867 47.636C65.0867 47.9513 65.0053 48.3887 64.6697 49.3346C64.3747 50.1788 64.1407 50.667 63.8051 51.023C63.5406 51.3078 63.1846 51.4299 62.3608 51.4299H61.5776L63.1338 46.924ZM61.069 45.9882L58.4957 53.4743H62.2997C63.9271 53.4743 64.8629 53.1183 65.6156 52.3148C66.5615 51.318 67.4261 48.7243 67.3956 47.3003C67.365 45.8458 66.4191 44.8897 64.4357 44.8897H60.9775L60.9063 45.1135L61.0588 45.2559C61.2114 45.4085 61.2012 45.5915 61.069 45.9882ZM75.4105 47.9615H69.6739L68.9213 50.0059H72.8982L68.3822 51.5316L68.1076 52.2639L74.6172 50.1279L75.4105 47.9615ZM46.758 47.2596H46.8394L46.88 49.8533H45.2933C45.2831 49.8533 46.758 47.2596 46.758 47.2596ZM40.7264 53.4641H43.2285L44.3169 51.5621H46.9106L46.9411 53.4641H49.2093L48.721 44.8796H45.3238L45.2526 45.1033L45.3645 45.2152C45.5476 45.3881 45.4662 45.6424 44.8051 46.69L40.7264 53.4641Z" fill="#333333"/>
</g>
</svg>
