<svg width="110" height="110" viewBox="0 0 110 110" fill="none" xmlns="http://www.w3.org/2000/svg">
<g id="Frame 1707481677">
<path id="Vector" d="M54.9287 38C62.4194 38 70.45 39.5266 76.8415 43.5824C80.9922 46.2382 84.8563 50.2623 84.8563 55.507C84.8563 61.6312 79.6256 66.0844 74.6148 68.691C68.6525 71.7776 61.6068 73 54.9269 73C47.438 73 39.4231 71.491 33.0299 67.4193C28.8792 64.7636 24.9993 60.7394 24.9993 55.507C24.9993 49.3548 30.2158 44.9173 35.2407 42.309C41.2206 39.2241 48.2505 38 54.9287 38ZM54.8653 39.8608C47.9005 39.8608 40.394 41.1641 34.3508 44.8048C30.55 47.0789 26.7968 50.658 26.7968 55.4121C26.7968 60.9962 31.8849 64.9043 36.4332 67.1485C42.0631 69.8975 48.6463 70.9668 54.8653 70.9668C61.8442 70.9668 69.3525 69.66 75.3957 66.0193C79.1807 63.7294 82.9498 60.1678 82.9498 55.4138C82.9498 49.8173 77.8756 45.904 73.3133 43.6791C67.6817 40.9249 61.0985 39.8608 54.8653 39.8608ZM28.5784 51.548L40.044 49.5922L43.4947 42.1015L46.9314 49.5922L58.3952 51.548L46.9314 53.5214L43.4947 61.0279L40.044 53.5214L28.5784 51.548ZM53.7837 57.2553L58.8402 56.3671L60.351 52.9796L61.8618 56.3671L66.9201 57.2553L61.8618 58.1294L60.351 61.5186L58.8402 58.1294L53.7837 57.2553ZM64.2485 48.2239L69.305 47.3497L70.8158 43.9482L72.3267 47.3497L77.3832 48.2239L72.3267 49.1138L70.8158 52.503L69.3033 49.1138L64.2485 48.2239ZM58.8402 64.2553L63.8809 63.3812L65.3917 59.9779L66.9184 63.3812L71.9749 64.2553L66.9184 65.1452L65.3917 68.5344L63.8809 65.1452L58.8402 64.2553ZM43.3048 65.4794L48.3613 64.6053L49.888 61.1985L51.397 64.6053L56.4553 65.4794L51.397 66.3693L49.888 69.7585L48.3613 66.3693L43.3048 65.4794ZM68.7334 57.1163L73.7741 56.2246L75.2849 52.8372L76.8116 56.2246L81.8681 57.1163L76.8116 57.9905L75.2832 61.3744L73.7724 57.9887L68.7334 57.1163Z" fill="#333333"/>
</g>
</svg>
