<svg width="110" height="110" viewBox="0 0 110 110" fill="none" xmlns="http://www.w3.org/2000/svg">
<g id="Frame 1707481648">
<g id="Group">
<path id="Vector" fillRule="evenodd" clipRule="evenodd" d="M35.7544 49.1693C35.7544 31.6242 48.7505 30 55.9001 30C63.0497 30 76.0458 31.6242 76.0458 49.1693C76.0458 66.2809 62.8329 68.4482 55.9001 68.4482C49.0743 68.4482 35.7544 66.2835 35.7544 49.1693ZM63.4805 48.5191L65.6479 64.7664C66.8386 64.1161 73.338 60.9748 73.2309 49.1693C73.2309 35.3061 64.7835 31.6242 57.5269 31.6242L63.4805 48.5191ZM55.8975 45.2707H56.8715V31.6242H55.0306V45.2707H55.8975ZM55.8975 66.824C59.9057 66.824 63.4805 65.7404 64.995 64.9831L57.0882 47.7618H54.7068L46.7999 64.9831C48.3171 65.7404 51.8919 66.824 55.8975 66.824ZM54.2733 31.6242C47.0167 31.6242 38.5693 35.3061 38.5693 49.1693C38.4596 60.9748 44.959 64.1161 46.1523 64.7664L48.4267 48.5191L54.2733 31.6242Z" fill="#333333"/>
<path id="Vector_2" fillRule="evenodd" clipRule="evenodd" d="M33.304 72.0381H35.4348L40.2264 79.9737H37.9624L34.3407 73.9835L32.4501 77.1509H35.5392L36.4453 78.642H31.5466L30.7476 79.9737H28.5098L33.304 72.0381ZM75.8567 72.0381H78.0136L82.7791 79.9737H80.5152L76.9221 73.9835L75.0055 77.1509H78.0946L79.0007 78.642H74.1281L73.303 79.9737H71.0651L75.8567 72.0381ZM54.9538 79.9998H56.7373C58.8132 79.9737 59.641 78.8274 59.641 76.9655V72.0381H57.6982V77.3102C57.6982 78.2947 57.0062 78.4278 56.3665 78.4566H53.5698C52.9301 78.4305 52.2381 78.2973 52.2381 77.3102V72.0381H50.2666V76.9655C50.2666 78.83 51.1179 79.9737 53.1964 79.9998H54.9538ZM42.0647 76.0072V75.0228C42.0908 74.3569 42.224 73.6649 43.1562 73.691H49.1464V72.0407H43.1301C41.2657 72.0407 40.1219 72.892 40.0932 74.9705V77.0752C40.1193 79.1512 41.2657 79.9789 43.1301 79.9789H49.149V78.3547H43.1588C42.2266 78.3547 42.0934 77.6889 42.0673 77.023L42.0647 76.0072ZM62.8632 79.9737H60.9205V72.0381H68.1901C70.7204 72.0381 71.3576 75.3936 69.6002 76.566C70.3731 76.8585 70.4802 77.8168 70.5324 78.138L70.5846 79.9763H68.668L68.6158 78.3521C68.5636 77.6601 68.1092 77.1797 67.4172 77.1797H63.7145L63.3411 75.5293H67.6287C68.2946 75.5293 68.668 75.2369 68.668 74.6493C68.668 74.0905 68.2946 73.7432 67.6287 73.7432H62.8632V79.9737Z" fill="#333333"/>
</g>
</g>
</svg>
