<svg width="110" height="110" viewBox="0 0 110 110" fill="none" xmlns="http://www.w3.org/2000/svg">
<g id="Frame 1707481675">
<path id="Vector" fillRule="evenodd" clipRule="evenodd" d="M64.1189 69.3242C61.7105 71.5215 59.6372 72.7058 55.2696 75C51.204 73.1483 48.5504 71.3231 46.2492 69.5255C43.0691 67.0462 40.7847 63.0205 40.5866 60.5515L39 37.052C49.748 34.2542 61.1803 34.3179 71.0695 37.2399L69.4597 60.5014C69.2548 62.6081 67.3727 66.7041 64.1189 69.3242ZM67.6183 59.7308L69.071 38.9586C60.5601 36.2446 50.3657 36.2044 40.9729 38.6733L42.4555 59.7174C42.6099 61.9044 44.1832 65.2492 47.199 67.8123C49.0139 69.3555 52.5698 71.9454 55.1961 72.9383C58.2222 71.4054 60.9727 69.4999 63.1533 67.618C65.857 65.1519 67.4538 62.0858 67.6183 59.7308ZM62.8042 67.0694C60.7141 68.8745 57.9 70.8974 55.1961 72.1889C52.7809 71.4408 49.2116 68.6831 47.4941 67.2004C44.4984 64.6105 43.2806 61.9003 43.0962 59.3368L41.6402 39.2491C50.5836 36.8976 60.3455 36.8976 68.4566 39.4838L67.0177 59.3033C66.8096 61.9401 65.5851 64.4594 62.8042 67.0694ZM42.3087 39.6395L42.5973 43.1016C51.1346 40.9647 60.0782 41.1795 67.5018 43.4271L67.8205 39.9046C60.1281 37.5428 50.7892 37.4153 42.3087 39.6395ZM63.5392 40.9244L61.6136 40.6057L61.5397 41.5115L60.9125 41.4175L61.0599 39.0157L61.7009 39.1097L61.6337 40.0322L63.5862 40.3474L63.6499 39.4249L64.3039 39.549L64.1062 41.9576L63.4688 41.8403L63.5392 40.9244ZM54.2463 40.1094C54.0113 40.1094 53.8234 40.0457 53.6994 39.8377C53.5922 39.6666 53.5922 39.1097 53.6994 38.9253C53.8169 38.7107 54.0282 38.6504 54.2027 38.6504L56.9333 38.6536L56.9397 39.244L54.357 39.2405C54.2294 39.2405 54.2261 39.5258 54.367 39.5258H56.4031C56.6415 39.5258 56.8526 39.6699 56.9195 39.8578C56.9935 40.0591 56.9801 40.5154 56.9195 40.7033C56.8627 40.8912 56.6479 40.9951 56.3795 40.9951H53.6861L53.6826 40.3911H56.0809C56.1163 40.3883 56.1494 40.3723 56.1735 40.3462C56.1977 40.3201 56.2111 40.2858 56.2111 40.2502C56.2111 40.2147 56.1977 40.1804 56.1735 40.1543C56.1494 40.1282 56.1163 40.1122 56.0809 40.1094H54.2463ZM52.6665 40.3493C52.6659 40.3193 52.6594 40.2897 52.6472 40.2622C52.6351 40.2347 52.6175 40.2099 52.5957 40.1893C52.5738 40.1687 52.5481 40.1526 52.5199 40.1421C52.4918 40.1316 52.4618 40.1268 52.4318 40.128L50.6201 40.2588L50.6569 41.1578L50.0698 41.2182L49.9455 38.8466L52.6429 38.6451C52.9918 38.6184 53.1963 38.88 53.2129 39.0981C53.233 39.3565 53.2431 39.6885 53.0416 39.8261C53.2096 39.9501 53.2532 40.1348 53.2565 40.3931L53.2632 41.0003L52.6761 41.0237L52.6665 40.3493ZM52.2817 39.5796C52.5132 39.5662 52.493 39.2071 52.2817 39.2274L50.5574 39.3582L50.5775 39.687L52.2817 39.5796ZM46.6329 39.2646C47.1863 39.1338 48.32 38.9527 48.9139 38.9089C49.1856 38.889 49.3969 39.0299 49.4339 39.2412C49.5212 39.7277 49.575 40.2308 49.5146 40.9052C49.4978 41.0996 49.33 41.2541 49.1086 41.3011C48.3474 41.4689 47.4917 41.5594 46.8575 41.6198C46.6965 41.6367 46.4417 41.5091 46.3979 41.3079C46.2873 40.8179 46.247 40.1337 46.2805 39.664C46.294 39.4892 46.455 39.3048 46.6329 39.2646ZM48.7875 40.7092C48.8645 40.6926 48.8982 40.6086 48.905 40.5482C48.9319 40.3636 48.9083 39.8806 48.8645 39.7194C48.8512 39.6557 48.7976 39.6155 48.6768 39.6255C48.348 39.6456 47.479 39.7699 47.0498 39.8637C46.9358 39.8906 46.8921 39.9576 46.8855 40.0179C46.8654 40.1757 46.9122 40.6083 46.9527 40.85C46.9627 40.9071 47.0367 40.9472 47.0935 40.9441C47.6737 40.8971 48.3581 40.8032 48.7875 40.7092ZM58.3005 39.3646C58.1727 39.3611 58.0857 39.4383 58.0758 39.5054C58.0454 39.7034 58.0351 39.9582 58.0351 40.2905C58.0351 40.334 58.1091 40.4548 58.1727 40.4648C58.75 40.5453 59.8702 40.6462 60.4807 40.6864L60.444 41.307C59.642 41.2703 58.8034 41.1427 57.9347 41.0821C57.6497 41.062 57.4417 40.9078 57.4314 40.6328C57.4148 40.1798 57.4417 39.4954 57.522 39.0964C57.5758 38.8514 57.8103 38.7241 58.0756 38.7306C58.8771 38.7608 59.5145 38.8313 60.5647 38.9721L60.5245 39.5896C60.0146 39.5457 59.0486 39.3947 58.3005 39.3646ZM45.1732 39.5446C45.9849 39.3534 46.109 40.7958 45.4313 40.9636L43.5394 41.4367L43.6299 42.3692L43.0363 42.5272L42.825 40.098L45.1732 39.5446ZM45.1633 40.4893C45.3578 40.4458 45.3311 40.0971 45.1229 40.1407L43.4154 40.5532L43.4558 40.9124L45.1633 40.4893ZM65.2386 41.284L65.1984 41.6732L67.0734 42.1461L67.0231 42.6897L64.5071 42.096L64.7254 39.6502L67.2581 40.2642L67.2012 40.8345L65.3158 40.3782L65.2791 40.791L67.1509 41.2471L67.1039 41.7301L65.2386 41.284ZM47.092 48.2447C46.8304 48.5936 46.5889 49.1304 46.4749 49.5865C46.4345 49.7409 46.4345 49.7978 46.4616 49.8984C46.7097 49.7877 47.0319 49.6803 47.2195 49.62C47.2935 49.4559 47.3335 49.2678 47.3974 49.1168C47.4978 48.8821 47.5617 48.7813 47.6658 48.617C47.9644 48.1541 48.595 47.6978 49.0612 47.7079C48.9067 47.842 48.5847 48.1776 48.4574 48.3788C48.3535 48.5466 48.2562 48.7277 48.1822 48.9156C48.1186 49.0836 48.0985 49.2074 48.0816 49.345C48.3231 49.2746 48.5613 49.2242 48.7155 49.2142C48.8197 49.1571 48.8531 49.0462 48.9102 48.9423C49.0878 48.6102 49.4367 48.2377 49.6583 48.1172C49.8359 48.0198 50.0978 47.926 50.2855 47.9864C50.0842 48.1373 49.8729 48.3788 49.7791 48.5232C49.6817 48.6774 49.524 48.9762 49.5308 49.1168C49.6953 49.1304 49.93 49.1168 50.0241 49.0934L50.0138 48.6304L54.8343 48.6269L54.831 42.0315C51.0804 42.0315 46.971 42.3872 42.6134 43.6049L43.5125 55.9935H50.0103V53.572C49.7487 53.3775 48.5342 53.2365 47.7863 53.5283C47.6052 53.5987 47.0148 53.8538 46.7464 54.0648L45.9917 54.6622C45.9178 54.7226 45.9112 54.8534 45.9112 54.9538C45.9112 55.1752 45.6529 55.343 45.5087 55.2959C45.3913 55.2557 45.2303 55.2323 45.0826 55.266C44.9249 55.2992 44.7843 55.101 44.7707 54.9875C44.7506 54.8464 44.8615 54.6622 44.868 54.6016C44.8748 54.5445 44.8379 54.3197 45.0457 54.1823C45.1395 54.1222 45.2703 54.1252 45.3644 54.1757C45.3917 54.1917 45.4241 54.1965 45.4549 54.1893C45.4886 54.1757 45.5792 54.0955 45.6026 54.0753C45.6126 53.9412 45.5925 53.7297 45.6061 53.6125C45.6363 53.3843 45.6496 53.2535 45.72 53.0319C45.7804 52.8407 45.9112 52.5625 46.0084 52.4046C46.1829 52.1195 46.5283 51.8444 46.7869 51.8678C46.686 52.0021 46.6526 52.0725 46.5788 52.2101C46.4413 52.4617 46.3137 52.8777 46.2536 53.1595C46.2131 53.3406 46.1932 53.4817 46.2033 53.6726C46.4012 53.5252 46.609 53.4042 46.7466 53.3272C46.8103 52.995 46.9413 52.6362 47.082 52.3713C47.2497 52.0524 47.7025 51.7068 47.9981 51.7337C47.7196 52.0355 47.5214 52.4549 47.4477 52.7233C47.4175 52.8305 47.3805 52.9549 47.3976 53.0219C47.5081 52.9615 47.7364 52.9011 47.8469 52.8911C47.9208 52.7067 48.0215 52.4851 48.1055 52.3543C48.3671 51.9515 48.7796 51.7068 49.0146 51.7168C48.8299 51.9651 48.6722 52.1898 48.5583 52.522C48.5246 52.6192 48.5079 52.7233 48.5079 52.7736C48.6521 52.7502 48.877 52.7502 48.9675 52.7502C49.1353 52.5993 49.2558 52.4179 49.4573 52.2637C49.6251 52.1327 49.937 51.955 50.0107 51.9415V49.9052C50.0107 49.8614 49.4774 49.8214 49.2123 49.8549C48.5079 49.9389 46.7468 50.4923 46.002 51.0057C45.9852 51.0494 45.9887 51.2942 45.9381 51.4082C45.8946 51.5121 45.7839 51.6195 45.6767 51.6665C45.4856 51.7505 45.264 51.4955 45.1666 51.5324C45.066 51.5694 44.8514 51.6565 44.6198 51.4922C44.5159 51.4185 44.4623 51.2102 44.499 51.0562C44.5327 50.9453 44.6265 50.8583 44.7003 50.7878C44.7674 50.7207 44.7204 50.4623 44.9617 50.3081C45.1297 50.2007 45.3609 50.288 45.5389 50.3818C45.5751 50.3703 45.6083 50.3509 45.6361 50.325C45.6595 50.2543 45.6964 50.0397 45.7301 49.8719C45.7704 49.6906 45.7839 49.5734 45.8375 49.4058C45.9718 49 46.2936 48.4162 46.6294 48.1108C46.8943 47.8759 47.3068 47.6882 47.6122 47.7083C47.5818 47.7547 47.2029 48.0938 47.092 48.2447ZM47.8675 44.2736C48.1225 43.9182 48.7934 43.3814 49.3101 43.4118C49.0281 43.6565 48.7798 43.9282 48.6055 44.2167C48.3776 44.5893 48.193 45.0554 48.1527 45.4146C48.3238 45.3507 48.7263 45.2367 48.9577 45.1864C49.1624 44.7402 49.4308 44.2471 49.7631 43.982C50.0011 43.7908 50.3432 43.6266 50.6621 43.6633C50.5882 43.7674 50.4675 43.8479 50.3769 43.9317C50.2126 44.0759 50.0987 44.2706 50.0079 44.4685C49.9407 44.616 49.8268 45.0589 49.8233 45.079C50.0547 45.0758 50.464 45.1024 50.5512 45.1293C50.8231 44.7737 51.417 44.257 52.128 44.3745C51.8193 44.542 51.2558 45.0316 51.2895 45.3002C51.7524 45.599 52.4434 46.2261 52.4736 46.8067C52.1584 46.4779 51.6384 46.1524 51.3766 46.0619C50.7492 45.8405 50.0011 45.8103 49.3772 45.9243C48.0757 46.1693 46.9251 46.7327 45.8215 47.3938C45.7949 47.5714 45.6973 47.8398 45.6168 47.9306C45.5363 48.0211 45.4156 48.1082 45.2847 48.1283C45.1205 48.1552 44.9525 48.0881 44.8118 48.0144C44.721 47.9641 44.483 48.0279 44.3321 47.9472C44.2282 47.8934 44.067 47.7425 44.1107 47.5045C44.1475 47.2932 44.3588 47.1656 44.389 46.9644C44.4325 46.6691 44.6473 46.5416 44.758 46.5217C44.8788 46.4982 45.003 46.5385 45.1135 46.5888C45.1605 46.6122 45.2106 46.6525 45.2546 46.666C45.2981 46.6525 45.3617 46.5989 45.3987 46.5822C45.4088 46.5486 45.5197 45.9348 45.5798 45.6664C45.6402 45.398 45.7441 45.1696 45.8314 44.9183C46.0932 44.1736 46.9015 43.422 47.5492 43.4623C47.5155 43.5093 47.3075 43.6603 47.019 43.9958C46.5528 44.5425 46.4353 45.123 46.2608 46.1194C46.6197 45.9516 46.9317 45.8309 47.2572 45.7134C47.3348 45.4046 47.438 45.1027 47.5658 44.8111C47.6496 44.6225 47.7502 44.4381 47.8675 44.2736ZM67.418 45.0985L55.429 45.1088L55.4393 48.6378L67.1498 48.631L67.418 45.0985ZM56.8056 63.3705C56.668 63.4409 56.4972 63.3974 56.4267 63.3669C56.3058 63.3166 56.2255 63.1922 56.2152 63.0482C56.2053 62.9343 56.316 62.7967 56.3394 62.6722C56.3493 62.6219 56.2959 62.3741 56.507 62.2463C56.5477 62.2229 56.668 62.1792 56.7518 62.1929C56.836 62.2096 56.9029 62.2634 56.9867 62.2767C57.1007 62.2363 57.2099 62.1834 57.3122 62.119C57.3794 61.8605 57.4297 61.5623 57.4629 61.297C56.8627 61.5956 56.0774 61.7968 55.41 61.8237L55.4135 71.4754C58.2145 70.0527 61.2872 67.7248 62.5953 66.4464C64.7123 64.3832 66.1379 62.2934 66.3558 59.2808L66.5535 56.5367L60.1902 56.5299C60.1902 58.0862 59.6703 59.7102 58.1839 60.8842C58.1001 61.223 58.0601 61.7933 58.0664 61.8071C58.2712 61.7229 58.4626 61.6494 58.6304 61.5991C58.6437 61.5789 58.8819 61.059 58.9893 60.9181C59.2409 60.529 59.5797 60.1965 59.992 59.9751C60.2506 59.8443 60.5658 59.7235 60.8443 59.8277C60.4785 60.002 60.1931 60.3172 60.0222 60.4983C59.8645 60.6663 59.6801 60.9144 59.5963 61.1694C59.5849 61.2136 59.5759 61.2584 59.5694 61.3035C59.7407 61.2497 60.2871 61.1694 60.5153 61.139C60.5422 61.1355 60.6126 60.9848 60.6664 60.9109C60.7331 60.8203 60.7736 60.7635 60.8808 60.6425C61.156 60.3439 61.6221 60.0252 62.0749 60.0956C61.8271 60.2533 61.555 60.5049 61.3371 60.9006C61.3067 60.9612 61.2667 61.045 61.2833 61.0817C61.3504 61.0953 61.6827 61.0885 61.884 61.1121C62.1152 60.9682 62.3604 60.8405 62.6253 60.7836C62.9239 60.7164 63.3132 60.77 63.4674 60.9109C63.2863 60.9006 63.1151 60.9343 62.951 60.9979C62.8569 61.0351 62.669 61.1222 62.5986 61.2427C62.7762 61.293 63.0685 61.4844 63.2526 61.6389C63.3804 61.7461 63.5346 61.9007 63.6319 62.0414C63.8767 62.3738 63.9272 62.9706 63.796 63.1486C63.7593 63.0443 63.719 62.9406 63.6619 62.8433C63.5444 62.6455 63.3598 62.4305 63.2021 62.313C62.4409 61.7329 61.3441 61.7025 60.4481 61.8836C59.6799 62.0414 58.2944 62.3301 57.3888 62.9739C57.4122 63.0878 57.3417 63.2792 57.238 63.3527C57.1007 63.454 56.9064 63.3166 56.8056 63.3705ZM58.3005 64.4552C58.4009 64.301 58.5219 64.0763 58.582 63.9788C58.7935 63.6399 59.0989 63.3884 59.3065 63.2908C59.592 63.1532 60.0511 63.073 60.2558 63.1734C60.0312 63.2272 59.8601 63.3311 59.7026 63.4418C59.5416 63.5529 59.2258 63.8412 59.1455 63.9622C59.0549 64.0962 58.9948 64.2168 58.9712 64.2809C59.2258 64.2236 59.5314 64.1765 59.6889 64.1765C59.8028 64.0322 60.1049 63.687 60.3298 63.5258C60.5109 63.398 60.8968 63.2707 61.138 63.3746C60.9068 63.4485 60.4976 63.7708 60.3464 64.0022C60.3132 64.0556 60.2827 64.1129 60.276 64.1428C60.4002 64.1531 60.6349 64.1765 60.7627 64.1931C60.776 64.1931 61.1249 63.9788 61.2826 63.935C61.4874 63.8777 61.8227 63.8042 62.0342 64.0291C61.88 64.0322 61.7356 64.0457 61.6215 64.0962C61.457 64.1697 61.3865 64.2236 61.313 64.3275C61.6348 64.4987 61.9706 64.6766 62.1683 64.9918C62.2388 65.1025 62.3459 65.3643 62.2858 65.5351C62.1849 65.4078 62.0474 65.2836 61.9367 65.2199C61.779 65.1294 61.665 65.0423 61.4736 64.9684C60.8734 64.7437 60.0885 64.6834 59.4609 64.7671C58.6492 64.871 57.6528 65.2737 57.1431 65.6224C57.1764 65.7801 57.0996 65.9645 57.009 66.0083C56.8176 66.1056 56.6334 65.9411 56.5997 65.9514C56.5494 65.968 56.395 66.0219 56.2845 65.9748C56.1734 65.9313 56.1034 65.7364 56.1469 65.6126C56.1802 65.5185 56.3149 65.3844 56.3149 65.3844C56.2944 65.1797 56.4287 65.0559 56.6131 65.032C56.7174 65.0222 56.7907 65.1025 56.8749 65.1195C56.9519 65.0823 57.0057 65.0559 57.0458 65.0353C57.0928 64.8678 57.1632 64.6965 57.2103 64.5556C57.2873 64.3176 57.4012 64.1061 57.5456 63.8849C57.7536 63.5662 58.1229 63.2641 58.5619 63.2578C58.4278 63.3617 58.3504 63.4188 58.2666 63.5227C58.1226 63.7038 58.0115 63.8683 57.9111 64.0628C57.8206 64.2341 57.7363 64.4887 57.7232 64.7135C57.9131 64.6219 58.1056 64.5357 58.3005 64.4552ZM58.2355 66.2697C58.3495 66.2227 58.47 66.1894 58.591 66.203C58.309 66.3837 58.0509 66.6486 57.9805 66.9642C57.9737 66.9975 57.9737 67.0646 58.0039 67.0847C58.0841 67.0646 58.2889 67.0211 58.3427 66.9942C58.376 66.9237 58.4597 66.813 58.517 66.7391C58.7183 66.4712 59.007 66.203 59.406 66.3034C59.1442 66.4208 58.9932 66.5849 58.8793 66.7929C58.8592 66.8301 58.846 66.9005 58.8725 66.9005C58.9397 66.9005 59.1947 66.8903 59.2315 66.8903C59.3489 66.7864 59.6913 66.5882 59.9262 66.6621C59.8088 66.717 59.7011 66.7908 59.6075 66.8804C59.5841 66.9069 59.5537 66.9406 59.5473 66.9808C59.7549 67.0847 59.9395 67.2022 60.1108 67.3501C60.2014 67.4271 60.3322 67.5714 60.4125 67.8195C60.2112 67.6452 59.5537 67.3328 59.1949 67.3162C58.96 67.3063 58.6686 67.3498 58.5208 67.3833C57.9538 67.5111 57.3702 67.7661 56.8703 68.0511C56.8738 68.1485 56.8568 68.2655 56.7465 68.3563C56.6726 68.4169 56.5116 68.4469 56.4508 68.3598C56.4175 68.3128 56.1992 68.3633 56.1526 68.3029C56.1526 68.3029 56.0953 68.2159 56.0885 68.1115C56.0822 68.0008 56.1557 67.9339 56.2163 67.8766C56.2329 67.8565 56.2296 67.669 56.3705 67.6049C56.4576 67.5647 56.5448 67.5784 56.6188 67.6255C56.6492 67.6084 56.6726 67.5918 56.6927 67.5784C56.7093 67.3601 56.7496 67.1589 56.8303 66.941C56.941 66.6321 57.3032 66.2566 57.6152 66.2699C57.4036 66.4981 57.2328 66.8133 57.1755 67.0753C57.1589 67.1591 57.1525 67.3236 57.1525 67.4004C57.2271 67.3547 57.3056 67.3155 57.387 67.2834C57.4207 67.2026 57.5178 67.0014 57.5681 66.9108C57.695 66.6755 57.9805 66.3738 58.2355 66.2697ZM43.8334 59.6358C43.8736 60.803 44.3501 62.2124 45.0041 63.1882H54.7625L54.7424 61.8265C53.4879 61.8265 51.5723 60.9977 50.8142 59.6426L43.8334 59.6358ZM50.5421 56.5913C50.5421 62.7973 59.6193 62.7973 59.6193 56.655L59.6228 49.1875L50.5421 49.1842V56.5913ZM53.4664 53.6171C53.5739 53.4996 53.6679 53.3454 53.6878 53.2146C53.7047 53.1072 53.4028 53.114 53.2921 53.1811C53.2317 53.2179 53.1746 53.2918 53.1276 53.359C53.0941 53.4093 52.9734 53.4495 52.913 53.3926C52.8492 53.3323 52.9633 53.2281 52.9598 53.1645C52.9598 53.0571 52.7551 53.2181 52.6613 53.1743C52.5976 53.1441 52.5941 53.047 52.6378 52.9899C52.6613 52.9597 52.7284 52.9731 52.7586 52.9398C52.7888 52.9061 52.7888 52.8558 52.7988 52.8123C52.8124 52.762 52.866 52.7384 52.8995 52.7016C53.027 52.5776 53.2685 52.3661 53.3155 52.3696C53.426 52.3796 53.5839 52.4367 53.681 52.3862C53.7012 52.3761 53.7381 52.3427 53.7044 52.3225L53.4428 52.151C53.4417 52.124 53.4465 52.0971 53.4569 52.0721C53.4673 52.0472 53.4831 52.0248 53.5032 52.0067C53.6239 51.8993 53.8118 51.9732 53.9696 51.9496C54.0802 51.9327 54.1842 51.8892 54.2646 51.8122C54.2848 51.8927 54.2345 51.9732 54.2345 52.057C54.3351 52.151 54.4392 52.2313 54.5365 52.3221C54.8251 52.6104 54.9491 53.03 54.9692 53.399C54.9861 53.57 54.9861 53.7444 54.9861 54.0296C55.0331 53.9089 55.0633 53.731 55.0733 53.5766C55.1169 53.1203 55.0464 52.7145 54.7883 52.3689C54.6834 52.2232 54.5643 52.0883 54.4326 51.9662C54.4462 51.8321 54.5602 51.604 54.6676 51.688C54.738 51.7416 54.6341 51.8221 54.7078 51.8691C54.7885 51.9192 54.9058 51.9126 54.9561 51.9023C55.0736 51.8724 55.1875 51.8422 55.2947 51.8321C55.345 51.8288 55.4288 51.8052 55.4459 51.8555C55.4592 51.889 55.4225 51.9126 55.3853 51.926C55.3417 51.9395 55.2746 51.9295 55.2378 51.9662C55.2074 51.9964 55.1777 52.0301 55.1875 52.0736C55.2009 52.1239 55.2547 52.1508 55.3085 52.134C55.5108 52.078 55.7191 52.0465 55.9289 52.0399C56.04 52.0399 56.0159 52.1206 55.9625 52.1506C55.9258 52.1707 55.8685 52.1876 55.8317 52.1911C55.634 52.2143 55.4861 52.2278 55.5095 52.3418C55.5261 52.419 55.6506 52.3451 55.6771 52.4022C55.7075 52.4625 55.6237 52.496 55.6305 52.5365C55.6506 52.664 55.8954 52.6371 56.0094 52.6102C56.0931 52.5901 56.2272 52.5231 56.2675 52.5767C56.3047 52.6235 56.2743 52.6975 56.2272 52.711C56.1063 52.7445 55.8987 52.8049 55.8414 52.8718C55.7875 52.9357 55.8516 53.0665 55.9153 53.0733C56.0597 53.0899 56.2174 53.0899 56.3313 53.1234C56.3744 53.1369 56.4116 53.1671 56.4116 53.2139C56.4116 53.2642 56.3613 53.2811 56.3211 53.2944C56.2436 53.3178 56.113 53.3178 56.0426 53.3482C56.0192 53.3583 55.9722 53.3751 55.9789 53.4018C55.9991 53.4521 56.0999 53.4386 56.1837 53.4486C56.2307 53.4521 56.3213 53.4891 56.3213 53.5394C56.3213 53.5932 56.2743 53.6098 56.1905 53.6033C56.0597 53.5932 55.9389 53.6098 55.882 53.6335C55.865 53.64 55.7646 53.6534 55.7676 53.7006C55.7744 53.7575 55.882 53.7208 55.9087 53.7778C55.9321 53.8317 55.8586 53.8616 55.8519 53.9288C55.8519 53.9557 55.8652 53.969 55.8921 53.9791C55.9792 54.0158 56.0796 54.0123 56.1673 53.9959C56.2578 53.9791 56.2911 54.1001 56.2677 54.1134C56.1507 54.1771 55.8888 54.1101 55.8285 54.1469C55.7447 54.2005 55.9691 54.3212 55.9625 54.3481C55.9558 54.3783 55.9289 54.4085 55.9087 54.4153C55.7948 54.4588 55.6473 54.3748 55.5636 54.422C55.4931 54.4656 55.5229 54.5763 55.4793 54.6334C55.4255 54.7038 55.305 54.6736 55.2512 54.7139C55.1812 54.7639 55.1777 54.8849 55.2547 54.9588C55.3153 55.0157 55.3722 55.0558 55.4492 55.0929C55.7983 55.2673 56.1605 55.4416 56.4993 55.418C56.6737 55.4081 56.9591 55.3983 57.1166 55.4386C57.3214 55.4886 57.5294 55.6461 57.6366 55.7137C57.7237 55.7671 57.8647 55.7809 57.9754 55.7402C58.0557 55.7137 58.1095 55.6197 58.0929 55.539C58.0426 55.2706 57.5994 55.187 57.5931 54.9186C57.5863 54.6099 57.5594 54.4422 57.459 54.2475C57.4218 54.1738 57.4154 54.0027 57.5025 53.9793C57.5729 53.9625 57.5966 54.0598 57.6532 54.0364C57.9118 53.9358 57.9221 53.5265 58.1902 53.4491C58.3475 53.4055 58.8778 53.399 58.834 53.3318C58.7233 53.1739 58.7738 52.993 58.834 52.909C58.8743 52.8554 58.9847 52.8016 59.0289 52.8554C59.0891 52.9258 58.9379 53.0096 58.9482 53.1137C58.958 53.2111 59.0993 53.399 58.9917 53.4996C58.9281 53.56 58.4484 53.5803 58.3073 53.7949C58.2202 53.9255 58.2104 54.0296 58.314 54.0196C58.3978 54.0095 58.4683 53.9089 58.5457 53.8518C58.6833 53.7514 58.794 53.7109 58.8712 53.7846C58.9114 53.8214 58.8576 53.892 58.7837 53.9122C58.7235 53.9323 58.5761 54.09 58.6161 54.1302C58.6763 54.1939 59.0118 53.9023 59.0958 53.9625C59.1394 53.9959 58.9313 54.2107 58.9681 54.2676C59.0116 54.3381 59.1527 54.2274 59.1962 54.2812C59.2599 54.3617 59.0856 54.5194 58.9847 54.5898C58.9077 54.6399 58.9377 54.828 58.827 54.8851C58.7032 54.9455 58.6459 55.0525 58.6594 55.0695C58.6728 55.096 58.703 55.1166 58.75 55.0862C58.8876 54.9991 59.0584 54.895 59.1289 54.9219C59.1691 54.9387 59.1122 55.1297 59.0617 55.2202C59.0112 55.3108 59.2665 55.2605 59.2293 55.3377C59.2028 55.395 59.1857 55.4821 59.2028 55.5624C59.2229 55.6667 58.9276 55.6897 58.9007 55.7601C58.8708 55.8408 58.9311 55.861 58.9609 55.8645C59.1389 55.8914 59.1155 56.0554 59.0451 56.1259C58.951 56.2199 58.79 56.2567 58.6489 56.233C58.528 56.2129 58.2567 56.163 58.0957 56.0421C58.0454 56.0053 57.9715 56.0318 57.9616 56.0823C57.9514 56.1396 58.0117 56.2433 58.0386 56.3306C58.0758 56.4614 58.0553 56.6259 58.0117 56.7536C57.9181 57.0185 57.6666 57.2399 57.5961 57.5586C57.5791 57.6424 57.6029 57.7465 57.6364 57.827C57.7103 58.0018 57.8175 58.1659 57.938 58.3137C57.9551 58.3608 57.9787 58.4141 57.9586 58.4577C57.9317 58.5248 57.7237 58.6692 57.6633 58.7265C57.4719 58.9041 57.3074 59.1358 57.2706 59.3873C57.2571 59.4779 57.0626 59.5685 56.9318 59.6052C56.8349 59.6321 56.7341 59.659 56.6538 59.7227C56.6435 59.7962 56.687 59.8603 56.6969 59.9338C56.7139 60.0615 56.5529 60.1252 56.4285 60.1654C56.3716 60.1855 56.311 60.2026 56.2438 60.2026C56.2204 60.2026 56.2139 60.1619 56.2174 60.142C56.2541 59.9677 56.2874 59.8268 56.3545 59.6826C56.3814 59.6288 56.425 59.5853 56.4689 59.5481L56.9482 59.1456L57.3242 58.6055C57.3575 58.5552 57.3713 58.5115 57.3713 58.4747C57.3713 58.3704 57.3277 58.2735 57.2538 58.2063C57.1597 58.1221 57.0221 58.109 56.9185 58.0552C56.7844 57.988 56.5895 57.8006 56.5626 57.7868C56.4891 57.75 56.4455 57.8841 56.4352 57.9611C56.4186 58.0786 56.4554 58.1893 56.4519 58.3067C56.4519 58.3605 56.4455 58.3905 56.4186 58.4242C56.1034 58.6053 55.7108 58.6725 55.4791 58.9608C55.4389 59.0111 55.4021 59.0651 55.3483 59.1019C55.2175 59.1924 54.9996 59.0885 54.9021 59.2292C54.8585 59.2933 54.9089 59.377 54.8922 59.4475C54.8822 59.4877 54.8049 59.5415 54.7446 59.5713C54.6639 59.6085 54.577 59.6286 54.4895 59.6354C54.3922 59.5884 54.4525 59.4508 54.486 59.3534C54.5195 59.2526 54.5667 59.1522 54.6437 59.085C54.7577 58.9842 54.9019 58.8569 54.9926 58.8133C55.0696 58.7762 55.1869 58.7762 55.2809 58.7394C55.38 58.7091 55.4739 58.6638 55.5594 58.6053C55.6966 58.5183 55.8243 58.4109 55.9015 58.2632C55.9886 58.0952 55.9785 57.871 55.8678 57.7266C55.767 57.5958 55.65 57.4681 55.5828 57.3209C55.5456 57.2401 55.5725 57.1294 55.6298 57.0555C55.6263 57.0525 55.5859 57.0251 55.5627 57.0321C55.0828 57.0527 54.5965 56.9989 54.1502 56.821C54.0328 56.774 53.912 56.6228 53.828 56.613C53.751 56.6027 53.704 56.7001 53.6268 56.7202C53.5028 56.7539 53.3415 56.7337 53.1974 56.7202C53.0296 56.7036 52.6807 56.6296 52.4292 56.5493C52.3889 56.5557 52.3454 56.5627 52.3084 56.5861C52.2546 56.6228 52.2445 56.7036 52.2413 56.7707C52.2345 56.8613 52.2614 56.945 52.2511 57.0391C52.2478 57.0861 52.2209 57.1364 52.2345 57.1802C52.248 57.2336 52.3016 57.2572 52.3384 57.2909C52.3988 57.3478 52.4088 57.4652 52.4088 57.5593C52.4088 57.6632 52.3721 57.801 52.4591 57.8716C52.5129 57.9147 52.5867 57.8581 52.6538 57.8716C52.7275 57.885 52.7509 57.9756 52.7544 58.046C52.7579 58.1263 52.6908 58.2971 52.647 58.3413C52.6168 58.3713 52.5665 58.3476 52.5296 58.331C52.4324 58.2875 52.3417 58.217 52.2881 58.123C52.2647 58.0827 52.2647 58.0324 52.241 57.9889C52.2041 57.915 52.1369 57.8719 52.07 57.8213C51.9895 57.7607 51.9729 57.6501 51.9593 57.5529C51.9492 57.4619 51.9661 57.3749 51.9729 57.2841C51.9902 57.1046 51.9789 56.9235 51.9392 56.7475C51.909 56.6134 51.8351 56.4791 51.8687 56.345C51.8856 56.2814 51.9291 56.2208 51.9897 56.1939C52.3142 56.1787 52.6354 56.1224 52.9456 56.0263L52.7444 55.8281C52.6941 55.8281 52.6538 55.8784 52.6035 55.8784C52.5497 55.8784 52.476 55.8015 52.4558 55.7745C52.3517 55.6203 52.2848 55.4421 52.2378 55.2609C52.1942 55.1905 52.1406 55.1203 52.0599 55.0866C52.004 55.0623 51.9433 55.0508 51.8823 55.0529C51.7145 55.1268 51.5603 55.2712 51.5467 55.4558C51.5435 55.5029 51.5702 55.5429 51.5636 55.5899C51.5537 55.6702 51.4932 55.724 51.4361 55.7813C51.379 55.8382 51.3254 55.8953 51.302 55.9758C51.2816 56.0429 51.3053 56.1134 51.3352 56.177C51.3553 56.2206 51.379 56.2641 51.3621 56.3111C51.3219 56.4218 51.057 56.5358 50.9798 56.5358C50.9529 56.5358 50.9295 56.499 50.9194 56.4686C50.8892 56.3678 50.896 56.2606 50.9161 56.1602C50.987 56.0834 51.0397 55.9917 51.0703 55.8918C51.1108 55.7577 51.0904 55.6133 51.1543 55.4889C51.3219 55.2038 51.7513 54.6336 51.8351 54.5498C51.872 54.513 51.9626 54.4927 51.9995 54.5163C52.1807 54.6338 52.2881 54.7779 52.4624 54.8685C52.5565 54.9155 52.6737 54.9862 52.7577 54.919C52.8415 54.8519 52.8548 54.4024 52.9087 54.2882C53.0069 54.0902 53.2785 53.8284 53.4664 53.6171ZM56.8056 50.8226L56.7316 51.1044H56.4632L56.8124 49.7827H57.1175L57.4533 51.0943H57.1845L57.1173 50.8226H56.8056ZM57.0805 50.5826L56.9596 50.0526L56.8456 50.5826H57.0805ZM56.1006 50.1627C56.1041 50.0754 56.0772 49.9614 56.0069 49.9345C55.933 49.9076 55.8558 49.9312 55.8223 49.9815C55.765 50.0754 55.765 50.2029 55.7685 50.3974C55.7685 50.5148 55.772 50.6791 55.7954 50.7565C55.8523 50.9342 56.0034 50.9444 56.0769 50.8335C56.1141 50.78 56.1141 50.6758 56.1106 50.582H55.956V50.3873H56.3554V51.0984H56.1644V51.0013C56.1609 51.0081 56.0769 51.0718 56.0367 51.0921C55.9695 51.1221 55.8422 51.1221 55.7385 51.0785C55.6511 51.0416 55.5673 50.9243 55.5305 50.7732C55.4933 50.6155 55.51 50.4107 55.51 50.2364C55.5135 50.0518 55.6108 49.8472 55.7449 49.77C55.839 49.7164 56.0133 49.7164 56.1238 49.7567C56.2583 49.8037 56.3622 49.9982 56.3421 50.1627H56.1006ZM51.6067 49.8026C51.7141 49.8698 51.771 49.994 51.7513 50.1382H51.5397C51.5397 50.0041 51.4829 49.9402 51.3687 49.9369C51.2983 49.9336 51.211 50.0141 51.211 50.0745C51.2075 50.2521 51.3652 50.2891 51.4726 50.3226C51.5531 50.3462 51.6504 50.3965 51.6975 50.4669C51.7845 50.5945 51.7948 50.7285 51.7244 50.9031C51.6909 50.9869 51.5634 51.0875 51.456 51.1111C51.3352 51.138 51.1876 51.1247 51.0668 51.0339C50.9695 50.9602 50.9257 50.8158 50.9459 50.685H51.1841C51.1841 50.7489 51.1941 50.7957 51.221 50.836C51.2412 50.8629 51.2781 50.9064 51.3418 50.9097C51.3671 50.9115 51.3924 50.9078 51.4161 50.8987C51.4398 50.8897 51.4612 50.8755 51.4788 50.8573C51.4964 50.839 51.5098 50.8172 51.5179 50.7932C51.5261 50.7692 51.5289 50.7437 51.5262 50.7185C51.5128 50.5137 51.1707 50.5004 51.0533 50.3696C50.9122 50.2086 50.9559 49.9503 51.0699 49.8461C51.2278 49.6987 51.4426 49.6987 51.6067 49.8026ZM58.3803 50.6776C58.3838 50.7279 58.3871 50.9057 58.3937 51.0197C58.3972 51.0532 58.4309 51.0969 58.4309 51.1002H58.1793C58.1456 51.1002 58.1421 51.0398 58.1391 50.9897C58.1323 50.8556 58.1454 50.5369 58.0148 50.5369H57.8538V51.0971H57.6023V49.7888H58.0551C58.2832 49.7888 58.3972 49.9198 58.3972 50.0975C58.3972 50.2149 58.3937 50.3525 58.2596 50.4094C58.3298 50.4763 58.37 50.577 58.3803 50.6776ZM58.0356 49.9776H57.8477V50.33H57.9853C58.2132 50.33 58.2099 49.9776 58.0356 49.9776ZM52.3716 51.1026H52.1201V49.9988H51.8316V49.7774H52.6634V49.9988H52.3716V51.1026ZM53.9912 51.1026V49.9988H53.7027V49.7774H54.5379V49.9988H54.2426V51.1026H53.9912ZM54.6512 49.7777H55.4863V50.0023H55.191V51.1026H54.9397V50.0023H54.6512V49.7777ZM59.0151 50.0025V51.1061H58.7636V50.0025H58.4753V49.7779H59.3071V50.0025H59.0151ZM53.3214 50.7224V49.7799H53.5662V50.699C53.5662 51.2492 52.7678 51.2492 52.7678 50.7159V49.7799H53.0126V50.7259C53.0128 50.9307 53.3214 50.9307 53.3214 50.7224ZM53.8862 51.7122C53.9602 51.6486 54.0638 51.5615 54.1846 51.4843C54.292 51.4139 54.1712 51.5751 54.1645 51.642C54.1443 51.8231 54.0067 51.8433 53.8558 51.8098C53.8293 51.803 53.8394 51.7525 53.8862 51.7122ZM60.1948 55.9417L66.6021 55.9382L66.8871 52.3956L60.1948 52.3991V55.9417ZM54.7912 66.9745L48.1827 66.9611C49.5446 68.1857 52.698 70.4768 54.771 71.406L54.7912 66.9745ZM50.0072 52.3022C49.8797 52.4162 49.6249 52.6981 49.5743 52.8254C49.6852 52.8657 49.9031 52.963 50.0072 53.0335V52.3022Z" fill="#333333"/>
</g>
</svg>
