<svg width="110" height="110" viewBox="0 0 110 110" fill="none" xmlns="http://www.w3.org/2000/svg">
<g id="Frame 1707481665">
<g id="Group 1707478686">
<path id="Vector" fillRule="evenodd" clipRule="evenodd" d="M55.6579 39.9357C53.0756 43.1238 45.7036 53.4023 44.8381 54.7367C43.2223 57.2901 43.078 58.5235 43.0276 59.3458C42.9527 59.981 43.0286 60.6248 43.2492 61.2251C43.4698 61.8254 43.8288 62.3653 44.2971 62.8008C46.4971 64.77 49.5916 64.4526 52.3326 64.4526H74.91C75.2706 64.4842 75.6325 64.4069 75.9488 64.2308C76.2651 64.0546 76.5214 63.7877 76.6844 63.4644C78.3552 60.9693 79.2649 58.0423 79.3028 55.0397C79.3028 49.2693 75.5808 42.0563 66.1459 38.8105L65.0856 40.3324C72.5657 43.8812 75.6601 48.5263 75.6601 55.0252C75.7029 56.9314 75.159 58.8048 74.1021 60.3917H52.1667C50.8539 60.3917 50.6664 58.9058 51.1424 58.0619C53.025 54.7104 55.1262 51.4864 57.4324 48.4109C59.6468 45.4536 61.8396 42.6406 64.1334 39.7554C64.7537 38.9475 64.3426 38.1757 63.1019 37.916C60.3124 37.3107 57.4664 37.0037 54.612 37C36.5789 37 30.0005 47.3434 30.0005 55.0325C30.0005 63.349 36.6439 73 54.6553 73C64.66 73 71.2024 69.783 74.9893 65.65H71.1663C67.8554 68.7083 62.1714 70.8794 54.6553 70.8794C39.3993 70.8794 33.7369 62.3031 33.7369 54.917C33.8451 48.3244 39.8826 39.2288 55.0015 38.9331C55.5713 38.9331 56.0186 39.438 55.6218 39.9285L55.6579 39.9357Z" fill="#333333"/>
</g>
</g>
</svg>
