<svg width="110" height="110" viewBox="0 0 110 110" fill="none" xmlns="http://www.w3.org/2000/svg">
<g id="Frame 1707481661">
<g id="Group 1707478701">
<path id="Vector" d="M68.052 51.6634C66.6779 51.6634 65.56 52.5046 65.56 53.5387C65.56 54.5728 66.6779 55.414 68.052 55.414C69.4561 55.414 70.5977 54.5728 70.5977 53.5387C70.5977 52.5046 69.4561 51.6634 68.052 51.6634ZM68.052 54.8052C67.5666 54.8052 67.1981 54.2613 67.1981 53.5403C67.1981 52.775 67.5586 52.2215 68.052 52.2215C68.5453 52.2215 68.9074 52.8113 68.9058 53.5403C68.9027 54.2249 68.5137 54.8052 68.052 54.8052ZM49.1819 51.6634C47.8078 51.6634 46.6883 52.5046 46.6883 53.5387C46.6883 54.5728 47.8078 55.414 49.1819 55.414C50.586 55.414 51.7276 54.5728 51.7276 53.5387C51.7276 52.5046 50.586 51.6634 49.1819 51.6634ZM49.1819 54.8052C48.6949 54.8052 48.3281 54.2613 48.3281 53.5403C48.3281 52.775 48.687 52.2215 49.1819 52.2215C49.6563 52.2215 50.0373 52.8113 50.0358 53.5403C50.0358 54.2249 49.6436 54.8052 49.1819 54.8052ZM62.5194 52.3022H63.1376L62.0545 54.4131L60.818 52.3022H61.694V51.8389H58.1916V52.3022H59.0154L60.6108 55.2891H62.5178L64.1148 52.3022H64.937V51.8389H62.5194V52.3022ZM43.4453 52.3465H44.0778L43.02 54.3214L41.8641 52.3465H42.7085V51.7915H39.116V52.3417H39.9572L41.5384 55.3065L41.5494 55.3286H43.507L43.5196 55.3065L45.1008 52.3417H45.942V51.7915H43.4453V52.3465ZM43.0373 54.3925L43.4817 53.5624L43.0453 54.4052L43.0373 54.3925ZM42.2246 53.0564L41.7866 52.3307H41.7993L42.2246 53.0564ZM56.3969 54.723H55.5194V52.3022H56.3448V51.8389H53.0985V52.3022H53.9239V54.723H53.0985V55.2891H57.9924V53.6889H57.4785C57.4666 53.9676 57.3474 54.2309 57.1458 54.4236C56.9442 54.6164 56.6759 54.7237 56.3969 54.723ZM68.6576 38.0492L66.5309 40.1807C67.5907 41.0666 68.5456 42.0708 69.377 43.1739L71.5164 41.0393L72.4208 40.1348C73.36 41.2719 74.1826 42.5003 74.8765 43.8016H75.4251V34.1025H65.7403V34.6512C67.0824 35.3681 68.3471 36.2212 69.5146 37.197L68.6576 38.0492Z" fill="#333333"/>
<path id="Vector_2" d="M72.4879 42.3737L70.3138 44.5479C72.6498 48.3333 73.5024 52.8493 72.7073 57.2258C71.9121 61.6023 69.5254 65.5298 66.0071 68.2515C62.4887 70.9732 58.0876 72.2965 53.6517 71.9666C49.2157 71.6367 45.0588 69.6768 41.9818 66.4646C38.9048 63.2524 37.1253 59.0151 36.9864 54.569C36.8474 50.123 38.3586 45.7828 41.229 42.3847C44.0994 38.9866 48.1258 36.7709 52.5324 36.1645C56.9391 35.5582 61.4143 36.604 65.0958 39.1007L67.251 36.9439C62.9937 33.886 57.7467 32.5307 52.541 33.1445C47.3353 33.7583 42.5474 36.2967 39.1181 40.2609C35.6887 44.2251 33.8658 49.3285 34.0077 54.5683C34.1496 59.8081 36.2459 64.8054 39.8847 68.5783C43.5235 72.3512 48.4418 74.6268 53.673 74.958C58.9042 75.2892 64.0702 73.6521 68.1558 70.3683C72.2415 67.0845 74.9513 62.3915 75.7529 57.2115C76.5545 52.0314 75.3899 46.7388 72.4879 42.3737Z" fill="#333333"/>
</g>
</g>
</svg>
