<svg width="100" height="110" viewBox="0 0 100 110" fill="none" xmlns="http://www.w3.org/2000/svg">
<g id="Frame 1707481656">
<g id="Group">
<path id="svg_1" d="M28.3347 70.6881V69.8678H34.4038V70.6911L33.4549 70.8041C33.4547 70.8041 33.4544 70.8042 33.4541 70.8042C33.1725 70.8341 33.0028 70.9728 32.9104 71.1494C32.823 71.3166 32.8107 71.5066 32.8107 71.6379V75.7345C32.8107 75.8657 32.823 76.0557 32.9104 76.2229C33.0028 76.3996 33.1725 76.5383 33.4541 76.5682C33.4544 76.5682 33.4546 76.5682 33.4549 76.5682L34.4038 76.6812V77.5046H28.3347V76.6812L29.2836 76.5682C29.2839 76.5682 29.2842 76.5682 29.2845 76.5682C29.566 76.5383 29.7358 76.3996 29.8281 76.2229C29.9155 76.0557 29.9279 75.8657 29.9279 75.7345V74.4954V74.3689H29.8014H24.9461H24.8197V74.4954V75.7345C24.8197 75.8657 24.832 76.0557 24.9194 76.2229C25.0118 76.3996 25.1815 76.5383 25.463 76.5681L26.4128 76.6812V77.5046H20.3437V76.6812L21.2935 76.5681C21.575 76.5383 21.7448 76.3996 21.8371 76.2229C21.9245 76.0557 21.9369 75.8657 21.9369 75.7345V71.6379C21.9369 71.5066 21.9245 71.3166 21.8371 71.1494C21.7448 70.9728 21.575 70.8341 21.2935 70.8042L20.3437 70.6911V69.8678H26.4128V70.6911L25.4631 70.8042C25.1815 70.8341 25.0118 70.9728 24.9194 71.1494C24.832 71.3166 24.8197 71.5066 24.8197 71.6379V72.877V73.0034H24.9461H29.8267H29.9532V72.877V71.6379C29.9532 71.5066 29.9408 71.3166 29.8534 71.1494C29.7611 70.9728 29.5913 70.8341 29.3098 70.8042C29.3095 70.8042 29.3092 70.8041 29.3089 70.8041L28.3347 70.6881Z" fill="#000E32" stroke="#000E32" strokeWidth="0.252877"/>
<path id="svg_2" d="M63.5053 70.7797L63.5053 70.7796L63.4996 70.779L62.6768 70.69V69.8679H70.3391C71.7417 69.8679 73.0031 70.1439 73.91 70.7536C74.8098 71.3585 75.3714 72.2986 75.3714 73.661C75.3714 75.0235 74.8097 75.9701 73.9095 76.5814C73.0025 77.1973 71.7412 77.4794 70.3391 77.4794H62.5757V76.6561L63.5254 76.543C63.807 76.5131 63.9767 76.3744 64.0691 76.1977C64.1565 76.0306 64.1688 75.8406 64.1688 75.7093V71.5369C64.1688 71.2885 64.1063 71.1048 63.9754 70.9782C63.8486 70.8554 63.677 70.8061 63.5053 70.7797ZM66.9758 76.1139V76.2403H67.1022H69.7574C70.5596 76.2403 71.1295 76.0461 71.4923 75.6064C71.8501 75.173 71.9828 74.5282 71.9828 73.6863C71.9828 72.8322 71.8503 72.1869 71.492 71.7563C71.1287 71.3196 70.5584 71.1323 69.7574 71.1323H67.1022H66.9758V71.2587V76.1139Z" fill="#000E32" stroke="#000E32" strokeWidth="0.252877"/>
<path id="svg_3" d="M88.7333 76.5686L88.7336 76.5686L89.6563 76.6586V77.4795H83.0814V76.6567L83.8518 76.5687C84.0399 76.5548 84.2679 76.4935 84.4042 76.3448C84.4768 76.2657 84.5215 76.1631 84.5176 76.0404C84.5138 75.9217 84.4649 75.796 84.3747 75.6639C84.3746 75.6637 84.3744 75.6635 84.3743 75.6633L84.0211 75.1335L83.9835 75.0772H83.9159H79.0606H78.9899L78.9529 75.1374L78.5495 75.793C78.4277 75.977 78.4156 76.1718 78.5228 76.3303C78.6232 76.4787 78.809 76.5654 79.0186 76.5934L79.0186 76.5935L79.0242 76.594L79.7687 76.6597V77.4795H74.9892V76.6562L75.9398 76.543L75.9398 76.5431L75.9457 76.5422C76.3047 76.4823 76.4823 76.24 76.5899 76.0522L79.294 71.6803C79.4316 71.4655 79.4221 71.2575 79.3318 71.0984C79.247 70.9492 79.0933 70.8478 78.9498 70.8299L78.9498 70.8299L78.9474 70.8296L77.6192 70.6898V69.868H83.4607C83.6356 69.868 83.7549 69.897 83.8577 69.9621C83.9636 70.0293 84.0653 70.1433 84.188 70.3396L84.188 70.3396L84.1894 70.3419L87.8309 75.9051L87.8315 75.906C87.8452 75.9266 87.8598 75.9496 87.8754 75.9742C87.9369 76.0711 88.0144 76.1931 88.1203 76.2963C88.2602 76.4324 88.4509 76.5403 88.7333 76.5686ZM79.7874 73.7466L79.669 73.9393H79.8951H82.9802H83.2144L83.0859 73.7435L81.4928 71.3159L81.3836 71.1495L81.2794 71.3191L79.7874 73.7466Z" fill="#000E32" stroke="#000E32" strokeWidth="0.252877"/>
<path id="svg_4" d="M49.7243 71.1477C49.632 70.9711 49.4622 70.8324 49.1807 70.8025L48.2309 70.6894V69.8661H53.5161C53.7397 69.8661 53.8774 69.8853 53.977 69.9262C54.0711 69.9647 54.1422 70.0272 54.2217 70.1409L54.2217 70.1409L54.2245 70.1447L58.397 75.6573L58.6243 75.9576V75.581V71.6362C58.6243 71.5049 58.6119 71.3149 58.5246 71.1477C58.4322 70.9711 58.2624 70.8324 57.9809 70.8025C57.9806 70.8025 57.9803 70.8024 57.98 70.8024L57.0365 70.6901L57.076 69.8408H61.8611V70.6641L60.9123 70.7771C60.912 70.7772 60.9117 70.7772 60.9114 70.7772C60.6298 70.8071 60.4601 70.9458 60.3677 71.1225C60.2803 71.2896 60.268 71.4796 60.268 71.6109V77.4776H56.6012H56.5507C56.3272 77.4776 56.1963 77.4584 56.1003 77.418C56.0086 77.3793 55.9361 77.316 55.8412 77.1975L51.6696 71.7114L51.4425 71.4127V71.7879V75.7328C51.4425 75.8641 51.4548 76.054 51.5422 76.2212C51.6346 76.3979 51.8043 76.5366 52.0859 76.5665L53.0356 76.6795V77.5029H48.2309V76.6795L49.1807 76.5665C49.4622 76.5366 49.632 76.3979 49.7243 76.2212C49.8117 76.054 49.8241 75.8641 49.8241 75.7328V71.6362C49.8241 71.5049 49.8117 71.3149 49.7243 71.1477Z" fill="#000E32" stroke="#000E32" strokeWidth="0.252877"/>
<path id="svg_5" d="M34.9863 73.6598C34.9863 72.7157 35.304 71.7053 36.2398 70.928C37.179 70.1479 38.7577 69.5885 41.3083 69.5885C43.8589 69.5885 45.4375 70.1479 46.3766 70.931C47.3123 71.7113 47.6303 72.728 47.6303 73.685C47.6303 74.6291 47.3126 75.6395 46.3768 76.4168C45.4376 77.1969 43.8589 77.7563 41.3083 77.7563C38.758 77.7563 37.1794 77.1907 36.2402 76.4045C35.3041 75.6208 34.9863 74.6039 34.9863 73.6598ZM38.3749 73.685C38.3749 74.6356 38.58 75.353 39.0672 75.83C39.5537 76.3063 40.2956 76.5172 41.3083 76.5172C42.321 76.5172 43.0628 76.3063 43.5494 75.83C44.0366 75.353 44.2417 74.6356 44.2417 73.685C44.2417 72.7345 44.0366 72.0171 43.5494 71.5401C43.0628 71.0638 42.321 70.8528 41.3083 70.8528C40.3078 70.8528 39.5664 71.064 39.077 71.5398C38.5867 72.0164 38.3749 72.7336 38.3749 73.685Z" fill="#000E32" stroke="#000E32" strokeWidth="0.252877"/>
<path id="svg_6" d="M62.618 62.1294C61.9871 62.1672 61.5331 62.1861 61.2373 62.1956C61.0894 62.2003 60.981 62.2026 60.9097 62.2038C60.9075 62.2039 60.9054 62.2039 60.9033 62.2039C60.8723 62.0812 60.8407 61.9557 60.8086 61.8279C60.5849 60.9392 60.3344 59.9438 60.0635 59.0211C59.7444 57.9343 59.3928 56.9329 59.0161 56.3225L59.0154 56.3214C58.3953 55.3396 57.4694 55.2091 56.9309 55.1333C56.9132 55.1308 56.8958 55.1283 56.879 55.1259C56.0604 54.9981 55.3701 54.9981 55.04 54.9981H55.0395C54.7311 54.9981 54.0178 55.0236 53.203 55.1255L53.203 55.1255L53.2008 55.1258C53.1837 55.1282 53.1661 55.1307 53.148 55.1333C52.6095 55.2091 51.6836 55.3396 51.0635 56.3214L51.0628 56.3225C50.686 56.9332 50.3406 57.9351 50.0248 59.0214C49.8079 59.7675 49.6026 60.5624 49.4097 61.3091C49.3299 61.6179 49.2522 61.9185 49.1768 62.204C49.173 62.2039 49.1692 62.2039 49.1652 62.2038C49.0916 62.2026 48.98 62.2003 48.8289 62.1956C48.5267 62.1861 48.0664 62.1672 47.4354 62.1293L47.433 62.1292C46.8294 62.1041 46.3456 62.0601 46.0132 62.0225C45.847 62.0036 45.7187 61.9864 45.6322 61.9739C45.6201 61.9722 45.6088 61.9705 45.5983 61.969C45.2211 57.4554 44.7959 51.5245 44.57 48.0106L44.57 48.0103C44.4562 46.3162 44.2728 43.4779 44.118 41.0629C44.0405 39.8555 43.9702 38.7539 43.9192 37.9542L43.8588 37.0055L43.8442 36.7762C44.2311 36.7305 44.6048 36.6873 45.082 36.6645L45.082 36.6646L45.0844 36.6644C45.2719 36.6519 45.5798 36.6393 45.8424 36.6298C45.9733 36.6251 46.0925 36.6212 46.1789 36.6184L46.2144 36.6173L62.6258 62.2556M62.618 62.1294C62.6181 62.1294 62.6182 62.1294 62.6183 62.1293L62.6258 62.2556M62.618 62.1294C62.618 62.1294 62.618 62.1294 62.618 62.1294L62.6258 62.2556M62.618 62.1294C63.223 62.0916 63.708 62.0475 64.0416 62.0128C64.2083 61.9955 64.3372 61.9806 64.4242 61.97C64.4353 61.9687 64.4458 61.9674 64.4555 61.9662M62.6258 62.2556C63.8397 62.1797 64.573 62.0785 64.573 62.0785M64.4555 61.9662C64.4527 62.0002 64.4499 62.0341 64.447 62.068L64.573 62.0785M64.4555 61.9662C64.8327 57.4533 65.2578 51.5488 65.4836 48.0107L65.4837 48.0102C65.5975 46.3288 65.7808 43.4906 65.9357 41.0724C66.0131 39.8634 66.0834 38.7595 66.1344 37.9578L66.1948 37.0066L66.2094 36.7763M64.4555 61.9662C64.4839 61.9627 64.5064 61.9598 64.5228 61.9577L64.5477 61.9544L64.5538 61.9536L64.5553 61.9534L64.5557 61.9533L64.5557 61.9533L64.573 62.0785M64.573 62.0785L66.2094 36.7763M66.2094 36.7763L66.2113 36.7473L66.2155 36.6797L66.2166 36.6625L66.2169 36.6582L66.217 36.6571L66.217 36.6568L66.3432 36.6647L66.3284 36.7903C66.2887 36.7856 66.2491 36.7809 66.2094 36.7763ZM61.9392 44.9649L61.9392 44.9649L46.3151 36.4877C46.5437 37.5165 46.7366 38.3969 46.9099 39.1878C47.3882 41.3713 47.7172 42.8731 48.237 44.9337L48.1142 44.9638C48.1142 44.9639 48.1143 44.9641 48.1143 44.9642C48.1849 45.2522 48.2542 45.5385 48.3227 45.8216C48.5722 46.853 48.8116 47.8425 49.0704 48.7184C49.3994 49.832 49.7647 50.7803 50.2343 51.4067C51.1763 52.6884 52.4597 52.9476 53.3047 53.05L53.3051 53.0501C53.7412 53.1014 54.0751 53.1268 55.0142 53.1268C55.9532 53.1268 56.2871 53.1014 56.7232 53.0501L56.7237 53.05C57.5686 52.9476 58.852 52.6884 59.794 51.4068C60.2636 50.7804 60.6289 49.8321 60.961 48.7187C61.2055 47.8992 61.4348 46.9797 61.6742 46.0197C61.7608 45.6724 61.8487 45.3199 61.9392 44.9649ZM63.7385 36.4877L63.7348 36.6141L63.7348 36.6141L63.7349 36.6141L63.7354 36.6141L63.7372 36.6141L63.7445 36.6143L63.7723 36.6152L63.8392 36.6173C63.8468 36.5834 63.8543 36.5493 63.8619 36.5151L63.7385 36.4877ZM45.5021 61.9539L45.4806 62.0785L45.5021 61.9539Z" fill="#000E32" stroke="#000E32" strokeWidth="0.252877"/>
<path id="svg_7" d="M61.0707 34.1607L61.0706 34.1607L61.0735 34.1608C62.7666 34.2367 65.4154 34.4387 66.8995 34.6902C68.3754 34.9425 69.9365 35.3307 71.1912 36.2724C72.4395 37.2094 73.398 38.7051 73.6479 41.2032C73.7738 42.5627 73.8243 44.3527 73.8496 46.2987C73.806 49.0635 73.5935 51.057 73.4384 52.5113C73.4138 52.7423 73.3906 52.9596 73.3698 53.1643L73.3698 53.1645C73.2687 54.1758 72.8398 57.2728 72.2888 58.8504L72.2887 58.8509C71.9118 59.9437 71.5563 60.6398 71.1988 61.142C70.8422 61.6431 70.4799 61.9569 70.0778 62.2836L70.077 62.2843C69.363 62.8752 68.4085 63.2612 67.5613 63.5122C66.864 63.7188 66.2497 63.8313 65.9105 63.8934C65.8385 63.9066 65.7789 63.9175 65.7335 63.9266C63.0158 64.4296 57.4914 64.5059 55.0607 64.5059C52.6059 64.5059 47.106 64.4044 44.3872 63.9264C44.3476 63.9185 44.2972 63.9091 44.2371 63.8978C43.9045 63.8354 43.2757 63.7174 42.5605 63.5029C41.7129 63.2486 40.7579 62.8625 40.0435 62.2836C39.6414 61.9569 39.2791 61.6431 38.9225 61.142C38.565 60.6398 38.2095 59.9437 37.8326 58.8509L37.8325 58.8504C37.2815 57.2727 36.8526 54.2008 36.7516 53.1648L36.7515 53.1645C36.7289 52.9379 36.7034 52.6975 36.6764 52.4417C36.5219 50.9823 36.3146 49.024 36.2717 46.2971C36.2464 44.376 36.2718 42.5872 36.4227 41.2046L36.4227 41.2046L36.4228 41.2035C36.6726 38.7052 37.6312 37.2095 38.8796 36.2724C40.1343 35.3307 41.6954 34.9425 43.1712 34.6902C44.6553 34.4387 47.3042 34.2367 48.9972 34.1608L48.9972 34.1609L49.0001 34.1607C50.4875 34.0598 53.9736 34.0093 55.0354 34.0093C56.0971 34.0093 59.5832 34.0598 61.0707 34.1607ZM72.0285 49.6969L72.0286 49.6966C72.206 47.2384 72.181 43.2846 71.9014 41.1745C71.6968 39.5766 71.196 38.3586 70.3074 37.4636C69.4196 36.5693 68.1589 36.0116 66.4627 35.7055L66.4623 35.7054C64.8876 35.4261 62.758 35.2234 60.7577 35.1221C59.1622 35.0208 56.505 34.9449 55.0343 34.9702C53.541 34.9702 50.9096 35.0208 49.2879 35.1221C47.2876 35.2234 45.1582 35.426 43.5834 35.7054C41.8872 35.9988 40.626 36.5501 39.7411 37.4448C38.8554 38.3402 38.3611 39.5649 38.1693 41.1752C37.8898 43.3105 37.8648 47.2635 38.0422 49.6964C38.3205 53.7451 38.7006 56.1832 39.2101 57.9411L39.2104 57.9422C39.6689 59.4703 40.2341 60.5318 41.0674 61.2869C42.408 62.5033 44.2205 62.7885 45.3415 62.9649C45.3896 62.9725 45.4365 62.9798 45.4819 62.9871L45.4832 62.9873C47.8703 63.3428 51.874 63.4691 55.0354 63.4691C58.1714 63.4691 62.2004 63.3428 64.5876 62.9873L64.5888 62.9871C64.6343 62.9798 64.6811 62.9725 64.7292 62.9649C65.8503 62.7885 67.6628 62.5033 69.0034 61.2869C69.8363 60.532 70.4018 59.4962 70.8605 57.9417L70.8606 57.9411C71.3703 56.1829 71.725 53.7443 72.0285 49.6969Z" fill="#000E32" stroke="#000E32" strokeWidth="0.252877"/>
</g>
</g>
</svg>
