<svg width="110" height="110" viewBox="0 0 110 110" fill="none" xmlns="http://www.w3.org/2000/svg">
<g id="Frame 1707481654">
<g id="Group">
<g id="Group_2">
<path id="Vector" d="M54.9963 34.6727C44.9857 34.6727 36.9165 38.6613 36.9165 43.4548C36.9165 46.1718 40.2099 48.295 45.1967 49.473L53.9076 39.5336H54.9963L47.4579 54.0402C39.2506 52.6338 33.4023 48.9727 33.4023 44.5163C33.4023 38.7853 43.0758 34.156 54.9963 34.156C66.9168 34.156 76.5903 38.7853 76.5903 44.5163C76.5903 48.9727 70.7421 52.6338 62.5347 54.0402L54.9963 39.5336H56.0851L64.7938 49.473C69.7828 48.295 73.074 46.1718 73.074 43.4548C73.074 38.6613 65.0048 34.6727 54.9941 34.6727H54.9963Z" fill="#000E32"/>
</g>
<g id="Group_3">
<path id="Vector_2" d="M5.5519 66.3961H4.02051V74.1558H5.5519V66.3961Z" fill="#000E32"/>
<path id="Vector_3" d="M49.8063 66.3959H48.2749V74.1555H49.8063V66.3959Z" fill="#000E32"/>
<path id="Vector_4" d="M32.9463 74.1559V66.3962H39.0817V67.4774H34.3885V69.8323H37.7363V70.9113H34.3885V74.1559H32.9463Z" fill="#000E32"/>
<path id="Vector_5" d="M90.9192 74.1559V67.4796H88.1294V66.3962H95.186V67.4796H92.3951V74.1559H90.9192Z" fill="#000E32"/>
<path id="Vector_6" d="M78.8561 66.3961H77.3247V74.1558H78.8561V66.3961Z" fill="#000E32"/>
<path id="Vector_7" d="M105.976 66.3959H104.444V74.1555H105.976V66.3959Z" fill="#000E32"/>
<path id="Vector_8" d="M66.0632 74.1559L61.3581 68.65V74.1559H59.917V66.3962H61.0514L65.7848 71.9152V66.3962H67.2292V74.1559H66.0632Z" fill="#000E32"/>
<path id="Vector_9" d="M21.7951 74.1559L17.0867 68.65V74.1559H15.6445V66.3962H16.78L21.5156 71.9152V66.3962H22.9578V74.1559H21.7951Z" fill="#000E32"/>
</g>
</g>
</g>
</svg>
