<svg width="110" height="110" viewBox="0 0 110 110" fill="none" xmlns="http://www.w3.org/2000/svg">
<path d="M90.6884 40.3L90.6282 40.3865L86.4282 46.4226C86.0836 48.4687 85.7811 50.276 85.5208 51.8314C84.9835 55.0423 84.6257 57.18 84.4477 58.1295L84.4476 58.1298C84.4243 58.2502 84.4019 58.3673 84.3802 58.4812C84.2916 58.9449 84.213 59.3564 84.1216 59.722C84.0076 60.178 83.8728 60.5667 83.6712 60.9011C83.2657 61.5736 82.5974 62.0143 81.3242 62.3575L81.3225 62.358C76.2886 63.5476 61.7165 66.5436 55.0185 67.5461L55.0103 67.5473L55.0021 67.546C48.3041 66.5325 33.7211 63.5366 28.6981 62.3469L28.6964 62.3466C27.4233 62.0033 26.755 61.5626 26.3494 60.8901C26.1478 60.5557 26.013 60.167 25.899 59.711C25.8076 59.3454 25.729 58.9338 25.6404 58.4702C25.6187 58.3563 25.5963 58.2392 25.573 58.1189C25.573 58.1189 25.573 58.1188 25.573 58.1188L25.6271 58.1083L90.6884 40.3ZM90.6884 40.3H90.583M90.6884 40.3H90.583M90.583 40.3H19.4156H19.3098M90.583 40.3H19.3098M19.3098 40.3L19.3705 40.3866M19.3098 40.3L19.3705 40.3866M19.3705 40.3866L23.5924 46.4117L19.3705 40.3866ZM25.2847 49.474H54.5147V52.4916H53.8319V50.1458V50.0907H53.7768H32.3341H32.2729L32.2793 50.1516L32.5262 52.4916H25.7947L25.2847 49.474ZM22.3736 42.6348H54.5147V45.6083H53.8319V43.3727V43.3176H53.7768H30.0874H29.9923L30.0396 43.4001L31.3139 45.6193H24.4553L22.3736 42.6348ZM15.2929 38.9894H94.7055L89.4037 46.4686L89.3966 46.4785L89.3944 46.4906C88.8106 49.7071 87.269 57.9877 87.0931 58.7904L87.0717 58.8881C86.8281 60.0019 86.6346 60.8869 85.9728 61.6304C85.2918 62.3953 84.1079 63.0169 81.8368 63.5614C75.7832 64.9922 61.9388 67.7876 54.9883 68.8786C48.0377 67.7876 34.1933 65.0032 28.1508 63.5614L28.1508 63.5614C25.8796 63.0224 24.6957 62.4035 24.0148 61.6386C23.3525 60.8947 23.1592 60.0064 22.9154 58.8862C22.9085 58.8545 22.9015 58.8226 22.8945 58.7904L22.8945 58.7902C22.7313 58.056 21.4031 50.8718 20.7366 47.2665C20.6844 46.9843 20.6363 46.724 20.5931 46.4904L20.5909 46.4785L20.5839 46.4686L15.2929 38.9894ZM56.1777 54.0775V56.3462H55.4949V53.3396H84.0751L83.5651 56.3572H77.0263C77.1388 55.7551 77.3236 54.2957 77.3448 54.083L77.3509 54.0224H77.29H56.2328H56.1777V54.0775ZM81.0433 61.2157L81.0433 61.2157C76.1042 62.445 62.5388 65.1413 55.5058 66.2925L55.495 60.1458H82.7447C82.7122 60.2171 82.679 60.285 82.6404 60.347C82.5502 60.4795 82.426 60.6274 82.1891 60.7765C81.9506 60.9266 81.5959 61.0789 81.0433 61.2157ZM56.1777 65.4211V65.4871L56.2427 65.4753C56.7499 65.3827 57.5494 65.2404 58.3964 65.0898C59.6625 64.8645 61.0347 64.6204 61.6946 64.495L61.6946 64.495C62.1267 64.4126 62.5449 64.3329 62.9499 64.2557C67.793 63.3325 70.7321 62.7722 72.5784 62.3221C74.5769 61.8348 75.3094 61.4739 75.7901 60.9083L75.8673 60.8176H75.7482H56.2328H56.1777V60.8727V65.4211ZM54.5037 48.637H25.1452L24.7887 46.4453H54.5037V48.637ZM54.5037 54.8154V56.3462H43.579L43.5892 54.8154H54.5037ZM55.4949 47.1392V42.6348H66.5191V47.1392H55.4949ZM30.7816 61.6188C30.0307 61.4509 29.4802 61.3278 28.9777 61.2048C27.8726 60.9093 27.5463 60.5954 27.3806 60.3365C27.3393 60.2704 27.2995 60.2066 27.2645 60.1348H42.6975V61.6546H30.9415L30.7816 61.6188ZM42.6975 53.3286V57.822H26.7087L25.9347 53.3286H42.6975ZM43.5786 64.2856V58.681H54.5147V66.2819C51.6346 65.8312 47.6518 65.0912 43.5786 64.2856ZM84.2038 52.4916H67.3892V47.9872H84.9563L84.2038 52.4916ZM67.3892 45.6303V44.0995H86.5673L85.4993 45.6194L67.3892 45.6303ZM83.0047 59.3528H55.4949V57.1832H83.4344L83.0047 59.3528ZM55.4949 51.0158V49.474H66.5191V51.0158H55.4949Z" fill="#000E32" stroke="#000E32" strokeWidth="0.110132"/>
</svg>
