<svg width="110" height="110" viewBox="0 0 110 110" fill="none" xmlns="http://www.w3.org/2000/svg">
<g id="Frame 1707481651">
<g id="Group 1707478681">
<g id="L3">
<g id="Group">
<path id="Vector" d="M55.0026 80.4789C40.9513 80.4789 29.5249 69.0524 29.5249 55.0012C29.5249 40.95 40.9513 29.5236 55.0026 29.5236C69.0538 29.5236 80.4802 40.95 80.4802 55.0012C80.4802 69.0524 69.0538 80.4789 55.0026 80.4789Z" fill="white"/>
<path id="Vector_2" d="M64.742 31.9433L64.742 31.9433C61.6522 30.6472 58.3789 29.9794 55.001 29.9794C51.6231 29.9794 48.3498 30.6472 45.26 31.9433L45.2596 31.9435C42.2876 33.2135 39.6167 35.0203 37.3125 37.3113C35.0082 39.6025 33.2013 42.2736 31.9443 45.2589L31.9443 45.259C30.6481 48.3488 29.9804 51.6221 29.9804 55C29.9804 58.3777 30.635 61.6511 31.9444 64.7412L31.9445 64.7414C33.2144 67.7134 35.0212 70.3843 37.3123 72.6884C39.6035 74.9927 42.2746 76.7997 45.2599 78.0567L45.26 78.0567C48.3498 79.3528 51.6231 80.0206 55.001 80.0206C58.3787 80.0206 61.6521 79.366 64.7422 78.0566L64.7424 78.0565C67.7144 76.7865 70.3853 74.9797 72.6894 72.6887C74.9937 70.3975 76.8007 67.7264 78.0576 64.7411L78.0577 64.741C79.3538 61.6512 80.0216 58.3779 80.0216 55C80.0216 51.6222 79.3669 48.3489 78.0576 45.2588L78.0575 45.2586C76.7875 42.2866 74.9807 39.6157 72.6897 37.3116C70.3984 35.0072 67.7273 33.2003 64.742 31.9433ZM29.0663 55C29.0663 40.6714 40.6724 29.0653 55.001 29.0653C69.3296 29.0653 80.9357 40.6714 80.9357 55C80.9357 69.3286 69.3296 80.9347 55.001 80.9347C40.6724 80.9347 29.0663 69.3286 29.0663 55Z" fill="#000E32" stroke="#000E32" strokeWidth="0.130588"/>
</g>
</g>
<g id="L5">
<g id="Group_2">
<path id="Vector_3" d="M66.3125 43.6797L66.3124 43.6796C63.2836 40.664 59.2711 38.9986 54.9966 38.9986C50.7221 38.9986 46.7096 40.664 43.6808 43.6796L43.6806 43.6798C40.665 46.7086 38.9996 50.7211 38.9996 54.9956C38.9996 59.2701 40.6649 63.2957 43.6807 66.3115L43.6808 66.3116C46.7096 69.3273 50.7221 70.9926 54.9966 70.9926C59.2709 70.9926 63.2967 69.3404 66.3126 66.3114C69.3282 63.2827 70.9936 59.2701 70.9936 54.9956C70.9936 50.7212 69.3283 46.6955 66.3125 43.6797ZM30.9032 54.9956C30.9032 41.6856 41.6866 30.9022 54.9966 30.9022C68.3066 30.9022 79.09 41.6856 79.09 54.9956C79.09 68.3056 68.3066 79.089 54.9966 79.089C41.6866 79.089 30.9032 68.3056 30.9032 54.9956Z" fill="#000E32" stroke="#000E32" strokeWidth="0.130588"/>
</g>
</g>
<g id="L4">
<path id="Vector_4" d="M54.9734 69.8343C63.1953 69.8343 69.8604 63.1692 69.8604 54.9473C69.8604 46.7254 63.1953 40.0603 54.9734 40.0603C46.7516 40.0603 40.0864 46.7254 40.0864 54.9473C40.0864 63.1692 46.7516 69.8343 54.9734 69.8343Z" stroke="#000E32" strokeWidth="0.261175"/>
<g id="Group_3">
<g id="Clip path group">
<mask id="mask0_1353_32711" style="mask-type:luminance" maskUnits="userSpaceOnUse" x="40" y="40" width="30" height="30">
<g id="SVGID_2_">
<path id="Vector_5" d="M54.97 69.8364C63.1919 69.8364 69.857 63.1712 69.857 54.9494C69.857 46.7275 63.1919 40.0624 54.97 40.0624C46.7481 40.0624 40.083 46.7275 40.083 54.9494C40.083 63.1712 46.7481 69.8364 54.97 69.8364Z" fill="white"/>
</g>
</mask>
<g mask="url(#mask0_1353_32711)">
<path id="Vector_6" d="M54.9713 39.7992H38.3867V55.0779H54.9713V39.7992Z" fill="#000E32" stroke="#000E32" strokeWidth="0.522351"/>
</g>
</g>
<g id="Clip path group_2">
<mask id="mask1_1353_32711" style="mask-type:luminance" maskUnits="userSpaceOnUse" x="40" y="40" width="30" height="30">
<g id="SVGID_2__2">
<path id="Vector_7" d="M54.97 69.8364C63.1919 69.8364 69.857 63.1712 69.857 54.9494C69.857 46.7275 63.1919 40.0624 54.97 40.0624C46.7481 40.0624 40.083 46.7275 40.083 54.9494C40.083 63.1712 46.7481 69.8364 54.97 69.8364Z" fill="white"/>
</g>
</mask>
<g mask="url(#mask1_1353_32711)">
<path id="Vector_8" d="M71.5563 54.9496H54.9717V70.2283H71.5563V54.9496Z" fill="#000E32" stroke="#000E32" strokeWidth="0.522351"/>
</g>
</g>
<path id="Vector_9" d="M54.9734 69.8344C63.1953 69.8344 69.8604 63.1693 69.8604 54.9474C69.8604 46.7256 63.1953 40.0604 54.9734 40.0604C46.7516 40.0604 40.0864 46.7256 40.0864 54.9474C40.0864 63.1693 46.7516 69.8344 54.9734 69.8344Z" stroke="#000E32" strokeWidth="0.522351"/>
</g>
</g>
<g id="L2">
<g id="Group_4">
<path id="Vector_10" d="M36.7085 40.3847L38.8763 38.1908C39.6728 37.3812 40.5608 37.2114 41.3182 37.9557C41.7753 38.3997 41.8667 38.9613 41.6447 39.5489L41.6578 39.562C42.3238 39.131 43.042 39.2616 43.6558 39.8623C44.3609 40.5544 44.4262 41.5991 43.2771 42.7614L41.2268 44.8377L36.7085 40.3847ZM39.3725 41.4686L40.6392 40.1757C41.0179 39.797 41.0701 39.2877 40.6653 38.896C40.2082 38.452 39.8165 38.5173 39.3855 38.9482L38.1319 40.241L39.3725 41.4686ZM41.3574 43.4143L42.7416 42.017C43.2118 41.5338 43.2248 40.9984 42.7808 40.5544C42.3368 40.1235 41.8145 40.1496 41.3313 40.6328L39.9471 42.0301L41.3574 43.4143Z" fill="white"/>
<path id="Vector_11" d="M51.6187 31.754L53.1857 31.7279L55.0139 36.6641H55.027L56.6463 31.6757L58.1872 31.6495L58.2917 37.983L57.2339 37.9961L57.1556 33.0991H57.1425L55.471 38.0222L54.5569 38.0353L52.7156 33.1774H52.7025L52.7809 38.0744L51.7231 38.0875L51.6187 31.754Z" fill="white"/>
<path id="Vector_12" d="M69.6019 36.3898L70.3593 37.2255L67.5125 41.3129L67.5256 41.326L71.9917 39.0407L72.7491 39.8895L69.9675 44.0553L69.9806 44.0683L74.3814 41.7177L75.1388 42.5535L69.2493 45.4787L68.4919 44.6429L71.2604 40.4641L71.2473 40.451L66.7681 42.7233L66.0107 41.8745L69.6019 36.3898Z" fill="white"/>
</g>
</g>
</g>
</g>
</svg>
