<svg width="110" height="110" viewBox="0 0 110 110" fill="none" xmlns="http://www.w3.org/2000/svg">
<g id="Frame 1707481653" clipPath="url(#clip0_1353_32740)">
<g id="Group 1707478682">
<path id="Vector" d="M109.652 55.4421L109.653 55.4418L109.683 55.4343C109.682 55.4348 109.682 55.4354 109.681 55.4359C109.652 55.4645 109.622 55.4938 109.591 55.5242C109.214 55.8542 108.304 56.3718 107.262 56.8634C106.221 57.3546 105.067 57.8109 104.217 58.0206C102.738 58.3843 97.4326 59.1266 92.0783 59.8232C86.7285 60.5192 81.344 61.1679 79.7171 61.3447L79.7162 61.3449L77.9001 61.5571C77.9 61.5571 77.8999 61.5572 77.8998 61.5572C73.0154 62.0999 66.8111 62.784 63.674 63.0907L63.6739 63.0901L63.6623 63.0924C63.0948 63.2059 62.502 63.1612 61.9524 63.0015C59.7231 62.1956 57.3751 61.7924 55.0268 61.8159C52.678 61.7687 50.3293 62.1719 48.1228 63.0017C47.5735 63.1612 46.9575 63.2059 46.39 63.0924L46.3901 63.0919L46.3792 63.0907C44.8208 62.9279 42.5299 62.6792 40.0194 62.4067C37.4355 62.1263 34.6189 61.8205 32.1288 61.5571C32.1286 61.5571 32.1283 61.5571 32.1281 61.5571L30.3364 61.3449L30.3361 61.3448C28.7091 61.1562 23.3184 60.4779 17.9627 59.7583C12.6029 59.0382 7.29035 58.2781 5.81126 57.926L5.8107 57.9258C4.96158 57.7281 3.80836 57.2721 2.7672 56.778C1.723 56.2825 0.810641 55.7576 0.435022 55.4275L0.435419 55.427L0.425717 55.4201C0.405782 55.4058 0.385753 55.3904 0.366029 55.3741C1.94887 55.7279 3.55719 55.9642 5.16701 56.0115L5.167 56.0116H5.17047C5.17046 56.0116 5.1728 56.0117 5.1775 56.0118C5.20281 56.0128 5.29644 56.0164 5.45632 56.0226L6.26167 56.0542L9.1279 56.1671C11.5003 56.2607 14.6671 56.3861 17.8568 56.5129C24.2377 56.7666 30.7063 57.026 31.094 57.0495L31.094 57.0496L31.0988 57.0497C32.2786 57.0729 33.4134 57.443 34.4108 58.0924L34.4127 58.0937C36.2394 59.2324 38.2095 60.0871 40.2993 60.5858L40.3011 60.5862C42.8558 61.1539 45.4819 61.5089 48.1087 61.6035V61.6036H48.1129C48.1197 61.6036 48.1266 61.6035 48.133 61.6032C48.1345 61.6031 48.1512 61.6026 48.1684 61.5973C48.1732 61.5958 48.1863 61.5916 48.2006 61.5819C48.2129 61.5736 48.2496 61.5447 48.2524 61.4899C48.255 61.4366 48.223 61.4047 48.2132 61.3959C48.201 61.3849 48.1893 61.3791 48.1848 61.3769C48.1698 61.3697 48.1548 61.3667 48.1522 61.3662L48.1519 61.3661C48.1331 61.3622 48.0992 61.3579 48.0622 61.3537C47.9834 61.3447 47.8613 61.3328 47.7345 61.321C47.6074 61.3091 47.4745 61.2973 47.3733 61.2885L47.2501 61.2778L47.2152 61.2748L47.2059 61.274L47.2035 61.2738L47.2029 61.2737L47.2028 61.2737L47.2027 61.2737L47.1984 61.324L47.2027 61.2736L47.1988 61.2734C46.2861 61.2266 45.3718 61.0861 44.453 60.9212L44.453 60.9211L44.4482 60.9204C42.0551 60.592 39.7326 59.9354 37.5273 58.951L37.3455 58.8373L37.3179 58.8201L37.2854 58.8194C37.0104 58.8136 36.8147 58.7915 36.6761 58.7638L37.5855 58.7957L37.5868 58.7958C38.553 58.8193 39.5462 58.843 39.8312 58.843H39.9202L39.9346 58.7925C39.9451 58.7883 39.9597 58.7833 39.979 58.7777C40.0398 58.76 40.1285 58.7418 40.2388 58.7238C40.4582 58.688 40.7485 58.6551 41.0399 58.6271C41.3306 58.5992 41.6202 58.5764 41.8372 58.5606C41.9456 58.5527 42.0359 58.5466 42.099 58.5424L42.1721 58.5376L42.1913 58.5364L42.1962 58.5361L42.1975 58.536L42.1978 58.536L42.1978 58.536L42.1906 58.4183L42.1978 58.536L42.1906 58.3003H36.6695H36.6686H36.6678H36.667H36.6661H36.6653H36.6645H36.6637H36.6628H36.662H36.6612H36.6603H36.6595H36.6587H36.6579H36.657H36.6562H36.6554H36.6545H36.6537H36.6529H36.652H36.6512H36.6504H36.6496H36.6487H36.6479H36.6471H36.6462H36.6454H36.6446H36.6438H36.6429H36.6421H36.6413H36.6404H36.6396H36.6388H36.638H36.6371H36.6363H36.6355H36.6347H36.6338H36.633H36.6322H36.6313H36.6305H36.6297H36.6289H36.628H36.6272H36.6264H36.6256H36.6247H36.6239H36.6231H36.6222H36.6214H36.6206H36.6198H36.6189H36.6181H36.6173H36.6165H36.6156H36.6148H36.614H36.6132H36.6123H36.6115H36.6107H36.6099H36.609H36.6082H36.6074H36.6066H36.6058H36.6049H36.6041H36.6033H36.6025H36.6016H36.6008H36.6H36.5992H36.5984H36.5975H36.5967H36.5959H36.5951H36.5942H36.5934H36.5926H36.5918H36.591H36.5901H36.5893H36.5885H36.5877H36.5869H36.586H36.5852H36.5844H36.5836H36.5828H36.582H36.5811H36.5803H36.5795H36.5787H36.5779H36.5771H36.5762H36.5754H36.5746H36.5738H36.573H36.5722H36.5713H36.5705H36.5697H36.5689H36.5681H36.5673H36.5665H36.5657H36.5648H36.564H36.5632H36.5624H36.5616H36.5608H36.56H36.5592H36.5583H36.5575H36.5567H36.5559H36.5551H36.5543H36.5535H36.5527H36.5519H36.5511H36.5503H36.5495H36.5486H36.5478H36.547H36.5462H36.5454H36.5446H36.5438H36.543H36.5422H36.5414H36.5406H36.5398H36.539H36.5382H36.5374H36.5366H36.5358H36.535H36.5342H36.5334H36.5326H36.5318H36.531H36.5302H36.5294H36.5286H36.5278H36.527H36.5262H36.5254H36.5246H36.5238H36.523H36.5222H36.5214H36.5206H36.5198H36.519H36.5182H36.5174H36.5166H36.5159H36.5151H36.5143H36.5135H36.5127H36.5119H36.5111H36.5103H36.5095H36.5087H36.508H36.5072H36.5064H36.5056H36.5048H36.504H36.5032H36.5024H36.5017H36.5009H36.5001H36.4993H36.4985H36.4977H36.497H36.4962H36.4954H36.4946H36.4938H36.4931H36.4923H36.4915H36.4907H36.4899H36.4892H36.4884H36.4876H36.4868H36.4861H36.4853H36.4845H36.4837H36.483H36.4822H36.4814H36.4806H36.4799H36.4791H36.4783H36.4776H36.4768H36.476H36.4752H36.4745H36.4737H36.4729H36.4722H36.4714H36.4706H36.4699H36.4691H36.4683H36.4676H36.4668H36.4661H36.4653H36.4645H36.4638H36.463H36.4622H36.4615H36.4607H36.46H36.4592H36.4585H36.4577H36.4569H36.4562H36.4554H36.4547H36.4539H36.4532H36.4524H36.4517H36.4509H36.4502H36.4494H36.4487H36.4479H36.4472H36.4464H36.4457H36.4449H36.4442H36.4434H36.4427H36.4419H36.4412H36.4405H36.4397H36.439H36.4382H36.4375H36.4367H36.436H36.4353H36.4345H36.4338H36.4331H36.4323H36.4316H36.4308H36.4301H36.4294H36.4286H36.4279H36.4272H36.4264H36.4257H36.425H36.4243H36.4235H36.4228H36.4221H36.4213H36.4206H36.4199H36.4192H36.4184H36.4177H36.417H36.4163H36.4155H36.4148H36.4141H36.4134H36.4127H36.4119H36.4112H36.4105H36.4098H36.4091H36.4084H36.4076H36.4069H36.4062H36.4055H36.4048H36.4041H36.4034H36.4027H36.402H36.4013H36.4005H36.3998H36.3991H36.3984H36.3977H36.397H36.3963H36.3956H36.3949H36.3942H36.3935H36.3928H36.3921H36.3914H36.3907H36.39H36.3893H36.3886H36.3879H36.3872H36.3866H36.3859H36.3852H36.3845H36.3838H36.3831H36.3824H36.3817H36.381H36.3804H36.3797H36.379H36.3783H36.3776H36.3769H36.3763H36.3756H36.3749H36.3742H36.3735H36.3729H36.3722H36.3715H36.3708H36.3702H36.3695H36.3688H36.3682H36.3675H36.3668H36.3661H36.3655H36.3648H36.3641H36.3635H36.3628H36.3622H36.3615H36.3608H36.3602H36.3595H36.3588H36.3582H36.3575H36.3569H36.3562H36.3556H36.3549H36.3543H36.3536H36.353H36.3523H36.3517H36.351H36.3504H36.3497H36.3491H36.3484H36.3478H36.3471H36.3465H36.3458H36.3452H36.3446H36.3439H36.3433H36.3426H36.342H36.3414H36.3407H36.3401H36.3395H36.3388H36.3382H36.3376H36.3369H36.3363H36.3357H36.3351H36.3344H36.3338H36.3332H36.3326H36.3319H36.3313H36.3307H36.3301H36.3295H36.3288H36.3282H36.3276H36.327H36.3264H36.3258H36.3252H36.3246H36.3241C36.2934 58.2823 36.2625 58.2641 36.2314 58.2458C35.8618 58.0288 35.4629 57.7946 35.0833 57.5415L35.0536 57.5217H35.0178C34.6095 57.5217 34.3647 57.4828 34.2198 57.4381C35.429 57.4745 37.2449 57.4745 37.8718 57.4745H37.8728H38.038H38.1269L38.1404 57.4272C38.1546 57.4221 38.1746 57.416 38.2012 57.4092C38.2752 57.3904 38.382 57.3711 38.5136 57.3519C38.7757 57.3137 39.1225 57.2778 39.47 57.2469C39.817 57.216 40.1627 57.1903 40.4219 57.1722C40.5514 57.1632 40.6592 57.1561 40.7346 57.1513L40.822 57.1458L40.845 57.1444L40.8508 57.144L40.8523 57.144L40.8527 57.1439L40.8528 57.1439L40.8457 57.0262L40.8528 57.1439L40.8457 56.9082H34.0014C32.885 56.4835 31.6979 56.2711 30.5101 56.2947C30.2877 56.2944 26.5603 56.2012 22.0073 56.0874C15.3341 55.9206 6.88721 55.7094 5.10238 55.6813C3.57217 55.6355 2.06295 55.4342 0.574144 55.1417C0.638411 55.1396 0.707787 55.1386 0.781851 55.1386L0.783368 55.1385L8.12082 55.0442C8.1209 55.0442 8.12099 55.0442 8.12108 55.0442C19.2813 54.9498 40.0912 54.8554 41.0345 54.8554H41.2468V54.8555L41.2519 54.8553C42.3474 54.8087 43.418 54.9486 44.4413 55.2974L44.4412 55.2976L44.4478 55.2994L44.8692 55.4165C46.0566 55.8199 47.2679 56.0811 48.5265 56.1998L48.5265 56.2L48.5333 56.2003C49.8096 56.2475 54.7875 56.2475 54.9787 56.2475H54.979H54.9792C55.1703 56.2475 60.1247 56.2475 61.4246 56.2003L61.4246 56.2004L61.4294 56.2C62.6653 56.1049 63.9012 55.8437 65.0898 55.4162L65.5102 55.2994L65.5103 55.2997L65.5175 55.2971C66.5164 54.9487 67.6103 54.8087 68.6824 54.8553V54.8554H68.6875H68.9235C69.4786 54.8554 76.9081 54.9208 85.208 54.9939C91.0092 55.0449 97.2355 55.0997 101.837 55.1385C101.837 55.1385 101.837 55.1385 101.837 55.1386L109.151 55.2329H109.153C109.238 55.2329 109.317 55.2336 109.388 55.2351C107.9 55.5267 106.388 55.7069 104.854 55.7757C104.854 55.7757 104.853 55.7757 104.853 55.7757L79.4255 56.2947C79.4247 56.2947 79.4239 56.2947 79.4231 56.2947C78.2357 56.2713 77.049 56.4837 75.933 56.9082H75.9075H69.3246L69.317 57.1439L69.3246 57.0262L69.3171 57.1439L69.3171 57.1439L69.3175 57.1439L69.3188 57.144L69.3243 57.1444L69.3457 57.1458L69.4271 57.1513C69.4973 57.1561 69.5977 57.1632 69.7184 57.1722C69.9598 57.1902 70.2819 57.216 70.6052 57.2468C70.929 57.2777 71.2521 57.3136 71.4963 57.3518C71.6189 57.3709 71.7181 57.3901 71.7866 57.4087C71.8102 57.4151 71.828 57.4209 71.8407 57.4257L71.8532 57.4696L71.9371 57.4743C72.3304 57.4961 74.38 57.4584 75.7172 57.4338C75.7318 57.4335 75.7464 57.4333 75.7609 57.433C75.6135 57.4801 75.3624 57.5217 74.9401 57.5217H74.9044L74.8747 57.5415C74.5956 57.7275 74.3085 57.9019 74.0356 58.0677C73.905 58.1471 73.7776 58.2245 73.6558 58.3003H73.5245H67.8145L67.8072 58.536L67.8145 58.4183L67.8073 58.536L67.8073 58.536L67.8076 58.536L67.8088 58.5361L67.8137 58.5364L67.8327 58.5376L67.9051 58.5424C67.9675 58.5466 68.0569 58.5527 68.1642 58.5606C68.379 58.5764 68.6656 58.5992 68.9534 58.6271C69.2418 58.6551 69.5291 58.688 69.7463 58.7238C69.8555 58.7418 69.9432 58.76 70.0033 58.7776C70.0222 58.7832 70.0366 58.7881 70.0469 58.7923L70.0614 58.843H70.1504C70.4118 58.843 71.4521 58.8193 72.4419 58.7958L72.4432 58.7957L73.4092 58.7618C73.2698 58.7942 73.0599 58.8194 72.7458 58.8194H72.7153L72.6885 58.8342L72.4807 58.9497C70.2746 59.9349 67.9511 60.5918 65.557 60.9203L65.5522 60.9212C64.6358 61.0857 63.7196 61.2031 62.8034 61.2736L62.8024 61.2737L62.8067 61.324L62.8024 61.2737L62.8024 61.2737L62.8022 61.2737L62.8016 61.2738L62.7992 61.274L62.79 61.2748L62.755 61.2778L62.6318 61.2885C62.5307 61.2973 62.3978 61.3091 62.2706 61.321C62.1438 61.3328 62.0218 61.3447 61.943 61.3537C61.906 61.3579 61.8721 61.3622 61.8533 61.3661C61.8519 61.3664 61.8361 61.3694 61.8203 61.3769C61.8159 61.3791 61.8042 61.3849 61.792 61.3959C61.7822 61.4047 61.7501 61.4366 61.7528 61.4898C61.7555 61.5447 61.7923 61.5735 61.8045 61.5819C61.8189 61.5916 61.8319 61.5958 61.8368 61.5973C61.854 61.6026 61.8706 61.6031 61.8722 61.6032C61.8748 61.6033 61.8775 61.6034 61.8802 61.6035C61.8842 61.6036 61.8882 61.6036 61.8922 61.6036V61.6037L61.8965 61.6035C64.5233 61.5089 67.1259 61.1539 69.7039 60.5863L69.7071 60.5855C71.7948 60.0636 73.7885 59.233 75.593 58.0933L75.5955 58.0917C76.568 57.4433 77.7259 57.0729 78.9064 57.0497L78.9064 57.0501L78.9151 57.0492C79.2881 57.0143 85.7528 56.7726 92.1391 56.5394C95.3303 56.4229 98.4993 56.3086 100.874 56.2235C102.061 56.1809 103.049 56.1456 103.742 56.1209L104.548 56.0924L104.762 56.0849C104.814 56.0831 104.836 56.0824 104.835 56.0824L104.838 56.0823C106.474 56.0349 108.063 55.8214 109.652 55.4421ZM48.1208 61.3675L48.1202 61.3675L48.1208 61.3675ZM61.8844 61.3675C61.8824 61.3674 61.8828 61.3674 61.8849 61.3675L61.8844 61.3675ZM41.5439 57.412L41.5435 57.4122L41.5487 57.4203C41.7813 57.7821 42.9668 58.9522 45.4891 59.571C46.0233 59.7044 47.1995 59.781 48.6816 59.8251C50.1699 59.8694 51.9822 59.8812 53.7993 59.8812H56.2059C58.023 59.8812 59.8353 59.8694 61.3265 59.8251C62.8121 59.7809 63.9938 59.7044 64.5393 59.571L64.5394 59.571C65.8028 59.2611 66.7353 58.8075 67.3747 58.3902C67.6942 58.1817 67.941 57.982 68.1193 57.8135C68.2952 57.6473 68.4108 57.5058 68.4611 57.4124C68.5022 57.3361 68.5357 57.27 68.5553 57.2152C68.5724 57.1673 68.5933 57.0913 68.5557 57.0208C68.5158 56.946 68.4376 56.9261 68.3896 56.9182C68.3358 56.9094 68.2674 56.9082 68.192 56.9082H41.8131C41.7965 56.9082 41.78 56.9081 41.7638 56.908C41.7107 56.9077 41.6613 56.9075 41.6226 56.9104C41.5966 56.9123 41.5669 56.9161 41.5388 56.9255C41.5098 56.9352 41.4737 56.9539 41.4477 56.9915C41.4214 57.0295 41.4165 57.071 41.4187 57.1043C41.4208 57.1362 41.4298 57.1676 41.4402 57.196C41.4607 57.2525 41.4971 57.3244 41.5439 57.412Z" fill="#000E32" stroke="#000E32" strokeWidth="0.235949"/>
<path id="Vector_2" d="M54.2097 58.2125L54.2716 58.2497L54.3329 58.2114L54.8319 57.8995L54.3675 58.2273L54.3176 58.2626V58.3237V58.6541H53.9636V58.3237V58.2596L53.9099 58.2248L53.3713 57.8754H53.6478L54.2097 58.2125Z" fill="#000E32" stroke="#000E32" strokeWidth="0.235949"/>
<path id="Vector_3" d="M58.4237 58.5836V58.6544H58.0462V57.8758H58.4237V58.5836Z" fill="#000E32" stroke="#000E32" strokeWidth="0.235949"/>
<path id="Vector_4" d="M60.9006 58.2534V58.3006V58.3714V58.5838V58.6545H60.5467V57.8759H60.9006V57.9467V58.1826V58.2534Z" fill="#000E32" stroke="#000E32" strokeWidth="0.235949"/>
<path id="Vector_5" d="M48.0424 58.2297V58.2769V58.3477V58.6544H47.6648V57.8758H48.0424V58.1589V58.2297ZM49.5524 58.1589V57.8758H49.9299V58.6544H49.5524V58.3477V58.2769V58.2297V58.1589Z" fill="#000E32" stroke="#000E32" strokeWidth="0.235949"/>
<path id="Vector_6" d="M52.6276 58.1231C52.5528 58.1585 52.4486 58.1899 52.3209 58.2128C52.3506 58.1717 52.3596 58.1269 52.3596 58.0881C52.3596 58.0273 52.3265 57.9837 52.2961 57.9577C52.2666 57.9324 52.2308 57.9151 52.1972 57.9025C52.1737 57.8937 52.1476 57.8858 52.1193 57.8787C52.3633 57.8881 52.5227 57.9187 52.6212 57.9565C52.68 57.979 52.7102 58.0015 52.7245 58.017C52.7366 58.03 52.7371 58.0375 52.7371 58.0407C52.7366 58.0426 52.7341 58.0491 52.7233 58.0606C52.7065 58.0781 52.6761 58.1001 52.6276 58.1231ZM50.6844 57.8758H51.0855V57.9466V58.6544H50.6844V57.8758ZM51.89 58.3495C51.9205 58.3482 51.949 58.3465 51.9756 58.3442L52.1592 58.4499L52.5553 58.678H52.3498L52.2789 58.6278C52.217 58.584 52.1332 58.5244 52.0449 58.4612C51.9932 58.4241 51.9404 58.3861 51.89 58.3495Z" fill="#000E32" stroke="#000E32" strokeWidth="0.235949"/>
<path id="Vector_7" d="M63.4732 57.946V58.6775H63.0721V57.8989H63.4732V57.946ZM65.0157 58.1417C64.9403 58.1746 64.834 58.2021 64.7014 58.2182C64.7342 58.1781 64.7473 58.1321 64.7473 58.0876C64.7473 58.0268 64.7142 57.9832 64.6838 57.9572C64.6576 57.9347 64.6264 57.9185 64.5962 57.9064C64.7906 57.9191 64.923 57.9466 65.0089 57.9795C65.0677 58.0021 65.0979 58.0245 65.1122 58.04C65.1242 58.0531 65.1248 58.0605 65.1248 58.0637C65.1243 58.0657 65.1218 58.0718 65.1116 58.0823C65.0952 58.099 65.0649 58.1203 65.0157 58.1417ZM64.2543 58.3491C64.2848 58.3479 64.3135 58.3462 64.3404 58.3441L64.5233 58.4494L64.9194 58.6775H64.7139L64.643 58.6273C64.5811 58.5835 64.4973 58.5239 64.409 58.4607C64.3573 58.4236 64.3046 58.3857 64.2543 58.3491Z" fill="#000E32" stroke="#000E32" strokeWidth="0.235949"/>
<path id="Vector_8" d="M56.0963 58.1669C56.1706 58.1929 56.2654 58.2055 56.3657 58.206L56.878 58.2525C57.0705 58.2753 57.2014 58.314 57.2834 58.3574C57.3541 58.3949 57.3775 58.4292 57.3849 58.4514C57.3821 58.466 57.3715 58.4859 57.3366 58.5113C57.2915 58.5442 57.2185 58.5757 57.1172 58.6021C57.0437 58.6212 56.96 58.6364 56.8693 58.6481C56.9006 58.6336 56.9303 58.6127 56.9523 58.581C56.9841 58.535 56.9847 58.487 56.9847 58.4655C56.9847 58.3921 56.9318 58.3495 56.9067 58.3327C56.8759 58.3122 56.8386 58.2977 56.8018 58.2872C56.7278 58.2661 56.6302 58.2536 56.5191 58.2532L56.0772 58.2067C55.9703 58.1948 55.8824 58.1848 55.8088 58.1726C55.7346 58.1602 55.6827 58.1466 55.6461 58.1305C55.6114 58.1152 55.5961 58.1001 55.5875 58.0862C55.5783 58.0712 55.569 58.0448 55.569 57.9936C55.569 57.9794 55.5741 57.9598 55.6125 57.9329C55.6535 57.9044 55.7188 57.8784 55.8057 57.8577C55.8658 57.8434 55.9317 57.8326 55.9993 57.8247C55.9949 57.8277 55.9906 57.831 55.9864 57.8344C55.9419 57.8712 55.9229 57.9207 55.9229 57.97C55.9229 58.0313 55.9546 58.0773 55.9877 58.1066C56.0196 58.1349 56.0588 58.1538 56.0963 58.1669Z" fill="#000E32" stroke="#000E32" strokeWidth="0.235949"/>
<path id="Vector_9" d="M45.8262 58.6928C45.5548 58.6755 45.3104 58.6328 45.1221 58.5666C44.9963 58.5223 44.9029 58.4701 44.8429 58.4144C44.7848 58.3606 44.7615 58.3075 44.7615 58.2532C44.7615 58.1988 44.7848 58.1458 44.8429 58.0919C44.9029 58.0362 44.9963 57.984 45.1221 57.9398C45.3282 57.8673 45.6015 57.8229 45.904 57.8093C45.79 57.8273 45.6771 57.8536 45.5761 57.8878C45.4739 57.9224 45.3767 57.9674 45.3026 58.0253C45.2296 58.0825 45.1626 58.1661 45.1626 58.2768C45.1626 58.3915 45.2357 58.4729 45.3119 58.5252C45.3888 58.578 45.4888 58.6162 45.5917 58.6442C45.6656 58.6644 45.7454 58.6805 45.8262 58.6928Z" fill="#000E32" stroke="#000E32" strokeWidth="0.235949"/>
<path id="Vector_10" d="M51.4516 48.1421L51.417 48.1767V48.2256V48.3199V50.1132H50.0485V48.2727V48.2239L50.014 48.1893L49.9196 48.0949L49.9197 48.0948L49.9154 48.091L47.6173 46.0076H48.9442L49.8779 46.7819L50.9146 47.6773L50.9152 47.6778L51.1034 47.8424L51.1811 47.9104L51.2587 47.8424L51.4475 47.6773L51.4477 47.6771L53.349 46.0076H53.6689C53.2825 46.3744 52.8079 46.8301 52.4058 47.2174C52.1653 47.449 51.9507 47.6563 51.7962 47.8056L51.6138 47.982L51.5645 48.0298L51.5516 48.0422L51.5484 48.0454L51.5476 48.0462L51.5473 48.0464L51.5473 48.0464L51.6294 48.1312L51.5473 48.0464L51.5459 48.0478L51.4516 48.1421Z" fill="#000E32" stroke="#000E32" strokeWidth="0.235949"/>
<path id="Vector_11" d="M69.0882 49.6885V49.8064H69.2062H74.3499V50.0896H67.8377V46.0076H69.0882V49.6885Z" fill="#000E32" stroke="#000E32" strokeWidth="0.235949"/>
<path id="Vector_12" d="M78.9507 49.6649V49.7828H79.0687H84.3775V50.066H77.7474V46.0076H84.2831V46.3144H79.0687H78.9507V46.4323V47.7773V47.8952H79.0687H84.1887V48.202H79.0687H78.9507V48.3199V49.6649Z" fill="#000E32" stroke="#000E32" strokeWidth="0.235949"/>
<path id="Vector_13" d="M31.8087 47.9188H31.9267V47.8008V47.6121V46.0076H33.2008V50.0896H31.9267V49.4525V48.3199V48.202H31.8087H27.6089H27.4909V48.3199V48.4851V50.0896H26.1932V46.0076H27.4909V46.6447V47.8008V47.9188H27.6089H31.8087Z" fill="#000E32" stroke="#000E32" strokeWidth="0.235949"/>
<path id="Vector_14" d="M43.0194 50.1129C42.8554 49.9426 42.4562 49.5657 42.0231 49.157L42.0017 49.1368C41.6238 48.7801 41.2196 48.3986 40.9137 48.1006C41.4263 48.0769 41.9483 47.9928 42.449 47.8926L42.4577 47.8909L42.4661 47.8878C42.7663 47.7787 42.9921 47.5023 42.9921 47.1635C42.9921 46.958 42.8779 46.7598 42.7098 46.6448C42.5022 46.4686 42.1701 46.3911 41.7917 46.353C41.4054 46.314 40.9405 46.314 40.4486 46.314H40.4439H39.3821H39.2405H39.1226V46.432V46.5736V47.5882V50.0657H37.8484V45.9601H41.7888V45.9604L41.7961 45.9599C42.5314 45.9139 43.291 46.0517 43.9821 46.3509C44.2483 46.4744 44.433 46.7412 44.455 47.0261C44.454 47.2398 44.3789 47.4445 44.1607 47.6165C43.935 47.7944 43.5474 47.9439 42.9085 48.0136L42.9085 48.0136L42.9067 48.0138L42.5292 48.061L42.2595 48.0947L42.4683 48.2687L42.7514 48.5046L42.7514 48.5047L42.7545 48.5071C43.0632 48.7472 43.6907 49.3569 44.191 49.8428C44.2899 49.939 44.3838 50.0302 44.4694 50.1129H43.0194Z" fill="#000E32" stroke="#000E32" strokeWidth="0.235949"/>
<path id="Vector_15" d="M59.8394 50.16C58.8516 50.16 57.8626 50.0739 56.8925 49.9427L56.9787 49.5694C57.8725 49.7655 58.8069 49.8529 59.74 49.8532C60.2981 49.901 60.8562 49.8278 61.3898 49.6338L61.3898 49.6338L61.3909 49.6334C61.6181 49.5482 61.7918 49.3474 61.8207 49.0876L61.8214 49.0877V49.0746C61.8214 48.9069 61.7505 48.781 61.6445 48.6901C61.5433 48.6033 61.4125 48.5503 61.289 48.5133L61.2891 48.5132L61.2837 48.5119C60.9993 48.4407 60.6622 48.3682 60.346 48.3437C59.5933 48.26 59.1762 48.195 58.8774 48.1485C58.8406 48.1428 58.8056 48.1374 58.772 48.1322L58.7721 48.1319L58.7643 48.1313C58.2368 48.0854 57.7339 47.9482 57.254 47.6973C57.0106 47.5542 56.8695 47.2907 56.8898 47.0066L56.8901 47.0067V46.9982C56.8901 46.8128 56.966 46.6612 57.1177 46.5301C57.2729 46.3959 57.5073 46.2841 57.8173 46.192C58.4933 46.029 59.1656 45.9369 59.8354 45.96L59.8354 45.9601H59.8394C60.8764 45.9601 61.8927 46.0467 62.9101 46.1788L62.8587 46.4614C62.0669 46.33 61.2725 46.2432 60.4765 46.2432C60.0245 46.2432 59.567 46.2669 59.1073 46.3637L59.1073 46.3636L59.103 46.3647C58.7928 46.4422 58.5653 46.6385 58.5653 46.9275H58.5646L58.5661 46.9405C58.5951 47.2015 58.7955 47.4317 59.0572 47.4906C59.3456 47.5626 59.6342 47.6107 59.9231 47.6348C60.3916 47.6817 61.0491 47.7756 61.6861 47.87L61.6861 47.8702L61.6928 47.8708C62.1974 47.9167 62.6999 48.054 63.1553 48.3042C63.4018 48.4486 63.5438 48.6928 63.5438 48.9802H63.5437L63.544 48.9864C63.5535 49.1678 63.4798 49.3296 63.312 49.4791C63.1412 49.6312 62.8766 49.7662 62.5193 49.8817C61.6798 50.1083 60.819 50.2244 59.9367 50.2087L59.9124 50.16H59.8394Z" fill="#000E32" stroke="#000E32" strokeWidth="0.235949"/>
<path id="Vector_16" d="M18.9489 50.1364L18.9462 50.1364C17.9244 50.1597 16.8798 49.9739 15.9287 49.5799C15.1279 49.2133 14.7254 48.704 14.7254 48.06C14.7254 47.3949 15.1483 46.9081 15.9288 46.5401C16.9054 46.1453 17.9501 45.9369 18.9934 45.9601L18.9934 45.9601H18.996C19.835 45.9601 20.6749 46.0259 21.5159 46.1367L21.5855 46.4844C20.855 46.3995 20.1031 46.3376 19.35 46.3376C18.6523 46.3376 17.9542 46.4579 17.3034 46.6989L17.3034 46.6988L17.3006 46.7C16.7056 46.938 16.1175 47.3429 16.1175 48.0364C16.1175 48.7043 16.6783 49.1336 17.3021 49.3735L17.3021 49.3735L17.3034 49.374C17.9542 49.615 18.6523 49.7353 19.35 49.7353V49.7353L19.3534 49.7352C20.1005 49.7133 20.8282 49.6709 21.574 49.589L21.4744 49.9591C20.6314 50.0703 19.7897 50.1364 18.9489 50.1364Z" fill="#000E32" stroke="#000E32" strokeWidth="0.235949"/>
<path id="Vector_17" d="M93.3429 48.5313C93.7078 48.8151 94.5241 49.603 95.0404 50.1134H93.6077C93.4627 49.9637 93.1324 49.6541 92.7591 49.3043C92.7076 49.2559 92.6552 49.2068 92.6024 49.1573C92.2124 48.7916 91.7949 48.3981 91.4895 48.0941C92.0033 48.0614 92.5307 47.9913 93.0417 47.8686L93.0418 47.8687L93.0453 47.8677C93.3552 47.7832 93.5805 47.5013 93.5805 47.164C93.5805 46.9586 93.4663 46.7604 93.2982 46.6454C93.0905 46.4691 92.7585 46.3917 92.3801 46.3536C91.9938 46.3146 91.5288 46.3146 91.037 46.3146H91.0322H89.9705H89.8289H89.7109V46.4326V46.5978V47.6123V50.0898H88.4368V45.9843H92.3771V45.9845L92.3845 45.9841C93.1202 45.9381 93.8803 46.0761 94.5717 46.3757L94.5717 46.3758L94.5763 46.3775C94.8358 46.4773 95.0213 46.74 95.0433 47.0267C95.0424 47.2537 94.9662 47.464 94.7485 47.6382C94.523 47.8186 94.1359 47.968 93.4969 48.0378L93.4969 48.0377L93.4951 48.038L93.1175 48.0852L92.8479 48.1189L93.0567 48.2929L93.3398 48.5288L93.3397 48.5289L93.3429 48.5313Z" fill="#000E32" stroke="#000E32" strokeWidth="0.235949"/>
</g>
</g>
<defs>
<clipPath id="clip0_1353_32740">
<rect width="110" height="110" fill="white"/>
</clipPath>
</defs>
</svg>
