<svg width="110" height="110" viewBox="0 0 110 110" fill="none" xmlns="http://www.w3.org/2000/svg">
<g id="Frame 1707481655">
<g id="layer1">
<path id="path737" d="M55 41.1448C32.7962 41.1448 14.9976 47.8002 14.9976 56.1445C14.9976 64.438 32.9429 71.1448 55 71.1448C77.0576 71.1448 95.003 64.4155 95.003 56.1445C95.003 47.8735 77.0576 41.1448 55 41.1448Z" fill="#000E32"/>
<path id="path741" d="M70.7643 59.3214C70.775 59.3901 70.8652 59.456 70.9525 59.4871C70.9847 59.4978 71.0004 59.5193 70.9668 59.5923C70.7178 60.1262 70.4887 60.434 70.1765 60.8979C69.8892 61.3265 69.5656 61.6609 69.174 61.9826C68.5831 62.4715 67.7626 63.0037 67.0843 62.6459C66.783 62.4896 66.6526 62.0679 66.6584 61.7265C66.6727 60.7665 67.0998 59.7809 67.8884 58.8123C68.8498 57.6286 69.9127 57.0147 70.6102 57.3503C71.3319 57.6945 71.1016 58.53 70.7783 59.1859C70.7533 59.2367 70.7536 59.2799 70.7643 59.3214ZM78.5083 51.841C78.5602 51.7494 78.5055 51.6825 78.3899 51.6825C77.7871 51.6825 76.9962 51.6839 76.3682 51.6839C76.2186 51.6839 76.1413 51.7017 76.0708 51.8413C75.839 52.2854 73.0139 56.5194 72.488 57.3417C72.3993 57.4669 72.2912 57.4493 72.2787 57.3058C72.2254 56.8175 71.8036 56.2561 71.1392 55.9875C70.6328 55.7821 70.1378 55.7449 69.6231 55.8133C68.6939 55.9381 67.866 56.4283 67.1383 56.9811C66.0413 57.815 65.0949 58.8958 63.8732 59.6944C63.2063 60.1292 62.293 60.5083 61.6818 59.9424C61.1287 59.4296 61.1912 58.2907 62.0375 57.4099C62.1266 57.3175 62.2335 57.3955 62.2167 57.4774C62.1369 57.8758 62.2346 58.272 62.5373 58.5497C62.9065 58.8807 63.4348 58.9181 63.8871 58.6972C64.4207 58.4327 64.7343 57.9222 64.8257 57.3427C64.967 56.4438 64.2751 55.651 63.4093 55.5874C62.7059 55.538 62.0314 55.7827 61.3742 56.3252C61.0447 56.5985 60.8575 56.8005 60.5725 57.2058C60.5031 57.3056 60.3965 57.3156 60.3997 57.1682C60.4319 56.0173 59.9564 55.3698 59.0049 55.3487C58.2663 55.3308 57.4774 55.7317 56.8624 56.222C56.1883 56.7634 55.5988 57.4809 54.9668 58.1551C54.8881 58.2381 54.8198 58.2342 54.7976 58.0732C54.7797 57.3106 54.5868 56.5721 54.234 56.0476C54.1091 55.8651 53.8462 55.7749 53.6254 55.898C53.5234 55.9538 53.1687 56.117 52.9104 56.3249C52.7823 56.4305 52.7321 56.5833 52.789 56.7791C53.1297 57.9183 53.0549 59.2136 52.5926 60.3075C52.1682 61.3095 51.3434 62.2131 50.374 62.519C49.7353 62.7215 49.0715 62.6224 48.6606 62.0562C48.0964 61.2748 48.3243 59.9158 49.1653 58.7875C49.9075 57.7939 50.9812 57.1627 52.0521 56.7563C52.178 56.7077 52.2041 56.6268 52.1684 56.5198C52.1104 56.3438 52.0174 56.104 51.9798 55.9946C51.8814 55.733 51.6065 55.6908 51.2706 55.7273C50.4925 55.8178 49.7906 56.0844 49.0972 56.4556C47.2816 57.4279 46.3713 59.3096 45.9725 60.3163C45.7803 60.7999 45.6161 61.1015 45.4038 61.369C45.1176 61.7288 44.7583 62.0563 44.1013 62.6333C44.0419 62.6862 43.9975 62.7964 44.0476 62.8991C44.1145 63.0379 44.4562 63.5205 44.5526 63.5636C44.6596 63.6162 44.7838 63.5421 44.8335 63.507C45.2932 63.1954 45.8432 62.7014 46.1124 62.3664C46.2068 62.2515 46.3038 62.2999 46.3539 62.4741C46.6051 63.3703 47.2628 64.102 48.1723 64.4081C49.8371 64.9695 51.5637 64.1569 52.8671 62.7422C53.6954 61.843 53.9944 61.2647 54.3119 60.8716C54.85 60.205 55.9113 58.7135 57.1755 57.756C57.6391 57.4028 58.1877 57.1335 58.4636 57.3124C58.6851 57.4559 58.7567 57.7893 58.4014 58.4354C57.1124 60.7891 55.216 63.5544 54.8682 64.225C54.8045 64.3413 54.8611 64.4329 54.982 64.4329C55.6565 64.4295 56.3251 64.4312 56.9373 64.4312C57.0393 64.4277 57.0848 64.3797 57.1359 64.3078C58.1251 62.7594 59.056 61.2858 60.0538 59.7621C60.1096 59.6723 60.1611 59.7406 60.1632 59.78C60.1847 60.1335 60.2706 60.617 60.4806 60.9345C60.8578 61.5215 61.3923 61.7737 61.985 61.7776C62.4567 61.7847 62.6954 61.7113 63.204 61.5213C63.6179 61.3678 63.9501 61.1664 64.2051 60.9841C64.3539 60.8803 64.3801 61.0539 64.3765 61.0804C64.1475 62.3095 64.4302 63.766 65.6518 64.3699C67.1138 65.0907 68.7199 64.0775 69.6441 63.1629C69.7347 63.0749 69.8316 63.0841 69.8409 63.2741C69.8624 63.6234 70.0184 64.0378 70.3073 64.3278C71.0818 65.105 72.6446 64.797 74.2129 63.5831C75.2199 62.8058 76.2735 61.7077 77.2252 60.545C77.261 60.4999 77.2867 60.4276 77.218 60.3543C77.0731 60.2025 76.8635 60.029 76.7197 59.8954C76.6542 59.8395 76.558 59.8556 76.5029 59.8973C75.5273 60.8251 74.6492 61.8831 73.38 62.7581C72.9519 63.0569 72.2697 63.2979 71.9633 62.8831C71.8438 62.722 71.8574 62.4994 71.9741 62.2071C72.3441 61.2843 78.2042 52.3671 78.5083 51.841Z" fill="white"/>
<path id="path745" d="M50.9433 52.9162C50.9683 53.0486 51.0199 53.0744 51.08 53.0633C51.3784 53.0036 51.705 52.7581 51.8984 52.4735C52.0744 52.2156 52.157 51.8433 51.9821 51.6941C51.826 51.5599 51.572 51.5978 51.3837 51.7642C51.0087 52.0955 50.8949 52.5654 50.9433 52.9162ZM36.0109 64.3984C33.8264 64.4127 31.9019 63.0636 31.6811 60.7266C31.5583 59.4316 31.9244 58.2774 32.6572 57.3266C33.3075 56.4793 34.4078 55.7754 35.3392 55.6035C35.6423 55.548 36.0495 55.582 36.2179 55.7838C36.4819 56.0912 36.4061 56.4288 36.142 56.5635C35.4314 56.9263 34.5764 57.5474 34.1533 58.3955C33.8102 59.0877 33.7408 59.9219 34.265 60.7167C35.1422 62.0411 37.5875 62.0776 39.8612 59.9653C40.4243 59.4483 40.9282 58.9516 41.4404 58.3633C42.4418 57.2183 42.7749 56.8011 44.106 54.9546C44.1203 54.9332 44.1275 54.9052 44.1203 54.8916C44.1096 54.8666 44.0917 54.863 44.052 54.8594C43.1634 54.8845 42.3886 55.1489 41.6356 55.7117C41.4187 55.8698 41.1066 55.8476 40.97 55.6394C40.8179 55.404 40.927 55.0975 41.1772 54.9244C42.3886 54.0819 43.7119 53.9291 45.0633 53.701C45.0622 53.701 45.1571 53.7046 45.2344 53.603C45.7891 52.891 46.208 52.2488 46.7994 51.5287C47.3953 50.7982 48.165 50.1273 48.753 49.6234C49.5739 48.9176 50.1003 48.6801 50.6353 48.389C50.7763 48.3153 50.6175 48.2273 50.5745 48.2273C47.5875 47.6659 44.4827 46.9394 41.5163 48.0376C39.4618 48.8043 38.5614 50.4335 38.9945 51.5221C39.3026 52.2944 40.3182 52.4199 41.269 51.9546C42.0588 51.5677 42.7896 50.944 43.3077 50.1412C43.5975 49.6954 44.2082 50.0171 43.8783 50.7912C43.0102 52.8315 41.3518 54.4499 39.3318 54.5183C37.6126 54.5741 36.5034 53.3093 36.507 51.749C36.5141 48.6715 39.9401 46.6442 43.5407 46.3412C47.8769 45.9828 51.984 47.1379 56.2893 47.6601C59.588 48.0596 62.7506 48.0679 66.0662 47.3062C66.4582 47.221 66.7332 47.4711 66.7076 47.867C66.6754 48.4393 66.232 48.9904 65.1401 49.586C63.8981 50.2671 62.5989 50.4738 61.2419 50.4849C57.9607 50.5135 54.9043 49.2332 51.7414 48.5459C51.745 48.6844 51.7815 48.8493 51.6656 48.9368C49.9137 50.229 48.33 51.5413 47.2694 53.3844C47.2337 53.427 47.2515 53.4674 47.3149 53.4631C48.2357 53.4141 49.0638 53.3905 49.9236 53.3218C50.0738 53.3075 50.0795 53.2717 50.0663 53.1622C49.9901 52.5269 50.1758 51.8024 50.7346 51.3041C51.3066 50.7913 52.0227 50.733 52.4975 51.1023C53.0372 51.5229 52.9894 52.2793 52.6942 52.8465C52.3937 53.422 51.8973 53.7299 51.4209 53.8793C51.4209 53.8793 51.3207 53.9008 51.3357 53.9917C51.3536 54.137 52.0036 54.4967 52.0591 54.5925C52.1128 54.6837 52.0842 54.8251 51.9865 54.9335C51.9178 55.0122 51.8101 55.0859 51.6723 55.0834C51.561 55.0812 51.4934 55.0426 51.351 54.9657C51.0598 54.8079 50.6957 54.5485 50.4529 54.2426C50.3703 54.1392 50.328 54.1371 50.1216 54.1486C49.1913 54.2022 47.7407 54.3425 46.7579 54.4652C46.5196 54.4938 46.4845 54.5393 46.4355 54.6219C44.8686 57.2059 43.1954 59.9923 41.3585 61.8579C39.3881 63.8582 37.7495 64.3847 36.0109 64.3984Z" fill="white"/>
<path id="path749" d="M55.0045 43.5977C34.5777 43.5977 18.0202 49.2423 18.0202 56.1494C18.0202 63.057 34.5777 68.7021 55.0045 68.7021C75.431 68.7021 91.9874 63.057 91.9874 56.1494C91.9874 49.2423 75.431 43.5977 55.0045 43.5977ZM55.0045 69.8396C33.8341 69.8396 16.6724 63.7103 16.6724 56.1494C16.6724 48.5873 33.8341 42.4591 55.0045 42.4591C76.173 42.4591 93.3336 48.5873 93.3336 56.1494C93.3336 63.7103 76.173 69.8396 55.0045 69.8396Z" fill="white"/>
</g>
</g>
</svg>
