<svg width="110" height="110" viewBox="0 0 110 110" fill="none" xmlns="http://www.w3.org/2000/svg">
<g id="Frame 1707481655">
<g id="layer1">
<path id="path737" d="M55 41.1448C32.7962 41.1448 14.9976 47.8002 14.9976 56.1445C14.9976 64.438 32.9429 71.1448 55 71.1448C77.0576 71.1448 95.003 64.4155 95.003 56.1445C95.003 47.8735 77.0576 41.1448 55 41.1448Z" fill="#000E32"/>
<path id="path741" d="M70.7643 59.3213C70.775 59.39 70.8652 59.4558 70.9525 59.487C70.9847 59.4977 71.0004 59.5192 70.9668 59.5922C70.7178 60.1261 70.4887 60.4339 70.1765 60.8978C69.8892 61.3264 69.5656 61.6608 69.174 61.9825C68.5831 62.4714 67.7626 63.0036 67.0843 62.6458C66.783 62.4895 66.6526 62.0677 66.6584 61.7263C66.6727 60.7663 67.0998 59.7808 67.8884 58.8121C68.8498 57.6285 69.9127 57.0146 70.6102 57.3502C71.3319 57.6944 71.1016 58.5299 70.7783 59.1857C70.7533 59.2366 70.7536 59.2798 70.7643 59.3213ZM78.5083 51.8409C78.5602 51.7493 78.5055 51.6824 78.3899 51.6824C77.7871 51.6824 76.9962 51.6837 76.3682 51.6837C76.2186 51.6837 76.1413 51.7016 76.0708 51.8411C75.839 52.2853 73.0139 56.5193 72.488 57.3415C72.3993 57.4668 72.2912 57.4492 72.2787 57.3057C72.2254 56.8174 71.8036 56.256 71.1392 55.9874C70.6328 55.782 70.1378 55.7448 69.6231 55.8131C68.6939 55.938 67.866 56.4282 67.1383 56.981C66.0413 57.8149 65.0949 58.8957 63.8732 59.6943C63.2063 60.1291 62.293 60.5082 61.6818 59.9423C61.1287 59.4295 61.1912 58.2906 62.0375 57.4097C62.1266 57.3174 62.2335 57.3954 62.2167 57.4773C62.1369 57.8757 62.2346 58.2719 62.5373 58.5496C62.9065 58.8806 63.4348 58.918 63.8871 58.697C64.4207 58.4326 64.7343 57.9221 64.8257 57.3426C64.967 56.4437 64.2751 55.6509 63.4093 55.5873C62.7059 55.5379 62.0314 55.7826 61.3742 56.325C61.0447 56.5984 60.8575 56.8004 60.5725 57.2056C60.5031 57.3055 60.3965 57.3154 60.3997 57.168C60.4319 56.0172 59.9564 55.3697 59.0049 55.3486C58.2663 55.3307 57.4774 55.7316 56.8624 56.2219C56.1883 56.7633 55.5988 57.4808 54.9668 58.155C54.8881 58.238 54.8198 58.2341 54.7976 58.073C54.7797 57.3105 54.5868 56.5719 54.234 56.0475C54.1091 55.865 53.8462 55.7748 53.6254 55.8979C53.5234 55.9537 53.1687 56.1169 52.9104 56.3248C52.7823 56.4304 52.7321 56.5832 52.789 56.779C53.1297 57.9182 53.0549 59.2135 52.5926 60.3074C52.1682 61.3093 51.3434 62.213 50.374 62.5188C49.7353 62.7213 49.0715 62.6223 48.6606 62.0561C48.0964 61.2747 48.3243 59.9157 49.1653 58.7873C49.9075 57.7937 50.9812 57.1626 52.0521 56.7562C52.178 56.7075 52.2041 56.6267 52.1684 56.5197C52.1104 56.3436 52.0174 56.1039 51.9798 55.9944C51.8814 55.7329 51.6065 55.6906 51.2706 55.7271C50.4925 55.8177 49.7906 56.0843 49.0972 56.4555C47.2816 57.4278 46.3713 59.3095 45.9725 60.3161C45.7803 60.7998 45.6161 61.1014 45.4038 61.3689C45.1176 61.7286 44.7583 62.0562 44.1013 62.6332C44.0419 62.6861 43.9975 62.7963 44.0476 62.899C44.1145 63.0378 44.4562 63.5204 44.5526 63.5634C44.6596 63.616 44.7838 63.5419 44.8335 63.5069C45.2932 63.1952 45.8432 62.7013 46.1124 62.3663C46.2068 62.2514 46.3038 62.2997 46.3539 62.474C46.6051 63.3701 47.2628 64.1019 48.1723 64.408C49.8371 64.9694 51.5637 64.1568 52.8671 62.7421C53.6954 61.8429 53.9944 61.2646 54.3119 60.8715C54.85 60.2048 55.9113 58.7134 57.1755 57.7559C57.6391 57.4027 58.1877 57.1334 58.4636 57.3123C58.6851 57.4558 58.7567 57.7892 58.4014 58.4353C57.1124 60.789 55.216 63.5543 54.8682 64.2249C54.8045 64.3412 54.8611 64.4328 54.982 64.4328C55.6565 64.4294 56.3251 64.4311 56.9373 64.4311C57.0393 64.4275 57.0848 64.3796 57.1359 64.3077C58.1251 62.7593 59.056 61.2857 60.0538 59.762C60.1096 59.6722 60.1611 59.7405 60.1632 59.7799C60.1847 60.1334 60.2706 60.6169 60.4806 60.9344C60.8578 61.5214 61.3923 61.7736 61.985 61.7774C62.4567 61.7846 62.6954 61.7112 63.204 61.5212C63.6179 61.3677 63.9501 61.1663 64.2051 60.984C64.3539 60.8802 64.3801 61.0538 64.3765 61.0802C64.1475 62.3094 64.4302 63.7659 65.6518 64.3697C67.1138 65.0906 68.7199 64.0774 69.6441 63.1628C69.7347 63.0747 69.8316 63.084 69.8409 63.274C69.8624 63.6232 70.0184 64.0376 70.3073 64.3277C71.0818 65.1049 72.6446 64.7969 74.2129 63.5829C75.2199 62.8057 76.2735 61.7076 77.2252 60.5448C77.261 60.4998 77.2867 60.4275 77.218 60.3541C77.0731 60.2024 76.8635 60.0289 76.7197 59.8952C76.6542 59.8394 76.558 59.8555 76.5029 59.8972C75.5273 60.825 74.6492 61.883 73.38 62.758C72.9519 63.0568 72.2697 63.2978 71.9633 62.8829C71.8438 62.7219 71.8574 62.4993 71.9741 62.207C72.3441 61.2842 78.2042 52.367 78.5083 51.8409Z" fill="white"/>
<path id="path745" d="M50.9433 52.9162C50.9683 53.0486 51.0199 53.0744 51.08 53.0633C51.3784 53.0036 51.705 52.7581 51.8984 52.4735C52.0744 52.2156 52.157 51.8433 51.9821 51.6941C51.826 51.5599 51.572 51.5978 51.3837 51.7642C51.0087 52.0955 50.8949 52.5654 50.9433 52.9162ZM36.0109 64.3984C33.8264 64.4127 31.9019 63.0636 31.6811 60.7266C31.5583 59.4316 31.9244 58.2774 32.6572 57.3266C33.3075 56.4793 34.4078 55.7754 35.3392 55.6035C35.6423 55.548 36.0495 55.582 36.2179 55.7838C36.4819 56.0912 36.4061 56.4288 36.142 56.5635C35.4314 56.9263 34.5764 57.5474 34.1533 58.3955C33.8102 59.0877 33.7408 59.9219 34.265 60.7167C35.1422 62.0411 37.5875 62.0776 39.8612 59.9653C40.4243 59.4483 40.9282 58.9516 41.4404 58.3633C42.4418 57.2183 42.7749 56.8011 44.106 54.9546C44.1203 54.9332 44.1275 54.9052 44.1203 54.8916C44.1096 54.8666 44.0917 54.863 44.052 54.8594C43.1634 54.8845 42.3886 55.1489 41.6356 55.7117C41.4187 55.8698 41.1066 55.8476 40.97 55.6394C40.8179 55.404 40.927 55.0975 41.1772 54.9244C42.3886 54.0819 43.7119 53.9291 45.0633 53.701C45.0622 53.701 45.1571 53.7046 45.2344 53.603C45.7891 52.891 46.208 52.2488 46.7994 51.5287C47.3953 50.7982 48.165 50.1273 48.753 49.6234C49.5739 48.9176 50.1003 48.6801 50.6353 48.389C50.7763 48.3153 50.6175 48.2273 50.5745 48.2273C47.5875 47.6659 44.4827 46.9394 41.5163 48.0376C39.4618 48.8043 38.5614 50.4335 38.9945 51.5221C39.3026 52.2944 40.3182 52.4199 41.269 51.9546C42.0588 51.5677 42.7896 50.944 43.3077 50.1412C43.5975 49.6954 44.2082 50.0171 43.8783 50.7912C43.0102 52.8315 41.3518 54.4499 39.3318 54.5183C37.6126 54.5741 36.5034 53.3093 36.507 51.749C36.5141 48.6715 39.9401 46.6442 43.5407 46.3412C47.8769 45.9828 51.984 47.1379 56.2893 47.6601C59.588 48.0596 62.7506 48.0679 66.0662 47.3062C66.4582 47.221 66.7332 47.4711 66.7076 47.867C66.6754 48.4393 66.232 48.9904 65.1401 49.586C63.8981 50.2671 62.5989 50.4738 61.2419 50.4849C57.9607 50.5135 54.9043 49.2332 51.7414 48.5459C51.745 48.6844 51.7815 48.8493 51.6656 48.9368C49.9137 50.229 48.33 51.5413 47.2694 53.3844C47.2337 53.427 47.2515 53.4674 47.3149 53.4631C48.2357 53.4141 49.0638 53.3905 49.9236 53.3218C50.0738 53.3075 50.0795 53.2717 50.0663 53.1622C49.9901 52.5269 50.1758 51.8024 50.7346 51.3041C51.3066 50.7913 52.0227 50.733 52.4975 51.1023C53.0372 51.5229 52.9894 52.2793 52.6942 52.8465C52.3937 53.422 51.8973 53.7299 51.4209 53.8793C51.4209 53.8793 51.3207 53.9008 51.3357 53.9917C51.3536 54.137 52.0036 54.4967 52.0591 54.5925C52.1128 54.6837 52.0842 54.8251 51.9865 54.9335C51.9178 55.0122 51.8101 55.0859 51.6723 55.0834C51.561 55.0812 51.4934 55.0426 51.351 54.9657C51.0598 54.8079 50.6957 54.5485 50.4529 54.2426C50.3703 54.1392 50.328 54.1371 50.1216 54.1486C49.1913 54.2022 47.7407 54.3425 46.7579 54.4652C46.5196 54.4938 46.4845 54.5393 46.4355 54.6219C44.8686 57.2059 43.1954 59.9923 41.3585 61.8579C39.3881 63.8582 37.7495 64.3847 36.0109 64.3984Z" fill="white"/>
<path id="path749" d="M55.0045 43.5976C34.5777 43.5976 18.0202 49.2422 18.0202 56.1493C18.0202 63.0569 34.5777 68.7019 55.0045 68.7019C75.431 68.7019 91.9874 63.0569 91.9874 56.1493C91.9874 49.2422 75.431 43.5976 55.0045 43.5976ZM55.0045 69.8395C33.8341 69.8395 16.6724 63.7102 16.6724 56.1493C16.6724 48.5872 33.8341 42.459 55.0045 42.459C76.173 42.459 93.3336 48.5872 93.3336 56.1493C93.3336 63.7102 76.173 69.8395 55.0045 69.8395Z" fill="white"/>
</g>
</g>
</svg>
