<svg width="110" height="110" viewBox="0 0 110 110" fill="none" xmlns="http://www.w3.org/2000/svg">
<g id="Frame 1707481656">
<g id="Group">
<path id="svg_6" d="M64.5165 40.8801C63.5658 45.1581 63.1744 47.1433 62.3914 50.2189C61.6365 53.1828 61.0493 55.9509 60.0427 57.293C59.0361 58.663 57.666 58.9426 56.7432 59.0545C56.2679 59.1104 55.9044 59.1384 54.8698 59.1384C53.8353 59.1384 53.4718 59.1104 52.9964 59.0545C52.0737 58.9426 50.7036 58.663 49.697 57.293C48.6904 55.9509 48.1032 53.1828 47.3762 50.2189C46.5933 47.1153 46.2018 45.1581 45.2511 40.8801C45.2511 40.8801 44.3004 40.9081 43.881 40.936C43.2938 40.964 42.8464 41.0199 42.3711 41.0759C42.3711 41.0759 42.9303 49.8834 43.182 53.6301C43.4336 57.5446 43.909 64.1712 44.3284 69.1762C44.3284 69.1762 45.1393 69.316 46.4814 69.3719C47.8795 69.4558 48.5226 69.4558 48.5226 69.4558C49.1098 67.2469 49.8088 64.1992 50.6197 62.8851C51.2908 61.8226 52.2974 61.7107 52.8846 61.6268C53.7793 61.515 54.5623 61.487 54.8978 61.487C55.2613 61.487 56.0162 61.487 56.911 61.6268C57.4982 61.7107 58.5048 61.8226 59.1759 62.8851C59.9868 64.1992 60.7138 67.2469 61.273 69.4558C61.273 69.4558 61.8881 69.4558 63.2862 69.3719C64.6284 69.288 65.4392 69.1762 65.4392 69.1762C65.8587 64.1712 66.334 57.5726 66.5856 53.6301C66.8373 49.9114 67.3965 41.0759 67.3965 41.0759C66.9212 41.0199 66.4458 40.964 65.8866 40.936C65.4672 40.9081 64.5165 40.8801 64.5165 40.8801Z" fill="#000E32"/>
<path id="svg_7" d="M75.616 46.0806C75.0568 40.4885 71.3099 39.3141 68.0384 38.7549C66.3887 38.4753 63.4528 38.2516 61.5794 38.1678C59.9296 38.0559 56.071 38 54.8966 38C53.7222 38 49.8635 38.0559 48.2138 38.1678C46.3404 38.2516 43.4045 38.4753 41.7547 38.7549C38.4833 39.3141 34.7364 40.4885 34.1772 46.0806C34.0094 47.6184 33.9815 49.6036 34.0094 51.7286C34.0654 55.2796 34.3729 57.6562 34.5407 59.3339C34.6526 60.4803 35.1279 63.8914 35.7431 65.653C36.5819 68.0855 37.3369 68.7845 38.2316 69.5115C39.8534 70.8257 42.5377 71.2451 43.0969 71.3569C46.1167 71.8882 52.2123 72 54.9246 72C57.6088 72 63.7324 71.9161 66.7522 71.3569C67.3115 71.2451 69.9957 70.8536 71.6175 69.5115C72.5123 68.7845 73.2672 68.0855 74.1061 65.653C74.7212 63.8914 75.1966 60.4523 75.3084 59.3339C75.4762 57.6842 75.7837 55.2796 75.8397 51.7286C75.8117 49.5757 75.7558 47.5905 75.616 46.0806ZM73.5468 55.4753C73.2113 59.949 72.8198 62.6332 72.2606 64.5625C71.7573 66.2681 71.1422 67.3865 70.2474 68.1974C68.7375 69.5674 66.6683 69.847 65.438 70.0428C62.8097 70.4342 58.3638 70.574 54.8966 70.574C51.4014 70.574 46.9835 70.4342 44.3552 70.0428C43.1249 69.847 41.0557 69.5674 39.5458 68.1974C38.651 67.3865 38.0359 66.2401 37.5326 64.5625C36.9733 62.6332 36.5539 59.949 36.2464 55.4753C36.0506 52.7911 36.0786 48.4293 36.3862 46.0806C36.8056 42.5576 38.5392 40.7961 42.2581 40.153C43.9917 39.8454 46.3404 39.6217 48.5494 39.5099C50.3389 39.398 53.2469 39.3421 54.8966 39.3421C56.5184 39.3141 59.4543 39.398 61.2159 39.5099C63.4248 39.6217 65.7736 39.8454 67.5072 40.153C71.226 40.824 72.9596 42.5855 73.407 46.0806C73.7146 48.4013 73.7426 52.7632 73.5468 55.4753Z" fill="#000E32"/>
</g>
</g>
</svg>
