<svg width="110" height="110" viewBox="0 0 110 110" fill="none" xmlns="http://www.w3.org/2000/svg">
<g id="Frame 1707481664">
<g id="Group 1707478685">
<path id="Vector" fillRule="evenodd" clipRule="evenodd" d="M61.5826 58.4646C62.0345 60.7802 60.817 62.7068 59.8129 64.5706C58.6896 66.3089 56.8446 67.8024 54.6168 67.5765C49.7456 67.5092 44.9073 66.7679 40.2394 65.3738C40.0263 65.3185 39.8409 65.1867 39.7186 65.0036C39.6821 64.8817 39.6837 64.7516 39.7229 64.6305C39.7621 64.5095 39.8372 64.4032 39.9382 64.3258C44.0675 60.9873 48.9813 59.4372 53.8323 57.8119C55.646 57.291 57.5977 56.7263 59.6058 56.9898C60.0344 57.0447 60.4415 57.2093 60.7878 57.4677C61.1342 57.726 61.4079 58.0694 61.5826 58.4646ZM78.5957 48.5682C80.9114 50.4508 82.9886 53.0677 82.2983 56.2054C81.1373 60.8367 76.098 63.3029 72.0817 64.8718C69.8952 65.6967 67.621 66.2673 65.3041 66.5724C65.1535 66.5724 64.9087 66.5724 64.871 66.3653L64.9275 66.1018C68.1804 62.302 70.9463 58.1111 73.1611 53.6262C74.2091 51.6683 75.1818 49.6539 76.0792 47.6708C76.1848 47.5404 76.3268 47.4443 76.4871 47.3947C77.3281 47.4637 77.9242 48.1226 78.5957 48.5682ZM46.013 43.6357L45.9377 43.9181C41.0239 49.5032 37.7794 55.9795 34.7295 62.4244C34.1019 62.9829 33.556 62.2361 33.01 61.9976C30.2864 60.2029 27.8201 57.3099 28.5292 53.8709C29.6714 49.3903 34.2839 46.9993 38.1308 45.374C40.4401 44.4824 42.8355 43.8326 45.2787 43.4349C45.5423 43.4349 45.8812 43.3972 46.013 43.6357ZM70.381 44.5331C70.6634 44.6837 71.0086 44.7402 71.1654 45.0226C71.3223 45.305 71.0148 45.5434 70.8454 45.7505C66.9796 48.7753 62.5554 50.4571 58.037 51.9318C55.7401 52.4903 53.4244 53.5007 50.864 52.9359C50.5564 52.8567 50.2677 52.7171 50.0145 52.5254C49.7613 52.3336 49.5488 52.0935 49.3892 51.8189C48.7617 50.0617 49.6151 48.2293 50.3619 46.6981C51.3535 44.7778 53.1043 42.5187 55.533 42.481C60.554 42.466 65.5523 43.1568 70.381 44.5331ZM76.8448 44.6837C80.7984 46.8487 85.2855 50.6579 84.8148 55.741C84.2751 60.4476 79.8885 63.7297 75.9663 65.7127C64.5196 71.1849 48.4353 71.3606 36.6184 66.5724C32.6209 64.9094 28.1401 62.0478 26.4583 57.7554C25.1718 54.2286 26.7407 50.5449 29.3701 48.1038C34.8801 43.0834 41.9213 41.3765 49.1319 40.3913C56.9134 39.4415 64.8086 40.2259 72.2511 42.6881C73.8323 43.2474 75.3734 43.9142 76.8637 44.6837H76.8448Z" fill="#000E32"/>
</g>
</g>
</svg>
