<svg width="110" height="110" viewBox="0 0 110 110" fill="none" xmlns="http://www.w3.org/2000/svg">
<g id="Frame 1707481654">
<g id="Group">
<path id="Vector" d="M54.5795 40.7795C39.4762 40.7795 27.3019 46.7972 27.3019 54.0293C27.3019 58.1287 32.2707 61.332 39.7945 63.1092L52.9369 48.1133H54.5795L43.2061 70C30.8234 67.8781 22 62.3544 22 55.631C22 46.9843 36.5947 40 54.5795 40C72.5644 40 87.1591 46.9843 87.1591 55.631C87.1591 62.3544 78.3357 67.8781 65.953 70L54.5795 48.1133H56.2221L69.3613 63.1092C76.8883 61.332 81.8539 58.1287 81.8539 54.0293C81.8539 46.7972 69.6796 40.7795 54.5763 40.7795H54.5795Z" fill="#000E32"/>
</g>
</g>
</svg>
