<svg width="110" height="110" viewBox="0 0 110 110" fill="none" xmlns="http://www.w3.org/2000/svg">
<g id="Frame 1707481666">
<g id="Group 1707478687">
<path id="Vector" d="M17.5066 37.6285C18.0167 37.6386 18.6001 37.4313 18.987 37.2456C19.2562 37.1144 19.4392 37.0128 19.4143 37.0128C19.0631 37.0047 18.4837 37 18.2704 37C17.3438 37 16.8573 37.5289 16.8573 37.5673C16.8445 37.5942 16.9757 37.6117 17.1789 37.6177C17.287 37.6275 17.3955 37.6311 17.504 37.6285" fill="#000E32"/>
<path id="Vector_2" d="M7.53846 45.6719C7.72015 45.9828 7.88703 46.4121 8.1111 46.6739C8.43476 47.0675 9.09218 47.729 10.0228 47.5708C10.4265 47.5036 10.4306 47.3804 10.4306 47.3804C10.9016 47.8414 11.6418 47.8245 11.6418 47.8245C11.557 47.5305 11.2273 46.9619 11.1808 46.6066C11.1558 46.3554 11.1773 46.1017 11.2441 45.8583C11.3787 45.4222 11.6371 44.8792 11.9231 44.6019C12.17 44.3483 12.8214 44.071 13.3361 44.4203C13.7506 44.7163 14.2365 45.6678 13.8327 47.0231C13.8072 47.118 13.357 48.087 12.8772 48.2283C12.8335 48.2408 12.7881 48.2465 12.7426 48.2451C12.419 48.2451 11.81 47.9006 11.81 47.9006C11.81 47.9006 11.7932 47.9894 11.8773 48.3467C11.9305 48.5392 12.0119 48.7592 12.0677 48.9348C12.0677 48.9348 11.9412 49.1421 11.8773 49.2625C11.7676 49.3971 11.6492 49.8682 11.9049 50.0593C11.9049 50.0593 12.9856 50.7887 14.0238 50.8439C14.7425 50.8843 15.013 50.4045 15.013 50.4045C15.5399 49.6811 15.9436 49.0654 16.4934 48.558C18.0202 47.1624 20.1559 46.795 20.1559 46.795C20.2972 46.7795 22.6335 46.1221 26.6157 49.2962C25.4718 49.3769 24.1186 49.6575 23.0891 49.8345C20.1479 50.3634 18.2557 53.1163 17.7167 54.2455C16.2827 57.1868 19.2031 58.1955 19.2031 58.1955C20.099 58.0567 20.9455 57.6949 21.6649 57.1433C22.3843 56.5917 22.9534 55.868 23.3199 55.0388C23.3199 55.0388 23.8104 53.73 25.0984 54.1506C25.9563 54.4298 33.4423 57.0367 35.1245 57.4768C35.1245 57.4768 40.1403 58.7749 42.0372 56.4809C45.0416 57.4701 47.8725 57.9438 55.2858 56.9923C56.0492 56.8868 56.8201 56.8445 57.5905 56.8658C59.3265 56.9923 60.9105 58.1551 61.3775 58.9229C63.3357 62.025 65.8052 68.2037 74.4028 67.4595L78.2934 67.1082C80.6614 66.9682 82.5838 66.8626 84.5514 67.8989C85.3992 68.343 85.877 68.5045 87.315 69.8779C89.2939 71.7621 91.1188 73.7902 93.544 72.688C94.4046 72.291 95.3709 70.7621 95.3709 70.7621C95.2693 70.071 94.9732 69.3853 94.1933 68.8167C96.3903 69.3308 101.351 69.6666 103.277 66.3216C103.773 65.539 103.825 64.8499 103.635 64.4273C103.106 63.2618 101.652 63.638 101.652 63.638C100.963 63.7887 100.186 64.5707 99.0213 64.9239C96.5222 65.6534 94.5089 64.8015 94.5089 64.8015C90.6545 63.1286 78.247 56.0664 71.9373 52.9683C71.9373 52.9683 64.6148 49.5808 53.9811 45.3859C53.9811 45.3859 33.0843 36.5095 19.1372 37.2282C19.1372 37.2282 11.703 37.43 9.36403 40.6917C9.36403 40.6917 8.97981 41.1398 9.1911 41.6371C9.20604 41.6754 9.2098 41.7172 9.20194 41.7576C9.19408 41.798 9.17492 41.8353 9.14668 41.8652C9.14668 41.8652 7.89981 42.9876 7.25316 43.9943C7.03043 44.3388 6.81914 44.929 7.24643 45.3731C7.35415 45.4625 7.45205 45.5631 7.53846 45.6732M8.23155 44.5629C8.97644 42.8759 10.3801 42.637 10.5658 42.6034C10.7677 42.5859 11.4076 42.489 11.4076 42.489C13.1968 42.1842 14.0507 40.3236 14.0507 40.3236C12.8436 40.3067 12.2514 40.3909 12.2514 40.3909C11.0691 40.6028 10.6587 41.9984 10.6587 41.9857C9.66078 42.2266 9.6776 41.3531 9.85726 41.0974C10.0134 40.8525 10.6035 39.8222 14.4727 38.9279C14.4727 38.9279 16.3756 38.3573 20.4547 38.539L20.2811 38.8411C19.9238 39.5282 18.4946 40.9305 16.1199 40.4124C16.1199 40.4124 16.1495 41.4615 18.7099 41.8255C18.7099 41.8255 21.0361 42.242 24.9584 45.3839C24.9584 45.3839 23.081 41.6647 19.8942 40.7024C19.8942 40.7024 19.4951 40.6311 19.6869 40.3707C19.6869 40.3707 21.6578 38.5538 24.1953 38.4784C24.1953 38.4784 32.7795 37.6494 37.5436 44.1915C37.5436 44.1915 36.1076 41.415 35.0189 40.2078C35.0189 40.2078 39.9983 41.6142 47.676 44.2722C47.676 44.2722 52.9031 46.1073 56.242 47.4268C60.7665 49.1946 72.0618 53.582 79.2833 57.5071C80.5618 58.2002 93.5998 64.969 93.5998 64.969C97.2072 66.5887 99.7104 65.6184 99.7104 65.6184C100.523 65.3028 101.985 64.1656 102.639 64.8109C102.967 65.1473 103.016 65.5868 102.861 66.0221C102.664 66.6627 101.736 67.5274 100.613 68.0409C99.4103 68.561 96.9448 68.701 95.5176 68.4702C95.5135 68.4702 92.7412 68.1869 90.3248 65.6641C89.5503 64.8714 88.6116 63.9664 87.7449 63.0701C87.3621 62.6703 86.4173 61.7357 84.8515 61.5264C83.2278 61.3023 79.2402 61.1987 77.7538 60.7061C76.7492 60.3697 75.542 59.6967 73.9432 57.3315C73.1673 56.1915 72.6176 55.8847 71.5645 55.2165C71.5645 55.2165 72.372 55.8618 72.8309 56.6592C73.4843 57.8341 73.8335 58.6887 74.1888 59.3065C74.5421 59.9383 74.9478 60.4861 75.5628 60.9786C76.3158 61.5964 76.7956 61.702 77.6158 61.8393C78.4072 61.9685 81.0712 61.947 83.353 61.9113C85.6004 61.8709 86.6051 62.6004 87.3426 63.2201C88.0255 63.7934 89.195 65.4407 89.9204 66.1507C90.7723 66.9965 91.4008 67.8787 93.1086 68.7326C93.692 69.0267 94.6563 69.7514 94.6098 70.46C93.8447 71.213 92.8993 71.4223 90.6303 70.8173C90.781 70.9802 91.9761 72.2197 94.0116 71.6315C93.3919 72.1416 92.7869 72.3549 92.1612 72.3213C90.0341 72.2069 87.9475 69.5892 86.782 68.631C85.8857 67.8955 85.7841 67.7132 84.2768 66.6648C81.985 65.0895 76.8447 65.5336 76.8447 65.5336L73.057 65.7355C65.7016 66.2812 62.613 59.7856 61.7988 58.4256C61.5648 58.0246 61.3061 57.6385 61.0243 57.2695C60.6461 56.7723 58.6267 54.1822 56.6013 53.3175C56.6013 53.3175 58.5991 55.0429 58.4895 56.1673C58.4895 56.1673 57.6537 55.7952 55.4002 56.1128C45.7166 57.4808 42.4194 55.0705 42.4194 55.0705C42.8615 53.119 41.5062 51.1454 41.5062 51.1454C42.2572 51.3742 47.0186 52.9891 51.5479 52.0652C51.5479 52.0652 44.185 52.1137 39.0239 48.0143C39.0239 48.0143 42.2316 52.0208 41.4686 54.6472C41.4686 54.6472 40.9417 57.4384 35.3365 56.3201C34.7484 56.2016 34.0432 56.0004 25.6643 53.6796C23.6893 53.0982 23.0144 54.0348 22.6551 54.5947C22.6362 55.4157 21.6592 56.386 21.1666 56.6881C18.576 56.2232 19.6082 53.8276 19.6082 53.8276C17.9778 56.1471 19.6714 57.1814 20.2138 57.2467C19.9321 57.3914 19.6396 57.5142 19.339 57.6141C19.339 57.6141 17.2093 56.3577 18.4024 54.2959C20.0557 51.4186 21.7406 50.4947 24.8258 50.2194C26.1716 50.0848 27.2913 49.9974 28.1479 50.1118C30.3887 50.4119 31.799 51.6763 35.138 52.0107C28.0355 49.9112 28.0147 45.8132 27.9938 45.7345C27.9938 45.7244 27.9871 45.7244 27.9871 45.7244C27.5961 47.0749 27.8074 48.2088 28.1607 49.1831C28.0591 49.1434 26.5007 48.1327 25.9045 47.7646C23.3542 46.2122 21.3328 45.9478 21.3328 45.9478C20.4957 45.8334 20.09 44.8159 20.09 44.8159C20.0673 44.7637 20.0403 44.7136 20.0092 44.6659C18.8357 42.6471 17.6541 42.6256 17.6541 42.6256C18.3236 43.5004 18.3391 44.7715 18.3391 44.7715C18.6836 47.2613 15.8494 48.0304 15.8494 48.0304C14.116 50.2228 14.2001 50.2699 13.824 50.3311C13.4371 50.3836 12.5845 49.9523 12.5845 49.9523C12.4499 49.7504 12.6457 49.5378 12.6457 49.5378C12.9761 49.28 13.2359 49.0264 13.2359 49.0264C15.0715 47.153 15.2916 46.2432 15.0608 45.038C14.6039 42.6027 12.853 42.8941 12.853 42.8941C12.0354 42.9372 11.668 43.6599 11.668 43.6599C11.3827 44.1107 10.7657 45.4895 10.7657 45.4895C10.3868 46.3078 9.99184 46.4854 9.79738 46.5211C9.69841 46.532 9.59872 46.5349 9.49928 46.5298C8.90242 46.5083 8.46504 45.9733 8.46504 45.9733C8.43648 45.9511 8.4121 45.924 8.39304 45.8933C7.85472 45.322 8.23222 44.5629 8.23222 44.5629M11.051 41.9641C11.051 41.9641 11.1183 41.736 11.1398 41.6808C11.1755 41.6364 11.3827 41.047 11.9116 40.9918C11.9116 40.9918 12.2158 40.9682 12.6922 40.9682C12.6922 40.9682 12.4594 41.7084 11.5435 41.8713C11.3822 41.9157 11.2174 41.9467 11.051 41.9641Z" fill="#000E32"/>
</g>
</g>
</svg>
