<svg width="110" height="110" viewBox="0 0 110 110" fill="none" xmlns="http://www.w3.org/2000/svg">
<g id="Frame 1707481659">
<g id="layer1">
<g id="g902">
<path id="path12" d="M54.5865 66.1975C53.9578 65.4702 52.9763 65.0684 52.0143 65.0684C49.5582 65.0684 47.9425 66.9869 47.9425 69.3904C47.9425 71.6182 49.4706 73.5372 52.0143 73.5372C53.2172 73.5372 54.153 73.0352 54.8023 72.2046L55.7954 72.9341C55.3896 73.4266 54.1708 74.5817 51.9851 74.5817C48.7074 74.5817 46.6858 71.9128 46.6858 69.3904C46.6858 67.8229 47.2367 66.4827 48.1793 65.5348C49.1218 64.587 50.4632 64.0239 52.0581 64.0239C53.373 64.0239 54.742 64.4914 55.5686 65.4673L54.5865 66.1975Z" fill="#000E32" stroke="#000E32" strokeWidth="0.2641"/>
<path id="path14" d="M64.6948 69.3017C64.6948 71.6101 66.1963 73.5372 68.5397 73.5372C70.8831 73.5372 72.3846 71.6101 72.3846 69.3017C72.3846 66.9932 70.883 65.0684 68.5397 65.0684C66.1964 65.0684 64.6948 66.9932 64.6948 69.3017ZM73.5391 69.3017C73.5391 72.2938 71.4628 74.5817 68.5397 74.5817C65.615 74.5817 63.5403 72.2939 63.5403 69.3017C63.5403 66.314 65.615 64.0239 68.5397 64.0239C71.4628 64.0239 73.5391 66.314 73.5391 69.3017Z" fill="#000E32" stroke="#000E32" strokeWidth="0.2641"/>
<path id="path16" d="M5.94465 73.5366H10.4211V74.5812H4.71603V64.549H5.8126V73.4046V73.5366H5.94465Z" fill="#000E32" stroke="#000E32" strokeWidth="0.2641"/>
<path id="path18" d="M18.8098 64.549H19.9064V74.5812H18.8098V64.549Z" fill="#000E32" stroke="#000E32" strokeWidth="0.2641"/>
<path id="path20" d="M36.8056 72.8833V64.549H37.931V74.5812H36.3661L30.7015 66.1775L30.6622 66.1193H30.592H30.5628H30.4308V66.2513V74.5812H29.3054L29.3054 64.549H30.9267L36.5329 72.9566L36.5721 73.0154H36.6428H36.6736H36.8056V72.8833Z" fill="#000E32" stroke="#000E32" strokeWidth="0.2641"/>
<path id="path22" d="M83.9793 73.5366H88.4557V74.5812H82.7507V64.549H83.8473V73.4046V73.5366H83.9793Z" fill="#000E32" stroke="#000E32" strokeWidth="0.2641"/>
<path id="path24" d="M104.189 72.8833V64.549H105.285V74.5812H103.757L98.2142 66.1786L98.175 66.1193H98.1039H98.0695H97.9375V66.2513V74.5812H96.845L96.8449 64.549H98.4253L103.918 72.9556L103.957 73.0154H104.029H104.057H104.189V72.8833Z" fill="#000E32" stroke="#000E32" strokeWidth="0.2641"/>
</g>
<path id="path26" d="M58.1789 47.947L58.1794 48.0643L58.2959 48.0776C58.8171 48.1372 59.2856 48.1964 59.6238 48.2407C59.7929 48.2628 59.9293 48.2812 60.0235 48.2941L60.0558 48.2986V48.3702L60.0237 48.3745C59.9295 48.3873 59.793 48.4056 59.6238 48.4276C59.2856 48.4717 58.817 48.5309 58.2957 48.5913L58.1794 48.6048L58.1789 48.7219C58.1656 51.6213 58.0017 54.8858 57.5455 57.8992C57.525 57.9014 57.5016 57.9038 57.4753 57.9064C57.3649 57.9175 57.2042 57.9325 57.004 57.9481C56.6035 57.9792 56.0449 58.0126 55.4132 58.0217L55.2922 58.0235L55.2834 58.1441C55.2399 58.7403 55.2006 59.201 55.1721 59.5124C55.1579 59.6681 55.1464 59.7865 55.1385 59.8659L55.1384 59.8675H55.0617L55.0615 59.8659C55.0536 59.7865 55.0421 59.6681 55.0279 59.5124C54.9995 59.201 54.9602 58.7403 54.9167 58.1441L54.9079 58.0235L54.7869 58.0217C54.1551 58.0126 53.5966 57.9792 53.196 57.9481C52.9958 57.9325 52.8352 57.9175 52.7248 57.9065C52.6984 57.9038 52.675 57.9014 52.6545 57.8992C52.195 54.8858 52.0311 51.6213 52.0195 48.722L52.019 48.6048L51.9027 48.5913C51.3814 48.5309 50.9133 48.4717 50.5754 48.4276C50.4065 48.4056 50.2702 48.3873 50.1761 48.3745L50.1443 48.3702V48.2985L50.1763 48.2941C50.2703 48.2812 50.4066 48.2628 50.5755 48.2407C50.9133 48.1964 51.3813 48.1372 51.9025 48.0776L52.019 48.0643L52.0195 47.9469C52.0311 45.0476 52.195 41.7816 52.6545 38.7682C52.6749 38.7661 52.6983 38.7637 52.7246 38.7611C52.835 38.7502 52.9957 38.7354 53.1959 38.72C53.5965 38.6893 54.1551 38.6563 54.7869 38.6472L54.9079 38.6455L54.9167 38.5248C54.9602 37.9286 54.9995 37.4675 55.0279 37.1557C55.0421 36.9997 55.0536 36.8811 55.0615 36.8016L55.0617 36.7998H55.1383L55.1385 36.8016C55.1464 36.8811 55.1579 36.9997 55.1721 37.1557C55.2006 37.4675 55.2399 37.9286 55.2834 38.5248L55.2922 38.6455L55.4132 38.6472C56.045 38.6563 56.6036 38.6893 57.0042 38.72C57.2044 38.7354 57.365 38.7502 57.4755 38.7611C57.5017 38.7637 57.5251 38.7661 57.5455 38.7682C58.0018 41.7816 58.1657 45.0477 58.1789 47.947ZM57.0892 39.5296L57.073 39.4163H56.9585H55.4855H55.3447L55.3537 39.5567C55.4759 41.4732 55.6031 44.2715 55.6165 47.7197L55.617 47.8452L55.7424 47.8511C56.2686 47.8758 56.8777 47.927 57.4729 47.9882L57.6194 48.0033L57.6185 47.856C57.6067 45.9903 57.5011 42.396 57.0892 39.5296ZM53.2399 39.4163H53.1255L53.1092 39.5295C52.6956 42.3961 52.5933 45.9905 52.5816 47.856L52.5807 48.0033L52.7272 47.9882C53.319 47.927 53.9314 47.8758 54.4577 47.8511L54.5831 47.8452L54.5835 47.7196C54.5953 44.2716 54.7259 41.4733 54.8447 39.5565L54.8534 39.4163H54.7129H53.2399ZM53.1092 57.1394L53.1255 57.2526H53.2399H54.7129H54.8534H55.3447H55.4855H56.9585H57.073L57.0892 57.1393C57.5011 54.2712 57.6067 50.6786 57.6185 48.8129L57.6194 48.6661L57.4733 48.6807C56.8778 48.7403 56.2685 48.7914 55.742 48.8178L55.617 48.8241L55.6165 48.9492C55.6034 52.324 55.4812 55.0747 55.3615 56.9885H54.8371C54.7203 55.0745 54.595 52.3238 54.5835 48.9493L54.5831 48.8241L54.4581 48.8178C53.9315 48.7914 53.3189 48.7403 52.7269 48.6807L52.5807 48.666L52.5816 48.8129C52.5933 50.6785 52.6956 54.2712 53.1092 57.1394Z" fill="#000E32" stroke="#000E32" strokeWidth="0.2641"/>
</g>
</g>
</svg>
