<svg width="110" height="110" viewBox="0 0 110 110" fill="none" xmlns="http://www.w3.org/2000/svg">
<g id="Frame 1707481660">
<g id="katman_1">
<path id="Vector" d="M75.7772 54.8185C75.7753 54.6947 75.7697 54.569 75.7641 54.4452C75.7584 54.3214 75.7509 54.1958 75.7434 54.072C75.6665 53.1098 75.5746 52.1663 75.3664 51.221C75.3439 51.1197 75.3195 51.0203 75.2933 50.9209C75.2689 50.8215 75.2426 50.7221 75.2164 50.6227C75.1901 50.5233 75.162 50.4239 75.132 50.3263C75.1019 50.2269 75.0719 50.1294 75.0419 50.03C75.0119 49.9325 74.9781 49.8349 74.9463 49.7374C74.9144 49.6399 74.8787 49.5423 74.845 49.4467C74.8093 49.3492 74.7737 49.2535 74.7381 49.1578C74.7005 49.0622 74.663 48.9665 74.6236 48.8709C74.5842 48.7752 74.5449 48.6795 74.5036 48.5858C74.4623 48.492 74.4211 48.3982 74.3779 48.3044C74.3348 48.2106 74.2916 48.1169 74.2466 48.025C74.2016 47.9312 74.1566 47.8393 74.1116 47.7474C74.0647 47.6555 74.0178 47.5635 73.969 47.4735C73.9202 47.3816 73.8715 47.2916 73.8208 47.2016C73.7702 47.1115 73.7196 47.0234 73.6689 46.9333C73.6164 46.8452 73.5639 46.7552 73.5095 46.6689C73.4551 46.5807 73.4007 46.4944 73.3463 46.4082C73.2919 46.3219 73.2337 46.2356 73.1775 46.1493C73.1212 46.063 73.0631 45.9786 73.003 45.8942C72.9449 45.8098 72.883 45.7254 72.823 45.6429C72.7629 45.5604 72.701 45.4778 72.6391 45.3953C72.5754 45.3128 72.5135 45.2321 72.4497 45.1515C72.3859 45.0708 72.3203 44.9902 72.2546 44.9114C72.189 44.8326 72.1233 44.7539 72.0558 44.6751C71.9883 44.5963 71.9208 44.5194 71.8532 44.4425C71.7838 44.3656 71.7144 44.2906 71.645 44.2156C71.5756 44.1405 71.5044 44.0655 71.4331 43.9924C71.3618 43.9192 71.2887 43.8461 71.2155 43.7729C71.1423 43.6998 71.0692 43.6285 70.9942 43.5572C70.9191 43.4859 70.8441 43.4165 70.7672 43.3471C70.6903 43.2777 70.6153 43.2102 70.5365 43.1408C70.4596 43.0733 70.3808 43.0058 70.302 42.9401C66.5675 39.7647 61.6926 38.2736 56.8496 38.0297C56.2625 37.9997 55.6641 38.0241 55.077 38.026C54.2874 38.0279 53.4077 37.9585 52.6293 38.0391C52.6086 38.041 52.6049 38.0429 52.588 38.0466C52.1641 38.1066 51.7402 38.1254 51.3163 38.1704C50.4966 38.2586 49.69 38.3748 48.8816 38.5361C45.4135 39.2301 41.9678 40.7194 39.2968 43.0733C39.0211 43.3171 38.7641 43.5928 38.5034 43.8517C37.9763 44.3787 37.4849 44.9002 37.0366 45.4966C34.4538 48.9309 33.5722 53.3124 34.1874 57.5269C34.2006 57.6282 34.2174 57.7295 34.2324 57.8326C34.2493 57.9339 34.2662 58.0352 34.285 58.1365C34.3037 58.2378 34.3225 58.339 34.3431 58.4403C34.3637 58.5416 34.3844 58.641 34.4069 58.7423C34.4294 58.8436 34.4538 58.943 34.4782 59.0424C34.5025 59.1418 34.5288 59.2412 34.5551 59.3406C34.5813 59.44 34.6095 59.5394 34.6376 59.637C34.6657 59.7345 34.6957 59.8339 34.7258 59.9314C34.7558 60.029 34.7895 60.1284 34.8214 60.2259C34.8533 60.3234 34.8871 60.421 34.9227 60.5185C34.9583 60.6161 34.9921 60.7117 35.0296 60.8074C35.0671 60.903 35.1046 60.9987 35.1422 61.0943C35.1815 61.19 35.2209 61.2838 35.2622 61.3794C35.3016 61.4751 35.3447 61.5689 35.386 61.6626C35.4291 61.7564 35.4723 61.8502 35.5173 61.9421C35.5623 62.0359 35.6073 62.1278 35.6542 62.2197C35.7011 62.3116 35.748 62.4035 35.7968 62.4936C35.8455 62.5855 35.8943 62.6755 35.945 62.7636C35.9937 62.8537 36.0462 62.9437 36.0969 63.0319C36.1494 63.12 36.2019 63.2082 36.2563 63.2963C36.3107 63.3845 36.3651 63.4708 36.4195 63.557C36.4758 63.6433 36.532 63.7296 36.5883 63.8159C36.6465 63.9021 36.7046 63.9865 36.7628 64.071C36.8209 64.1554 36.8809 64.2398 36.9428 64.3223C37.0028 64.4048 37.0647 64.4873 37.1285 64.5699C37.1904 64.6524 37.2542 64.7331 37.318 64.8137C37.3817 64.8944 37.4474 64.9731 37.513 65.0538C37.5787 65.1326 37.6462 65.2113 37.7137 65.2901C37.7813 65.367 37.8488 65.4439 37.9182 65.5208C37.9876 65.5977 38.057 65.6727 38.1283 65.7478C38.1995 65.8228 38.2708 65.8978 38.3421 65.971C38.4152 66.0441 38.4865 66.1173 38.5615 66.1885C39.218 66.8281 39.9271 67.3908 40.6623 67.9366C43.9767 70.3974 48.182 71.5322 52.2447 71.8661C52.708 71.9036 53.1657 71.8811 53.6271 71.9055C53.8372 71.9167 54.036 71.9899 54.248 71.9955C55.2308 72.0255 56.1968 71.8961 57.1778 71.8961C62.848 71.4516 68.3382 69.6134 72.1327 65.1795C72.2134 65.0838 72.2921 64.9881 72.369 64.8906C72.4478 64.7931 72.5229 64.6937 72.5998 64.5961C72.6767 64.4986 72.7498 64.3973 72.823 64.296C72.8961 64.1947 72.9674 64.0935 73.0387 63.9903C73.11 63.8871 73.1794 63.784 73.2469 63.6789C73.3144 63.5739 73.3819 63.4689 73.4476 63.3638C73.5132 63.2569 73.577 63.15 73.6408 63.0431C73.7045 62.9362 73.7664 62.8274 73.8265 62.7186C73.8865 62.6098 73.9465 62.4992 74.0047 62.3885C74.0628 62.2779 74.1191 62.1672 74.1735 62.0547C74.2297 61.9421 74.2823 61.8296 74.3348 61.717C74.3873 61.6045 74.4379 61.4901 74.4886 61.3757C74.5374 61.2613 74.5861 61.1469 74.633 61.0306C74.6799 60.9161 74.7268 60.7999 74.7699 60.6817C74.815 60.5654 74.8562 60.4472 74.8975 60.331C74.9388 60.2128 74.98 60.0946 75.0175 59.9765C75.055 59.8583 75.0926 59.7383 75.1282 59.6182C75.1638 59.4982 75.1976 59.38 75.2314 59.2581C75.2651 59.1362 75.2951 59.0161 75.3251 58.8961C75.3552 58.7742 75.3833 58.6523 75.4114 58.5322C75.4377 58.4103 75.4639 58.2884 75.4883 58.1665C75.5127 58.0446 75.5352 57.9208 75.5559 57.7989C75.5765 57.6751 75.5971 57.5531 75.614 57.4294C75.6328 57.3056 75.6496 57.1818 75.6646 57.058C75.6796 56.9342 75.6928 56.8104 75.7059 56.6866C75.7172 56.5628 75.7284 56.439 75.7378 56.3134C75.7472 56.1896 75.7547 56.0639 75.7603 55.9401C75.7678 55.8163 75.7716 55.6906 75.7753 55.5669C75.7772 55.4431 75.7791 55.3174 75.7791 55.1936C75.7791 55.0698 75.7791 54.9441 75.7753 54.8204L75.7772 54.8185ZM40.1052 46.2187C42.5774 42.9176 46.3682 40.9482 50.3672 40.1886C50.9336 40.0817 51.5207 39.9973 52.0966 39.9429C52.5467 39.9016 52.9894 39.8847 53.4396 39.821C54.2911 39.7722 55.1877 39.7891 56.0411 39.8172C56.3544 39.8266 56.6657 39.8697 56.9771 39.8922C61.5726 40.2242 65.7216 41.8748 68.8971 45.279C69.0716 45.4647 69.8087 46.2975 69.8012 46.5057C69.6174 46.6895 67.5767 47.6348 67.1865 47.8299L63.7277 49.5592C62.4916 50.1744 59.6669 51.4986 58.7665 52.4158C58.4064 52.7834 58.095 53.2298 57.7874 53.6443C56.979 54.736 56.2456 55.8763 55.4803 56.9942C55.3096 57.2943 55.0902 57.5644 54.9213 57.8683C54.6269 57.5006 54.3849 57.0917 54.1185 56.7054C53.402 55.6606 52.7024 54.6047 51.9409 53.5918C51.667 53.2261 51.3932 52.8397 51.0856 52.5002C50.1908 51.5099 47.5968 50.3526 46.3344 49.7074L39.912 46.4982C39.9758 46.4044 40.0415 46.3125 40.109 46.2206L40.1052 46.2187ZM72.369 56.5309C72.3353 57.0617 72.2415 57.5982 72.1515 58.1233C72.1046 58.3972 72.0539 58.8436 71.8851 59.0649C71.9845 59.3894 71.1611 61.2406 70.9735 61.6195C69.518 64.5436 67.0683 66.7475 64.1685 68.1861C63.512 68.5106 62.8462 68.82 62.1503 69.0508C57.7743 70.51 51.834 70.5212 47.4805 69.0039C46.8352 68.7788 46.2163 68.4918 45.6067 68.188C42.0747 66.4249 39.2949 63.5739 38.0382 59.7851C37.6987 58.7611 37.498 57.6188 37.4024 56.5441C37.3649 56.107 37.3817 55.6606 37.3799 55.2217C37.378 53.8356 37.4117 51.8888 38.0457 50.6246C38.4509 50.8403 38.8767 50.9997 39.2949 51.1854L41.3301 52.1007L46.7621 54.6159C47.7093 55.0529 49.8232 55.942 50.5341 56.5872C50.9693 56.983 51.32 57.4462 51.682 57.9076C52.4436 58.8773 53.1413 59.8939 53.886 60.8786C54.0867 61.1431 54.2498 61.5182 54.4974 61.7377C54.6963 61.914 54.8463 61.899 55.0958 61.8877C55.4916 61.6008 55.7898 61.0324 56.073 60.6329C56.617 59.8658 57.1759 59.108 57.7461 58.3615C58.1776 57.7876 58.6127 57.1518 59.1379 56.6603C59.3367 56.4747 59.5862 56.3265 59.8169 56.1839C60.7097 55.6344 61.7039 55.2255 62.6511 54.7791C64.5568 53.8694 66.4756 52.9841 68.402 52.1232C68.8259 51.9338 71.4912 50.7878 71.6488 50.6283C72.0727 50.9659 72.2302 52.4346 72.3053 52.9972C72.3859 53.5993 72.3822 54.1901 72.3822 54.7979C72.3822 55.3718 72.4066 55.957 72.369 56.5291V56.5309Z" fill="#000E32"/>
</g>
</g>
</svg>
