<svg width="110" height="110" viewBox="0 0 110 110" fill="none" xmlns="http://www.w3.org/2000/svg">
<g id="Frame 1707481663">
<g id="Group 1707478684">
<path id="Vector" d="M54.7727 36.6235L51.9015 53.2726L38.1997 64.2807L38.3925 64.7626L54.8488 58.5128L71.087 64.8184L71.2595 64.4531L57.9382 53.161L55.3105 36.5779L54.7727 36.6235Z" fill="white"/>
<path id="Vector_2" d="M38.2553 66.0352C34.4152 60.5463 33.8673 51.6587 37.1748 45.7438C39.0704 42.1366 42.0182 39.1911 45.6269 37.2984C49.2357 35.4057 53.3347 34.6552 57.38 35.1466C64.1116 35.9481 70.7622 40.8333 73.3544 47.291C76.0075 53.282 74.932 61.3631 71.2339 66.5678C66.1611 73.3857 57.9583 76.4751 49.6286 74.3242C44.9779 72.9961 40.9483 70.0628 38.2553 66.0453M58.2322 53.3632L70.6252 63.8488C73.3595 59.2832 73.6689 52.3994 71.3709 47.5396C68.6366 41.3 62.0977 36.9678 55.3914 37.0236L57.8822 52.932L55.1428 54.4539L55.0617 36.8207H54.9247L53.1188 53.6676L51.9266 52.79L54.6609 36.9475C48.6192 37.0033 43.318 39.9912 39.8127 45.0336C36.3073 50.076 35.9218 58.2534 39.0112 63.5799L51.5969 53.4342L52.7282 54.0988L38.6814 64.0872V64.2292H38.8184L54.5442 55.3416V58.6491C49.4714 60.4753 44.4746 62.4588 39.5083 64.3662C40.9127 66.7064 42.829 68.6981 45.1134 70.1917C47.3977 71.6853 49.9907 72.642 52.6977 72.99C59.9266 73.7053 66.3944 70.5855 70.2498 64.5184L55.1986 58.6643V55.3568C55.2544 55.3568 69.4432 63.7169 69.4432 63.7169L70.7064 64.2952V64.1886L57.0502 54.114L58.2322 53.3632Z" fill="#000E32"/>
<path id="Vector_3" d="M36.7887 47.7377C39.2998 41.1988 46.0619 36.0702 53.0218 35.5629C56.8685 35.1844 60.7408 35.9585 64.1463 37.7869C67.5518 39.6152 70.3366 42.415 72.1465 45.8303C73.2342 47.8942 73.9356 50.1394 74.2162 52.4555C72.9785 45.6071 67.0179 38.8197 60.2253 36.8869C52.5805 34.6549 44.7734 37.2724 39.8324 43.5678C35.6372 48.7269 35.2212 56.7572 37.3771 62.9664C37.927 64.3694 38.6405 65.7026 39.5027 66.9384C35.4444 61.8656 34.2878 53.9164 36.7938 47.7326" fill="white"/>
<path id="Vector_4" d="M36.708 58.2786C37.0926 60.2348 37.7429 62.1293 38.6408 63.9094L38.448 64.1022C37.4802 62.2986 36.8883 60.3174 36.708 58.2786Z" fill="white"/>
<path id="Vector_5" d="M56.4797 54.5745L66.6559 61.646L55.5869 54.9651L56.4797 54.5745Z" fill="#000E32"/>
<path id="Vector_6" d="M54.1541 54.9653L50.5625 57.1467L53.6011 54.6914L54.1541 54.9653Z" fill="#000E32"/>
<path id="Vector_7" d="M54.8109 41.2502L54.5928 54.4447L53.9282 54.115L54.8109 41.2502Z" fill="#000E32"/>
<path id="Vector_8" d="M38.6416 64.63L38.9713 64.5184C43.197 71.2246 50.5628 74.6995 58.4562 73.2386C63.3109 72.3813 67.8663 69.1803 70.631 64.7669C71.1028 64.6807 71.0217 64.3205 71.1028 63.9654C74.0502 58.8926 74.1922 51.1311 71.1535 46.0278C74.6335 50.7456 74.8567 58.8621 71.7623 64.1024C69.9353 67.5375 67.1066 70.3357 63.6517 72.1252C60.1969 73.9146 56.2794 74.6108 52.4195 74.1212C49.5291 73.7654 46.7674 72.7166 44.3695 71.0641C41.9715 69.4116 40.0082 67.2043 38.6467 64.63" fill="white"/>
</g>
</g>
</svg>
