<svg width="110" height="110" viewBox="0 0 110 110" fill="none" xmlns="http://www.w3.org/2000/svg">
<g id="Frame 1707481673">
<path id="Vector" d="M54.9095 38C51.9697 38.0005 49.0773 38.7415 46.4995 40.1548C43.9216 41.568 41.7413 43.6079 40.1599 46.0862H15L17.5045 48.5907H38.853C38.4475 49.5334 38.1257 50.51 37.8913 51.5091H20.423L22.8967 53.9829H37.487C37.4391 54.4873 37.4132 54.9936 37.4092 55.5003C37.4138 55.968 37.4371 56.4354 37.4792 56.9013H25.8151L28.2895 59.3756H37.8599C38.0818 60.3733 38.3907 61.3497 38.783 62.2935H31.2079L33.7118 64.7986H40.1086C41.681 67.3054 43.8633 69.3726 46.4517 70.8069C49.04 72.2412 51.9497 72.9958 54.9089 73C57.8683 72.996 60.7783 72.2415 63.3668 70.8072C65.9554 69.3729 68.1379 67.3056 69.7104 64.7986H76.106L78.6111 62.2935H71.036C71.4283 61.3497 71.7372 60.3733 71.9591 59.3756H81.5295L84.0033 56.9019H72.3392C72.3813 56.4358 72.4046 55.9682 72.4092 55.5003C72.4054 54.9936 72.3797 54.4873 72.332 53.9829H86.9217L89.3954 51.5091H71.9265C71.6925 50.51 71.3711 49.5335 70.966 48.5907H92.3139L94.819 46.0862H69.6591C68.0777 43.6079 65.8974 41.568 63.3195 40.1548C60.7417 38.7415 57.8493 38.0005 54.9095 38ZM54.9095 40.3724C58.9217 40.3724 62.7695 41.9662 65.6065 44.8033C68.4436 47.6403 70.0374 51.4881 70.0374 55.5003C70.0374 59.5125 68.4436 63.3603 65.6065 66.1974C62.7695 69.0344 58.9217 70.6282 54.9095 70.6282C52.9228 70.6283 50.9556 70.2371 49.1201 69.4768C47.2846 68.7166 45.6169 67.6023 44.2121 66.1976C42.8072 64.7928 41.6929 63.1251 40.9326 61.2896C40.1723 59.4542 39.781 57.487 39.781 55.5003C39.781 53.5136 40.1723 51.5464 40.9326 49.711C41.6929 47.8755 42.8072 46.2078 44.2121 44.803C45.6169 43.3983 47.2846 42.284 49.1201 41.5238C50.9556 40.7635 52.9228 40.3723 54.9095 40.3724ZM42.875 51.5791V59.4209H44.5101V53.2486L46.2357 59.4209H47.9299L49.6609 53.2486V59.4209H51.296V51.5791H48.6557L47.0918 56.9284L45.5098 51.5791H42.875ZM53.0035 51.5791V59.4209H54.7635V51.5791H53.0035ZM56.4529 51.5791V59.4209H58.088V54.3075L61.6031 59.4209H63.3697V51.5791H61.7346V56.8162L58.1658 51.5791H56.4529ZM65.1834 51.5791V59.4209H66.944V51.5791H65.1834Z" fill="#000E32"/>
</g>
</svg>
