<svg width="110" height="110" viewBox="0 0 110 110" fill="none" xmlns="http://www.w3.org/2000/svg">
<g id="Frame 1707481674">
<path id="Vector" d="M58.8587 56.5983C58.8207 56.6078 58.669 56.6078 58.6026 56.6078H53.7081V57.746H58.6879C58.7259 57.746 59.0199 57.746 59.0768 57.7365C60.0918 57.6417 60.5566 56.7975 60.5566 56.0576C60.5566 55.2988 60.0728 54.483 59.1527 54.3977C58.9725 54.3787 58.8207 54.3787 58.7543 54.3787H55.5008C55.3585 54.3787 55.1973 54.3692 55.1404 54.3502C54.8843 54.2839 54.7894 54.0562 54.7894 53.8665C54.7894 53.6958 54.8843 53.4681 55.1499 53.3922C55.2258 53.3733 55.3111 53.3638 55.4913 53.3638H60.1866V52.2445H55.4155C55.2163 52.2445 55.0645 52.254 54.9412 52.2729C54.1254 52.3868 53.5563 53.0413 53.5563 53.876C53.5563 54.5589 53.9832 55.3557 54.9222 55.4885C55.093 55.5075 55.3301 55.5075 55.4344 55.5075H58.6026C58.6595 55.5075 58.8018 55.5075 58.8302 55.517C59.1907 55.5644 59.314 55.83 59.314 56.0671C59.314 56.2948 59.1717 56.5414 58.8587 56.5983ZM49.5819 56.5983C49.544 56.6078 49.3922 56.6078 49.3353 56.6078H44.4313V57.746H49.4112C49.4491 57.746 49.7432 57.746 49.8001 57.7365C50.815 57.6417 51.2798 56.7975 51.2798 56.0576C51.2798 55.2988 50.7961 54.483 49.876 54.3977C49.6958 54.3787 49.544 54.3787 49.4776 54.3787H46.2241C46.0818 54.3787 45.9206 54.3692 45.8636 54.3502C45.6075 54.2839 45.5127 54.0562 45.5127 53.8665C45.5127 53.6958 45.6075 53.4681 45.8731 53.3922C45.949 53.3733 46.0344 53.3638 46.2146 53.3638H50.9099V52.2445H46.1387C45.9395 52.2445 45.7878 52.254 45.6645 52.2729C44.8487 52.3868 44.2796 53.0413 44.2796 53.876C44.2796 54.5589 44.7064 55.3557 45.6455 55.4885C45.8162 55.5075 46.0534 55.5075 46.1577 55.5075H49.3258C49.3827 55.5075 49.525 55.5075 49.5535 55.517C49.9139 55.5644 50.0372 55.83 50.0372 56.0671C50.0372 56.2948 49.9044 56.5414 49.5819 56.5983ZM40.6467 52.2065H41.8798V57.7745H40.6467V52.2065ZM37.9244 57.7745V52.2065H36.6912V56.3612L32.5841 52.2065H31V57.7745H32.2331V53.6009L36.3687 57.7745H37.9244ZM77.5829 52.2065V56.3612L73.4757 52.2065H71.8916V57.7745H73.1247V53.6009L77.2509 57.7745H78.8065V52.2065H77.5829ZM65.47 52.2065L61.9983 57.7745H63.497L64.1136 56.7785H68.1639L68.7804 57.7745H70.2696L66.798 52.2065H65.47ZM67.5283 55.7256H64.7491L66.1435 53.4871L67.5283 55.7256ZM37.858 49.0479C40.3431 41.7916 47.1916 36.9161 54.9127 36.9161C62.6339 36.9161 69.4918 41.7916 71.9675 49.0479L71.9865 49.1048H77.4216V48.4503L75.1641 48.1847C73.7697 48.0235 73.4757 47.4069 73.0963 46.6291L73.0014 46.4394C69.7384 39.4961 62.6339 35 54.9127 35C47.1821 35 40.087 39.4961 36.824 46.4584L36.7292 46.6481C36.3498 47.4259 36.0557 48.0424 34.6614 48.2037L32.4038 48.4693V49.1238H37.8295L37.858 49.0479ZM71.9865 60.8857L71.9675 60.9426C69.4823 68.199 62.6339 73.065 54.9127 73.065C47.1916 73.065 40.3336 68.1895 37.858 60.9331L37.839 60.8762H32.4133V61.5307L34.6709 61.7963C36.0652 61.9576 36.3593 62.5741 36.7387 63.3519L36.8335 63.5416C40.0965 70.5039 47.2011 75 54.9222 75C62.6433 75 69.7479 70.5039 73.0109 63.5511L73.1058 63.3614C73.4852 62.5836 73.7792 61.967 75.1736 61.8058L77.4311 61.5402V60.8857H71.9865Z" fill="#000E32"/>
</g>
</svg>
