<svg width="110" height="110" viewBox="0 0 110 110" fill="none" xmlns="http://www.w3.org/2000/svg">
<g id="Frame 1707481667">
<g id="Group 1707478689">
<path id="Vector" d="M54.5901 33C61.1128 33 68.0222 33.3897 70.6421 33.6535C73.6397 33.9533 75.0246 35.4671 75.0246 38.4288C75.0246 44.0345 74.8148 52.7787 74.4251 57.9467C74.0833 62.5302 73.8256 66.1454 68.1092 69.6167C64.0415 72.0838 59.9737 74.2151 54.674 76.952L54.5841 77L54.4882 76.952C49.2005 74.2211 45.1417 72.0928 41.059 69.6167C35.3636 66.1454 35.0819 62.5302 34.7401 57.9467C34.3594 52.8057 34.1406 44.0525 34.1406 38.4288C34.1406 35.4671 35.5315 33.9503 38.5201 33.6535C41.14 33.3897 48.0554 33 54.5751 33" fill="#000E32"/>
<path id="Vector_2" d="M41.9382 68.0107C45.889 70.4089 49.4502 72.2794 54.576 74.9384C59.6719 72.2974 63.23 70.4418 67.2108 68.0107C72.0549 65.07 72.2527 62.3511 72.5885 57.8456C72.9782 52.6626 73.188 43.8194 73.188 38.1328C73.188 36.2473 72.6274 35.6447 70.7 35.4529C68.0741 35.1891 61.1317 34.7964 54.573 34.7964C48.0143 34.7964 41.0839 35.1891 38.4431 35.4529C36.5126 35.6447 35.9551 36.2473 35.9551 38.1328C35.9551 43.8284 36.1709 52.6626 36.5546 57.8456C36.8933 62.3421 37.0942 65.07 41.9502 68.0107" fill="white"/>
<path id="Vector_3" d="M54.3037 46.1451L53.6892 48.2195C51.462 43.663 48.8062 41.2738 45.5958 41.2738C44.4651 41.2626 43.35 41.5376 42.3542 42.0733C41.3584 42.609 40.5142 43.3878 39.9004 44.3375C40.4245 43.0775 41.3133 42.003 42.4526 41.252C43.5919 40.501 44.9297 40.1077 46.2942 40.1227C50.5957 40.1227 53.0268 43.5191 54.3037 46.1451Z" fill="#000E32"/>
<path id="Vector_4" d="M38.1758 50.8071C38.2028 58.3943 40.409 62.0394 43.7033 62.0394C45.2291 62.0394 46.3232 61.0802 46.3232 59.5184C46.2951 58.5261 46.0145 57.5573 45.5079 56.7036C45.6172 57.1958 45.6734 57.6982 45.6757 58.2024C45.6757 59.5064 44.7944 59.9321 44.075 59.9321C41.8838 59.9321 39.6926 55.6724 39.0751 50.8161H38.1758" fill="#000E32"/>
<path id="Vector_5" d="M62.8641 40.1227C64.2285 40.1081 65.5661 40.5015 66.7054 41.2525C67.8446 42.0035 68.7335 43.0777 69.2579 44.3374C68.6426 43.3892 67.7982 42.6114 66.8027 42.0759C65.8073 41.5404 64.6928 41.2645 63.5625 41.2738C60.3431 41.2738 57.6873 43.672 55.4691 48.2194L54.8516 46.1451C56.1285 43.5191 58.5596 40.1227 62.8611 40.1227" fill="#000E32"/>
<path id="Vector_6" d="M70.0919 50.8076C69.4744 55.6638 67.2832 59.9235 65.0919 59.9235C64.3695 59.9235 63.4852 59.4979 63.4852 58.1939C63.4905 57.6899 63.5468 57.1877 63.6531 56.695C63.1491 57.5495 62.8706 58.5181 62.8438 59.5098C62.8438 61.0716 63.9349 62.0309 65.4636 62.0309C68.761 62.0309 70.9642 58.3857 70.9912 50.7986H70.0919" fill="#000E32"/>
<path id="Vector_7" d="M54.5869 67.3227C55.603 67.3227 56.5053 67.3227 56.7541 66.0607L57.2847 63.3927C57.2847 63.3927 58.5737 61.1864 58.7595 60.8747C58.9114 60.5971 59.0291 60.3022 59.1102 59.9964C59.1822 59.6966 60.1654 55.5418 60.1654 55.5418L61.853 54.7924C63.3997 54.1029 63.4837 52.4842 62.9351 50.5447C63.2349 49.8432 63.7325 49.1957 64.347 49.1957C65.2463 49.1957 65.6299 49.9451 65.6299 51.1442C65.6299 53.7312 64.7097 55.1551 64.7097 56.519C64.7097 57.0736 64.9435 57.4184 65.3901 57.4184C66.8649 57.4184 68.8224 54.1599 69.5208 50.3198H70.3571C70.546 47.5919 69.1011 44.2915 65.6269 44.2915C62.8062 44.2915 60.0604 46.5308 58.4178 51.7138L59.4789 52.4512L58.9693 54.9992L56.9789 55.8266L56.6192 58.3296L57.5874 57.1306L58.6276 56.6959L58.2919 58.3296L56.4933 59.0731L55.8668 63.4017L56.3045 64.7807L54.5869 65.4611L52.8543 64.7747L53.2949 63.3957L52.6654 59.0671L50.8669 58.3237L50.5401 56.7079L51.5893 57.1306L52.5635 58.3296L52.1888 55.8266L50.2014 54.9992L49.6918 52.4512L50.756 51.7138C49.1163 46.5308 46.3615 44.2915 43.5468 44.2915C40.0696 44.2915 38.6278 47.589 38.8166 50.3198H39.6529C40.3424 54.1599 42.2968 57.4303 43.7686 57.4303C44.2213 57.4303 44.4581 57.0886 44.4581 56.531C44.4581 55.1671 43.5288 53.7432 43.5288 51.1562C43.5288 49.9571 43.9155 49.2077 44.8178 49.2077C45.4173 49.2077 45.9299 49.8552 46.2266 50.5567C45.6811 52.4962 45.765 54.1149 47.3118 54.8044L48.9994 55.5538C48.9994 55.5538 49.9766 59.7116 50.0485 60.0084C50.1356 60.3131 50.2551 60.6076 50.4052 60.8867C50.5911 61.1864 51.8741 63.4047 51.8741 63.4047C51.8741 63.4047 52.3117 65.608 52.4106 66.0727C52.6594 67.3347 53.5617 67.3347 54.5749 67.3347" fill="#000E32"/>
<path id="Vector_8" d="M47.1009 50.5562L48.3 52.4447L48.7436 54.3992L47.9433 54.0485C46.8491 53.5808 46.7442 52.2858 47.1039 50.5562" fill="white"/>
<path id="Vector_9" d="M61.2419 54.0485L60.4355 54.3992L60.8792 52.4447L62.0782 50.5562C62.4469 52.2858 62.333 53.5808 61.2389 54.0485" fill="white"/>
</g>
</g>
</svg>
