<svg width="110" height="110" viewBox="0 0 110 110" fill="none" xmlns="http://www.w3.org/2000/svg">
<g id="Frame 1707481676">
<path id="Vector" d="M75.9481 53.9646C74.7255 53.9646 71.883 53.9691 70.1776 53.9691C69.573 53.9691 69.3971 53.8608 69.0181 53.4547C68.6391 53.0487 66.7532 51.0274 66.7532 51.0274C64.3574 48.4467 58.5147 42.7438 56.3806 40.9436C55.5775 40.2668 54.6707 40.2894 54.6571 40.2894C54.6436 40.2894 53.7367 40.2668 52.9336 40.9436C50.7996 42.7438 44.9568 48.4467 42.5611 51.0274C42.5611 51.0274 40.6752 53.0487 40.2962 53.4547C39.9172 53.8608 39.7412 53.9691 39.1367 53.9691C37.4267 53.9691 34.5888 53.9646 33.3661 53.9646C33.0683 53.9646 32.8834 53.6036 33.0864 53.3735C35.5363 50.8469 48.7918 37.1763 51.2733 35.2046C52.1396 34.5098 53.254 34 54.6571 34C56.0558 34 57.1747 34.5098 58.041 35.2046C60.5224 37.1763 73.778 50.8469 76.2279 53.3735C76.4264 53.6036 76.2504 53.9646 75.9481 53.9646ZM33.3616 56.0354C34.5843 56.0354 37.4267 56.0309 39.1322 56.0309C39.7367 56.0309 39.9127 56.1347 40.2917 56.5408C40.6707 56.9468 42.5566 58.9681 42.5566 58.9681C44.9523 61.5488 50.7951 67.2517 52.9291 69.0519C53.7322 69.7286 54.6391 69.7061 54.6526 69.7061C54.6662 69.7061 55.573 69.7286 56.3761 69.0519C58.5102 67.2562 64.3529 61.5533 66.7487 58.9681C66.7487 58.9681 68.6346 56.9468 69.0136 56.5408C69.3925 56.1347 69.5685 56.0309 70.1731 56.0309C71.883 56.0309 74.7209 56.0354 75.9436 56.0354C76.2414 56.0354 76.4264 56.3964 76.2234 56.6265C73.7735 59.1531 60.5224 72.8192 58.0364 74.7954C57.1747 75.4902 56.0558 76 54.6526 76C53.254 76 52.1396 75.4902 51.2733 74.7954C48.7873 72.8192 35.5363 59.1531 33.0864 56.6265C32.8834 56.3964 33.0638 56.0354 33.3616 56.0354ZM53.6104 60.7096V66.3719C53.6104 66.6381 53.3532 66.7554 53.1367 66.5659C50.7003 64.31 45.2727 58.932 43.4499 56.8476C42.5837 55.9227 42.6604 54.9887 42.6604 54.9887C42.6604 54.9887 42.5791 54.0458 43.4499 53.1254C45.2727 51.0409 50.7003 45.6629 53.1367 43.407C53.3442 43.213 53.6104 43.3574 53.6104 43.583V49.2588C53.6104 49.7731 53.5021 50.0348 53.0555 50.4499C51.9636 51.4515 50.0371 53.3149 49.3197 54.154C48.9949 54.524 49.0174 54.9842 49.0174 54.9842C49.0174 54.9842 48.9949 55.4489 49.3197 55.8189C50.0371 56.6536 51.9636 58.5214 53.0555 59.5185C53.5021 59.9336 53.6104 60.1953 53.6104 60.7096ZM56.2588 59.523C57.3507 58.5259 59.2772 56.6581 59.9945 55.8234C60.3194 55.4534 60.2968 54.9887 60.2968 54.9887C60.2968 54.9887 60.3194 54.5285 59.9945 54.1586C59.2772 53.3194 57.3507 51.456 56.2588 50.4544C55.8121 50.0393 55.7039 49.7776 55.7039 49.2633V43.6055C55.7039 43.3393 55.961 43.2175 56.1776 43.407C58.6139 45.6629 64.0416 51.0409 65.8598 53.1254C66.7306 54.0503 66.6494 54.9887 66.6494 54.9887C66.6494 54.9887 66.7306 55.9272 65.8598 56.8521C64.0416 58.9365 58.6139 64.3145 56.1776 66.5704C55.961 66.7599 55.7039 66.6426 55.7039 66.3719V60.7141C55.7084 60.1998 55.8121 59.9381 56.2588 59.523Z" fill="#000E32"/>
</g>
</svg>
