<svg width="110" height="110" viewBox="0 0 110 110" fill="none" xmlns="http://www.w3.org/2000/svg">
<g id="Frame 1707481677">
<path id="Vector" d="M54.9284 38C62.4191 38 70.4498 39.5266 76.8412 43.5824C80.992 46.2382 84.8561 50.2623 84.8561 55.507C84.8561 61.6312 79.6254 66.0844 74.6146 68.691C68.6523 71.7776 61.6066 73 54.9267 73C47.4377 73 39.4229 71.491 33.0297 67.4193C28.8789 64.7636 24.999 60.7394 24.999 55.507C24.999 49.3548 30.2156 44.9173 35.2405 42.309C41.2204 39.2241 48.2503 38 54.9284 38ZM54.8651 39.8608C47.9003 39.8608 40.3937 41.1641 34.3505 44.8048C30.5498 47.0789 26.7965 50.658 26.7965 55.4121C26.7965 60.9962 31.8847 64.9043 36.4329 67.1485C42.0628 69.8975 48.646 70.9668 54.8651 70.9668C61.844 70.9668 69.3523 69.66 75.3955 66.0193C79.1804 63.7294 82.9495 60.1678 82.9495 55.4138C82.9495 49.8173 77.8754 45.904 73.3131 43.6791C67.6814 40.9249 61.0983 39.8608 54.8651 39.8608ZM28.5782 51.548L40.0437 49.5922L43.4945 42.1015L46.9312 49.5922L58.395 51.548L46.9312 53.5214L43.4945 61.0279L40.0437 53.5214L28.5782 51.548ZM53.7834 57.2553L58.84 56.3671L60.3508 52.9796L61.8616 56.3671L66.9199 57.2553L61.8616 58.1294L60.3508 61.5186L58.84 58.1294L53.7834 57.2553ZM64.2483 48.2239L69.3048 47.3497L70.8156 43.9482L72.3264 47.3497L77.3829 48.2239L72.3264 49.1138L70.8156 52.503L69.303 49.1138L64.2483 48.2239ZM58.84 64.2553L63.8807 63.3812L65.3915 59.9779L66.9181 63.3812L71.9746 64.2553L66.9181 65.1452L65.3915 68.5344L63.8807 65.1452L58.84 64.2553ZM43.3046 65.4794L48.3611 64.6053L49.8877 61.1985L51.3968 64.6053L56.4551 65.4794L51.3968 66.3693L49.8877 69.7585L48.3611 66.3693L43.3046 65.4794ZM68.7332 57.1163L73.7739 56.2246L75.2847 52.8372L76.8113 56.2246L81.8679 57.1163L76.8113 57.9905L75.2829 61.3744L73.7721 57.9887L68.7332 57.1163Z" fill="#000E32"/>
</g>
</svg>
