<svg width="110" height="110" viewBox="0 0 110 110" fill="none" xmlns="http://www.w3.org/2000/svg">
<g id="Frame 1707481678">
<g id="Group 1707478699">
<path id="Vector" d="M55.0994 74.9999L60.7198 43.3938C66.0726 43.3938 67.7758 43.9778 68.0191 46.3866C68.0191 46.3866 71.6201 45.0484 73.4205 42.3233C66.3403 39.0386 59.2357 38.8926 59.2357 38.8926L55.0993 43.9535L50.9388 38.8926C50.9388 38.8926 43.8342 39.0386 36.7539 42.3233C38.5544 45.0484 42.1554 46.3866 42.1554 46.3866C42.3987 43.9778 44.0775 43.3939 49.406 43.3939L55.0993 74.9999H55.0994Z" fill="#000E32"/>
<path id="Vector_2" d="M55.073 37.4331C60.7907 37.3844 67.3358 38.309 74.0268 41.2288C74.927 39.6229 75.146 38.9173 75.146 38.9173C67.8467 36.0219 60.9854 35.0243 55.073 35C49.1849 35.0243 42.3236 36.0219 35 38.9173C35 38.9173 35.3163 39.7932 36.1192 41.2288C42.8345 38.309 49.3795 37.3844 55.073 37.4331Z" fill="#000E32"/>
</g>
</g>
</svg>
