<svg width="110" height="110" viewBox="0 0 110 110" fill="none" xmlns="http://www.w3.org/2000/svg">
<g id="Frame 1707481662">
<path id="Vector" d="M30.9209 68.1746C23.7401 68.1746 17.9233 62.3574 17.9233 55.1775C17.9233 47.9976 23.7401 42.1799 30.9209 42.1769C33.8464 42.1721 36.6872 43.1587 38.9799 44.9759C41.2745 43.1622 44.1138 42.1755 47.0387 42.1755C49.9636 42.1755 52.8029 43.1622 55.0975 44.9759C57.3922 43.1622 60.2316 42.1756 63.1565 42.1756C66.0814 42.1756 68.9208 43.1622 71.2155 44.9759C73.5081 43.1584 76.349 42.1717 79.2745 42.1769L30.9209 68.1746ZM30.9209 68.1746C33.8464 68.1792 36.6871 67.1926 38.9799 65.3756L30.9209 68.1746ZM36.866 63.2673L36.8843 63.2538L36.8702 63.2361C35.0527 60.9425 34.0637 58.1021 34.0637 55.1757C34.0637 52.2494 35.0527 49.409 36.8702 47.1154L36.8843 47.0977L36.866 47.0842C35.37 45.9847 33.5984 45.3214 31.7481 45.1681C29.8978 45.0148 28.0412 45.3774 26.3846 46.2158C24.728 47.0541 23.3362 48.3353 22.364 49.9171C21.3917 51.4988 20.877 53.3191 20.877 55.1757C20.877 57.0324 21.3917 58.8527 22.364 60.4344C23.3362 62.0162 24.728 63.2974 26.3846 64.1357C28.0412 64.9741 29.8978 65.3367 31.7481 65.1834C33.5984 65.0301 35.37 64.3668 36.866 63.2673ZM38.9628 61.1419L38.9803 61.1657L38.9979 61.1419C40.2742 59.4145 40.9629 57.3233 40.9629 55.1755C40.9629 53.0278 40.2742 50.9366 38.9979 49.2091L38.9803 49.1853L38.9628 49.2091C37.6865 50.9366 36.9978 53.0278 36.9978 55.1755C36.9978 57.3233 37.6865 59.4145 38.9628 61.1419ZM52.9841 63.2673L53.0023 63.2538L52.9883 63.2361C51.1707 60.9426 50.1817 58.1023 50.1817 55.176C50.1817 52.2497 51.1707 49.4093 52.9883 47.1159L53.0023 47.0981L52.9841 47.0847C51.2598 45.8198 49.1771 45.1377 47.0387 45.1377C44.9003 45.1377 42.8176 45.8198 41.0934 47.0847L41.0751 47.0981L41.0892 47.1159C42.9069 49.4092 43.8961 52.2496 43.8961 55.176C43.8961 58.1023 42.9069 60.9427 41.0892 63.236L41.0751 63.2538L41.0934 63.2673C42.8176 64.5322 44.9003 65.2142 47.0387 65.2142C49.1771 65.2142 51.2598 64.5322 52.9841 63.2673ZM55.0803 61.1437L55.0979 61.1675L55.1155 61.1437C56.3923 59.4164 57.0813 57.3252 57.0813 55.1773C57.0813 53.0294 56.3923 50.9381 55.1155 49.2109L55.0979 49.1871L55.0803 49.2109C53.8041 50.9383 53.1154 53.0295 53.1154 55.1773C53.1154 57.3251 53.8041 59.4162 55.0803 61.1437ZM69.1016 63.2673L69.1199 63.2538L69.1058 63.2361C67.2883 60.9426 66.2993 58.1023 66.2993 55.176C66.2993 52.2497 67.2883 49.4093 69.1058 47.1159L69.1199 47.0981L69.1016 47.0847C67.3774 45.8198 65.2947 45.1377 63.1563 45.1377C61.0179 45.1377 58.9352 45.8198 57.2109 47.0847L57.1926 47.0981L57.2067 47.1159C59.0245 49.4092 60.0137 52.2496 60.0137 55.176C60.0137 58.1023 59.0245 60.9427 57.2067 63.236L57.1926 63.2538L57.2109 63.2673C58.9352 64.5322 61.0179 65.2142 63.1563 65.2142C65.2947 65.2142 67.3774 64.5322 69.1016 63.2673ZM71.1984 61.1419L71.216 61.1657L71.2336 61.1419C72.5098 59.4145 73.1985 57.3233 73.1985 55.1755C73.1985 53.0278 72.5098 50.9366 71.2336 49.2091L71.216 49.1853L71.1984 49.2091C69.9221 50.9366 69.2334 53.0278 69.2334 55.1755C69.2334 57.3233 69.9221 59.4145 71.1984 61.1419ZM73.3252 63.236L73.3111 63.2539L73.3294 63.2673C75.055 64.5298 77.1364 65.2128 79.2745 65.2181C84.8243 65.2181 89.3165 60.7268 89.3165 55.1762C89.3165 49.6255 84.8243 45.1342 79.2745 45.1342L79.2745 45.1342C77.1365 45.1398 75.0552 45.8226 73.3294 47.0847L73.3111 47.0981L73.3252 47.1159C75.143 49.4092 76.1322 52.2496 76.1322 55.176C76.1322 58.1023 75.143 60.9427 73.3252 63.236Z" fill="#000E32" stroke="#000E32" stroke-width="0.0437348"/>
</g>
</svg>
