<svg width="110" height="110" viewBox="0 0 110 110" fill="none" xmlns="http://www.w3.org/2000/svg">
<g id="Frame 1707481679">
<path id="Vector" fillRule="evenodd" clipRule="evenodd" d="M53.7327 72.0661C50.675 70.1505 48.4212 63.5401 48.4212 55.6842C48.4212 55.3959 48.4224 55.1113 48.4297 54.8279L48.4322 54.8315C39.9256 53.4949 33.7797 49.8327 33.6216 45.5003L33.5973 45.5514C31.5163 48.1384 30.328 51.1292 30.328 54.3158C30.328 63.6933 40.6213 71.3765 53.678 72.0564L53.7327 72.0661ZM26.3945 54.9994C26.3945 44.5078 39.4524 36 55.5595 36C71.6678 36 84.7257 44.5078 84.7257 54.9994C84.7257 65.4922 71.6678 74 55.5595 74C39.4524 74 26.3945 65.4922 26.3945 54.9994ZM55.5608 38.7415C58.6708 38.7415 61.3162 43.4594 62.2965 50.0419L62.2989 50.0309C68.3499 49.0895 72.5849 46.9173 72.5849 44.3886C72.5849 40.9964 64.9625 38.2489 55.5608 38.2489C46.1602 38.2489 38.5378 40.9964 38.5378 44.3886C38.5378 46.9173 42.7729 49.0883 48.8226 50.0309L48.8262 50.0419C49.8066 43.4594 52.452 38.7415 55.5608 38.7415ZM57.4435 72.0552C70.5002 71.3753 80.7948 63.6921 80.7948 54.3146C80.7948 51.128 79.6052 48.1372 77.5254 45.5502L77.4999 45.4991C77.343 49.8314 71.1971 53.4936 62.6893 54.8303L62.693 54.8267C62.6991 55.1101 62.7015 55.3947 62.7015 55.6829C62.7015 63.5388 60.4465 70.1493 57.39 72.0649L57.4435 72.0552ZM55.5608 50.5296C56.9107 50.5312 58.26 50.4736 59.6049 50.3569C58.9602 46.1388 57.3925 43.1614 55.562 43.1614C53.7315 43.1614 52.1661 46.1401 51.5203 50.3581C52.8644 50.4742 54.2117 50.5306 55.5608 50.5296ZM55.5608 66.1538C57.9021 66.1538 59.8128 61.2814 59.9138 55.1721L59.926 55.1758C57.0224 55.4433 54.1003 55.4433 51.1968 55.1758L51.2089 55.1721C51.3099 61.2814 53.2194 66.1538 55.5608 66.1538Z" fill="#000E32"/>
</g>
</svg>
