<svg width="110" height="110" viewBox="0 0 110 110" fill="none" xmlns="http://www.w3.org/2000/svg">
<g id="Frame 1707481680">
<path id="Vector" d="M56 74.068C45.542 74.068 36.974 65.458 36.974 55C36.974 52.648 37.394 50.422 38.192 48.322L49.322 70.708C49.448 71.002 49.658 71.254 49.994 71.254C50.33 71.254 50.54 71.002 50.666 70.708L55.79 59.242C55.832 59.116 55.916 58.99 56.042 58.99C56.168 58.99 56.21 59.116 56.294 59.242L61.418 70.708C61.544 71.002 61.754 71.254 62.09 71.254C62.426 71.254 62.636 71.002 62.762 70.708L73.892 48.322C74.69 50.422 75.11 52.648 75.11 55C75.026 65.458 66.458 74.068 56 74.068ZM56 50.674C55.874 50.674 55.832 50.548 55.748 50.422L49.784 36.982C51.716 36.268 53.816 35.89 56 35.89C58.184 35.89 60.284 36.268 62.216 36.982L56.252 50.422C56.168 50.59 56.126 50.674 56 50.674ZM49.91 64.492C49.784 64.492 49.742 64.366 49.658 64.24L39.998 44.752C41.72 42.106 44.03 39.88 46.844 38.326L53.816 53.824C53.9 54.076 54.11 54.16 54.32 54.16H57.68C57.932 54.16 58.1 54.118 58.226 53.824L65.198 38.326C67.97 39.88 70.322 42.106 72.044 44.752L62.3 64.24C62.258 64.366 62.174 64.492 62.048 64.492C61.922 64.492 61.88 64.366 61.796 64.24L58.142 55.924C58.016 55.63 57.848 55.588 57.596 55.588H54.236C53.984 55.588 53.816 55.63 53.69 55.924L50.162 64.24C50.12 64.366 50.036 64.492 49.91 64.492ZM56 76C67.634 76 77 66.634 77 55C77 43.366 67.634 34 56 34C44.366 34 35 43.366 35 55C35 66.634 44.366 76 56 76Z" fill="#000E32"/>
</g>
</svg>
