<svg width="110" height="110" viewBox="0 0 110 110" fill="none" xmlns="http://www.w3.org/2000/svg">
<g id="Frame 1707481661">
<g id="Group 1707478701">
<path id="Vector" d="M68.0517 51.6634C66.6777 51.6634 65.5598 52.5046 65.5598 53.5387C65.5598 54.5728 66.6777 55.414 68.0517 55.414C69.4558 55.414 70.5975 54.5728 70.5975 53.5387C70.5975 52.5046 69.4558 51.6634 68.0517 51.6634ZM68.0517 54.8052C67.5663 54.8052 67.1979 54.2613 67.1979 53.5403C67.1979 52.775 67.5584 52.2215 68.0517 52.2215C68.5451 52.2215 68.9072 52.8113 68.9056 53.5403C68.9024 54.2249 68.5134 54.8052 68.0517 54.8052ZM49.1817 51.6634C47.8076 51.6634 46.6881 52.5046 46.6881 53.5387C46.6881 54.5728 47.8076 55.414 49.1817 55.414C50.5858 55.414 51.7274 54.5728 51.7274 53.5387C51.7274 52.5046 50.5858 51.6634 49.1817 51.6634ZM49.1817 54.8052C48.6946 54.8052 48.3278 54.2613 48.3278 53.5403C48.3278 52.775 48.6867 52.2215 49.1817 52.2215C49.656 52.2215 50.0371 52.8113 50.0355 53.5403C50.0355 54.2249 49.6434 54.8052 49.1817 54.8052ZM62.5191 52.3022H63.1374L62.0542 54.4131L60.8177 52.3022H61.6937V51.8389H58.1914V52.3022H59.0152L60.6106 55.2891H62.5175L64.1145 52.3022H64.9368V51.8389H62.5191V52.3022ZM43.4451 52.3465H44.0775L43.0197 54.3214L41.8639 52.3465H42.7082V51.7915H39.1157V52.3417H39.9569L41.5381 55.3065L41.5492 55.3286H43.5067L43.5194 55.3065L45.1006 52.3417H45.9418V51.7915H43.4451V52.3465ZM43.0371 54.3925L43.4814 53.5624L43.045 54.4052L43.0371 54.3925ZM42.2244 53.0564L41.7864 52.3307H41.799L42.2244 53.0564ZM56.3967 54.723H55.5191V52.3022H56.3445V51.8389H53.0983V52.3022H53.9237V54.723H53.0983V55.2891H57.9921V53.6889H57.4782C57.4664 53.9676 57.3472 54.2309 57.1456 54.4236C56.944 54.6164 56.6756 54.7237 56.3967 54.723ZM68.6573 38.0492L66.5306 40.1807C67.5904 41.0666 68.5454 42.0708 69.3768 43.1739L71.5162 41.0393L72.4206 40.1348C73.3597 41.2719 74.1824 42.5003 74.8762 43.8016H75.4249V34.1025H65.74V34.6512C67.0821 35.3681 68.3469 36.2212 69.5144 37.197L68.6573 38.0492Z" fill="#000E32"/>
<path id="Vector_2" d="M72.4879 42.3737L70.3138 44.5479C72.6498 48.3333 73.5024 52.8493 72.7073 57.2258C71.9121 61.6023 69.5254 65.5298 66.0071 68.2515C62.4887 70.9732 58.0876 72.2965 53.6517 71.9666C49.2157 71.6367 45.0588 69.6768 41.9818 66.4646C38.9048 63.2524 37.1253 59.0151 36.9864 54.569C36.8474 50.123 38.3586 45.7828 41.229 42.3847C44.0994 38.9866 48.1258 36.7709 52.5324 36.1645C56.9391 35.5582 61.4143 36.604 65.0958 39.1007L67.251 36.9439C62.9937 33.886 57.7467 32.5307 52.541 33.1445C47.3353 33.7583 42.5474 36.2967 39.1181 40.2609C35.6887 44.2251 33.8658 49.3285 34.0077 54.5683C34.1496 59.8081 36.2459 64.8054 39.8847 68.5783C43.5235 72.3512 48.4418 74.6268 53.673 74.958C58.9042 75.2892 64.0702 73.6521 68.1558 70.3683C72.2415 67.0845 74.9513 62.3915 75.7529 57.2115C76.5545 52.0314 75.3899 46.7388 72.4879 42.3737Z" fill="#000E32"/>
</g>
</g>
</svg>
