<svg width="110" height="110" viewBox="0 0 110 110" fill="none" xmlns="http://www.w3.org/2000/svg">
<g id="Frame 1707481669">
<g id="Group 1707478696">
<path id="Vector" fillRule="evenodd" clipRule="evenodd" d="M55.0007 81C69.3594 81 81.0007 69.3594 81.0007 55C81.0007 40.6406 69.3594 29 55.0007 29C40.6406 29 29 40.6413 29 55C29 69.3594 40.6413 81 55.0007 81Z" fill="#000E32"/>
<path id="Vector_2" fillRule="evenodd" clipRule="evenodd" d="M54.9968 78.5246C67.9897 78.5246 78.5228 67.9914 78.5228 54.9985C78.5228 42.0063 67.9897 31.4731 54.9968 31.4731C42.0038 31.4731 31.4707 42.0063 31.4707 54.9985C31.4714 67.9914 42.0038 78.5246 54.9968 78.5246Z" fill="white"/>
<path id="Vector_3" fillRule="evenodd" clipRule="evenodd" d="M59.4629 39.3379V43.0609H49.2258V46.784H38.9888V60.0103C38.9888 65.5423 42.5054 71.0088 44.8485 74.9268C46.8288 71.6158 49.6878 67.1994 50.5269 62.5726C51.7645 65.8046 53.6463 68.7972 55.0856 71.2044C57.0651 67.8934 59.9249 63.477 60.7639 58.8502C62.0022 62.0822 63.8833 65.0748 65.3233 67.482C67.6657 63.564 71.2404 58.0975 71.2404 52.5662V39.3399H59.4629V39.3379Z" fill="#000E32"/>
<path id="Vector_4" fillRule="evenodd" clipRule="evenodd" d="M44.8548 71.5302C46.5369 68.7177 49.0601 64.6567 49.0601 60.6841V48.4897H40.7075V60.6841C40.7075 64.6567 43.172 68.7177 44.8548 71.5302Z" fill="white"/>
<path id="Vector_5" fillRule="evenodd" clipRule="evenodd" d="M48.5051 61.5539C48.6299 60.8323 48.5456 60.0148 48.5456 59.3585V48.9785H41.3719L48.5051 61.5539ZM47.5406 65.105C46.908 66.8404 45.986 68.5981 44.8488 70.4515C42.6042 66.7939 41.1993 63.5079 41.2026 60.0377V54.0586L47.5406 65.105Z" fill="#000E32"/>
<path id="Vector_6" fillRule="evenodd" clipRule="evenodd" d="M55.0926 67.808C56.7754 64.9948 59.2979 60.9345 59.2979 56.9619V44.7676H50.9453V56.9626C50.9453 60.9345 53.4105 64.9948 55.0926 67.808Z" fill="white"/>
<path id="Vector_7" fillRule="evenodd" clipRule="evenodd" d="M58.7422 57.8311C58.8677 57.1087 58.782 56.292 58.782 55.6364V45.2563H51.6091L58.7422 57.8311ZM57.7784 61.3822C57.1457 63.1169 56.2237 64.8752 55.0866 66.7286C52.842 63.071 51.4371 59.785 51.4404 56.3142V50.3351L57.7784 61.3822Z" fill="#000E32"/>
<path id="Vector_8" fillRule="evenodd" clipRule="evenodd" d="M65.3328 64.0838C67.015 61.2706 69.5375 57.2104 69.5375 53.2377V41.0427H61.1855V53.2377C61.1855 57.2097 63.6507 61.2706 65.3328 64.0838Z" fill="white"/>
<path id="Vector_9" fillRule="evenodd" clipRule="evenodd" d="M68.982 54.1114C69.1074 53.389 69.0231 52.5722 69.0231 51.916V41.5366H61.8488L68.982 54.1114ZM68.0175 57.6624C67.3848 59.3972 66.4628 61.1555 65.3263 63.0089C63.0817 59.3513 61.6761 56.0653 61.6802 52.5945V46.6154L68.0175 57.6624ZM75.7212 74.5389C75.7219 74.2892 75.7718 74.042 75.8681 73.8115C75.9643 73.581 76.105 73.3717 76.2821 73.1956C76.4592 73.0195 76.6693 72.88 76.9003 72.785C77.1314 72.6901 77.3788 72.6416 77.6286 72.6423C77.8777 72.6422 78.1243 72.6912 78.3544 72.7865C78.5845 72.8818 78.7936 73.0215 78.9697 73.1977C79.1457 73.3738 79.2854 73.5829 79.3806 73.8131C79.4758 74.0432 79.5247 74.2899 79.5245 74.5389C79.5257 74.7887 79.4775 75.0363 79.3828 75.2675C79.288 75.4986 79.1486 75.7088 78.9725 75.8859C78.7963 76.0631 78.5869 76.2037 78.3563 76.2998C78.1257 76.3958 77.8784 76.4454 77.6286 76.4456C77.3781 76.4461 77.1299 76.3971 76.8983 76.3014C76.6667 76.2058 76.4563 76.0653 76.2791 75.8882C76.1019 75.7111 75.9614 75.5007 75.8657 75.2692C75.77 75.0376 75.7209 74.7895 75.7212 74.5389Z" fill="#000E32"/>
<path id="Vector_10" fillRule="evenodd" clipRule="evenodd" d="M79.2931 74.5384C79.2929 74.0961 79.1171 73.672 78.8043 73.3594C78.4916 73.0467 78.0674 72.8711 77.6252 72.8711C77.4058 72.8706 77.1885 72.9133 76.9857 72.9968C76.7828 73.0804 76.5985 73.2031 76.4431 73.3579C76.2878 73.5128 76.1645 73.6967 76.0803 73.8993C75.9961 74.1019 75.9527 74.319 75.9525 74.5384C75.948 74.7606 75.9879 74.9814 76.0699 75.1879C76.1518 75.3945 76.2741 75.5826 76.4297 75.7413C76.5852 75.9 76.7709 76.0261 76.9757 76.1122C77.1806 76.1983 77.4006 76.2426 77.6228 76.2426C77.845 76.2426 78.065 76.1983 78.2699 76.1122C78.4748 76.0261 78.6604 75.9 78.8159 75.7413C78.9715 75.5826 79.0938 75.3945 79.1757 75.1879C79.2577 74.9814 79.2976 74.7606 79.2931 74.5384Z" fill="white"/>
<path id="Vector_11" fillRule="evenodd" clipRule="evenodd" d="M78.5701 75.6033H78.2605L77.6535 74.6226H77.1753V75.6033H76.917V73.478H77.843C78.0224 73.478 78.2012 73.4881 78.361 73.5826C78.5202 73.6723 78.5998 73.8618 78.5998 74.0405C78.5998 74.4587 78.3057 74.6132 77.928 74.6226L78.5701 75.6033Z" fill="#000E32"/>
<path id="Vector_12" fillRule="evenodd" clipRule="evenodd" d="M77.5798 74.4159C77.8772 74.4159 78.3412 74.4658 78.3412 74.0328C78.3412 73.7043 78.0526 73.6646 77.7895 73.6646H77.1812V74.4159H77.5798Z" fill="white"/>
</g>
</g>
</svg>
