<svg width="110" height="110" viewBox="0 0 110 110" fill="none" xmlns="http://www.w3.org/2000/svg">
<g id="Frame 1707481650">
<path id="Vector" d="M94.6325 45.036H71.0925C70.4889 45.036 70.0972 44.8562 70.0972 44.0342V40.5411C70.0972 39.533 69.5578 39 68.5689 39H41.6192C40.6111 39 40.091 39.5651 40.091 40.5283V44.0214C40.091 44.7599 39.7442 45.0295 39.0957 45.0295L23.6656 45.036C22.4841 45.036 21.797 45.601 21.4374 46.3395L13.9246 61.0248C13.8283 61.2175 13.7705 61.4294 13.7705 61.6477C13.7705 62.232 14.1494 62.9769 15.2024 62.9769L39.0893 62.9705C39.8277 62.9705 40.0845 63.3044 40.0845 63.9786V67.4718C40.0845 68.5248 40.6946 69 41.6128 69H55.0909H68.5625C69.4807 69 70.0908 68.5569 70.0908 67.4782V63.985C70.0908 63.2723 70.3926 62.9769 71.086 62.9769L86.0667 62.9705C87.1005 62.9705 87.8454 62.7008 88.359 61.7376L95.7884 47.2256C95.9489 46.911 96.0645 46.7312 96.0645 46.3587C96.0645 45.3827 95.2169 45.036 94.6325 45.036ZM88.6994 50.8857L85.1163 57.8913C84.8916 58.2958 84.4935 58.3151 84.211 58.3151H66.4371C65.6987 58.3151 65.429 58.649 65.429 59.3168V63.3429C65.429 64.0107 65.1336 64.3318 64.4209 64.3318H55.0909H45.7545C45.1316 64.3318 44.7463 64.1135 44.7463 63.3301V59.3039C44.7463 58.5655 44.4124 58.3022 43.7382 58.3022H21.9511C21.4181 58.3022 21.0457 57.9683 21.0457 57.4996C21.0457 57.3647 21.0778 57.2363 21.1356 57.1207L24.7186 50.1152C24.8535 49.8647 25.0782 49.6978 25.624 49.6978H43.7446C44.3675 49.6978 44.7592 49.4473 44.7592 48.6896V44.6635C44.7592 43.9508 45.0738 43.6618 45.7609 43.6618H64.4273C65.0951 43.6618 65.429 43.9572 65.429 44.6764V48.7025C65.429 49.396 65.75 49.6978 66.4435 49.6978H87.8903C88.5709 49.6978 88.7957 50.1473 88.7957 50.5004C88.7957 50.6417 88.7636 50.7701 88.6994 50.8857Z" fill="#000E32"/>
</g>
</svg>
