<svg width="110" height="110" viewBox="0 0 110 110" fill="none" xmlns="http://www.w3.org/2000/svg">
<g id="Frame 1707481671">
<path id="Vector" d="M35 43L35.7772 67H39.5546L39.472 57.0477H42.6395V53.9454H39.472L39.4837 46.136H43.6192L43.5968 43H35ZM45.0902 43L45.5681 67H49.4689L49.548 43.0004L45.0902 43ZM63.377 43V46.0272H66.458L66.3694 67H70.1432L70.9449 46.024H74.0008L73.9774 43H63.377ZM55.4304 54.1078L55.4729 45.9559H57.6513C58.6387 47.7712 59.273 50.1722 59.7704 54.1078H55.4304ZM51.9504 66.9993H55.5616L55.602 57.0754H59.9286C60.2686 58.8269 60.3519 64.2338 60.3721 66.9993H63.8751C64.2066 54.747 63.1798 47.8219 60.343 43H51.62L51.9504 66.9993Z" fill="#000E32"/>
</g>
</svg>
