<svg width="110" height="110" viewBox="0 0 110 110" fill="none" xmlns="http://www.w3.org/2000/svg">
<g id="Frame 1707481672">
<path id="Vector" d="M81.3121 56.0856C81.2474 59.6547 82.0182 61.545 84.9603 61.545C87.8976 61.545 88.3191 58.3248 88.3191 55.8743C88.3191 53.4222 87.7617 51.0418 84.6757 51.0418C82.7826 51.0418 81.3848 52.5129 81.3121 56.0856ZM75.3599 71V46.841H81.3848V47.8209C81.3848 49.1281 81.9121 48.5891 82.3368 48.0797C82.408 47.9945 83.7507 46.351 86.7747 46.351C89.7896 46.351 94.4799 48.4511 94.4799 55.8744C94.4799 61.6162 91.6818 65.817 86.8492 65.817C84.1863 65.817 82.6468 64.7686 82.2947 64.3455C81.9422 63.9282 81.4528 63.8554 81.4528 64.3455V70.9999L75.3599 71ZM28.7927 39H35.3055V56.0856C35.3055 59.0246 34.0436 65.1885 25.0118 65.1885C15.979 65.1885 14.999 59.4434 14.999 56.2247V53.074H21.3016V56.1535C21.3016 58.044 22.5624 59.7938 24.9418 59.7938C27.3222 59.7938 28.7927 58.4639 28.7927 56.2247V39ZM48.9256 53.4939C48.9256 51.7414 47.9472 50.0612 45.7064 50.0612C43.5357 50.0612 42.7648 51.6002 42.7648 53.4939H48.9256ZM45.0784 46.1408C50.1929 46.1408 54.6724 48.1008 54.6724 57.134H42.5594C42.5594 60.0051 43.7486 61.1958 45.8492 61.1958C47.9504 61.1958 48.6501 59.5139 48.6501 59.5139H54.6039C54.6039 62.1057 51.0322 65.6068 45.639 65.5373C39.4787 65.5373 36.4671 60.9856 36.4671 56.2937C36.4671 51.6002 39.1262 46.1408 45.0784 46.1408ZM68.2898 53.4939C68.2898 51.7414 67.3103 50.0612 65.0695 50.0612C62.8999 50.0612 62.1274 51.6002 62.1274 53.4939H68.2898ZM64.4426 46.1408C69.5566 46.1408 74.0349 48.1008 74.0349 57.134H61.9225C61.9225 60.0051 63.1127 61.1958 65.215 61.1958C67.3141 61.1958 68.0148 59.5139 68.0148 59.5139H73.9686C73.9686 62.1057 70.3963 65.6068 65.0048 65.5373C58.8413 65.5373 55.8297 60.9856 55.8297 56.2937C55.8297 51.6002 58.492 46.1408 64.4426 46.1408ZM90.492 68.1037C90.492 67.1469 91.2709 66.3696 92.231 66.3696C93.1878 66.3696 93.9651 67.1469 93.9651 68.1037C93.9651 69.0589 93.1878 69.841 92.231 69.841C91.271 69.841 90.492 69.0589 90.492 68.1037ZM90.2915 68.1037C90.2915 69.1742 91.1583 70.0432 92.231 70.0432C93.2967 70.0432 94.1683 69.1742 94.1683 68.1037C94.1683 67.0331 93.2967 66.1642 92.231 66.1642C91.1583 66.1642 90.2915 67.0331 90.2915 68.1037Z" fill="#000E32"/>
</g>
</svg>
