<svg width="40" height="40" viewBox="0 0 40 40" fill="none" xmlns="http://www.w3.org/2000/svg">
<rect width="40" height="40" rx="20" fill="#2D65F2" fillOpacity="0.06"/>
<path d="M13.6335 26.3585V27.3412C13.6335 27.6126 13.538 27.8432 13.347 28.0332C13.156 28.2231 12.9242 28.3181 12.6514 28.3181C12.3786 28.3181 12.1484 28.2231 11.9609 28.0332C11.7734 27.8432 11.6797 27.6126 11.6797 27.3412V20.3883C11.6797 20.2939 11.6864 20.1995 11.6999 20.1051C11.7133 20.0107 11.7359 19.916 11.7675 19.8208L13.5508 14.8162C13.6674 14.4747 13.8704 14.2002 14.1596 13.9928C14.4489 13.7854 14.7774 13.6816 15.145 13.6816H24.8508C25.2185 13.6816 25.5469 13.7854 25.8362 13.9928C26.1254 14.2002 26.33 14.4747 26.4498 14.8162L28.2283 19.8204C28.26 19.9144 28.2825 20.0088 28.296 20.1037C28.3094 20.1986 28.3161 20.2935 28.3161 20.3883V27.3412C28.3161 27.6126 28.2207 27.8432 28.0297 28.0332C27.8387 28.2231 27.6069 28.3181 27.3341 28.3181C27.0612 28.3181 26.8311 28.2231 26.6436 28.0332C26.4561 27.8432 26.3624 27.6126 26.3624 27.3412V26.3585H13.6335ZM13.646 18.698H26.3499L25.145 15.2826C25.1194 15.2185 25.0809 15.1688 25.0296 15.1335C24.9784 15.0983 24.9175 15.0806 24.8469 15.0806H15.1489C15.0784 15.0806 15.0175 15.0983 14.9662 15.1335C14.9149 15.1688 14.8764 15.2185 14.8508 15.2826L13.646 18.698ZM15.4997 23.7854C15.8517 23.7854 16.1509 23.6622 16.3974 23.4158C16.6439 23.1694 16.7671 22.8702 16.7671 22.5182C16.7671 22.1663 16.6439 21.867 16.3975 21.6205C16.1511 21.3741 15.8519 21.2508 15.4999 21.2508C15.148 21.2508 14.8487 21.374 14.6022 21.6204C14.3558 21.8668 14.2325 22.166 14.2325 22.518C14.2325 22.87 14.3557 23.1692 14.6021 23.4157C14.8485 23.6622 15.1477 23.7854 15.4997 23.7854ZM24.4959 23.7854C24.8479 23.7854 25.1471 23.6622 25.3936 23.4158C25.6401 23.1694 25.7633 22.8702 25.7633 22.5182C25.7633 22.1663 25.6401 21.867 25.3937 21.6205C25.1473 21.3741 24.8481 21.2508 24.4961 21.2508C24.1441 21.2508 23.8449 21.374 23.5984 21.6204C23.3519 21.8668 23.2287 22.166 23.2287 22.518C23.2287 22.87 23.3519 23.1692 23.5983 23.4157C23.8447 23.6622 24.1439 23.7854 24.4959 23.7854Z" fill="#2D65F2"/>
</svg>
