<svg width="18" height="18" viewBox="0 0 18 18" fill="none" xmlns="http://www.w3.org/2000/svg">
<g id="Icons">
<path id="Vector" d="M3.50781 14.5969V4.03984C3.50781 3.6854 3.63228 3.38371 3.88122 3.13476C4.13017 2.88582 4.43195 2.76135 4.78656 2.76135H8.76696C9.12159 2.76135 9.42337 2.88582 9.67231 3.13476C9.92126 3.38371 10.0457 3.68548 10.0457 4.04006V8.84063H10.676C11.0572 8.84063 11.3835 8.97635 11.6549 9.24778C11.9264 9.51922 12.0621 9.84552 12.0621 10.2267V13.5256C12.0621 13.7686 12.1479 13.976 12.3195 14.1476C12.4912 14.3192 12.6989 14.4051 12.9426 14.4051C13.1864 14.4051 13.394 14.3192 13.5657 14.1476C13.7373 13.976 13.8231 13.7683 13.8231 13.5245V8.34448C13.7106 8.4118 13.5919 8.45843 13.4669 8.4844C13.3419 8.51036 13.2106 8.52334 13.0731 8.52334C12.634 8.52334 12.2628 8.36925 11.9595 8.06108C11.6563 7.7529 11.5047 7.37902 11.5047 6.93943C11.5047 6.5824 11.6069 6.26301 11.8115 5.98129C12.0161 5.69956 12.2893 5.51423 12.6311 5.42528L11.24 4.03416C11.1578 3.94978 11.1155 3.85095 11.1131 3.73765C11.1106 3.62435 11.1537 3.52297 11.2421 3.4335C11.3238 3.35174 11.4219 3.3099 11.5364 3.30797C11.6508 3.30605 11.7515 3.34667 11.8385 3.42985L14.1491 5.71433C14.3135 5.87933 14.4392 6.06819 14.5263 6.28092C14.6133 6.49364 14.6568 6.71295 14.6568 6.93885V13.5093C14.6568 13.9909 14.4917 14.3995 14.1614 14.7352C13.8312 15.0709 13.4254 15.2387 12.944 15.2387C12.4627 15.2387 12.0564 15.0715 11.7252 14.7372C11.394 14.4029 11.2284 13.9936 11.2284 13.5094V9.90507C11.2284 9.83775 11.2068 9.78246 11.1635 9.73918C11.1203 9.69591 11.065 9.67427 10.9977 9.67427H10.0457V14.5969C10.0457 14.775 9.98348 14.9265 9.85896 15.0514C9.73446 15.1763 9.58494 15.2387 9.41039 15.2387H4.14661C3.96929 15.2387 3.8185 15.1763 3.69423 15.0514C3.56995 14.9265 3.50781 14.775 3.50781 14.5969ZM4.55706 7.73297H8.99648V4.04138C8.99648 3.98369 8.97244 3.9308 8.92437 3.88272C8.87628 3.83464 8.82339 3.8106 8.76569 3.8106H4.78784C4.73015 3.8106 4.67726 3.83464 4.62918 3.88272C4.5811 3.9308 4.55706 3.98369 4.55706 4.04138V7.73297ZM13.0787 7.6897C13.2875 7.6897 13.4638 7.61782 13.6075 7.47407C13.7513 7.33032 13.8231 7.15286 13.8231 6.94168C13.8231 6.73531 13.7513 6.56091 13.6075 6.41848C13.4638 6.27606 13.2875 6.20485 13.0787 6.20485C12.87 6.20485 12.6944 6.27606 12.5519 6.41848C12.4095 6.56091 12.3383 6.73531 12.3383 6.94168C12.3383 7.15286 12.4093 7.33032 12.5512 7.47407C12.6931 7.61782 12.8689 7.6897 13.0787 7.6897Z" fill="#2D65F2"/>
</g>
</svg>
