<svg width="41" height="40" viewBox="0 0 41 40" fill="none" xmlns="http://www.w3.org/2000/svg">
<rect x="0.335938" width="40" height="40" rx="20" fill="#2D65F2" fillOpacity="0.06"/>
<path d="M14.8459 20.3364C15.2645 19.33 15.7573 18.3699 16.3243 17.4562C16.8912 16.5424 17.5225 15.6669 18.218 14.8297L16.9411 14.5653C16.6449 14.5134 16.3592 14.5264 16.0839 14.6043C15.8085 14.6821 15.5654 14.8265 15.3545 15.0374L12.3747 18.0172C12.1638 18.2281 12.0839 18.4812 12.1348 18.7764C12.1858 19.0715 12.3526 19.2778 12.6353 19.3951L14.8459 20.3364ZM28.5074 11.1596C26.8593 11.1339 25.2976 11.473 23.8223 12.1769C22.347 12.8807 21.0276 13.8144 19.8641 14.9778C19.1122 15.7297 18.4484 16.544 17.8728 17.4206C17.2971 18.2972 16.8016 19.2211 16.3863 20.1922C16.3113 20.3794 16.275 20.5691 16.2776 20.7614C16.2802 20.9537 16.3516 21.1185 16.492 21.2557L19.3055 24.072C19.4458 24.2124 19.6106 24.2854 19.7997 24.2912C19.9888 24.297 20.1753 24.2624 20.3593 24.1874C21.3305 23.7701 22.2564 23.2725 23.1372 22.6946C24.0179 22.1167 24.8343 21.4518 25.5862 20.6999C26.7497 19.5364 27.6833 18.217 28.3872 16.7417C29.091 15.2664 29.4301 13.7047 29.4045 12.0567C29.4045 11.9361 29.3788 11.8256 29.3275 11.7249C29.2762 11.6243 29.208 11.5297 29.1227 11.4413C29.0343 11.356 28.9397 11.2877 28.8391 11.2365C28.7384 11.1852 28.6278 11.1596 28.5074 11.1596ZM22.6026 17.9614C22.2692 17.6313 22.1026 17.2303 22.1026 16.7586C22.1026 16.2868 22.2692 15.8858 22.6026 15.5557C22.9327 15.2256 23.3337 15.0605 23.8055 15.0605C24.2772 15.0605 24.6782 15.2256 25.0083 15.5557C25.3384 15.8858 25.5035 16.2868 25.5035 16.7586C25.5035 17.2303 25.3384 17.6313 25.0083 17.9614C24.6782 18.2948 24.2772 18.4614 23.8055 18.4614C23.3337 18.4614 22.9327 18.2948 22.6026 17.9614ZM20.2055 25.7181L21.1593 27.9162C21.2766 28.1989 21.4808 28.3691 21.7718 28.4268C22.0628 28.4845 22.3154 28.4062 22.5295 28.1921L25.5045 25.2172C25.7154 25.0063 25.8639 24.7603 25.9501 24.4792C26.0363 24.1981 26.0493 23.9095 25.9891 23.6133L25.7275 22.346C24.8884 23.0415 24.0112 23.6728 23.0958 24.2398C22.1804 24.8067 21.217 25.2995 20.2055 25.7181ZM12.9738 24.1259C13.4558 23.647 14.0337 23.41 14.7074 23.4148C15.3811 23.4196 15.959 23.6589 16.441 24.1326C16.9147 24.6146 17.1537 25.1925 17.1579 25.8662C17.162 26.5399 16.9231 27.1178 16.441 27.5998C15.7814 28.2594 14.9983 28.6652 14.0916 28.8171C13.1848 28.969 12.2741 29.0982 11.3594 29.2046C11.4658 28.2835 11.5978 27.3703 11.7555 26.4652C11.9132 25.5601 12.3193 24.7803 12.9738 24.1259Z" fill="#2D65F2"/>
</svg>
