<svg width="18" height="18" viewBox="0 0 18 18" fill="none" xmlns="http://www.w3.org/2000/svg">
<g id="Icons">
<path id="Vector" d="M8.99583 15.2387C7.47511 15.2387 6.18026 14.7148 5.11128 13.6669C4.0423 12.6191 3.50781 11.3404 3.50781 9.83077C3.50781 9.08221 3.65192 8.38408 3.94013 7.7364C4.22834 7.08871 4.61812 6.5092 5.10948 5.99786L8.32797 2.84282C8.42461 2.75003 8.53067 2.68104 8.64617 2.63585C8.76169 2.59065 8.87876 2.56805 8.99738 2.56805C9.11601 2.56805 9.23278 2.59065 9.34769 2.63585C9.46259 2.68104 9.56956 2.75003 9.66859 2.84282L12.8843 5.99794C13.3741 6.50894 13.7634 7.08835 14.0521 7.73619C14.3408 8.38402 14.4852 9.08221 14.4852 9.83077C14.4852 11.3404 13.9504 12.6191 12.881 13.6669C11.8116 14.7148 10.5165 15.2387 8.99583 15.2387ZM4.61114 10.4848H13.3768C13.5273 9.5887 13.4414 8.82333 13.1193 8.18874C12.7971 7.55415 12.4699 7.08019 12.1376 6.76684L8.99648 3.64614L5.85494 6.76687C5.52259 7.08022 5.19783 7.5542 4.88065 8.1888C4.56348 8.8234 4.47364 9.58875 4.61114 10.4848Z" fill="#2D65F2"/>
</g>
</svg>
