<svg width="19" height="18" viewBox="0 0 19 18" fill="none" xmlns="http://www.w3.org/2000/svg">
<g id="Icons">
<path id="Vector" d="M9.50178 15.569C9.35948 15.569 9.21966 15.5453 9.08232 15.4979C8.94497 15.4506 8.82157 15.3759 8.71212 15.274C8.17271 14.7788 7.62368 14.2294 7.06503 13.6258C6.50638 13.0222 6.00001 12.393 5.54592 11.7382C5.09184 11.0834 4.71936 10.4132 4.42848 9.72764C4.13762 9.04206 3.99219 8.36851 3.99219 7.70697C3.99219 6.02045 4.53786 4.65302 5.62919 3.6047C6.72053 2.55638 8.01139 2.03223 9.50178 2.03223C10.9922 2.03223 12.283 2.55638 13.3744 3.6047C14.4657 4.65302 15.0114 6.02045 15.0114 7.70697C15.0114 8.36851 14.8665 9.04086 14.5769 9.72404C14.2872 10.4072 13.9153 11.0768 13.4613 11.7328C13.0072 12.3888 12.502 13.018 11.9457 13.6204C11.3895 14.2228 10.8405 14.7716 10.2986 15.2668C10.1909 15.3687 10.0673 15.4446 9.92778 15.4943C9.78827 15.5441 9.64627 15.569 9.50178 15.569ZM9.50392 8.85936C9.86643 8.85936 10.1767 8.73028 10.4346 8.47212C10.6925 8.21397 10.8215 7.90364 10.8215 7.54113C10.8215 7.17861 10.6922 6.86839 10.4335 6.61045C10.1748 6.35253 9.86391 6.22356 9.50069 6.22356C9.13748 6.22356 8.82751 6.35289 8.57079 6.61154C8.31405 6.87019 8.18568 7.18113 8.18568 7.54435C8.18568 7.90757 8.31476 8.21753 8.57292 8.47426C8.83107 8.731 9.14141 8.85936 9.50392 8.85936Z" fill="#2D65F2"/>
</g>
</svg>
