<svg width="19" height="18" viewBox="0 0 19 18" fill="none" xmlns="http://www.w3.org/2000/svg">
<g id="Icons">
<path id="Vector" d="M5.80022 13.019C4.68384 13.019 3.73492 12.6285 2.95344 11.8475C2.17198 11.0665 1.78125 10.1182 1.78125 9.00257C1.78125 7.88691 2.17198 6.93774 2.95344 6.15505C3.73492 5.37236 4.68384 4.98102 5.80022 4.98102C6.74829 4.98102 7.56452 5.2559 8.24889 5.80566C8.93326 6.35542 9.39323 7.0214 9.6288 7.80361H16.0925C16.4049 7.80361 16.6723 7.91482 16.8947 8.13726C17.1171 8.35969 17.2283 8.62707 17.2283 8.93941V9.06057C17.2283 9.38267 17.1156 9.65249 16.8901 9.87004C16.6646 10.0876 16.3988 10.1964 16.0925 10.1964H15.6137V11.7389C15.6137 12.0513 15.5024 12.3186 15.28 12.5411C15.0576 12.7635 14.7902 12.8747 14.4778 12.8747H14.3416C14.0292 12.8747 13.7618 12.7635 13.5394 12.5411C13.317 12.3186 13.2058 12.0513 13.2058 11.7389V10.1964H9.6288C9.39323 10.9786 8.93326 11.6445 8.24889 12.1943C7.56452 12.7441 6.74829 13.019 5.80022 13.019ZM5.80221 10.1509C6.11771 10.1509 6.38807 10.0376 6.61331 9.81107C6.83855 9.58451 6.95117 9.31349 6.95117 8.998C6.95117 8.6825 6.83788 8.41213 6.61131 8.18689C6.38474 7.96166 6.11372 7.84904 5.79823 7.84904C5.48273 7.84904 5.21236 7.96232 4.98713 8.1889C4.76189 8.41546 4.64927 8.68649 4.64927 9.00197C4.64927 9.31747 4.76256 9.58784 4.98913 9.81308C5.21569 10.0383 5.48672 10.1509 5.80221 10.1509Z" fill="#2D65F2"/>
</g>
</svg>
