<svg width="18" height="18" viewBox="0 0 18 18" fill="none" xmlns="http://www.w3.org/2000/svg">
<g id="Icons">
<path id="Vector" d="M7.98798 11.4642C8.2471 11.7233 8.58051 11.8435 8.98819 11.8248C9.39588 11.806 9.69324 11.6608 9.88026 11.3892L12.8692 7.07398C12.9703 6.92485 12.9585 6.7879 12.8337 6.66313C12.709 6.53838 12.5719 6.52646 12.4225 6.62736L8.10047 9.60942C7.82403 9.79547 7.67078 10.0853 7.64074 10.4789C7.61069 10.8726 7.72644 11.201 7.98798 11.4642ZM3.89037 14.4887C3.69743 14.4887 3.51807 14.4464 3.35228 14.3618C3.18649 14.2772 3.05432 14.15 2.95578 13.9803C2.65145 13.4452 2.42128 12.8833 2.26527 12.2946C2.10926 11.7059 2.03125 11.1027 2.03125 10.4849C2.03125 9.51945 2.21419 8.6134 2.58008 7.76672C2.94597 6.92003 3.44353 6.18208 4.07277 5.55285C4.70199 4.92363 5.43994 4.42607 6.28662 4.06018C7.13331 3.6943 8.03936 3.51135 9.00479 3.51135C9.9612 3.51135 10.8622 3.69035 11.7076 4.04835C12.5531 4.40635 13.2908 4.89637 13.9207 5.51841C14.5506 6.14046 15.0497 6.86819 15.418 7.7016C15.7863 8.535 15.9723 9.42965 15.9762 10.3855C15.9776 11.0239 15.9022 11.6487 15.7501 12.26C15.5979 12.8713 15.3651 13.4543 15.0516 14.0091C14.9555 14.1789 14.8238 14.3012 14.6565 14.3762C14.4892 14.4512 14.3094 14.4887 14.1171 14.4887H3.89037Z" fill="#2D65F2"/>
</g>
</svg>
