<svg width="41" height="40" viewBox="0 0 41 40" fill="none" xmlns="http://www.w3.org/2000/svg">
<rect x="0.664062" width="40" height="40" rx="20" fill="#2D65F2" fillOpacity="0.06"/>
<path d="M20.6675 29.2982C19.3801 29.2982 18.1718 29.054 17.0425 28.5654C15.9133 28.0769 14.9291 27.4136 14.0899 26.5756C13.2507 25.7375 12.5871 24.7543 12.0992 23.626C11.6112 22.4978 11.3672 21.2899 11.3672 20.0025C11.3672 18.7151 11.6115 17.5067 12.1 16.3775C12.5885 15.2482 13.2518 14.264 14.0899 13.4248C14.9279 12.5857 15.9111 11.9221 17.0394 11.4341C18.1677 10.9461 19.3755 10.7021 20.6629 10.7021C21.9504 10.7021 23.1587 10.9464 24.288 11.4349C25.4172 11.9235 26.4014 12.5868 27.2406 13.4248C28.0798 14.2629 28.7433 15.246 29.2313 16.3743C29.7193 17.5026 29.9633 18.7105 29.9633 19.9979C29.9633 21.2853 29.719 22.4937 29.2305 23.6229C28.742 24.7522 28.0787 25.7364 27.2406 26.5755C26.4026 27.4147 25.4194 28.0783 24.2911 28.5663C23.1628 29.0543 21.955 29.2982 20.6675 29.2982ZM20.6402 26.6867C20.814 26.6867 20.9644 26.6231 21.0917 26.4959C21.2189 26.3686 21.2825 26.2187 21.2825 26.0462V25.4942C22.0364 25.3982 22.7264 25.1165 23.3527 24.649C23.979 24.1816 24.2921 23.4686 24.2921 22.51C24.2921 21.815 24.0913 21.2069 23.6897 20.6858C23.2881 20.1647 22.4896 19.6945 21.2941 19.2752C20.2428 18.9162 19.5514 18.6053 19.22 18.3425C18.8886 18.0797 18.7229 17.7124 18.7229 17.2406C18.7229 16.7688 18.8995 16.3821 19.2527 16.0805C19.6059 15.7789 20.0934 15.6281 20.7152 15.6281C21.087 15.6281 21.4132 15.6976 21.6936 15.8367C21.9741 15.9758 22.2138 16.1614 22.4128 16.3935C22.5247 16.5338 22.6582 16.6322 22.8133 16.6886C22.9684 16.745 23.1161 16.7412 23.2562 16.6771C23.433 16.6053 23.5531 16.4852 23.6164 16.3167C23.6797 16.1483 23.6617 15.9934 23.5623 15.8521C23.3034 15.4739 22.9782 15.1632 22.5867 14.92C22.1951 14.6768 21.7771 14.5385 21.3325 14.505V13.9536C21.3325 13.7815 21.2689 13.6318 21.1417 13.5045C21.0144 13.3773 20.864 13.3137 20.6902 13.3137C20.5165 13.3137 20.366 13.3773 20.2388 13.5045C20.1116 13.6318 20.0479 13.7815 20.0479 13.9536V14.505C19.2088 14.6557 18.5641 14.9916 18.1138 15.5128C17.6635 16.034 17.4383 16.6099 17.4383 17.2406C17.4383 17.9816 17.6592 18.5734 18.1008 19.016C18.5425 19.4587 19.2774 19.8646 20.3056 20.2338C21.3601 20.6236 22.0773 20.9696 22.4571 21.2717C22.8369 21.5739 23.0268 21.9866 23.0268 22.5098C23.0268 23.1367 22.7984 23.5956 22.3417 23.8863C21.885 24.177 21.3761 24.3223 20.8152 24.3223C20.3402 24.3223 19.9059 24.2037 19.5121 23.9665C19.1184 23.7294 18.7928 23.3822 18.5354 22.9252C18.4444 22.7681 18.3205 22.6587 18.1638 22.5968C18.0071 22.535 17.8531 22.5348 17.702 22.5964C17.5299 22.6644 17.4061 22.7849 17.3305 22.9579C17.255 23.131 17.2571 23.2932 17.337 23.4446C17.6225 23.9951 17.9854 24.4327 18.4257 24.7575C18.8661 25.0822 19.3901 25.3115 19.9979 25.4454V26.0466C19.9979 26.2189 20.0616 26.3686 20.1888 26.4959C20.316 26.6231 20.4665 26.6867 20.6402 26.6867Z" fill="#2D65F2"/>
</svg>
