<svg width="19" height="18" viewBox="0 0 19 18" fill="none" xmlns="http://www.w3.org/2000/svg">
<g id="Icons">
<path id="Vector" d="M14.3952 6.21204C14.2085 6.21204 14.0501 6.14733 13.9198 6.01789C13.7895 5.88845 13.7243 5.72921 13.7243 5.54017C13.7243 5.44819 13.7429 5.36338 13.7799 5.28574C13.8169 5.20809 13.8663 5.13837 13.9281 5.07658C14.0577 4.94702 14.3427 4.80207 14.7834 4.64173C15.224 4.48141 15.4878 4.38802 15.5748 4.36157C15.4859 4.62456 15.399 4.86641 15.314 5.08714C15.2398 5.28227 15.1617 5.46809 15.0796 5.64458C14.9975 5.82108 14.9246 5.94196 14.8609 6.00724C14.7984 6.06974 14.7279 6.1195 14.6493 6.15652C14.5708 6.19354 14.4861 6.21204 14.3952 6.21204ZM4.03623 15.0584C3.6841 15.0584 3.383 14.9331 3.13293 14.6824C2.88285 14.4317 2.75781 14.1304 2.75781 13.7784V4.17842C2.75781 3.82641 2.88319 3.52506 3.13396 3.27439C3.38471 3.02371 3.68614 2.89837 4.03827 2.89837H7.98561C8.33774 2.89837 8.63884 3.02371 8.88891 3.27439C9.13899 3.52506 9.26403 3.82641 9.26403 4.17842V10.1056C9.39056 10.0411 9.52881 9.98492 9.67876 9.93711C9.82871 9.88931 9.98889 9.86541 10.1593 9.86541C10.6939 9.86541 11.1494 10.054 11.526 10.4312C11.9026 10.8084 12.0909 11.2664 12.0909 11.8053V13.1185C12.0909 13.3709 12.1762 13.5824 12.3468 13.7531C12.5174 13.9238 12.7288 14.0091 12.981 14.0091C13.2304 14.0091 13.4407 13.9238 13.6118 13.7531C13.783 13.5824 13.8686 13.3709 13.8686 13.1185V9.60144H13.1619V8.65706C12.5301 8.38448 12.0188 7.96964 11.628 7.41257C11.2371 6.85548 11.0417 6.23068 11.0417 5.53815C11.0417 4.61068 11.3687 3.82106 12.0227 3.16929C12.6767 2.51753 13.4676 2.19165 14.3955 2.19165C15.324 2.19165 16.1144 2.51753 16.7665 3.16929C17.4187 3.82106 17.7448 4.61068 17.7448 5.53815C17.7448 6.23068 17.5493 6.85548 17.1585 7.41257C16.7676 7.96964 16.2563 8.38413 15.6246 8.65601V9.60144H14.9178V13.1185C14.9178 13.6574 14.7291 14.1154 14.3517 14.4926C13.9742 14.8698 13.517 15.0584 12.9801 15.0584C12.4431 15.0584 11.9858 14.8698 11.6082 14.4926C11.2305 14.1154 11.0417 13.6574 11.0417 13.1185V11.8053C11.0417 11.5529 10.9563 11.3414 10.7855 11.1707C10.6147 11 10.404 10.9147 10.1534 10.9147C9.90281 10.9147 9.69191 11 9.52075 11.1707C9.3496 11.3414 9.26403 11.5529 9.26403 11.8053V13.7784C9.26403 14.1304 9.13865 14.4317 8.8879 14.6824C8.63714 14.9331 8.33569 15.0584 7.98357 15.0584H4.03623ZM14.3953 7.84547C15.0326 7.84547 15.5753 7.62143 16.0234 7.17336C16.4715 6.72528 16.6955 6.18119 16.6955 5.54108C16.6955 4.90378 16.4714 4.36109 16.0231 3.91301C15.5748 3.46494 15.0314 3.2409 14.3929 3.2409C13.7544 3.2409 13.2111 3.46504 12.7631 3.91331C12.315 4.36159 12.0909 4.90498 12.0909 5.54348C12.0909 6.18198 12.315 6.72527 12.763 7.17336C13.2111 7.62143 13.7552 7.84547 14.3953 7.84547ZM5.22053 6.51778V5.03152L4.20152 4.01254H3.80708V5.10433L5.22053 6.51778ZM6.80131 6.51778L8.21478 5.10433V4.01254H7.82391L6.80131 5.03152V6.51778ZM5.22053 9.95479V8.46853L3.80708 7.05508V8.54134L5.22053 9.95479ZM6.80131 9.95479L8.21478 8.54134V7.05508L6.80131 8.46853V9.95479ZM5.22053 13.4884V12.0022L3.80708 10.5887V12.075L5.22053 13.4884ZM6.80131 13.4884L8.21478 12.075V10.5887L6.80131 12.0022V13.4884Z" fill="#2D65F2"/>
</g>
</svg>
