<svg width="327" height="323" viewBox="0 0 327 323" fill="none" xmlns="http://www.w3.org/2000/svg">
<rect y="0.835938" width="327" height="322" rx="16" fill="white"/>
<path d="M185.195 75.2729L186.395 75.0882C187.332 74.9441 188.186 74.4693 188.804 73.7497C189.421 73.0301 189.761 72.1133 189.761 71.1652V67.3413C189.761 66.3931 189.421 65.4763 188.804 64.7567C188.187 64.0371 187.332 63.5623 186.395 63.4182L185.195 63.2305V75.2729Z" fill="#2D65F2"/>
<path d="M141.799 75.2736L140.6 75.089C139.663 74.9447 138.808 74.4698 138.191 73.7503C137.574 73.0307 137.234 72.114 137.234 71.1659V67.3421C137.234 66.394 137.574 65.4772 138.191 64.7576C138.808 64.038 139.663 63.5632 140.6 63.419L141.799 63.2344V75.2736Z" fill="#2D65F2"/>
<path d="M163.83 62.0545C168.284 62.0545 171.895 59.4487 171.895 56.2343C171.895 53.0199 168.284 50.4141 163.83 50.4141C159.376 50.4141 155.766 53.0199 155.766 56.2343C155.766 59.4487 159.376 62.0545 163.83 62.0545Z" fill="#2D65F2"/>
<path d="M141.328 75.1079C141.328 76.4562 141.692 77.7796 142.382 78.938C143.072 80.0964 144.062 81.0468 145.248 81.6886C148.319 83.3497 153.777 84.8914 163.46 84.8914C173.143 84.8914 178.6 83.3522 181.672 81.6886C182.857 81.0468 183.848 80.0964 184.538 78.938C185.228 77.7796 185.592 76.4562 185.592 75.1079V63.0686C185.592 61.7203 185.228 60.3969 184.538 59.2385C183.848 58.0801 182.857 57.1297 181.672 56.4879C178.601 54.8269 173.143 53.2852 163.46 53.2852C153.777 53.2852 148.32 54.8244 145.248 56.4879C144.062 57.1297 143.072 58.0801 142.382 59.2385C141.692 60.3969 141.328 61.7203 141.328 63.0686V75.1079Z" fill="#DDDDDD"/>
<path d="M163.826 81.974C154.507 81.974 149.724 80.4448 147.352 79.1618C146.567 78.7373 145.911 78.1083 145.454 77.3413C144.998 76.5744 144.757 75.6981 144.758 74.8055V65.9056C144.757 65.0129 144.998 64.1367 145.454 63.3697C145.911 62.6028 146.567 61.9737 147.352 61.5492C149.724 60.2668 154.507 58.7383 163.826 58.7383C173.145 58.7383 177.929 60.2681 180.301 61.5504C181.086 61.9749 181.742 62.604 182.199 63.371C182.655 64.1379 182.896 65.0142 182.895 65.9068V74.8092C182.896 75.7019 182.655 76.5781 182.199 77.3451C181.742 78.112 181.086 78.7411 180.301 79.1656C177.929 80.4474 173.146 81.974 163.826 81.974Z" fill="#303030"/>
<path d="M159.225 70.8847C159.225 72.6343 157.807 71.7639 156.058 71.7639C154.309 71.7639 152.891 72.6343 152.891 70.8847C152.902 70.0524 153.241 69.2582 153.834 68.6738C154.427 68.0894 155.226 67.7617 156.058 67.7617C156.89 67.7617 157.689 68.0894 158.282 68.6738C158.875 69.2582 159.213 70.0524 159.225 70.8847Z" fill="white"/>
<path d="M174.765 70.8863C174.765 72.2309 173.927 72.028 172.745 71.8622C172.365 71.803 171.982 71.7707 171.597 71.7655C169.848 71.7655 168.43 72.6359 168.43 70.8863C168.43 70.0462 168.763 69.2406 169.357 68.6465C169.951 68.0525 170.757 67.7188 171.597 67.7188C172.437 67.7188 173.243 68.0525 173.837 68.6465C174.431 69.2406 174.765 70.0462 174.765 70.8863Z" fill="white"/>
<path d="M185.818 102.23C185.818 106.08 185.46 109.605 184.796 112.791C184.729 113.115 184.659 113.436 184.584 113.754C181.55 126.791 173.253 133.849 163.495 133.849C153.737 133.849 145.438 126.79 142.406 113.754C142.332 113.436 142.261 113.115 142.194 112.791C141.53 109.605 141.172 106.08 141.172 102.23C141.172 93.6647 150.13 88.1758 163.495 88.1758C176.86 88.1758 185.818 93.6647 185.818 102.23Z" fill="#DDDDDD"/>
<path d="M181.894 103.547C181.894 106.725 181.597 109.635 181.048 112.264C180.992 112.532 180.934 112.798 180.872 113.06C178.361 123.822 171.495 129.648 163.419 129.648C155.344 129.648 148.476 123.821 145.967 113.06C145.905 112.798 145.847 112.532 145.791 112.264C145.242 109.635 144.945 106.725 144.945 103.547C144.945 96.4763 152.359 91.9453 163.419 91.9453C174.48 91.9453 181.894 96.4763 181.894 103.547Z" fill="#2D65F2"/>
<path d="M168.184 103.07V106.047C168.184 106.36 167.931 106.613 167.619 106.613H165.956C165.374 106.613 164.813 106.82 164.371 107.192C164.318 107.236 164.266 107.284 164.217 107.333L164.103 107.447C164.067 107.484 164.032 107.521 163.998 107.559C163.603 108.007 163.383 108.585 163.383 109.186V110.849C163.383 111.161 163.13 111.414 162.817 111.414H159.84C159.527 111.414 159.273 111.161 159.273 110.849V107.871C159.273 107.559 159.527 107.305 159.84 107.305H161.616C162.268 107.305 162.893 107.046 163.354 106.585C163.584 106.355 163.765 106.083 163.888 105.787C164.01 105.492 164.075 105.172 164.075 104.846V103.07C164.075 102.757 164.328 102.504 164.641 102.504H167.619C167.931 102.503 168.184 102.757 168.184 103.07Z" fill="white"/>
<path d="M168.186 107.599V111.415H164.372C164.167 111.415 164 111.248 164 111.043V108.876C164.018 108.47 164.182 108.091 164.47 107.802L164.569 107.702C164.873 107.396 165.277 107.227 165.707 107.227H167.814C168.02 107.227 168.186 107.393 168.186 107.599Z" fill="white"/>
<path d="M163.459 112.258V116.074H159.645C159.44 116.074 159.273 115.907 159.273 115.702V113.536C159.291 113.13 159.456 112.751 159.743 112.462L159.842 112.362C160.147 112.056 160.551 111.887 160.981 111.887H163.087C163.292 111.886 163.459 112.053 163.459 112.258Z" fill="white"/>
<path d="M161.366 106.69C162.522 106.69 163.459 105.753 163.459 104.597C163.459 103.441 162.522 102.504 161.366 102.504C160.21 102.504 159.273 103.441 159.273 104.597C159.273 105.753 160.21 106.69 161.366 106.69Z" fill="white"/>
<path d="M86.5693 162.535H83.8535V156.989H78.7646V162.535H76.04V149.686H78.7646V154.722H83.8535V149.686H86.5693V162.535ZM98.54 157.604C98.54 158.425 98.4287 159.151 98.2061 159.784C97.9893 160.417 97.6699 160.953 97.248 161.393C96.832 161.826 96.3281 162.154 95.7363 162.377C95.1504 162.6 94.4883 162.711 93.75 162.711C93.0586 162.711 92.4229 162.6 91.8428 162.377C91.2686 162.154 90.7676 161.826 90.3398 161.393C89.918 160.953 89.5898 160.417 89.3555 159.784C89.127 159.151 89.0127 158.425 89.0127 157.604C89.0127 156.515 89.2061 155.592 89.5928 154.836C89.9795 154.08 90.5303 153.506 91.2451 153.113C91.96 152.721 92.8125 152.524 93.8027 152.524C94.7227 152.524 95.5371 152.721 96.2461 153.113C96.9609 153.506 97.5205 154.08 97.9248 154.836C98.335 155.592 98.54 156.515 98.54 157.604ZM91.7461 157.604C91.7461 158.249 91.8164 158.791 91.957 159.23C92.0977 159.67 92.3174 160.001 92.6162 160.224C92.915 160.446 93.3047 160.558 93.7852 160.558C94.2598 160.558 94.6436 160.446 94.9365 160.224C95.2354 160.001 95.4521 159.67 95.5869 159.23C95.7275 158.791 95.7979 158.249 95.7979 157.604C95.7979 156.954 95.7275 156.415 95.5869 155.987C95.4521 155.554 95.2354 155.229 94.9365 155.012C94.6377 154.795 94.248 154.687 93.7676 154.687C93.0586 154.687 92.543 154.93 92.2207 155.416C91.9043 155.902 91.7461 156.632 91.7461 157.604ZM108.832 162.535L108.076 159.099C108.035 158.894 107.968 158.592 107.874 158.193C107.78 157.789 107.678 157.358 107.566 156.901C107.461 156.438 107.361 156.011 107.268 155.618C107.18 155.226 107.115 154.938 107.074 154.757H106.995C106.954 154.938 106.89 155.226 106.802 155.618C106.714 156.011 106.614 156.438 106.503 156.901C106.397 157.364 106.298 157.801 106.204 158.211C106.11 158.615 106.04 158.923 105.993 159.134L105.202 162.535H102.319L99.5244 152.709H102.196L103.33 157.06C103.406 157.364 103.479 157.728 103.55 158.149C103.62 158.565 103.682 158.97 103.734 159.362C103.793 159.749 103.837 160.057 103.866 160.285H103.937C103.948 160.115 103.972 159.89 104.007 159.608C104.048 159.327 104.092 159.037 104.139 158.738C104.191 158.434 104.238 158.161 104.279 157.921C104.326 157.675 104.361 157.508 104.385 157.42L105.598 152.709H108.551L109.702 157.42C109.743 157.59 109.796 157.859 109.86 158.229C109.931 158.598 109.992 158.979 110.045 159.371C110.098 159.758 110.127 160.062 110.133 160.285H110.203C110.227 160.086 110.268 159.79 110.326 159.397C110.385 159.005 110.452 158.595 110.528 158.167C110.61 157.733 110.692 157.364 110.774 157.06L111.952 152.709H114.58L111.75 162.535H108.832ZM124.837 162.711C123.864 162.711 123.035 162.535 122.35 162.184C121.664 161.826 121.143 161.275 120.785 160.531C120.428 159.787 120.249 158.835 120.249 157.675C120.249 156.474 120.451 155.495 120.855 154.739C121.266 153.978 121.831 153.418 122.552 153.061C123.278 152.703 124.119 152.524 125.074 152.524C125.754 152.524 126.34 152.592 126.832 152.727C127.33 152.855 127.764 153.011 128.133 153.192L127.342 155.267C126.92 155.097 126.527 154.959 126.164 154.854C125.801 154.742 125.438 154.687 125.074 154.687C124.605 154.687 124.216 154.798 123.905 155.021C123.595 155.237 123.363 155.565 123.211 156.005C123.059 156.444 122.982 156.995 122.982 157.657C122.982 158.308 123.064 158.847 123.229 159.274C123.393 159.702 123.63 160.021 123.94 160.232C124.251 160.438 124.629 160.54 125.074 160.54C125.631 160.54 126.126 160.467 126.56 160.32C126.993 160.168 127.415 159.957 127.825 159.688V161.981C127.415 162.239 126.984 162.424 126.533 162.535C126.088 162.652 125.522 162.711 124.837 162.711ZM134.136 152.507C135.454 152.507 136.465 152.794 137.168 153.368C137.871 153.942 138.223 154.815 138.223 155.987V162.535H136.351L135.832 161.199H135.762C135.48 161.551 135.193 161.838 134.9 162.061C134.607 162.283 134.271 162.447 133.89 162.553C133.509 162.658 133.046 162.711 132.501 162.711C131.921 162.711 131.399 162.6 130.937 162.377C130.479 162.154 130.119 161.814 129.855 161.357C129.592 160.895 129.46 160.309 129.46 159.6C129.46 158.557 129.826 157.789 130.559 157.297C131.291 156.799 132.39 156.523 133.854 156.471L135.56 156.418V155.987C135.56 155.472 135.425 155.094 135.155 154.854C134.886 154.613 134.511 154.493 134.03 154.493C133.556 154.493 133.09 154.561 132.633 154.695C132.176 154.83 131.719 155 131.262 155.205L130.374 153.395C130.896 153.119 131.479 152.902 132.123 152.744C132.773 152.586 133.444 152.507 134.136 152.507ZM135.56 157.982L134.522 158.018C133.655 158.041 133.052 158.196 132.712 158.483C132.378 158.771 132.211 159.148 132.211 159.617C132.211 160.027 132.331 160.32 132.571 160.496C132.812 160.666 133.125 160.751 133.512 160.751C134.086 160.751 134.569 160.581 134.962 160.241C135.36 159.901 135.56 159.418 135.56 158.791V157.982ZM146.572 152.524C147.621 152.524 148.465 152.812 149.104 153.386C149.742 153.954 150.062 154.868 150.062 156.128V162.535H147.381V156.796C147.381 156.093 147.252 155.562 146.994 155.205C146.742 154.848 146.344 154.669 145.799 154.669C144.979 154.669 144.419 154.947 144.12 155.504C143.821 156.061 143.672 156.863 143.672 157.912V162.535H140.991V152.709H143.039L143.399 153.966H143.549C143.76 153.626 144.021 153.351 144.331 153.14C144.647 152.929 144.996 152.773 145.377 152.674C145.764 152.574 146.162 152.524 146.572 152.524ZM157.708 162.535V149.686H160.433V162.535H157.708ZM170.812 148.859V151.646C170.812 152.132 170.795 152.595 170.76 153.034C170.73 153.474 170.707 153.784 170.689 153.966H170.83C171.041 153.626 171.29 153.351 171.577 153.14C171.87 152.929 172.192 152.773 172.544 152.674C172.896 152.574 173.273 152.524 173.678 152.524C174.387 152.524 175.005 152.65 175.532 152.902C176.06 153.148 176.47 153.538 176.763 154.071C177.056 154.599 177.202 155.284 177.202 156.128V162.535H174.521V156.796C174.521 156.093 174.393 155.562 174.135 155.205C173.877 154.848 173.479 154.669 172.939 154.669C172.4 154.669 171.976 154.795 171.665 155.047C171.354 155.293 171.135 155.659 171.006 156.146C170.877 156.626 170.812 157.215 170.812 157.912V162.535H168.132V148.859H170.812ZM184.014 152.524C184.922 152.524 185.704 152.7 186.36 153.052C187.017 153.397 187.523 153.901 187.881 154.563C188.238 155.226 188.417 156.034 188.417 156.989V158.29H182.08C182.109 159.046 182.335 159.641 182.757 160.074C183.185 160.502 183.776 160.716 184.532 160.716C185.159 160.716 185.733 160.651 186.255 160.522C186.776 160.394 187.312 160.2 187.863 159.942V162.017C187.377 162.257 186.867 162.433 186.334 162.544C185.807 162.655 185.165 162.711 184.409 162.711C183.425 162.711 182.552 162.529 181.79 162.166C181.034 161.803 180.439 161.249 180.006 160.505C179.578 159.761 179.364 158.823 179.364 157.692C179.364 156.544 179.558 155.589 179.944 154.827C180.337 154.06 180.882 153.485 181.579 153.104C182.276 152.718 183.088 152.524 184.014 152.524ZM184.031 154.432C183.51 154.432 183.076 154.599 182.73 154.933C182.391 155.267 182.194 155.791 182.142 156.506H185.903C185.897 156.107 185.824 155.753 185.684 155.442C185.549 155.132 185.344 154.886 185.068 154.704C184.799 154.522 184.453 154.432 184.031 154.432ZM193.277 162.535H190.597V148.859H193.277V162.535ZM201.565 152.524C202.673 152.524 203.566 152.955 204.246 153.816C204.932 154.678 205.274 155.94 205.274 157.604C205.274 158.718 205.113 159.655 204.791 160.417C204.469 161.173 204.023 161.744 203.455 162.131C202.887 162.518 202.233 162.711 201.495 162.711C201.021 162.711 200.613 162.652 200.273 162.535C199.934 162.412 199.644 162.257 199.403 162.069C199.163 161.876 198.955 161.671 198.779 161.454H198.639C198.686 161.688 198.721 161.929 198.744 162.175C198.768 162.421 198.779 162.661 198.779 162.896V166.859H196.099V152.709H198.278L198.656 153.983H198.779C198.955 153.72 199.169 153.477 199.421 153.254C199.673 153.031 199.975 152.855 200.326 152.727C200.684 152.592 201.097 152.524 201.565 152.524ZM200.704 154.669C200.235 154.669 199.863 154.766 199.588 154.959C199.312 155.152 199.11 155.442 198.981 155.829C198.858 156.216 198.791 156.705 198.779 157.297V157.587C198.779 158.22 198.838 158.756 198.955 159.195C199.078 159.635 199.28 159.969 199.562 160.197C199.849 160.426 200.241 160.54 200.739 160.54C201.149 160.54 201.486 160.426 201.75 160.197C202.014 159.969 202.21 159.635 202.339 159.195C202.474 158.75 202.541 158.208 202.541 157.569C202.541 156.608 202.392 155.885 202.093 155.398C201.794 154.912 201.331 154.669 200.704 154.669ZM210.759 152.709H213.694L215.549 158.237C215.607 158.413 215.657 158.592 215.698 158.773C215.739 158.955 215.774 159.143 215.804 159.336C215.833 159.529 215.856 159.731 215.874 159.942H215.927C215.962 159.626 216.009 159.33 216.067 159.055C216.132 158.779 216.211 158.507 216.305 158.237L218.124 152.709H220.998L216.841 163.792C216.589 164.472 216.261 165.037 215.856 165.488C215.452 165.945 214.986 166.288 214.459 166.517C213.938 166.745 213.363 166.859 212.736 166.859C212.432 166.859 212.168 166.842 211.945 166.807C211.723 166.777 211.532 166.745 211.374 166.71V164.583C211.497 164.612 211.652 164.639 211.84 164.662C212.027 164.686 212.224 164.697 212.429 164.697C212.804 164.697 213.126 164.618 213.396 164.46C213.665 164.302 213.891 164.088 214.072 163.818C214.254 163.555 214.397 163.265 214.503 162.948L214.661 162.465L210.759 152.709ZM231.343 157.604C231.343 158.425 231.231 159.151 231.009 159.784C230.792 160.417 230.473 160.953 230.051 161.393C229.635 161.826 229.131 162.154 228.539 162.377C227.953 162.6 227.291 162.711 226.553 162.711C225.861 162.711 225.226 162.6 224.646 162.377C224.071 162.154 223.57 161.826 223.143 161.393C222.721 160.953 222.393 160.417 222.158 159.784C221.93 159.151 221.815 158.425 221.815 157.604C221.815 156.515 222.009 155.592 222.396 154.836C222.782 154.08 223.333 153.506 224.048 153.113C224.763 152.721 225.615 152.524 226.605 152.524C227.525 152.524 228.34 152.721 229.049 153.113C229.764 153.506 230.323 154.08 230.728 154.836C231.138 155.592 231.343 156.515 231.343 157.604ZM224.549 157.604C224.549 158.249 224.619 158.791 224.76 159.23C224.9 159.67 225.12 160.001 225.419 160.224C225.718 160.446 226.107 160.558 226.588 160.558C227.062 160.558 227.446 160.446 227.739 160.224C228.038 160.001 228.255 159.67 228.39 159.23C228.53 158.791 228.601 158.249 228.601 157.604C228.601 156.954 228.53 156.415 228.39 155.987C228.255 155.554 228.038 155.229 227.739 155.012C227.44 154.795 227.051 154.687 226.57 154.687C225.861 154.687 225.346 154.93 225.023 155.416C224.707 155.902 224.549 156.632 224.549 157.604ZM242.575 152.709V162.535H240.519L240.158 161.278H240.018C239.807 161.612 239.543 161.885 239.227 162.096C238.91 162.307 238.562 162.462 238.181 162.562C237.8 162.661 237.404 162.711 236.994 162.711C236.291 162.711 235.679 162.588 235.157 162.342C234.636 162.09 234.229 161.7 233.936 161.173C233.648 160.646 233.505 159.96 233.505 159.116V152.709H236.186V158.448C236.186 159.151 236.312 159.682 236.563 160.039C236.815 160.396 237.217 160.575 237.768 160.575C238.312 160.575 238.74 160.452 239.051 160.206C239.361 159.954 239.578 159.588 239.701 159.107C239.83 158.621 239.895 158.029 239.895 157.332V152.709H242.575ZM246.407 158.272V157.622C246.407 157.224 246.463 156.872 246.574 156.567C246.686 156.257 246.864 155.964 247.11 155.688C247.356 155.407 247.682 155.12 248.086 154.827C248.449 154.569 248.739 154.338 248.956 154.133C249.179 153.928 249.34 153.726 249.439 153.526C249.545 153.321 249.598 153.09 249.598 152.832C249.598 152.451 249.457 152.161 249.176 151.962C248.895 151.763 248.502 151.663 247.998 151.663C247.494 151.663 246.993 151.742 246.495 151.9C246.003 152.059 245.502 152.267 244.992 152.524L244.034 150.6C244.62 150.271 245.256 150.008 245.941 149.809C246.627 149.604 247.377 149.501 248.191 149.501C249.445 149.501 250.415 149.803 251.101 150.406C251.792 151.004 252.138 151.766 252.138 152.691C252.138 153.184 252.059 153.611 251.9 153.975C251.748 154.332 251.514 154.666 251.197 154.977C250.887 155.281 250.497 155.604 250.028 155.943C249.677 156.201 249.407 156.418 249.22 156.594C249.032 156.77 248.903 156.945 248.833 157.121C248.769 157.291 248.736 157.499 248.736 157.745V158.272H246.407ZM246.126 161.278C246.126 160.728 246.275 160.341 246.574 160.118C246.879 159.896 247.245 159.784 247.673 159.784C248.089 159.784 248.446 159.896 248.745 160.118C249.05 160.341 249.202 160.728 249.202 161.278C249.202 161.806 249.05 162.187 248.745 162.421C248.446 162.655 248.089 162.772 247.673 162.772C247.245 162.772 246.879 162.655 246.574 162.421C246.275 162.187 246.126 161.806 246.126 161.278Z" fill="#333333"/>
<rect x="0.5" y="189.035" width="326" height="38" rx="5.5" stroke="#DDDDDD"/>
<rect x="12" y="205.035" width="6" height="6" rx="3" fill="#999999"/>
<path d="M33.9043 203.969L31.6133 212.535H30.6113L28.9121 206.77C28.8613 206.605 28.8125 206.441 28.7656 206.277C28.7227 206.109 28.6816 205.951 28.6426 205.803C28.6035 205.65 28.5703 205.518 28.543 205.404C28.5195 205.287 28.502 205.199 28.4902 205.141C28.4824 205.199 28.4668 205.285 28.4434 205.398C28.4238 205.512 28.3965 205.643 28.3613 205.791C28.3301 205.939 28.291 206.098 28.2441 206.266C28.2012 206.434 28.1543 206.604 28.1035 206.775L26.4512 212.535H25.4492L23.1758 203.969H24.2129L25.5898 209.342C25.6367 209.521 25.6797 209.699 25.7188 209.875C25.7617 210.047 25.7988 210.215 25.8301 210.379C25.8652 210.543 25.8965 210.703 25.9238 210.859C25.9512 211.016 25.9766 211.168 26 211.316C26.0195 211.164 26.0449 211.006 26.0762 210.842C26.1074 210.674 26.1406 210.504 26.1758 210.332C26.2148 210.16 26.2559 209.986 26.2988 209.811C26.3457 209.635 26.3945 209.459 26.4453 209.283L27.9863 203.969H29.0117L30.6172 209.324C30.6719 209.508 30.7227 209.689 30.7695 209.869C30.8164 210.049 30.8574 210.225 30.8926 210.396C30.9316 210.564 30.9648 210.727 30.9922 210.883C31.0234 211.035 31.0508 211.18 31.0742 211.316C31.1016 211.125 31.1348 210.924 31.1738 210.713C31.2129 210.502 31.2578 210.281 31.3086 210.051C31.3633 209.82 31.4219 209.582 31.4844 209.336L32.8613 203.969H33.9043ZM36.084 203.418V206.143C36.084 206.299 36.0801 206.457 36.0723 206.617C36.0645 206.773 36.0508 206.918 36.0312 207.051H36.0957C36.2285 206.824 36.3965 206.635 36.5996 206.482C36.8066 206.326 37.041 206.209 37.3027 206.131C37.5645 206.049 37.8418 206.008 38.1348 206.008C38.6504 206.008 39.0801 206.09 39.4238 206.254C39.7715 206.418 40.0312 206.672 40.2031 207.016C40.3789 207.359 40.4668 207.805 40.4668 208.352V212.535H39.5059V208.416C39.5059 207.881 39.3828 207.48 39.1367 207.215C38.8945 206.949 38.5215 206.816 38.0176 206.816C37.541 206.816 37.1602 206.908 36.875 207.092C36.5938 207.271 36.3906 207.537 36.2656 207.889C36.1445 208.24 36.084 208.67 36.084 209.178V212.535H35.1113V203.418H36.084ZM44.873 206.008C45.6387 206.008 46.207 206.18 46.5781 206.523C46.9492 206.867 47.1348 207.416 47.1348 208.17V212.535H46.4258L46.2383 211.586H46.1914C46.0117 211.82 45.8242 212.018 45.6289 212.178C45.4336 212.334 45.207 212.453 44.9492 212.535C44.6953 212.613 44.3828 212.652 44.0117 212.652C43.6211 212.652 43.2734 212.584 42.9688 212.447C42.668 212.311 42.4297 212.104 42.2539 211.826C42.082 211.549 41.9961 211.197 41.9961 210.771C41.9961 210.131 42.25 209.639 42.7578 209.295C43.2656 208.951 44.0391 208.764 45.0781 208.732L46.1855 208.686V208.293C46.1855 207.738 46.0664 207.35 45.8281 207.127C45.5898 206.904 45.2539 206.793 44.8203 206.793C44.4844 206.793 44.1641 206.842 43.8594 206.939C43.5547 207.037 43.2656 207.152 42.9922 207.285L42.6934 206.547C42.9824 206.398 43.3145 206.271 43.6895 206.166C44.0645 206.061 44.459 206.008 44.873 206.008ZM46.1738 209.371L45.1953 209.412C44.3945 209.443 43.8301 209.574 43.502 209.805C43.1738 210.035 43.0098 210.361 43.0098 210.783C43.0098 211.15 43.1211 211.422 43.3438 211.598C43.5664 211.773 43.8613 211.861 44.2285 211.861C44.7988 211.861 45.2656 211.703 45.6289 211.387C45.9922 211.07 46.1738 210.596 46.1738 209.963V209.371ZM51.2129 211.855C51.373 211.855 51.5371 211.842 51.7051 211.814C51.873 211.787 52.0098 211.754 52.1152 211.715V212.471C52.002 212.521 51.8438 212.564 51.6406 212.6C51.4414 212.635 51.2461 212.652 51.0547 212.652C50.7148 212.652 50.4062 212.594 50.1289 212.477C49.8516 212.355 49.6289 212.152 49.4609 211.867C49.2969 211.582 49.2148 211.188 49.2148 210.684V206.875H48.3008V206.4L49.2207 206.02L49.6074 204.625H50.1934V206.113H52.0742V206.875H50.1934V210.654C50.1934 211.057 50.2852 211.357 50.4688 211.557C50.6562 211.756 50.9043 211.855 51.2129 211.855ZM57.5059 206.113V212.535H56.5332V206.113H57.5059ZM57.0312 203.711C57.1914 203.711 57.3281 203.764 57.4414 203.869C57.5586 203.971 57.6172 204.131 57.6172 204.35C57.6172 204.564 57.5586 204.725 57.4414 204.83C57.3281 204.936 57.1914 204.988 57.0312 204.988C56.8633 204.988 56.7227 204.936 56.6094 204.83C56.5 204.725 56.4453 204.564 56.4453 204.35C56.4453 204.131 56.5 203.971 56.6094 203.869C56.7227 203.764 56.8633 203.711 57.0312 203.711ZM63.7227 210.777C63.7227 211.188 63.6191 211.533 63.4121 211.814C63.209 212.092 62.916 212.301 62.5332 212.441C62.1543 212.582 61.7012 212.652 61.1738 212.652C60.7246 212.652 60.3359 212.617 60.0078 212.547C59.6797 212.477 59.3926 212.377 59.1465 212.248V211.352C59.4082 211.48 59.7207 211.598 60.084 211.703C60.4473 211.809 60.8184 211.861 61.1973 211.861C61.752 211.861 62.1543 211.771 62.4043 211.592C62.6543 211.412 62.7793 211.168 62.7793 210.859C62.7793 210.684 62.7285 210.529 62.627 210.396C62.5293 210.26 62.3633 210.129 62.1289 210.004C61.8945 209.875 61.5703 209.734 61.1562 209.582C60.7461 209.426 60.3906 209.271 60.0898 209.119C59.793 208.963 59.5625 208.773 59.3984 208.551C59.2383 208.328 59.1582 208.039 59.1582 207.684C59.1582 207.141 59.377 206.725 59.8145 206.436C60.2559 206.143 60.834 205.996 61.5488 205.996C61.9355 205.996 62.2969 206.035 62.6328 206.113C62.9727 206.188 63.2891 206.289 63.582 206.418L63.2539 207.197C62.9883 207.084 62.7051 206.988 62.4043 206.91C62.1035 206.832 61.7969 206.793 61.4844 206.793C61.0352 206.793 60.6895 206.867 60.4473 207.016C60.209 207.164 60.0898 207.367 60.0898 207.625C60.0898 207.824 60.1445 207.988 60.2539 208.117C60.3672 208.246 60.5469 208.367 60.793 208.48C61.0391 208.594 61.3633 208.727 61.7656 208.879C62.168 209.027 62.5156 209.182 62.8086 209.342C63.1016 209.498 63.3262 209.689 63.4824 209.916C63.6426 210.139 63.7227 210.426 63.7227 210.777ZM70.877 205.996C71.4238 205.996 71.8926 206.117 72.2832 206.359C72.6738 206.602 72.9727 206.941 73.1797 207.379C73.3867 207.812 73.4902 208.32 73.4902 208.902V209.506H69.0547C69.0664 210.26 69.2539 210.834 69.6172 211.229C69.9805 211.623 70.4922 211.82 71.1523 211.82C71.5586 211.82 71.918 211.783 72.2305 211.709C72.543 211.635 72.8672 211.525 73.2031 211.381V212.236C72.8789 212.381 72.5566 212.486 72.2363 212.553C71.9199 212.619 71.5449 212.652 71.1113 212.652C70.4941 212.652 69.9551 212.527 69.4941 212.277C69.0371 212.023 68.6816 211.652 68.4277 211.164C68.1738 210.676 68.0469 210.078 68.0469 209.371C68.0469 208.68 68.1621 208.082 68.3926 207.578C68.627 207.07 68.9551 206.68 69.377 206.406C69.8027 206.133 70.3027 205.996 70.877 205.996ZM70.8652 206.793C70.3457 206.793 69.9316 206.963 69.623 207.303C69.3145 207.643 69.1309 208.117 69.0723 208.727H72.4707C72.4668 208.344 72.4062 208.008 72.2891 207.719C72.1758 207.426 72.002 207.199 71.7676 207.039C71.5332 206.875 71.2324 206.793 70.8652 206.793ZM76.6719 209.248L74.4512 206.113H75.5645L77.2578 208.586L78.9453 206.113H80.0469L77.8262 209.248L80.1699 212.535H79.0566L77.2578 209.916L75.4473 212.535H74.3457L76.6719 209.248ZM84.4414 205.996C85.2422 205.996 85.8809 206.271 86.3574 206.822C86.834 207.373 87.0723 208.201 87.0723 209.307C87.0723 210.037 86.9629 210.65 86.7441 211.146C86.5254 211.643 86.2168 212.018 85.8184 212.271C85.4238 212.525 84.957 212.652 84.418 212.652C84.0781 212.652 83.7793 212.607 83.5215 212.518C83.2637 212.428 83.043 212.307 82.8594 212.154C82.6758 212.002 82.5234 211.836 82.4023 211.656H82.332C82.3438 211.809 82.3574 211.992 82.373 212.207C82.3926 212.422 82.4023 212.609 82.4023 212.77V215.406H81.4238V206.113H82.2266L82.3555 207.062H82.4023C82.5273 206.867 82.6797 206.689 82.8594 206.529C83.0391 206.365 83.2578 206.236 83.5156 206.143C83.7773 206.045 84.0859 205.996 84.4414 205.996ZM84.2715 206.816C83.8262 206.816 83.4668 206.902 83.1934 207.074C82.9238 207.246 82.7266 207.504 82.6016 207.848C82.4766 208.188 82.4102 208.615 82.4023 209.131V209.318C82.4023 209.861 82.4609 210.32 82.5781 210.695C82.6992 211.07 82.8965 211.355 83.1699 211.551C83.4473 211.746 83.8184 211.844 84.2832 211.844C84.6816 211.844 85.0137 211.736 85.2793 211.521C85.5449 211.307 85.7422 211.008 85.8711 210.625C86.0039 210.238 86.0703 209.795 86.0703 209.295C86.0703 208.537 85.9219 207.936 85.625 207.49C85.332 207.041 84.8809 206.816 84.2715 206.816ZM91.2441 205.996C91.791 205.996 92.2598 206.117 92.6504 206.359C93.041 206.602 93.3398 206.941 93.5469 207.379C93.7539 207.812 93.8574 208.32 93.8574 208.902V209.506H89.4219C89.4336 210.26 89.6211 210.834 89.9844 211.229C90.3477 211.623 90.8594 211.82 91.5195 211.82C91.9258 211.82 92.2852 211.783 92.5977 211.709C92.9102 211.635 93.2344 211.525 93.5703 211.381V212.236C93.2461 212.381 92.9238 212.486 92.6035 212.553C92.2871 212.619 91.9121 212.652 91.4785 212.652C90.8613 212.652 90.3223 212.527 89.8613 212.277C89.4043 212.023 89.0488 211.652 88.7949 211.164C88.541 210.676 88.4141 210.078 88.4141 209.371C88.4141 208.68 88.5293 208.082 88.7598 207.578C88.9941 207.07 89.3223 206.68 89.7441 206.406C90.1699 206.133 90.6699 205.996 91.2441 205.996ZM91.2324 206.793C90.7129 206.793 90.2988 206.963 89.9902 207.303C89.6816 207.643 89.498 208.117 89.4395 208.727H92.8379C92.834 208.344 92.7734 208.008 92.6562 207.719C92.543 207.426 92.3691 207.199 92.1348 207.039C91.9004 206.875 91.5996 206.793 91.2324 206.793ZM98.5508 205.996C99.3125 205.996 99.8887 206.184 100.279 206.559C100.67 206.93 100.865 207.527 100.865 208.352V212.535H99.9043V208.416C99.9043 207.881 99.7812 207.48 99.5352 207.215C99.293 206.949 98.9199 206.816 98.416 206.816C97.7051 206.816 97.2051 207.018 96.916 207.42C96.627 207.822 96.4824 208.406 96.4824 209.172V212.535H95.5098V206.113H96.2949L96.4414 207.039H96.4941C96.6309 206.812 96.8047 206.623 97.0156 206.471C97.2266 206.314 97.4629 206.197 97.7246 206.119C97.9863 206.037 98.2617 205.996 98.5508 205.996ZM107.023 210.777C107.023 211.188 106.92 211.533 106.713 211.814C106.51 212.092 106.217 212.301 105.834 212.441C105.455 212.582 105.002 212.652 104.475 212.652C104.025 212.652 103.637 212.617 103.309 212.547C102.98 212.477 102.693 212.377 102.447 212.248V211.352C102.709 211.48 103.021 211.598 103.385 211.703C103.748 211.809 104.119 211.861 104.498 211.861C105.053 211.861 105.455 211.771 105.705 211.592C105.955 211.412 106.08 211.168 106.08 210.859C106.08 210.684 106.029 210.529 105.928 210.396C105.83 210.26 105.664 210.129 105.43 210.004C105.195 209.875 104.871 209.734 104.457 209.582C104.047 209.426 103.691 209.271 103.391 209.119C103.094 208.963 102.863 208.773 102.699 208.551C102.539 208.328 102.459 208.039 102.459 207.684C102.459 207.141 102.678 206.725 103.115 206.436C103.557 206.143 104.135 205.996 104.85 205.996C105.236 205.996 105.598 206.035 105.934 206.113C106.273 206.188 106.59 206.289 106.883 206.418L106.555 207.197C106.289 207.084 106.006 206.988 105.705 206.91C105.404 206.832 105.098 206.793 104.785 206.793C104.336 206.793 103.99 206.867 103.748 207.016C103.51 207.164 103.391 207.367 103.391 207.625C103.391 207.824 103.445 207.988 103.555 208.117C103.668 208.246 103.848 208.367 104.094 208.48C104.34 208.594 104.664 208.727 105.066 208.879C105.469 209.027 105.816 209.182 106.109 209.342C106.402 209.498 106.627 209.689 106.783 209.916C106.943 210.139 107.023 210.426 107.023 210.777ZM111.061 205.996C111.607 205.996 112.076 206.117 112.467 206.359C112.857 206.602 113.156 206.941 113.363 207.379C113.57 207.812 113.674 208.32 113.674 208.902V209.506H109.238C109.25 210.26 109.438 210.834 109.801 211.229C110.164 211.623 110.676 211.82 111.336 211.82C111.742 211.82 112.102 211.783 112.414 211.709C112.727 211.635 113.051 211.525 113.387 211.381V212.236C113.062 212.381 112.74 212.486 112.42 212.553C112.104 212.619 111.729 212.652 111.295 212.652C110.678 212.652 110.139 212.527 109.678 212.277C109.221 212.023 108.865 211.652 108.611 211.164C108.357 210.676 108.23 210.078 108.23 209.371C108.23 208.68 108.346 208.082 108.576 207.578C108.811 207.07 109.139 206.68 109.561 206.406C109.986 206.133 110.486 205.996 111.061 205.996ZM111.049 206.793C110.529 206.793 110.115 206.963 109.807 207.303C109.498 207.643 109.314 208.117 109.256 208.727H112.654C112.65 208.344 112.59 208.008 112.473 207.719C112.359 207.426 112.186 207.199 111.951 207.039C111.717 206.875 111.416 206.793 111.049 206.793ZM120.518 211.855C120.678 211.855 120.842 211.842 121.01 211.814C121.178 211.787 121.314 211.754 121.42 211.715V212.471C121.307 212.521 121.148 212.564 120.945 212.6C120.746 212.635 120.551 212.652 120.359 212.652C120.02 212.652 119.711 212.594 119.434 212.477C119.156 212.355 118.934 212.152 118.766 211.867C118.602 211.582 118.52 211.188 118.52 210.684V206.875H117.605V206.4L118.525 206.02L118.912 204.625H119.498V206.113H121.379V206.875H119.498V210.654C119.498 211.057 119.59 211.357 119.773 211.557C119.961 211.756 120.209 211.855 120.518 211.855ZM128.258 209.312C128.258 209.84 128.189 210.311 128.053 210.725C127.916 211.139 127.719 211.488 127.461 211.773C127.203 212.059 126.891 212.277 126.523 212.43C126.16 212.578 125.748 212.652 125.287 212.652C124.857 212.652 124.463 212.578 124.104 212.43C123.748 212.277 123.439 212.059 123.178 211.773C122.92 211.488 122.719 211.139 122.574 210.725C122.434 210.311 122.363 209.84 122.363 209.312C122.363 208.609 122.482 208.012 122.721 207.52C122.959 207.023 123.299 206.646 123.74 206.389C124.186 206.127 124.715 205.996 125.328 205.996C125.914 205.996 126.426 206.127 126.863 206.389C127.305 206.65 127.646 207.029 127.889 207.525C128.135 208.018 128.258 208.613 128.258 209.312ZM123.371 209.312C123.371 209.828 123.439 210.275 123.576 210.654C123.713 211.033 123.924 211.326 124.209 211.533C124.494 211.74 124.861 211.844 125.311 211.844C125.756 211.844 126.121 211.74 126.406 211.533C126.695 211.326 126.908 211.033 127.045 210.654C127.182 210.275 127.25 209.828 127.25 209.312C127.25 208.801 127.182 208.359 127.045 207.988C126.908 207.613 126.697 207.324 126.412 207.121C126.127 206.918 125.758 206.816 125.305 206.816C124.637 206.816 124.146 207.037 123.834 207.479C123.525 207.92 123.371 208.531 123.371 209.312ZM132.225 212.652C131.412 212.652 130.768 212.375 130.291 211.82C129.818 211.266 129.582 210.441 129.582 209.348C129.582 208.242 129.824 207.408 130.309 206.846C130.793 206.279 131.438 205.996 132.242 205.996C132.582 205.996 132.879 206.041 133.133 206.131C133.387 206.221 133.605 206.342 133.789 206.494C133.973 206.643 134.127 206.812 134.252 207.004H134.322C134.307 206.883 134.291 206.717 134.275 206.506C134.26 206.295 134.252 206.123 134.252 205.99V203.418H135.225V212.535H134.439L134.293 211.621H134.252C134.131 211.812 133.977 211.986 133.789 212.143C133.605 212.299 133.385 212.424 133.127 212.518C132.873 212.607 132.572 212.652 132.225 212.652ZM132.377 211.844C133.064 211.844 133.551 211.648 133.836 211.258C134.121 210.867 134.264 210.287 134.264 209.518V209.342C134.264 208.525 134.127 207.898 133.854 207.461C133.584 207.023 133.092 206.805 132.377 206.805C131.779 206.805 131.332 207.035 131.035 207.496C130.738 207.953 130.59 208.578 130.59 209.371C130.59 210.16 130.736 210.77 131.029 211.199C131.326 211.629 131.775 211.844 132.377 211.844ZM139.689 206.008C140.455 206.008 141.023 206.18 141.395 206.523C141.766 206.867 141.951 207.416 141.951 208.17V212.535H141.242L141.055 211.586H141.008C140.828 211.82 140.641 212.018 140.445 212.178C140.25 212.334 140.023 212.453 139.766 212.535C139.512 212.613 139.199 212.652 138.828 212.652C138.438 212.652 138.09 212.584 137.785 212.447C137.484 212.311 137.246 212.104 137.07 211.826C136.898 211.549 136.812 211.197 136.812 210.771C136.812 210.131 137.066 209.639 137.574 209.295C138.082 208.951 138.855 208.764 139.895 208.732L141.002 208.686V208.293C141.002 207.738 140.883 207.35 140.645 207.127C140.406 206.904 140.07 206.793 139.637 206.793C139.301 206.793 138.98 206.842 138.676 206.939C138.371 207.037 138.082 207.152 137.809 207.285L137.51 206.547C137.799 206.398 138.131 206.271 138.506 206.166C138.881 206.061 139.275 206.008 139.689 206.008ZM140.99 209.371L140.012 209.412C139.211 209.443 138.646 209.574 138.318 209.805C137.99 210.035 137.826 210.361 137.826 210.783C137.826 211.15 137.938 211.422 138.16 211.598C138.383 211.773 138.678 211.861 139.045 211.861C139.615 211.861 140.082 211.703 140.445 211.387C140.809 211.07 140.99 210.596 140.99 209.963V209.371ZM142.941 206.113H143.984L145.402 209.84C145.484 210.059 145.561 210.27 145.631 210.473C145.701 210.672 145.764 210.863 145.818 211.047C145.873 211.23 145.916 211.408 145.947 211.58H145.988C146.043 211.385 146.121 211.129 146.223 210.812C146.324 210.492 146.434 210.166 146.551 209.834L147.893 206.113H148.941L146.146 213.479C145.998 213.873 145.824 214.217 145.625 214.51C145.43 214.803 145.191 215.027 144.91 215.184C144.629 215.344 144.289 215.424 143.891 215.424C143.707 215.424 143.545 215.412 143.404 215.389C143.264 215.369 143.143 215.346 143.041 215.318V214.539C143.127 214.559 143.23 214.576 143.352 214.592C143.477 214.607 143.605 214.615 143.738 214.615C143.98 214.615 144.189 214.568 144.365 214.475C144.545 214.385 144.699 214.252 144.828 214.076C144.957 213.9 145.068 213.691 145.162 213.449L145.514 212.547L142.941 206.113ZM150.629 210.156V209.852C150.629 209.539 150.658 209.271 150.717 209.049C150.775 208.822 150.877 208.611 151.021 208.416C151.17 208.221 151.375 208.014 151.637 207.795C151.941 207.541 152.182 207.326 152.357 207.15C152.537 206.971 152.666 206.791 152.744 206.611C152.822 206.432 152.861 206.215 152.861 205.961C152.861 205.555 152.73 205.244 152.469 205.029C152.207 204.811 151.838 204.701 151.361 204.701C150.975 204.701 150.631 204.75 150.33 204.848C150.029 204.945 149.74 205.062 149.463 205.199L149.123 204.414C149.443 204.246 149.791 204.109 150.166 204.004C150.541 203.898 150.959 203.846 151.42 203.846C152.174 203.846 152.758 204.033 153.172 204.408C153.586 204.779 153.793 205.291 153.793 205.943C153.793 206.307 153.734 206.617 153.617 206.875C153.5 207.129 153.334 207.363 153.119 207.578C152.904 207.789 152.65 208.014 152.357 208.252C152.1 208.471 151.902 208.664 151.766 208.832C151.629 208.996 151.535 209.166 151.484 209.342C151.434 209.514 151.408 209.721 151.408 209.963V210.156H150.629ZM150.371 211.926C150.371 211.652 150.436 211.459 150.564 211.346C150.693 211.229 150.859 211.17 151.062 211.17C151.254 211.17 151.416 211.229 151.549 211.346C151.686 211.459 151.754 211.652 151.754 211.926C151.754 212.195 151.686 212.393 151.549 212.518C151.416 212.639 151.254 212.699 151.062 212.699C150.859 212.699 150.693 212.639 150.564 212.518C150.436 212.393 150.371 212.195 150.371 211.926Z" fill="#303030"/>
<rect x="0.5" y="238.035" width="326" height="38" rx="5.5" stroke="#DDDDDD"/>
<rect x="12" y="254.035" width="6" height="6" rx="3" fill="#999999"/>
<path d="M30.6641 261.535H29.668V257.498H25.168V261.535H24.1719V252.969H25.168V256.619H29.668V252.969H30.6641V261.535ZM38.4102 258.312C38.4102 258.84 38.3418 259.311 38.2051 259.725C38.0684 260.139 37.8711 260.488 37.6133 260.773C37.3555 261.059 37.043 261.277 36.6758 261.43C36.3125 261.578 35.9004 261.652 35.4395 261.652C35.0098 261.652 34.6152 261.578 34.2559 261.43C33.9004 261.277 33.5918 261.059 33.3301 260.773C33.0723 260.488 32.8711 260.139 32.7266 259.725C32.5859 259.311 32.5156 258.84 32.5156 258.312C32.5156 257.609 32.6348 257.012 32.873 256.52C33.1113 256.023 33.4512 255.646 33.8926 255.389C34.3379 255.127 34.8672 254.996 35.4805 254.996C36.0664 254.996 36.5781 255.127 37.0156 255.389C37.457 255.65 37.7988 256.029 38.041 256.525C38.2871 257.018 38.4102 257.613 38.4102 258.312ZM33.5234 258.312C33.5234 258.828 33.5918 259.275 33.7285 259.654C33.8652 260.033 34.0762 260.326 34.3613 260.533C34.6465 260.74 35.0137 260.844 35.4629 260.844C35.9082 260.844 36.2734 260.74 36.5586 260.533C36.8477 260.326 37.0605 260.033 37.1973 259.654C37.334 259.275 37.4023 258.828 37.4023 258.312C37.4023 257.801 37.334 257.359 37.1973 256.988C37.0605 256.613 36.8496 256.324 36.5645 256.121C36.2793 255.918 35.9102 255.816 35.457 255.816C34.7891 255.816 34.2988 256.037 33.9863 256.479C33.6777 256.92 33.5234 257.531 33.5234 258.312ZM45.3184 261.523L44.1758 257.785C44.125 257.625 44.0762 257.469 44.0293 257.316C43.9863 257.16 43.9453 257.012 43.9062 256.871C43.8711 256.727 43.8379 256.594 43.8066 256.473C43.7793 256.348 43.7559 256.24 43.7363 256.15H43.6953C43.6797 256.24 43.6582 256.348 43.6309 256.473C43.6035 256.594 43.5703 256.727 43.5312 256.871C43.4961 257.016 43.457 257.168 43.4141 257.328C43.3711 257.484 43.3223 257.643 43.2676 257.803L42.0723 261.523H40.9766L39.207 255.102H40.2148L41.1406 258.646C41.2031 258.881 41.2617 259.113 41.3164 259.344C41.375 259.57 41.4238 259.785 41.4629 259.988C41.5059 260.188 41.5371 260.361 41.5566 260.51H41.6035C41.627 260.412 41.6523 260.295 41.6797 260.158C41.7109 260.021 41.7441 259.877 41.7793 259.725C41.8184 259.568 41.8594 259.414 41.9023 259.262C41.9453 259.105 41.9883 258.959 42.0312 258.822L43.2148 255.102H44.2637L45.4062 258.816C45.4648 259.004 45.5215 259.199 45.5762 259.402C45.6348 259.605 45.6875 259.803 45.7344 259.994C45.7812 260.182 45.8145 260.35 45.834 260.498H45.8809C45.8965 260.365 45.9258 260.201 45.9688 260.006C46.0117 259.811 46.0605 259.596 46.1152 259.361C46.1738 259.127 46.2344 258.889 46.2969 258.646L47.2344 255.102H48.2246L46.4492 261.523H45.3184ZM59.4863 254.996C60.1934 254.996 60.7266 255.182 61.0859 255.553C61.4453 255.92 61.625 256.512 61.625 257.328V261.535H60.6641V257.375C60.6641 256.855 60.5508 256.467 60.3242 256.209C60.1016 255.947 59.7695 255.816 59.3281 255.816C58.707 255.816 58.2559 255.996 57.9746 256.355C57.6934 256.715 57.5527 257.244 57.5527 257.943V261.535H56.5859V257.375C56.5859 257.027 56.5352 256.738 56.4336 256.508C56.3359 256.277 56.1875 256.105 55.9883 255.992C55.793 255.875 55.5449 255.816 55.2441 255.816C54.8184 255.816 54.4766 255.904 54.2188 256.08C53.9609 256.256 53.7734 256.518 53.6562 256.865C53.543 257.209 53.4863 257.633 53.4863 258.137V261.535H52.5137V255.113H53.2988L53.4453 256.021H53.498C53.627 255.799 53.7891 255.611 53.9844 255.459C54.1797 255.307 54.3984 255.191 54.6406 255.113C54.8828 255.035 55.1406 254.996 55.4141 254.996C55.9023 254.996 56.3105 255.088 56.6387 255.271C56.9707 255.451 57.2109 255.727 57.3594 256.098H57.4121C57.623 255.727 57.9121 255.451 58.2793 255.271C58.6465 255.088 59.0488 254.996 59.4863 254.996ZM66.0254 255.008C66.791 255.008 67.3594 255.18 67.7305 255.523C68.1016 255.867 68.2871 256.416 68.2871 257.17V261.535H67.5781L67.3906 260.586H67.3438C67.1641 260.82 66.9766 261.018 66.7812 261.178C66.5859 261.334 66.3594 261.453 66.1016 261.535C65.8477 261.613 65.5352 261.652 65.1641 261.652C64.7734 261.652 64.4258 261.584 64.1211 261.447C63.8203 261.311 63.582 261.104 63.4062 260.826C63.2344 260.549 63.1484 260.197 63.1484 259.771C63.1484 259.131 63.4023 258.639 63.9102 258.295C64.418 257.951 65.1914 257.764 66.2305 257.732L67.3379 257.686V257.293C67.3379 256.738 67.2188 256.35 66.9805 256.127C66.7422 255.904 66.4062 255.793 65.9727 255.793C65.6367 255.793 65.3164 255.842 65.0117 255.939C64.707 256.037 64.418 256.152 64.1445 256.285L63.8457 255.547C64.1348 255.398 64.4668 255.271 64.8418 255.166C65.2168 255.061 65.6113 255.008 66.0254 255.008ZM67.3262 258.371L66.3477 258.412C65.5469 258.443 64.9824 258.574 64.6543 258.805C64.3262 259.035 64.1621 259.361 64.1621 259.783C64.1621 260.15 64.2734 260.422 64.4961 260.598C64.7188 260.773 65.0137 260.861 65.3809 260.861C65.9512 260.861 66.418 260.703 66.7812 260.387C67.1445 260.07 67.3262 259.596 67.3262 258.963V258.371ZM73.332 254.996C74.0938 254.996 74.6699 255.184 75.0605 255.559C75.4512 255.93 75.6465 256.527 75.6465 257.352V261.535H74.6855V257.416C74.6855 256.881 74.5625 256.48 74.3164 256.215C74.0742 255.949 73.7012 255.816 73.1973 255.816C72.4863 255.816 71.9863 256.018 71.6973 256.42C71.4082 256.822 71.2637 257.406 71.2637 258.172V261.535H70.291V255.113H71.0762L71.2227 256.039H71.2754C71.4121 255.812 71.5859 255.623 71.7969 255.471C72.0078 255.314 72.2441 255.197 72.5059 255.119C72.7676 255.037 73.043 254.996 73.332 254.996ZM76.6367 255.113H77.6797L79.0977 258.84C79.1797 259.059 79.2559 259.27 79.3262 259.473C79.3965 259.672 79.459 259.863 79.5137 260.047C79.5684 260.23 79.6113 260.408 79.6426 260.58H79.6836C79.7383 260.385 79.8164 260.129 79.918 259.812C80.0195 259.492 80.1289 259.166 80.2461 258.834L81.5879 255.113H82.6367L79.8418 262.479C79.6934 262.873 79.5195 263.217 79.3203 263.51C79.125 263.803 78.8867 264.027 78.6055 264.184C78.3242 264.344 77.9844 264.424 77.5859 264.424C77.4023 264.424 77.2402 264.412 77.0996 264.389C76.959 264.369 76.8379 264.346 76.7363 264.318V263.539C76.8223 263.559 76.9258 263.576 77.0469 263.592C77.1719 263.607 77.3008 263.615 77.4336 263.615C77.6758 263.615 77.8848 263.568 78.0605 263.475C78.2402 263.385 78.3945 263.252 78.5234 263.076C78.6523 262.9 78.7637 262.691 78.8574 262.449L79.209 261.547L76.6367 255.113ZM88.1914 261.535L85.7539 255.113H86.7969L88.209 258.998C88.3066 259.264 88.4062 259.557 88.5078 259.877C88.6094 260.197 88.6797 260.455 88.7188 260.65H88.7598C88.8066 260.455 88.8848 260.197 88.9941 259.877C89.1035 259.553 89.2031 259.26 89.293 258.998L90.7051 255.113H91.748L89.3047 261.535H88.1914ZM95.252 254.996C95.7988 254.996 96.2676 255.117 96.6582 255.359C97.0488 255.602 97.3477 255.941 97.5547 256.379C97.7617 256.812 97.8652 257.32 97.8652 257.902V258.506H93.4297C93.4414 259.26 93.6289 259.834 93.9922 260.229C94.3555 260.623 94.8672 260.82 95.5273 260.82C95.9336 260.82 96.293 260.783 96.6055 260.709C96.918 260.635 97.2422 260.525 97.5781 260.381V261.236C97.2539 261.381 96.9316 261.486 96.6113 261.553C96.2949 261.619 95.9199 261.652 95.4863 261.652C94.8691 261.652 94.3301 261.527 93.8691 261.277C93.4121 261.023 93.0566 260.652 92.8027 260.164C92.5488 259.676 92.4219 259.078 92.4219 258.371C92.4219 257.68 92.5371 257.082 92.7676 256.578C93.002 256.07 93.3301 255.68 93.752 255.406C94.1777 255.133 94.6777 254.996 95.252 254.996ZM95.2402 255.793C94.7207 255.793 94.3066 255.963 93.998 256.303C93.6895 256.643 93.5059 257.117 93.4473 257.727H96.8457C96.8418 257.344 96.7812 257.008 96.6641 256.719C96.5508 256.426 96.377 256.199 96.1426 256.039C95.9082 255.875 95.6074 255.793 95.2402 255.793ZM100.49 252.418V255.143C100.49 255.299 100.486 255.457 100.479 255.617C100.471 255.773 100.457 255.918 100.438 256.051H100.502C100.635 255.824 100.803 255.635 101.006 255.482C101.213 255.326 101.447 255.209 101.709 255.131C101.971 255.049 102.248 255.008 102.541 255.008C103.057 255.008 103.486 255.09 103.83 255.254C104.178 255.418 104.438 255.672 104.609 256.016C104.785 256.359 104.873 256.805 104.873 257.352V261.535H103.912V257.416C103.912 256.881 103.789 256.48 103.543 256.215C103.301 255.949 102.928 255.816 102.424 255.816C101.947 255.816 101.566 255.908 101.281 256.092C101 256.271 100.797 256.537 100.672 256.889C100.551 257.24 100.49 257.67 100.49 258.178V261.535H99.5176V252.418H100.49ZM107.85 255.113V261.535H106.877V255.113H107.85ZM107.375 252.711C107.535 252.711 107.672 252.764 107.785 252.869C107.902 252.971 107.961 253.131 107.961 253.35C107.961 253.564 107.902 253.725 107.785 253.83C107.672 253.936 107.535 253.988 107.375 253.988C107.207 253.988 107.066 253.936 106.953 253.83C106.844 253.725 106.789 253.564 106.789 253.35C106.789 253.131 106.844 252.971 106.953 252.869C107.066 252.764 107.207 252.711 107.375 252.711ZM112.484 261.652C111.906 261.652 111.396 261.533 110.955 261.295C110.514 261.057 110.17 260.693 109.924 260.205C109.678 259.717 109.555 259.102 109.555 258.359C109.555 257.582 109.684 256.947 109.941 256.455C110.203 255.959 110.562 255.592 111.02 255.354C111.477 255.115 111.996 254.996 112.578 254.996C112.898 254.996 113.207 255.029 113.504 255.096C113.805 255.158 114.051 255.238 114.242 255.336L113.949 256.15C113.754 256.072 113.527 256.002 113.27 255.939C113.016 255.877 112.777 255.846 112.555 255.846C112.109 255.846 111.738 255.941 111.441 256.133C111.148 256.324 110.928 256.605 110.779 256.977C110.635 257.348 110.562 257.805 110.562 258.348C110.562 258.867 110.633 259.311 110.773 259.678C110.918 260.045 111.131 260.326 111.412 260.521C111.697 260.713 112.053 260.809 112.479 260.809C112.818 260.809 113.125 260.773 113.398 260.703C113.672 260.629 113.92 260.543 114.143 260.445V261.312C113.928 261.422 113.688 261.506 113.422 261.564C113.16 261.623 112.848 261.652 112.484 261.652ZM116.645 261.535H115.666V252.418H116.645V261.535ZM121.174 254.996C121.721 254.996 122.189 255.117 122.58 255.359C122.971 255.602 123.27 255.941 123.477 256.379C123.684 256.812 123.787 257.32 123.787 257.902V258.506H119.352C119.363 259.26 119.551 259.834 119.914 260.229C120.277 260.623 120.789 260.82 121.449 260.82C121.855 260.82 122.215 260.783 122.527 260.709C122.84 260.635 123.164 260.525 123.5 260.381V261.236C123.176 261.381 122.854 261.486 122.533 261.553C122.217 261.619 121.842 261.652 121.408 261.652C120.791 261.652 120.252 261.527 119.791 261.277C119.334 261.023 118.979 260.652 118.725 260.164C118.471 259.676 118.344 259.078 118.344 258.371C118.344 257.68 118.459 257.082 118.689 256.578C118.924 256.07 119.252 255.68 119.674 255.406C120.1 255.133 120.6 254.996 121.174 254.996ZM121.162 255.793C120.643 255.793 120.229 255.963 119.92 256.303C119.611 256.643 119.428 257.117 119.369 257.727H122.768C122.764 257.344 122.703 257.008 122.586 256.719C122.473 256.426 122.299 256.199 122.064 256.039C121.83 255.875 121.529 255.793 121.162 255.793ZM129.594 259.777C129.594 260.188 129.49 260.533 129.283 260.814C129.08 261.092 128.787 261.301 128.404 261.441C128.025 261.582 127.572 261.652 127.045 261.652C126.596 261.652 126.207 261.617 125.879 261.547C125.551 261.477 125.264 261.377 125.018 261.248V260.352C125.279 260.48 125.592 260.598 125.955 260.703C126.318 260.809 126.689 260.861 127.068 260.861C127.623 260.861 128.025 260.771 128.275 260.592C128.525 260.412 128.65 260.168 128.65 259.859C128.65 259.684 128.6 259.529 128.498 259.396C128.4 259.26 128.234 259.129 128 259.004C127.766 258.875 127.441 258.734 127.027 258.582C126.617 258.426 126.262 258.271 125.961 258.119C125.664 257.963 125.434 257.773 125.27 257.551C125.109 257.328 125.029 257.039 125.029 256.684C125.029 256.141 125.248 255.725 125.686 255.436C126.127 255.143 126.705 254.996 127.42 254.996C127.807 254.996 128.168 255.035 128.504 255.113C128.844 255.188 129.16 255.289 129.453 255.418L129.125 256.197C128.859 256.084 128.576 255.988 128.275 255.91C127.975 255.832 127.668 255.793 127.355 255.793C126.906 255.793 126.561 255.867 126.318 256.016C126.08 256.164 125.961 256.367 125.961 256.625C125.961 256.824 126.016 256.988 126.125 257.117C126.238 257.246 126.418 257.367 126.664 257.48C126.91 257.594 127.234 257.727 127.637 257.879C128.039 258.027 128.387 258.182 128.68 258.342C128.973 258.498 129.197 258.689 129.354 258.916C129.514 259.139 129.594 259.426 129.594 259.777ZM137.316 254.996C138.078 254.996 138.654 255.184 139.045 255.559C139.436 255.93 139.631 256.527 139.631 257.352V261.535H138.67V257.416C138.67 256.881 138.547 256.48 138.301 256.215C138.059 255.949 137.686 255.816 137.182 255.816C136.471 255.816 135.971 256.018 135.682 256.42C135.393 256.822 135.248 257.406 135.248 258.172V261.535H134.275V255.113H135.061L135.207 256.039H135.26C135.396 255.812 135.57 255.623 135.781 255.471C135.992 255.314 136.229 255.197 136.49 255.119C136.752 255.037 137.027 254.996 137.316 254.996ZM144.107 254.996C144.654 254.996 145.123 255.117 145.514 255.359C145.904 255.602 146.203 255.941 146.41 256.379C146.617 256.812 146.721 257.32 146.721 257.902V258.506H142.285C142.297 259.26 142.484 259.834 142.848 260.229C143.211 260.623 143.723 260.82 144.383 260.82C144.789 260.82 145.148 260.783 145.461 260.709C145.773 260.635 146.098 260.525 146.434 260.381V261.236C146.109 261.381 145.787 261.486 145.467 261.553C145.15 261.619 144.775 261.652 144.342 261.652C143.725 261.652 143.186 261.527 142.725 261.277C142.268 261.023 141.912 260.652 141.658 260.164C141.404 259.676 141.277 259.078 141.277 258.371C141.277 257.68 141.393 257.082 141.623 256.578C141.857 256.07 142.186 255.68 142.607 255.406C143.033 255.133 143.533 254.996 144.107 254.996ZM144.096 255.793C143.576 255.793 143.162 255.963 142.854 256.303C142.545 256.643 142.361 257.117 142.303 257.727H145.701C145.697 257.344 145.637 257.008 145.52 256.719C145.406 256.426 145.232 256.199 144.998 256.039C144.764 255.875 144.463 255.793 144.096 255.793ZM150.846 254.996C151.393 254.996 151.861 255.117 152.252 255.359C152.643 255.602 152.941 255.941 153.148 256.379C153.355 256.812 153.459 257.32 153.459 257.902V258.506H149.023C149.035 259.26 149.223 259.834 149.586 260.229C149.949 260.623 150.461 260.82 151.121 260.82C151.527 260.82 151.887 260.783 152.199 260.709C152.512 260.635 152.836 260.525 153.172 260.381V261.236C152.848 261.381 152.525 261.486 152.205 261.553C151.889 261.619 151.514 261.652 151.08 261.652C150.463 261.652 149.924 261.527 149.463 261.277C149.006 261.023 148.65 260.652 148.396 260.164C148.143 259.676 148.016 259.078 148.016 258.371C148.016 257.68 148.131 257.082 148.361 256.578C148.596 256.07 148.924 255.68 149.346 255.406C149.771 255.133 150.271 254.996 150.846 254.996ZM150.834 255.793C150.314 255.793 149.9 255.963 149.592 256.303C149.283 256.643 149.1 257.117 149.041 257.727H152.439C152.436 257.344 152.375 257.008 152.258 256.719C152.145 256.426 151.971 256.199 151.736 256.039C151.502 255.875 151.201 255.793 150.834 255.793ZM157.396 261.652C156.584 261.652 155.939 261.375 155.463 260.82C154.99 260.266 154.754 259.441 154.754 258.348C154.754 257.242 154.996 256.408 155.48 255.846C155.965 255.279 156.609 254.996 157.414 254.996C157.754 254.996 158.051 255.041 158.305 255.131C158.559 255.221 158.777 255.342 158.961 255.494C159.145 255.643 159.299 255.812 159.424 256.004H159.494C159.479 255.883 159.463 255.717 159.447 255.506C159.432 255.295 159.424 255.123 159.424 254.99V252.418H160.396V261.535H159.611L159.465 260.621H159.424C159.303 260.812 159.148 260.986 158.961 261.143C158.777 261.299 158.557 261.424 158.299 261.518C158.045 261.607 157.744 261.652 157.396 261.652ZM157.549 260.844C158.236 260.844 158.723 260.648 159.008 260.258C159.293 259.867 159.436 259.287 159.436 258.518V258.342C159.436 257.525 159.299 256.898 159.025 256.461C158.756 256.023 158.264 255.805 157.549 255.805C156.951 255.805 156.504 256.035 156.207 256.496C155.91 256.953 155.762 257.578 155.762 258.371C155.762 259.16 155.908 259.77 156.201 260.199C156.498 260.629 156.947 260.844 157.549 260.844ZM172.549 254.996C173.256 254.996 173.789 255.182 174.148 255.553C174.508 255.92 174.688 256.512 174.688 257.328V261.535H173.727V257.375C173.727 256.855 173.613 256.467 173.387 256.209C173.164 255.947 172.832 255.816 172.391 255.816C171.77 255.816 171.318 255.996 171.037 256.355C170.756 256.715 170.615 257.244 170.615 257.943V261.535H169.648V257.375C169.648 257.027 169.598 256.738 169.496 256.508C169.398 256.277 169.25 256.105 169.051 255.992C168.855 255.875 168.607 255.816 168.307 255.816C167.881 255.816 167.539 255.904 167.281 256.08C167.023 256.256 166.836 256.518 166.719 256.865C166.605 257.209 166.549 257.633 166.549 258.137V261.535H165.576V255.113H166.361L166.508 256.021H166.561C166.689 255.799 166.852 255.611 167.047 255.459C167.242 255.307 167.461 255.191 167.703 255.113C167.945 255.035 168.203 254.996 168.477 254.996C168.965 254.996 169.373 255.088 169.701 255.271C170.033 255.451 170.273 255.727 170.422 256.098H170.475C170.686 255.727 170.975 255.451 171.342 255.271C171.709 255.088 172.111 254.996 172.549 254.996ZM179.088 255.008C179.854 255.008 180.422 255.18 180.793 255.523C181.164 255.867 181.35 256.416 181.35 257.17V261.535H180.641L180.453 260.586H180.406C180.227 260.82 180.039 261.018 179.844 261.178C179.648 261.334 179.422 261.453 179.164 261.535C178.91 261.613 178.598 261.652 178.227 261.652C177.836 261.652 177.488 261.584 177.184 261.447C176.883 261.311 176.645 261.104 176.469 260.826C176.297 260.549 176.211 260.197 176.211 259.771C176.211 259.131 176.465 258.639 176.973 258.295C177.48 257.951 178.254 257.764 179.293 257.732L180.4 257.686V257.293C180.4 256.738 180.281 256.35 180.043 256.127C179.805 255.904 179.469 255.793 179.035 255.793C178.699 255.793 178.379 255.842 178.074 255.939C177.77 256.037 177.48 256.152 177.207 256.285L176.908 255.547C177.197 255.398 177.529 255.271 177.904 255.166C178.279 255.061 178.674 255.008 179.088 255.008ZM180.389 258.371L179.41 258.412C178.609 258.443 178.045 258.574 177.717 258.805C177.389 259.035 177.225 259.361 177.225 259.783C177.225 260.15 177.336 260.422 177.559 260.598C177.781 260.773 178.076 260.861 178.443 260.861C179.014 260.861 179.48 260.703 179.844 260.387C180.207 260.07 180.389 259.596 180.389 258.963V258.371ZM184.326 255.113V261.535H183.354V255.113H184.326ZM183.852 252.711C184.012 252.711 184.148 252.764 184.262 252.869C184.379 252.971 184.438 253.131 184.438 253.35C184.438 253.564 184.379 253.725 184.262 253.83C184.148 253.936 184.012 253.988 183.852 253.988C183.684 253.988 183.543 253.936 183.43 253.83C183.32 253.725 183.266 253.564 183.266 253.35C183.266 253.131 183.32 252.971 183.43 252.869C183.543 252.764 183.684 252.711 183.852 252.711ZM189.43 254.996C190.191 254.996 190.768 255.184 191.158 255.559C191.549 255.93 191.744 256.527 191.744 257.352V261.535H190.783V257.416C190.783 256.881 190.66 256.48 190.414 256.215C190.172 255.949 189.799 255.816 189.295 255.816C188.584 255.816 188.084 256.018 187.795 256.42C187.506 256.822 187.361 257.406 187.361 258.172V261.535H186.389V255.113H187.174L187.32 256.039H187.373C187.51 255.812 187.684 255.623 187.895 255.471C188.105 255.314 188.342 255.197 188.604 255.119C188.865 255.037 189.141 254.996 189.43 254.996ZM195.822 260.855C195.982 260.855 196.146 260.842 196.314 260.814C196.482 260.787 196.619 260.754 196.725 260.715V261.471C196.611 261.521 196.453 261.564 196.25 261.6C196.051 261.635 195.855 261.652 195.664 261.652C195.324 261.652 195.016 261.594 194.738 261.477C194.461 261.355 194.238 261.152 194.07 260.867C193.906 260.582 193.824 260.188 193.824 259.684V255.875H192.91V255.4L193.83 255.02L194.217 253.625H194.803V255.113H196.684V255.875H194.803V259.654C194.803 260.057 194.895 260.357 195.078 260.557C195.266 260.756 195.514 260.855 195.822 260.855ZM200.498 254.996C201.045 254.996 201.514 255.117 201.904 255.359C202.295 255.602 202.594 255.941 202.801 256.379C203.008 256.812 203.111 257.32 203.111 257.902V258.506H198.676C198.688 259.26 198.875 259.834 199.238 260.229C199.602 260.623 200.113 260.82 200.773 260.82C201.18 260.82 201.539 260.783 201.852 260.709C202.164 260.635 202.488 260.525 202.824 260.381V261.236C202.5 261.381 202.178 261.486 201.857 261.553C201.541 261.619 201.166 261.652 200.732 261.652C200.115 261.652 199.576 261.527 199.115 261.277C198.658 261.023 198.303 260.652 198.049 260.164C197.795 259.676 197.668 259.078 197.668 258.371C197.668 257.68 197.783 257.082 198.014 256.578C198.248 256.07 198.576 255.68 198.998 255.406C199.424 255.133 199.924 254.996 200.498 254.996ZM200.486 255.793C199.967 255.793 199.553 255.963 199.244 256.303C198.936 256.643 198.752 257.117 198.693 257.727H202.092C202.088 257.344 202.027 257.008 201.91 256.719C201.797 256.426 201.623 256.199 201.389 256.039C201.154 255.875 200.854 255.793 200.486 255.793ZM207.805 254.996C208.566 254.996 209.143 255.184 209.533 255.559C209.924 255.93 210.119 256.527 210.119 257.352V261.535H209.158V257.416C209.158 256.881 209.035 256.48 208.789 256.215C208.547 255.949 208.174 255.816 207.67 255.816C206.959 255.816 206.459 256.018 206.17 256.42C205.881 256.822 205.736 257.406 205.736 258.172V261.535H204.764V255.113H205.549L205.695 256.039H205.748C205.885 255.812 206.059 255.623 206.27 255.471C206.48 255.314 206.717 255.197 206.979 255.119C207.24 255.037 207.516 254.996 207.805 254.996ZM214.525 255.008C215.291 255.008 215.859 255.18 216.23 255.523C216.602 255.867 216.787 256.416 216.787 257.17V261.535H216.078L215.891 260.586H215.844C215.664 260.82 215.477 261.018 215.281 261.178C215.086 261.334 214.859 261.453 214.602 261.535C214.348 261.613 214.035 261.652 213.664 261.652C213.273 261.652 212.926 261.584 212.621 261.447C212.32 261.311 212.082 261.104 211.906 260.826C211.734 260.549 211.648 260.197 211.648 259.771C211.648 259.131 211.902 258.639 212.41 258.295C212.918 257.951 213.691 257.764 214.73 257.732L215.838 257.686V257.293C215.838 256.738 215.719 256.35 215.48 256.127C215.242 255.904 214.906 255.793 214.473 255.793C214.137 255.793 213.816 255.842 213.512 255.939C213.207 256.037 212.918 256.152 212.645 256.285L212.346 255.547C212.635 255.398 212.967 255.271 213.342 255.166C213.717 255.061 214.111 255.008 214.525 255.008ZM215.826 258.371L214.848 258.412C214.047 258.443 213.482 258.574 213.154 258.805C212.826 259.035 212.662 259.361 212.662 259.783C212.662 260.15 212.773 260.422 212.996 260.598C213.219 260.773 213.514 260.861 213.881 260.861C214.451 260.861 214.918 260.703 215.281 260.387C215.645 260.07 215.826 259.596 215.826 258.963V258.371ZM221.832 254.996C222.594 254.996 223.17 255.184 223.561 255.559C223.951 255.93 224.146 256.527 224.146 257.352V261.535H223.186V257.416C223.186 256.881 223.062 256.48 222.816 256.215C222.574 255.949 222.201 255.816 221.697 255.816C220.986 255.816 220.486 256.018 220.197 256.42C219.908 256.822 219.764 257.406 219.764 258.172V261.535H218.791V255.113H219.576L219.723 256.039H219.775C219.912 255.812 220.086 255.623 220.297 255.471C220.508 255.314 220.744 255.197 221.006 255.119C221.268 255.037 221.543 254.996 221.832 254.996ZM228.723 261.652C228.145 261.652 227.635 261.533 227.193 261.295C226.752 261.057 226.408 260.693 226.162 260.205C225.916 259.717 225.793 259.102 225.793 258.359C225.793 257.582 225.922 256.947 226.18 256.455C226.441 255.959 226.801 255.592 227.258 255.354C227.715 255.115 228.234 254.996 228.816 254.996C229.137 254.996 229.445 255.029 229.742 255.096C230.043 255.158 230.289 255.238 230.48 255.336L230.188 256.15C229.992 256.072 229.766 256.002 229.508 255.939C229.254 255.877 229.016 255.846 228.793 255.846C228.348 255.846 227.977 255.941 227.68 256.133C227.387 256.324 227.166 256.605 227.018 256.977C226.873 257.348 226.801 257.805 226.801 258.348C226.801 258.867 226.871 259.311 227.012 259.678C227.156 260.045 227.369 260.326 227.65 260.521C227.936 260.713 228.291 260.809 228.717 260.809C229.057 260.809 229.363 260.773 229.637 260.703C229.91 260.629 230.158 260.543 230.381 260.445V261.312C230.166 261.422 229.926 261.506 229.66 261.564C229.398 261.623 229.086 261.652 228.723 261.652ZM234.377 254.996C234.924 254.996 235.393 255.117 235.783 255.359C236.174 255.602 236.473 255.941 236.68 256.379C236.887 256.812 236.99 257.32 236.99 257.902V258.506H232.555C232.566 259.26 232.754 259.834 233.117 260.229C233.48 260.623 233.992 260.82 234.652 260.82C235.059 260.82 235.418 260.783 235.73 260.709C236.043 260.635 236.367 260.525 236.703 260.381V261.236C236.379 261.381 236.057 261.486 235.736 261.553C235.42 261.619 235.045 261.652 234.611 261.652C233.994 261.652 233.455 261.527 232.994 261.277C232.537 261.023 232.182 260.652 231.928 260.164C231.674 259.676 231.547 259.078 231.547 258.371C231.547 257.68 231.662 257.082 231.893 256.578C232.127 256.07 232.455 255.68 232.877 255.406C233.303 255.133 233.803 254.996 234.377 254.996ZM234.365 255.793C233.846 255.793 233.432 255.963 233.123 256.303C232.814 256.643 232.631 257.117 232.572 257.727H235.971C235.967 257.344 235.906 257.008 235.789 256.719C235.676 256.426 235.502 256.199 235.268 256.039C235.033 255.875 234.732 255.793 234.365 255.793ZM239.305 259.156V258.852C239.305 258.539 239.334 258.271 239.393 258.049C239.451 257.822 239.553 257.611 239.697 257.416C239.846 257.221 240.051 257.014 240.312 256.795C240.617 256.541 240.857 256.326 241.033 256.15C241.213 255.971 241.342 255.791 241.42 255.611C241.498 255.432 241.537 255.215 241.537 254.961C241.537 254.555 241.406 254.244 241.145 254.029C240.883 253.811 240.514 253.701 240.037 253.701C239.65 253.701 239.307 253.75 239.006 253.848C238.705 253.945 238.416 254.062 238.139 254.199L237.799 253.414C238.119 253.246 238.467 253.109 238.842 253.004C239.217 252.898 239.635 252.846 240.096 252.846C240.85 252.846 241.434 253.033 241.848 253.408C242.262 253.779 242.469 254.291 242.469 254.943C242.469 255.307 242.41 255.617 242.293 255.875C242.176 256.129 242.01 256.363 241.795 256.578C241.58 256.789 241.326 257.014 241.033 257.252C240.775 257.471 240.578 257.664 240.441 257.832C240.305 257.996 240.211 258.166 240.16 258.342C240.109 258.514 240.084 258.721 240.084 258.963V259.156H239.305ZM239.047 260.926C239.047 260.652 239.111 260.459 239.24 260.346C239.369 260.229 239.535 260.17 239.738 260.17C239.93 260.17 240.092 260.229 240.225 260.346C240.361 260.459 240.43 260.652 240.43 260.926C240.43 261.195 240.361 261.393 240.225 261.518C240.092 261.639 239.93 261.699 239.738 261.699C239.535 261.699 239.369 261.639 239.24 261.518C239.111 261.393 239.047 261.195 239.047 260.926Z" fill="#303030"/>
</svg>
