<svg width="1200" height="44" viewBox="0 0 1200 44" fill="none" xmlns="http://www.w3.org/2000/svg">
<rect x="172" y="1" width="42" height="42" rx="21" stroke="#0336BC" strokeWidth="2"/>
<path d="M195.793 31H192.474V21.9121C192.474 21.6615 192.477 21.3535 192.484 20.9883C192.492 20.6159 192.502 20.2363 192.517 19.8496C192.531 19.4557 192.545 19.1012 192.56 18.7861C192.481 18.8792 192.32 19.0404 192.076 19.2695C191.84 19.4915 191.618 19.6921 191.41 19.8711L189.605 21.3213L188.005 19.3232L193.064 15.2949H195.793V31Z" fill="#0336BC"/>
<path d="M245 22H548" stroke="#B8CBFC" strokeWidth="2" strokeLinecap="round" stroke-dasharray="0 8"/>
<rect x="579" y="1" width="42" height="42" rx="21" stroke="#0336BC" strokeWidth="2"/>
<path d="M605.564 31H594.586V28.6904L598.528 24.7051C599.323 23.8887 599.961 23.2083 600.44 22.6641C600.927 22.1126 601.278 21.6113 601.493 21.1602C601.715 20.709 601.826 20.2256 601.826 19.71C601.826 19.0869 601.651 18.6214 601.3 18.3135C600.956 17.9984 600.494 17.8408 599.914 17.8408C599.305 17.8408 598.715 17.9805 598.142 18.2598C597.569 18.5391 596.971 18.9365 596.348 19.4521L594.543 17.3145C594.994 16.9277 595.47 16.5625 595.972 16.2188C596.48 15.875 597.067 15.5993 597.733 15.3916C598.407 15.1768 599.212 15.0693 600.15 15.0693C601.182 15.0693 602.066 15.2555 602.804 15.6279C603.549 16.0003 604.121 16.5088 604.522 17.1533C604.924 17.7907 605.124 18.514 605.124 19.3232C605.124 20.1898 604.952 20.9811 604.608 21.6973C604.265 22.4134 603.763 23.1224 603.104 23.8242C602.453 24.526 601.665 25.3031 600.741 26.1553L598.722 28.0566V28.207H605.564V31Z" fill="#0336BC"/>
<path d="M652 22H955" stroke="#B8CBFC" strokeWidth="2" strokeLinecap="round" stroke-dasharray="0 8"/>
<rect x="986" y="1" width="42" height="42" rx="21" stroke="#0336BC" strokeWidth="2"/>
<path d="M1011.95 18.8076C1011.95 19.5309 1011.8 20.1576 1011.5 20.6875C1011.2 21.2174 1010.79 21.6507 1010.28 21.9873C1009.77 22.3239 1009.19 22.571 1008.56 22.7285V22.793C1009.82 22.9505 1010.77 23.3372 1011.43 23.9531C1012.08 24.569 1012.41 25.3926 1012.41 26.4238C1012.41 27.3405 1012.19 28.1605 1011.74 28.8838C1011.29 29.6071 1010.61 30.1764 1009.67 30.5918C1008.74 31.0072 1007.54 31.2148 1006.08 31.2148C1005.21 31.2148 1004.4 31.1432 1003.65 31C1002.9 30.8639 1002.2 30.6527 1001.54 30.3662V27.541C1002.22 27.8848 1002.92 28.1462 1003.66 28.3252C1004.4 28.4971 1005.08 28.583 1005.72 28.583C1006.91 28.583 1007.74 28.3789 1008.21 27.9707C1008.69 27.5553 1008.93 26.9753 1008.93 26.2305C1008.93 25.7936 1008.82 25.4248 1008.6 25.124C1008.38 24.8232 1007.99 24.5941 1007.44 24.4365C1006.9 24.279 1006.13 24.2002 1005.15 24.2002H1003.96V21.6543H1005.17C1006.14 21.6543 1006.87 21.5648 1007.38 21.3857C1007.88 21.1995 1008.23 20.9489 1008.41 20.6338C1008.59 20.3115 1008.69 19.9463 1008.69 19.5381C1008.69 18.9795 1008.51 18.5426 1008.17 18.2275C1007.83 17.9124 1007.25 17.7549 1006.45 17.7549C1005.95 17.7549 1005.49 17.8193 1005.08 17.9482C1004.67 18.07 1004.3 18.2204 1003.97 18.3994C1003.64 18.5713 1003.35 18.7396 1003.1 18.9043L1001.56 16.6162C1002.18 16.1722 1002.9 15.8034 1003.72 15.5098C1004.55 15.2161 1005.54 15.0693 1006.69 15.0693C1008.31 15.0693 1009.59 15.3952 1010.53 16.0469C1011.48 16.6986 1011.95 17.6188 1011.95 18.8076Z" fill="#0336BC"/>
</svg>
