<svg width="580" height="320" viewBox="0 0 580 320" fill="none" xmlns="http://www.w3.org/2000/svg">
<rect width="580" height="320" rx="24" fill="white"/>
<path d="M378.871 150.233C399.16 170.522 412.612 197.693 415.393 227.894C416.004 234.533 421.635 239.578 428.302 239.578H478.997C486.544 239.578 492.488 233.168 491.977 225.638C488.553 175.166 466.674 129.751 433.028 96.0781L394.756 112.519L378.871 150.233Z" fill="#89A8F8"/>
<path d="M289.584 36.6289L277.485 74.2658L289.584 113.149C324.433 113.178 355.997 127.361 378.871 150.235L433.027 96.0787C396.338 59.3613 345.608 36.6574 289.584 36.6289Z" fill="#B4C8FA"/>
<path d="M146.055 95.9646L162.097 135.094L200.238 150.148C223.141 127.274 254.677 113.148 289.497 113.148H289.582V36.6289H289.498C233.502 36.6289 182.801 59.3043 146.055 95.9646Z" fill="#DCE5FD"/>
<path d="M100.011 239.444H150.708C157.371 239.444 163 234.405 163.616 227.771C166.42 197.572 179.9 170.422 200.242 150.156L146.059 95.9727C112.413 129.619 90.4855 175.008 87.0309 225.498C86.5155 233.029 92.4605 239.444 100.011 239.444Z" fill="#F5F7FF"/>
<path d="M211.918 197.63L251.765 190.78L232.502 235.385L210.168 201.682C209.116 200.096 210.042 197.952 211.918 197.63Z" fill="#2D65F2"/>
<g filter="url(#filter0_d_8164_55957)">
<path d="M309.11 286.036C279.894 297.539 246.885 283.181 235.382 253.965C223.879 224.75 238.237 191.741 267.453 180.238C296.668 168.734 329.677 183.093 341.181 212.308C352.684 241.524 338.325 274.533 309.11 286.036Z" fill="#F7F7F7"/>
</g>
<g filter="url(#filter1_d_8164_55957)">
<rect x="243.023" y="187.867" width="90" height="90" rx="45" fill="#0336BC" shape-rendering="crispEdges"/>
<path d="M301.927 213.196V222.599C301.927 223.585 301.136 224.385 300.159 224.385H294.961C293.14 224.385 291.388 225.037 290.006 226.213C289.84 226.353 289.679 226.503 289.525 226.658L289.169 227.019C289.055 227.133 288.946 227.252 288.842 227.372C287.605 228.785 286.918 230.612 286.918 232.509V237.759C286.918 238.744 286.127 239.545 285.15 239.545H275.84C274.863 239.545 274.07 238.744 274.07 237.759V228.356C274.07 227.37 274.863 226.57 275.84 226.57H281.393C283.432 226.57 285.386 225.752 286.827 224.296C287.547 223.569 288.112 222.71 288.495 221.778C288.878 220.845 289.079 219.834 289.079 218.805V213.196C289.079 212.21 289.872 211.41 290.849 211.41H300.159C301.136 211.408 301.927 212.209 301.927 213.196Z" fill="white"/>
<path d="M301.921 227.503V239.552H289.999C289.357 239.552 288.836 239.025 288.836 238.377V231.536C288.892 230.253 289.406 229.057 290.305 228.144L290.615 227.828C291.566 226.862 292.829 226.328 294.174 226.328H300.758C301.402 226.328 301.921 226.853 301.921 227.503Z" fill="white"/>
<path d="M287.156 242.216V254.265H275.233C274.591 254.265 274.07 253.739 274.07 253.09V246.25C274.126 244.968 274.64 243.772 275.539 242.859L275.849 242.543C276.8 241.576 278.063 241.043 279.408 241.043H285.993C286.634 241.041 287.156 241.568 287.156 242.216Z" fill="white"/>
<path d="M280.613 224.627C284.226 224.627 287.156 221.668 287.156 218.018C287.156 214.369 284.226 211.41 280.613 211.41C277 211.41 274.07 214.369 274.07 218.018C274.07 221.668 277 224.627 280.613 224.627Z" fill="white"/>
</g>
<g filter="url(#filter2_d_8164_55957)">
<rect x="356.297" y="30" width="52" height="52" rx="8.66667" fill="white" shape-rendering="crispEdges"/>
<path d="M383.323 55.5911V49.873C383.323 49.5983 383.224 49.3618 383.025 49.1635C382.827 48.9652 382.59 48.8661 382.315 48.8661C382.035 48.8661 381.796 48.9652 381.598 49.1635C381.401 49.3618 381.302 49.5983 381.302 49.873V55.9064C381.302 56.0647 381.332 56.218 381.391 56.3664C381.45 56.5148 381.541 56.6503 381.665 56.773L386.576 61.7036C386.768 61.9027 387.002 62.0045 387.278 62.0091C387.554 62.0138 387.797 61.9115 388.006 61.7022C388.211 61.4976 388.313 61.2596 388.313 60.9884C388.313 60.7171 388.211 60.4773 388.008 60.2691L383.323 55.5911ZM382.301 69.4313C380.444 69.4313 378.697 69.0784 377.063 68.3724C375.428 67.6664 374.005 66.7084 372.796 65.4981C371.586 64.2879 370.629 62.8669 369.924 61.235C369.22 59.6032 368.867 57.8595 368.867 56.0042C368.867 54.1468 369.22 52.4006 369.926 50.7657C370.632 49.1307 371.59 47.7085 372.8 46.4991C374.011 45.2896 375.432 44.3325 377.064 43.6276C378.695 42.9227 380.439 42.5703 382.294 42.5703C384.152 42.5703 385.898 42.9233 387.533 43.6293C389.168 44.3352 390.59 45.2933 391.799 46.5035C393.009 47.7137 393.966 49.1348 394.671 50.7666C395.376 52.3985 395.728 54.1421 395.728 55.9975C395.728 57.8549 395.375 59.601 394.669 61.236C393.963 62.871 393.005 64.2932 391.795 65.5026C390.585 66.712 389.164 67.6692 387.532 68.3741C385.9 69.0789 384.156 69.4313 382.301 69.4313Z" fill="#2D65F2"/>
</g>
<path d="M88.6875 265.832V252.982H90.7969V264.039H96.2549V265.832H88.6875ZM106.881 260.945C106.881 261.754 106.775 262.472 106.564 263.099C106.354 263.726 106.046 264.256 105.642 264.689C105.237 265.117 104.751 265.445 104.183 265.674C103.614 265.896 102.973 266.008 102.258 266.008C101.59 266.008 100.978 265.896 100.421 265.674C99.8643 265.445 99.3809 265.117 98.9707 264.689C98.5664 264.256 98.2529 263.726 98.0303 263.099C97.8076 262.472 97.6963 261.754 97.6963 260.945C97.6963 259.873 97.8809 258.965 98.25 258.221C98.625 257.471 99.1582 256.899 99.8496 256.507C100.541 256.114 101.364 255.918 102.319 255.918C103.216 255.918 104.007 256.114 104.692 256.507C105.378 256.899 105.914 257.471 106.301 258.221C106.688 258.971 106.881 259.879 106.881 260.945ZM99.8232 260.945C99.8232 261.654 99.9082 262.261 100.078 262.765C100.254 263.269 100.523 263.655 100.887 263.925C101.25 264.188 101.719 264.32 102.293 264.32C102.867 264.32 103.336 264.188 103.699 263.925C104.062 263.655 104.329 263.269 104.499 262.765C104.669 262.261 104.754 261.654 104.754 260.945C104.754 260.236 104.669 259.636 104.499 259.144C104.329 258.646 104.062 258.268 103.699 258.01C103.336 257.746 102.864 257.614 102.284 257.614C101.429 257.614 100.805 257.901 100.412 258.476C100.02 259.05 99.8232 259.873 99.8232 260.945ZM117.208 265.823L115.978 261.297C115.919 261.074 115.849 260.805 115.767 260.488C115.685 260.172 115.603 259.847 115.521 259.513C115.438 259.173 115.362 258.859 115.292 258.572C115.228 258.285 115.178 258.062 115.143 257.904H115.072C115.043 258.062 114.996 258.285 114.932 258.572C114.867 258.859 114.794 259.173 114.712 259.513C114.63 259.853 114.548 260.184 114.466 260.506C114.39 260.828 114.319 261.104 114.255 261.332L112.963 265.823H110.695L107.971 256.094H110.062L111.328 260.928C111.41 261.256 111.489 261.61 111.565 261.991C111.647 262.372 111.718 262.735 111.776 263.081C111.835 263.427 111.879 263.711 111.908 263.934H111.979C112.002 263.775 112.034 263.576 112.075 263.336C112.116 263.09 112.163 262.835 112.216 262.571C112.269 262.302 112.321 262.05 112.374 261.815C112.427 261.575 112.477 261.382 112.523 261.235L114.018 256.094H116.276L117.709 261.235C117.773 261.458 117.844 261.739 117.92 262.079C117.996 262.413 118.063 262.75 118.122 263.09C118.187 263.424 118.228 263.702 118.245 263.925H118.315C118.339 263.726 118.38 263.456 118.438 263.116C118.503 262.771 118.576 262.404 118.658 262.018C118.74 261.625 118.825 261.262 118.913 260.928L120.205 256.094H122.262L119.52 265.823H117.208Z" fill="#7D7D7D"/>
<path d="M463.831 265.832H461.73V260.031H455.807V265.832H453.697V252.982H455.807V258.238H461.73V252.982H463.831V265.832ZM469.087 256.103V265.832H467.021V256.103H469.087ZM468.067 252.376C468.384 252.376 468.656 252.461 468.885 252.631C469.119 252.801 469.236 253.094 469.236 253.51C469.236 253.92 469.119 254.213 468.885 254.389C468.656 254.559 468.384 254.644 468.067 254.644C467.739 254.644 467.461 254.559 467.232 254.389C467.01 254.213 466.898 253.92 466.898 253.51C466.898 253.094 467.01 252.801 467.232 252.631C467.461 252.461 467.739 252.376 468.067 252.376ZM474.826 270.156C473.508 270.156 472.497 269.919 471.794 269.444C471.091 268.97 470.739 268.305 470.739 267.449C470.739 266.852 470.927 266.345 471.302 265.929C471.677 265.519 472.213 265.234 472.91 265.076C472.646 264.959 472.418 264.777 472.225 264.531C472.037 264.279 471.943 264.001 471.943 263.696C471.943 263.333 472.046 263.022 472.251 262.765C472.456 262.507 472.764 262.258 473.174 262.018C472.664 261.801 472.254 261.449 471.943 260.963C471.639 260.471 471.486 259.894 471.486 259.231C471.486 258.528 471.636 257.931 471.935 257.438C472.233 256.94 472.67 256.562 473.244 256.305C473.818 256.041 474.513 255.909 475.327 255.909C475.503 255.909 475.693 255.921 475.898 255.944C476.109 255.962 476.303 255.985 476.479 256.015C476.66 256.038 476.798 256.064 476.892 256.094H480.258V257.245L478.605 257.553C478.764 257.775 478.89 258.03 478.983 258.317C479.077 258.599 479.124 258.906 479.124 259.24C479.124 260.248 478.775 261.042 478.078 261.622C477.387 262.196 476.432 262.483 475.213 262.483C474.92 262.472 474.636 262.448 474.36 262.413C474.149 262.542 473.988 262.686 473.877 262.844C473.766 262.996 473.71 263.169 473.71 263.362C473.71 263.521 473.766 263.649 473.877 263.749C473.988 263.843 474.152 263.913 474.369 263.96C474.592 264.007 474.861 264.03 475.178 264.03H476.856C477.923 264.03 478.737 264.256 479.3 264.707C479.862 265.158 480.144 265.82 480.144 266.693C480.144 267.801 479.687 268.653 478.772 269.251C477.858 269.854 476.543 270.156 474.826 270.156ZM474.905 268.706C475.626 268.706 476.232 268.636 476.725 268.495C477.217 268.354 477.589 268.152 477.841 267.889C478.093 267.631 478.219 267.323 478.219 266.966C478.219 266.649 478.14 266.406 477.981 266.236C477.823 266.066 477.586 265.949 477.27 265.885C476.953 265.82 476.561 265.788 476.092 265.788H474.562C474.182 265.788 473.845 265.847 473.552 265.964C473.259 266.087 473.03 266.263 472.866 266.491C472.708 266.72 472.629 266.995 472.629 267.317C472.629 267.763 472.825 268.105 473.218 268.346C473.616 268.586 474.179 268.706 474.905 268.706ZM475.31 261.13C475.913 261.13 476.361 260.966 476.654 260.638C476.947 260.304 477.094 259.835 477.094 259.231C477.094 258.575 476.941 258.083 476.637 257.755C476.338 257.427 475.893 257.263 475.301 257.263C474.721 257.263 474.278 257.43 473.974 257.764C473.675 258.098 473.525 258.593 473.525 259.249C473.525 259.841 473.675 260.304 473.974 260.638C474.278 260.966 474.724 261.13 475.31 261.13ZM484.099 252.156V255.593C484.099 255.95 484.087 256.299 484.063 256.639C484.046 256.979 484.025 257.242 484.002 257.43H484.116C484.321 257.09 484.573 256.812 484.872 256.595C485.171 256.372 485.505 256.205 485.874 256.094C486.249 255.982 486.647 255.927 487.069 255.927C487.813 255.927 488.446 256.053 488.968 256.305C489.489 256.551 489.888 256.935 490.163 257.456C490.444 257.978 490.585 258.654 490.585 259.486V265.832H488.52V259.873C488.52 259.117 488.364 258.552 488.054 258.177C487.743 257.796 487.263 257.605 486.612 257.605C485.985 257.605 485.487 257.737 485.118 258.001C484.755 258.259 484.494 258.643 484.336 259.152C484.178 259.656 484.099 260.271 484.099 260.998V265.832H482.033V252.156H484.099Z" fill="#7D7D7D"/>
<defs>
<filter id="filter0_d_8164_55957" x="219.414" y="168.27" width="137.734" height="137.734" filterUnits="userSpaceOnUse" color-interpolation-filters="sRGB">
<feFlood flood-opacity="0" result="BackgroundImageFix"/>
<feColorMatrix in="SourceAlpha" type="matrix" values="0 0 0 0 0 0 0 0 0 0 0 0 0 0 0 0 0 0 127 0" result="hardAlpha"/>
<feOffset dy="4"/>
<feGaussianBlur stdDeviation="6"/>
<feComposite in2="hardAlpha" operator="out"/>
<feColorMatrix type="matrix" values="0 0 0 0 0 0 0 0 0 0 0 0 0 0 0 0 0 0 0.14 0"/>
<feBlend mode="normal" in2="BackgroundImageFix" result="effect1_dropShadow_8164_55957"/>
<feBlend mode="normal" in="SourceGraphic" in2="effect1_dropShadow_8164_55957" result="shape"/>
</filter>
<filter id="filter1_d_8164_55957" x="222.925" y="174.468" width="130.198" height="130.198" filterUnits="userSpaceOnUse" color-interpolation-filters="sRGB">
<feFlood flood-opacity="0" result="BackgroundImageFix"/>
<feColorMatrix in="SourceAlpha" type="matrix" values="0 0 0 0 0 0 0 0 0 0 0 0 0 0 0 0 0 0 127 0" result="hardAlpha"/>
<feOffset dy="6.69962"/>
<feGaussianBlur stdDeviation="10.0494"/>
<feComposite in2="hardAlpha" operator="out"/>
<feColorMatrix type="matrix" values="0 0 0 0 0 0 0 0 0 0 0 0 0 0 0 0 0 0 0.14 0"/>
<feBlend mode="normal" in2="BackgroundImageFix" result="effect1_dropShadow_8164_55957"/>
<feBlend mode="normal" in="SourceGraphic" in2="effect1_dropShadow_8164_55957" result="shape"/>
</filter>
<filter id="filter2_d_8164_55957" x="352.297" y="27" width="60" height="60" filterUnits="userSpaceOnUse" color-interpolation-filters="sRGB">
<feFlood flood-opacity="0" result="BackgroundImageFix"/>
<feColorMatrix in="SourceAlpha" type="matrix" values="0 0 0 0 0 0 0 0 0 0 0 0 0 0 0 0 0 0 127 0" result="hardAlpha"/>
<feOffset dy="1"/>
<feGaussianBlur stdDeviation="2"/>
<feComposite in2="hardAlpha" operator="out"/>
<feColorMatrix type="matrix" values="0 0 0 0 0 0 0 0 0 0 0 0 0 0 0 0 0 0 0.15 0"/>
<feBlend mode="normal" in2="BackgroundImageFix" result="effect1_dropShadow_8164_55957"/>
<feBlend mode="normal" in="SourceGraphic" in2="effect1_dropShadow_8164_55957" result="shape"/>
</filter>
</defs>
</svg>
