<svg width="24" height="24" viewBox="0 0 24 24" fill="none" xmlns="http://www.w3.org/2000/svg">
<path d="M8.80775 21C8.57575 21 8.38317 20.9234 8.23 20.7703C8.07667 20.6171 8 20.4244 8 20.1923V5.2885C8 5.0565 8.07667 4.86383 8.23 4.7105C8.38317 4.55733 8.57575 4.48075 8.80775 4.48075H10.4232V3.80775C10.4232 3.57558 10.4998 3.38292 10.653 3.22975C10.8062 3.07658 10.9988 3 11.231 3H13C13.2322 3 13.4248 3.07658 13.578 3.22975C13.7312 3.38292 13.8077 3.57558 13.8077 3.80775V4.48075H15.4232C15.6552 4.48075 15.8478 4.55733 16.001 4.7105C16.1543 4.86383 16.231 5.0565 16.231 5.2885V10.2327C16.231 10.4147 16.1668 10.5689 16.0385 10.6953C15.9103 10.8214 15.7552 10.9012 15.5732 10.9345C14.1155 11.5 12.8487 11.8968 11.8577 13.0558C10.8667 14.2148 10.3712 15.5724 10.3712 17.1288C10.3712 17.6493 10.5901 18.1504 10.7176 18.6337C10.8452 19.1171 11.7692 19.5852 12.0115 20.0365C12.1268 20.2608 12.1284 20.4775 12.0162 20.6865C11.9041 20.8955 11.732 21 11.5 21H8.80775ZM16.5347 21C16.4271 21 16.3389 20.9657 16.2702 20.897C16.2017 20.8285 16.1572 20.7423 16.1367 20.6385L16.0655 20.1345C15.686 20.0512 15.3735 19.9339 15.128 19.7828C14.8825 19.6314 14.6507 19.4443 14.4327 19.2213L13.9405 19.4423C13.8495 19.4884 13.7562 19.5003 13.6607 19.478C13.5652 19.4555 13.4906 19.4007 13.4367 19.3135L13.279 19.0385C13.2123 18.9513 13.1882 18.8558 13.2067 18.752C13.2254 18.6482 13.2764 18.561 13.3597 18.4905L13.7617 18.15C13.6386 17.7847 13.577 17.4407 13.577 17.1182C13.577 16.7957 13.6386 16.4518 13.7617 16.0865L13.3597 15.7463C13.2764 15.6758 13.2254 15.5885 13.2067 15.4845C13.1882 15.3807 13.2123 15.2852 13.279 15.198L13.4367 14.923C13.4906 14.8358 13.5652 14.7811 13.6607 14.7587C13.7562 14.7362 13.8495 14.7481 13.9405 14.7942L14.4327 15.0155C14.6507 14.7923 14.8825 14.6042 15.128 14.451C15.3735 14.2978 15.686 14.1796 16.0655 14.0963L16.1367 13.5922C16.1572 13.4884 16.2017 13.4023 16.2702 13.3338C16.3389 13.2651 16.4271 13.2308 16.5347 13.2308H16.8117C16.9194 13.2308 17.0075 13.2651 17.076 13.3338C17.1447 13.4023 17.1892 13.4884 17.2097 13.5922L17.281 14.0963C17.6603 14.1796 17.9728 14.2968 18.2185 14.448C18.464 14.5993 18.6957 14.7865 18.9135 15.0095L19.406 14.7885C19.497 14.7423 19.5902 14.7305 19.6857 14.753C19.7812 14.7753 19.8559 14.8301 19.9097 14.9173L20.0675 15.1923C20.1342 15.2794 20.1582 15.3749 20.1395 15.4788C20.121 15.5826 20.0701 15.6698 19.9867 15.7405L19.5847 16.0807C19.7077 16.4461 19.7692 16.79 19.7692 17.1125C19.7692 17.435 19.7077 17.7789 19.5847 18.1443L19.9867 18.4845C20.0701 18.5552 20.121 18.6424 20.1395 18.7462C20.1582 18.8501 20.1342 18.9456 20.0675 19.0328L19.9097 19.3078C19.8559 19.3949 19.7822 19.4497 19.6885 19.472C19.595 19.4945 19.5027 19.4827 19.4117 19.4365L18.9135 19.2213C18.6957 19.4443 18.464 19.6314 18.2185 19.7828C17.9728 19.9339 17.6603 20.0512 17.281 20.1345L17.2097 20.6385C17.1892 20.7423 17.1447 20.8285 17.076 20.897C17.0075 20.9657 16.9194 21 16.8117 21H16.5347ZM16.6732 19.2693C17.2617 19.2693 17.7678 19.0574 18.1915 18.6337C18.6152 18.2099 18.827 17.7038 18.827 17.1155C18.827 16.527 18.6152 16.0208 18.1915 15.597C17.7678 15.1733 17.2617 14.9615 16.6732 14.9615C16.0847 14.9615 15.5787 15.1733 15.155 15.597C14.7312 16.0208 14.5192 16.527 14.5192 17.1155C14.5192 17.7038 14.7312 18.2099 15.155 18.6337C15.5787 19.0574 16.0847 19.2693 16.6732 19.2693Z" fill="#2D65F2"/>
<path d="M11.2585 9.72525H10.4008C10.2521 9.72525 10.1383 9.66017 10.0595 9.53C9.9805 9.39984 9.98017 9.26434 10.0585 9.1235L11.7343 6.102C11.7901 6.0175 11.8658 5.9855 11.9613 6.006C12.0568 6.0265 12.1045 6.09217 12.1045 6.203V8.03275H12.9623C13.1109 8.03275 13.2247 8.09784 13.3035 8.228C13.3825 8.35817 13.3828 8.49367 13.3045 8.6345L11.6288 11.656C11.5729 11.7405 11.4973 11.7725 11.4018 11.752C11.3063 11.7315 11.2585 11.6658 11.2585 11.555V9.72525Z" fill="#DDDDDD"/>
</svg>
