<svg width="24" height="24" viewBox="0 0 24 24" fill="none" xmlns="http://www.w3.org/2000/svg">
<path d="M7.70214 21.24C7.87531 21.4133 8.08997 21.5 8.34614 21.5H10.9786C11.2363 21.5 11.4302 21.3853 11.5604 21.1558C11.6906 20.9263 11.6986 20.6827 11.5844 20.425C11.4024 20.0452 11.2659 19.6508 11.1749 19.242C11.0839 18.833 11.0384 18.4094 11.0384 17.9712C11.0384 17.1724 11.1849 16.4282 11.4779 15.7385C11.7707 15.0487 12.1651 14.4422 12.6609 13.9192C13.0946 13.4616 13.5921 13.0821 14.1536 12.7808C14.7153 12.4794 15.3236 12.2743 15.9786 12.1655C16.1428 12.1322 16.2803 12.0564 16.3911 11.9383C16.5021 11.8201 16.5576 11.6798 16.5576 11.5173V5.14425C16.5576 4.88808 16.4714 4.67342 16.2989 4.50025C16.1264 4.32708 15.912 4.2405 15.6556 4.2405H13.8461V3.404C13.8461 3.14783 13.7595 2.93317 13.5861 2.76C13.413 2.58667 13.1983 2.5 12.9421 2.5H11.0576C10.8015 2.5 10.5868 2.58667 10.4136 2.76C10.2403 2.93317 10.1536 3.14783 10.1536 3.404V4.2405H8.34614C8.08997 4.2405 7.87531 4.32708 7.70214 4.50025C7.52881 4.67342 7.44214 4.88808 7.44214 5.14425V20.596C7.44214 20.8522 7.52881 21.0668 7.70214 21.24Z" fill="#2D65F2"/>
<rect x="9" y="6" width="6" height="1" rx="0.5" fill="white"/>
<rect x="9" y="8" width="6" height="1" rx="0.5" fill="white"/>
<rect x="9" y="10" width="6" height="1" rx="0.5" fill="white"/>
<path d="M15.2453 17.8818H13.715C13.4497 17.8818 13.2468 17.814 13.1062 17.6784C12.9652 17.5427 12.9646 17.4015 13.1044 17.2548L16.0941 14.1063C16.1937 14.0182 16.3287 13.9849 16.4991 14.0063C16.6695 14.0276 16.7547 14.096 16.7547 14.2115V16.1182H18.285C18.5503 16.1182 18.7532 16.186 18.8938 16.3216C19.0348 16.4573 19.0354 16.5985 18.8956 16.7452L15.9059 19.8937C15.8063 19.9818 15.6713 20.0151 15.5009 19.9937C15.3305 19.9724 15.2453 19.904 15.2453 19.7885V17.8818Z" fill="#2D65F2"/>
</svg>
