<svg width="24" height="24" viewBox="0 0 24 24" fill="none" xmlns="http://www.w3.org/2000/svg">
<path d="M7.70214 21.24C7.87531 21.4133 8.08997 21.5 8.34614 21.5H10.9786C11.2363 21.5 11.4302 21.3853 11.5604 21.1558C11.6906 20.9263 11.6986 20.6827 11.5844 20.425C11.4024 20.0452 11.2659 19.6508 11.1749 19.242C11.0839 18.833 11.0384 18.4094 11.0384 17.9712C11.0384 17.1724 11.1849 16.4282 11.4779 15.7385C11.7707 15.0487 12.1651 14.4422 12.6609 13.9192C13.0946 13.4616 13.5921 13.0821 14.1536 12.7808C14.7153 12.4794 15.3236 12.2743 15.9786 12.1655C16.1428 12.1322 16.2803 12.0564 16.3911 11.9383C16.5021 11.8201 16.5576 11.6798 16.5576 11.5173V5.14425C16.5576 4.88808 16.4714 4.67342 16.2989 4.50025C16.1264 4.32708 15.912 4.2405 15.6556 4.2405H13.8461V3.404C13.8461 3.14783 13.7595 2.93317 13.5861 2.76C13.413 2.58667 13.1983 2.5 12.9421 2.5H11.0576C10.8015 2.5 10.5868 2.58667 10.4136 2.76C10.2403 2.93317 10.1536 3.14783 10.1536 3.404V4.2405H8.34614C8.08997 4.2405 7.87531 4.32708 7.70214 4.50025C7.52881 4.67342 7.44214 4.88808 7.44214 5.14425V20.596C7.44214 20.8522 7.52881 21.0668 7.70214 21.24Z" fill="#2D65F2"/>
<path d="M15.5352 16L16.7323 20" stroke="#2D65F2" strokeWidth="0.8" strokeLinecap="round"/>
<path d="M13 16L14.1972 20" stroke="#2D65F2" strokeWidth="0.8" strokeLinecap="round"/>
<path d="M18 16L16.8028 20" stroke="#2D65F2" strokeWidth="0.8" strokeLinecap="round"/>
<path d="M15.4647 16L14.2675 20" stroke="#2D65F2" strokeWidth="0.8" strokeLinecap="round"/>
<path d="M10.7125 12.0799L12.456 9.50766C12.4864 9.4582 12.4894 9.40717 12.4651 9.35458C12.4408 9.30198 12.3983 9.27568 12.3376 9.27568H11.0332L11.7437 6.7887C11.768 6.71447 11.7558 6.64491 11.7072 6.58001C11.6587 6.51502 11.598 6.48253 11.5251 6.48253H9.76521C9.68019 6.48253 9.61036 6.51036 9.55573 6.56601C9.50102 6.62174 9.47367 6.69292 9.47367 6.77953V10.0458C9.47367 10.1324 9.50102 10.2036 9.55573 10.2593C9.61036 10.315 9.68019 10.3428 9.76521 10.3428H10.7125V12.0799ZM12.8941 9.70441L10.7626 12.8696C10.7213 12.9296 10.6723 12.9686 10.6156 12.9865C10.5588 13.0045 10.5009 13.0045 10.442 12.9865C10.3831 12.9686 10.3345 12.9341 10.2963 12.8831C10.258 12.832 10.2389 12.7716 10.2389 12.7017V10.8253H9.76521C9.55324 10.8253 9.37274 10.7494 9.22369 10.5976C9.07456 10.4457 9 10.2617 9 10.0458V6.77953C9 6.5636 9.07456 6.37967 9.22369 6.22776C9.37274 6.07592 9.55324 6 9.76521 6H11.5797C11.7959 6 11.9734 6.08042 12.1121 6.24127C12.2509 6.40211 12.2918 6.58153 12.2347 6.77953L11.6599 8.79315H12.4205C12.65 8.79315 12.8187 8.89553 12.9265 9.10028C13.0343 9.30504 13.0235 9.50641 12.8941 9.70441Z" fill="#DDDDDD"/>
</svg>
