<svg width="24" height="24" viewBox="0 0 24 24" fill="none" xmlns="http://www.w3.org/2000/svg">
<path d="M7.70214 21.24C7.87531 21.4133 8.08997 21.5 8.34614 21.5H10.9786C11.2363 21.5 11.4302 21.3853 11.5604 21.1558C11.6906 20.9263 11.6986 20.6827 11.5844 20.425C11.4024 20.0452 11.2659 19.6508 11.1749 19.242C11.0839 18.833 11.0384 18.4094 11.0384 17.9712C11.0384 17.1724 11.1849 16.4282 11.4779 15.7385C11.7707 15.0487 12.1651 14.4422 12.6609 13.9192C13.0946 13.4616 13.5921 13.0821 14.1536 12.7808C14.7153 12.4794 15.3236 12.2743 15.9786 12.1655C16.1428 12.1322 16.2803 12.0564 16.3911 11.9383C16.5021 11.8201 16.5576 11.6798 16.5576 11.5173V5.14425C16.5576 4.88808 16.4714 4.67342 16.2989 4.50025C16.1264 4.32708 15.912 4.2405 15.6556 4.2405H13.8461V3.404C13.8461 3.14783 13.7595 2.93317 13.5861 2.76C13.413 2.58667 13.1983 2.5 12.9421 2.5H11.0576C10.8015 2.5 10.5868 2.58667 10.4136 2.76C10.2403 2.93317 10.1536 3.14783 10.1536 3.404V4.2405H8.34614C8.08997 4.2405 7.87531 4.32708 7.70214 4.50025C7.52881 4.67342 7.44214 4.88808 7.44214 5.14425V20.596C7.44214 20.8522 7.52881 21.0668 7.70214 21.24Z" fill="#2D65F2"/>
<path d="M15.5751 19.8082C15.5751 19.8082 14.3221 15.8762 14.1012 15.4381C13.8803 15 13.4686 15 13.4686 15C13.4686 15 12.891 15.0185 13.0183 15.4381C13.1457 15.8577 14.5901 19.8082 14.5901 19.8082C14.5901 19.8082 15.0621 21 16.0915 21C17.1209 21 17.5457 19.8082 17.5457 19.8082C17.5457 19.8082 19 15.8354 19 15.4381C19 15.0408 18.4359 14.9295 18.2123 15.0408C18.0305 15.1313 17.9622 15.4381 17.9622 15.4381C17.9622 15.4381 16.6368 19.8082 16.5762 19.8082C16.5156 19.8082 16.3021 20.0279 16.0915 20.0328C15.8697 20.0379 15.5751 19.8082 15.5751 19.8082Z" fill="#2D65F2" stroke="#2D65F2" strokeWidth="0.33"/>
</svg>
