<svg width="24" height="24" viewBox="0 0 24 24" fill="none" xmlns="http://www.w3.org/2000/svg">
<path d="M7.70214 21.24C7.87531 21.4133 8.08997 21.5 8.34614 21.5H10.9786C11.2363 21.5 11.4302 21.3853 11.5604 21.1558C11.6906 20.9263 11.6986 20.6827 11.5844 20.425C11.4024 20.0452 11.2659 19.6508 11.1749 19.242C11.0839 18.833 11.0384 18.4094 11.0384 17.9712C11.0384 17.1724 11.1849 16.4282 11.4779 15.7385C11.7707 15.0487 12.1651 14.4422 12.6609 13.9192C13.0946 13.4616 13.5921 13.0821 14.1536 12.7808C14.7153 12.4794 15.3236 12.2743 15.9786 12.1655C16.1428 12.1322 16.2803 12.0564 16.3911 11.9383C16.5021 11.8201 16.5576 11.6798 16.5576 11.5173V5.14425C16.5576 4.88808 16.4714 4.67342 16.2989 4.50025C16.1264 4.32708 15.912 4.2405 15.6556 4.2405H13.8461V3.404C13.8461 3.14783 13.7595 2.93317 13.5861 2.76C13.413 2.58667 13.1983 2.5 12.9421 2.5H11.0576C10.8015 2.5 10.5868 2.58667 10.4136 2.76C10.2403 2.93317 10.1536 3.14783 10.1536 3.404V4.2405H8.34614C8.08997 4.2405 7.87531 4.32708 7.70214 4.50025C7.52881 4.67342 7.44214 4.88808 7.44214 5.14425V20.596C7.44214 20.8522 7.52881 21.0668 7.70214 21.24Z" fill="#2D65F2"/>
<path d="M16.2484 15.2259C16.2484 15.2259 17.7723 19.1191 17.9708 19.5533C18.1693 19.9876 18.4946 19.953 18.4946 19.953C18.4946 19.953 18.9972 19.9835 18.8857 19.569C18.7741 19.1544 17.1527 15.2414 17.1527 15.2414C17.1527 15.2414 16.7771 14.0628 15.8169 14.0464C14.8567 14.03 14.4398 15.195 14.4398 15.195C14.4398 15.195 13.0146 19.0778 13.0077 19.4684C13.0008 19.859 13.525 19.9775 13.7356 19.8716C13.9067 19.7855 13.9757 19.485 13.9757 19.485L15.3441 15.2105C15.3441 15.2105 15.6092 14.9592 15.8169 14.9691C16.0136 14.9784 16.2484 15.2259 16.2484 15.2259Z" fill="#2D65F2" stroke="#2D65F2" strokeWidth="0.33"/>
<path d="M14.6362 17.2727H15.1162H17.0362" stroke="#2D65F2" strokeLinecap="round"/>
</svg>
