<svg width="24" height="24" viewBox="0 0 24 24" fill="none" xmlns="http://www.w3.org/2000/svg">
<path d="M7.70226 21.24C7.87543 21.4133 8.09009 21.5 8.34626 21.5H10.9788C11.2364 21.5 11.4303 21.3853 11.5605 21.1558C11.6907 20.9263 11.6987 20.6827 11.5845 20.425C11.4025 20.0452 11.266 19.6508 11.175 19.242C11.084 18.833 11.0385 18.4094 11.0385 17.9712C11.0385 17.1724 11.185 16.4282 11.478 15.7385C11.7708 15.0487 12.1652 14.4422 12.661 13.9192C13.0947 13.4616 13.5923 13.0821 14.1538 12.7808C14.7154 12.4794 15.3238 12.2743 15.9788 12.1655C16.1429 12.1322 16.2804 12.0564 16.3913 11.9383C16.5023 11.8201 16.5578 11.6798 16.5578 11.5173V5.14425C16.5578 4.88808 16.4715 4.67342 16.299 4.50025C16.1265 4.32708 15.9121 4.2405 15.6558 4.2405H13.8463V3.404C13.8463 3.14783 13.7596 2.93317 13.5863 2.76C13.4131 2.58667 13.1984 2.5 12.9423 2.5H11.0578C10.8016 2.5 10.5869 2.58667 10.4138 2.76C10.2404 2.93317 10.1538 3.14783 10.1538 3.404V4.2405H8.34626C8.09009 4.2405 7.87543 4.32708 7.70226 4.50025C7.52893 4.67342 7.44226 4.88808 7.44226 5.14425V20.596C7.44226 20.8522 7.52893 21.0668 7.70226 21.24Z" fill="#2D65F2"/>
<path d="M16 20.4444C16.679 20.4444 17.2562 20.2068 17.7314 19.7314C18.2068 19.2562 18.4444 18.679 18.4444 18C18.4444 17.441 18.2788 16.9442 17.9474 16.5094C17.6161 16.0746 17.1812 15.7857 16.6428 15.6428C16.5322 15.628 16.4344 15.655 16.3496 15.7239C16.2647 15.7929 16.2222 15.8826 16.2222 15.9931V18.0854L14.7402 19.5676C14.6553 19.6524 14.6193 19.7487 14.6324 19.8564C14.6456 19.9641 14.6983 20.0502 14.7906 20.1146C14.9712 20.228 15.1649 20.3113 15.3714 20.3646C15.578 20.4178 15.7875 20.4444 16 20.4444ZM16.0014 22C15.4483 22 14.9283 21.895 14.4413 21.6851C13.9544 21.4752 13.5309 21.1903 13.1707 20.8304C12.8104 20.4706 12.5253 20.0474 12.3152 19.5609C12.1051 19.0744 12 18.5546 12 18.0014C12 17.4483 12.105 16.9283 12.3149 16.4413C12.5248 15.9544 12.8097 15.5309 13.1696 15.1707C13.5294 14.8104 13.9526 14.5253 14.4391 14.3152C14.9256 14.1051 15.4454 14 15.9986 14C16.5517 14 17.0717 14.105 17.5587 14.3149C18.0456 14.5248 18.4691 14.8097 18.8293 15.1696C19.1896 15.5294 19.4747 15.9526 19.6848 16.4391C19.8949 16.9256 20 17.4454 20 17.9986C20 18.5517 19.895 19.0717 19.6851 19.5587C19.4752 20.0456 19.1903 20.4691 18.8304 20.8293C18.4706 21.1896 18.0474 21.4747 17.5609 21.6848C17.0744 21.8949 16.5546 22 16.0014 22Z" fill="#2D65F2"/>
<path d="M11.2585 10.7253H10.4008C10.2521 10.7253 10.1383 10.6602 10.0595 10.53C9.9805 10.3998 9.98017 10.2643 10.0585 10.1235L11.7343 7.102C11.7901 7.0175 11.8658 6.9855 11.9613 7.006C12.0568 7.0265 12.1045 7.09217 12.1045 7.203V9.03275H12.9623C13.1109 9.03275 13.2247 9.09784 13.3035 9.228C13.3825 9.35817 13.3828 9.49367 13.3045 9.6345L11.6288 12.656C11.5729 12.7405 11.4973 12.7725 11.4018 12.752C11.3063 12.7315 11.2585 12.6658 11.2585 12.555V10.7253Z" fill="#DDDDDD"/>
</svg>
