<svg width="24" height="24" viewBox="0 0 24 24" fill="none" xmlns="http://www.w3.org/2000/svg">
<path d="M2.7019 17.6269V16.9418C2.7019 16.4598 2.83059 16.0199 3.08795 15.6219C3.34534 15.224 3.69122 14.9164 4.1256 14.6991C5.00567 14.2621 5.91765 13.915 6.86155 13.6579C7.80544 13.4007 8.76865 13.2721 9.7512 13.2721C9.94332 13.2721 10.0984 13.356 10.2163 13.5236C10.3343 13.6912 10.3646 13.8737 10.3074 14.0712C10.2249 14.3616 10.1658 14.6582 10.1303 14.9611C10.0947 15.2639 10.0769 15.5657 10.0769 15.8663C10.0769 16.2477 10.1086 16.6178 10.1721 16.9764C10.2355 17.3351 10.3333 17.6897 10.4653 18.0404C10.5531 18.2846 10.5305 18.5131 10.3975 18.7259C10.2645 18.9387 10.0771 19.0452 9.8352 19.0452H4.12015C3.72509 19.0452 3.38995 18.9075 3.11473 18.6323C2.83951 18.3571 2.7019 18.022 2.7019 17.6269ZM16.7263 17.3365C17.2451 17.3365 17.6855 17.1545 18.0474 16.7904C18.4094 16.4263 18.5903 15.9838 18.5903 15.463C18.5903 14.9421 18.4094 14.4997 18.0474 14.1356C17.6855 13.7715 17.2451 13.5894 16.7263 13.5894C16.2074 13.5894 15.7639 13.7715 15.3956 14.1356C15.0274 14.4997 14.8432 14.9421 14.8432 15.463C14.8432 15.9838 15.0274 16.4263 15.3956 16.7904C15.7639 17.1545 16.2074 17.3365 16.7263 17.3365ZM10.0202 11.7125C9.07657 11.7125 8.27417 11.3819 7.61295 10.7206C6.95175 10.0594 6.62115 9.25706 6.62115 8.31348C6.62115 7.36989 6.95175 6.56749 7.61295 5.90627C8.27417 5.24507 9.07657 4.91447 10.0202 4.91447C10.9637 4.91447 11.7661 5.24507 12.4273 5.90627C13.0885 6.56749 13.4192 7.36989 13.4192 8.31348C13.4192 9.25706 13.0885 10.0594 12.4273 10.7206C11.7661 11.3819 10.9637 11.7125 10.0202 11.7125ZM15.9759 19.2269L15.8625 18.4788C15.6252 18.4083 15.3977 18.3139 15.1802 18.1956C14.9626 18.0774 14.7589 17.9298 14.5692 17.7528L13.8048 18.0259C13.6592 18.0714 13.5194 18.0671 13.3855 18.0129C13.2515 17.9588 13.1464 17.8698 13.0702 17.7461L12.9452 17.5394C12.8657 17.4054 12.838 17.2603 12.8622 17.1041C12.8863 16.9479 12.9614 16.8203 13.0875 16.7212L13.6856 16.2587C13.6086 15.9997 13.5702 15.7378 13.5702 15.4731C13.5702 15.2083 13.6086 14.9464 13.6856 14.6875L13.0894 14.1807C12.9676 14.0839 12.894 13.9631 12.8687 13.8183C12.8434 13.6734 12.8689 13.534 12.9452 13.4L13.0731 13.1779C13.1525 13.0542 13.2596 12.964 13.3942 12.9072C13.5288 12.8505 13.6689 12.8474 13.8144 12.8981L14.5702 13.1837C14.7525 13.0035 14.9542 12.8565 15.175 12.7425C15.3959 12.6285 15.6251 12.5368 15.8625 12.4673L15.9743 11.7099C15.9978 11.5552 16.0698 11.4284 16.1904 11.3294C16.3109 11.2303 16.4528 11.1808 16.6163 11.1808H16.8413C17.0035 11.1808 17.1443 11.2316 17.2639 11.3332C17.3834 11.4348 17.456 11.5635 17.4817 11.7192L17.5792 12.4673C17.8324 12.5378 18.069 12.6311 18.2891 12.7471C18.5091 12.8631 18.7108 13.0189 18.8942 13.2144L19.598 12.9288C19.7486 12.8679 19.8961 12.8659 20.0403 12.9226C20.1845 12.9793 20.2963 13.0754 20.3756 13.2109L20.5105 13.4231C20.5868 13.5609 20.6114 13.7026 20.5845 13.8481C20.5576 13.9936 20.4848 14.1147 20.3663 14.2115L19.7778 14.7166C19.8496 14.9711 19.8855 15.2287 19.8855 15.4895C19.8855 15.7503 19.8496 16.0067 19.7778 16.2587L20.3682 16.7212C20.4859 16.8211 20.5568 16.9452 20.581 17.0933C20.6051 17.2413 20.5776 17.3828 20.4984 17.5178L20.3697 17.7447C20.2905 17.8694 20.1849 17.9588 20.0531 18.0129C19.9212 18.0671 19.7829 18.0714 19.6384 18.0259L18.8942 17.7528C18.7044 17.9298 18.5011 18.0774 18.2843 18.1956C18.0674 18.3139 17.8324 18.4083 17.5792 18.4788L17.4817 19.2298C17.456 19.3887 17.3834 19.5177 17.2639 19.6168C17.1443 19.7158 17.0035 19.7653 16.8413 19.7653H16.6182C16.4528 19.7653 16.3102 19.7144 16.1902 19.6126C16.0702 19.5108 15.9988 19.3822 15.9759 19.2269Z" fill="#2D65F2"/>
</svg>
