<svg width="24" height="24" viewBox="0 0 24 24" fill="none" xmlns="http://www.w3.org/2000/svg">
<path d="M12.5 16L13.5 15L14 14L14.5 12.5V11H17.3845C17.5385 11 17.6796 11.0641 17.8077 11.1923C17.9359 11.3204 18 11.4615 18 11.6155V18.3845C18 18.5385 17.9359 18.6796 17.8077 18.8077C17.6796 18.9359 17.5385 19 17.3845 19H13.35L10.9007 16.7308L12.5 16ZM10.5 17H10L12.4442 19.5213C12.5891 19.6661 12.7617 19.7821 12.962 19.8692C13.1623 19.9564 13.3731 20 13.5942 20H17.3803C17.8258 20 18.2071 19.8418 18.5242 19.5255C18.8414 19.2092 19 18.8288 19 18.3845V17.1537L18.5 17.6537H22.5C22.6417 17.6537 22.7604 17.6058 22.8563 17.51C22.9521 17.414 23 17.2951 23 17.1532C23 17.0114 22.9521 16.8927 22.8563 16.797C22.7604 16.7015 22.6417 16.6537 22.5 16.6537H19V13.3462H22.5C22.6417 13.3462 22.7604 13.2983 22.8563 13.2023C22.9521 13.1063 23 12.9873 23 12.8455C23 12.7037 22.9521 12.585 22.8563 12.4895C22.7604 12.394 22.6417 12.3462 22.5 12.3462H18.5L19 12.8462V11.6155C19 11.1712 18.8414 10.7908 18.5242 10.4745C18.2071 10.1582 17.8258 10 17.3805 10H14.5C14.2842 10 14.7033 10.4128 14.5 10.5C14.2968 10.5872 14.6448 10.8552 14.5 11V12.5L14 13.5015C13.7712 13.5015 13.7491 14.3452 13.5942 14.5C13.4394 14.6548 13 15.2712 13 15.5L12.5 16C12.5 16.2288 10.3452 16.8452 10.5 17C10.2712 17 10.6548 17.1548 10.5 17Z" fill="#2D65F2"/>
<path d="M8.38889 10.8384V7.5C8.38889 7.38981 8.35156 7.29745 8.27689 7.22292C8.20222 7.14838 8.10973 7.11111 7.99942 7.11111C7.8891 7.11111 7.79681 7.14838 7.72253 7.22292C7.64825 7.29745 7.61111 7.38981 7.61111 7.5V10.9057C7.61111 10.9852 7.62557 11.0622 7.65447 11.1367C7.68338 11.2111 7.73173 11.2822 7.79953 11.35L10.5606 14.1111C10.6335 14.184 10.7227 14.2229 10.8284 14.2278C10.9342 14.2327 11.0284 14.1938 11.1111 14.1111C11.1938 14.0284 11.2352 13.9367 11.2352 13.836C11.2352 13.7353 11.1938 13.6435 11.1111 13.5606L8.38889 10.8384ZM8.00253 18C7.03458 18 6.12452 17.8163 5.27233 17.4489C4.42028 17.0816 3.67906 16.583 3.04867 15.9533C2.41828 15.3235 1.91927 14.583 1.55164 13.7316C1.18388 12.8803 1 11.9706 1 11.0025C1 10.0346 1.18369 9.12452 1.55106 8.27233C1.91843 7.42028 2.41698 6.67906 3.04672 6.04867C3.67646 5.41828 4.41704 4.91927 5.26844 4.55164C6.11972 4.18388 7.0294 4 7.99747 4C8.96542 4 9.87548 4.18369 10.7277 4.55106C11.5797 4.91843 12.3209 5.41698 12.9513 6.04672C13.5817 6.67646 14.0807 7.41704 14.4484 8.26844C14.8161 9.11972 15 10.0294 15 10.9975C15 11.9654 14.8163 12.8755 14.4489 13.7277C14.0816 14.5797 13.583 15.3209 12.9533 15.9513C12.3235 16.5817 11.583 17.0807 10.7316 17.4484C9.88028 17.8161 8.9706 18 8.00253 18Z" fill="#2D65F2"/>
</svg>
