<svg width="24" height="24" viewBox="0 0 24 24" fill="none" xmlns="http://www.w3.org/2000/svg">
<path d="M20.3021 8.76918C20.2714 8.72273 20.2308 8.6837 20.1832 8.65491C20.1355 8.62612 20.0821 8.6083 20.0267 8.60273C19.9713 8.59717 19.9154 8.604 19.863 8.62274C19.8106 8.64147 19.763 8.67164 19.7237 8.71105L12.6531 15.7817C12.51 15.9089 12.3236 15.9765 12.1323 15.9707C11.9409 15.965 11.759 15.8863 11.6238 15.7507C11.4886 15.6152 11.4104 15.433 11.4051 15.2416C11.3999 15.0503 11.468 14.8641 11.5956 14.7214L20.2862 6.03168C20.3559 5.962 20.4111 5.87927 20.4489 5.78823C20.4866 5.69718 20.506 5.5996 20.506 5.50105C20.506 5.40251 20.4866 5.30493 20.4489 5.21388C20.4111 5.12284 20.3559 5.04011 20.2862 4.97043C20.2165 4.90075 20.1338 4.84547 20.0427 4.80776C19.9517 4.77005 19.8541 4.75064 19.7556 4.75064C19.657 4.75064 19.5594 4.77005 19.4684 4.80776C19.3773 4.84547 19.2946 4.90075 19.2249 4.97043L17.9706 6.22574C16.1804 4.82762 13.9853 4.04742 11.7143 4.00209C9.44333 3.95677 7.21884 4.64876 5.37432 5.97433C3.52979 7.2999 2.16462 9.18763 1.48346 11.3545C0.802303 13.5214 0.841852 15.8507 1.59618 17.9932C1.69953 18.287 1.89126 18.5416 2.14506 18.722C2.39886 18.9025 2.70228 18.9999 3.01368 19.0011H19.989C20.3001 19.0012 20.6035 18.9047 20.8573 18.7248C21.1111 18.5449 21.3027 18.2906 21.4056 17.997C21.9402 16.477 22.1187 14.8546 21.9274 13.2547C21.7361 11.6549 21.18 10.1203 20.3021 8.76918ZM4.88681 15.852C4.92633 16.0469 4.8868 16.2496 4.77692 16.4154C4.66704 16.5812 4.4958 16.6965 4.30087 16.7361C4.2515 16.7461 4.20125 16.7511 4.15087 16.7511C3.978 16.7508 3.81052 16.6909 3.67676 16.5814C3.54299 16.4719 3.45117 16.3195 3.41681 16.1501C3.14861 14.8299 3.20758 13.4641 3.58858 12.1719C3.96957 10.8797 4.661 9.70037 5.60254 8.73682C6.54408 7.77327 7.70712 7.05478 8.99017 6.64404C10.2732 6.23331 11.6373 6.1428 12.9634 6.38043C13.1592 6.41549 13.333 6.52689 13.4467 6.69014C13.5604 6.85338 13.6045 7.05509 13.5695 7.2509C13.5344 7.4467 13.423 7.62056 13.2598 7.73422C13.0965 7.84789 12.8948 7.89205 12.699 7.85699C11.6139 7.66272 10.4977 7.73692 9.44777 8.07312C8.39789 8.40931 7.44622 8.99729 6.67577 9.78577C5.90532 10.5742 5.33951 11.5393 5.02768 12.5966C4.71586 13.654 4.66749 14.7716 4.88681 15.852Z" fill="#2D65F2"/>
</svg>
