<svg width="24" height="24" viewBox="0 0 24 24" fill="none" xmlns="http://www.w3.org/2000/svg">
<path d="M14.3821 9.78174L13.7081 9.78174L13.0333 9.78174L12.3584 9.78174L11.3454 9.78174L11.0088 9.78174L11.0071 8.50703L11.0397 2.68697C11.0401 2.60746 11.0553 2.53056 11.0852 2.45628C11.1149 2.38199 11.1616 2.31348 11.2252 2.25074L12.3082 1.17964C12.3717 1.11679 12.4389 1.07263 12.5097 1.04715C12.5804 1.02157 12.6562 1.00901 12.737 1.00946C12.8177 1.00991 12.893 1.02332 12.963 1.04969C13.0329 1.07595 13.0993 1.12086 13.1621 1.18442L14.9312 2.97988C14.9832 3.03078 15.0247 3.09169 15.0557 3.16261C15.0867 3.23352 15.1054 3.30404 15.1119 3.37414C15.1184 3.44424 15.1114 3.51427 15.0906 3.58422C15.0699 3.65418 15.0355 3.72062 14.9876 3.78356L14.3576 4.6119L15.0517 5.55783C15.092 5.61001 15.1211 5.66557 15.139 5.72449C15.1568 5.78341 15.1655 5.84447 15.1651 5.90768C15.1648 5.97077 15.1543 6.03341 15.1337 6.0956C15.113 6.1578 15.0844 6.21471 15.0477 6.26636L14.3884 7.21398L14.381 8.52593L14.3821 9.78174ZM13.378 9.20554L13.378 6.89031L14.0557 5.92221C14.0557 5.92648 14.0573 5.92756 14.0607 5.92545C14.0642 5.92333 14.0625 5.92225 14.0557 5.92221L13.0988 4.59827L13.9813 3.45739L12.7295 2.19151L12.0509 2.86252L12.0154 9.20554L12.695 9.20554L12.9364 9.20554L13.378 9.20554Z" fill="#2D65F2"/>
<path fillRule="evenodd" clipRule="evenodd" d="M12.2749 22.2812C12.3535 22.2937 12.4285 22.3 12.5 22.3C12.5715 22.3 12.6465 22.2937 12.7251 22.2812C12.8037 22.2686 12.8773 22.2498 12.9461 22.2247C14.4921 21.6596 15.7209 20.7013 16.6325 19.3496C17.5442 17.9978 18 16.5347 18 14.9604V11.7338C18 11.4754 17.9233 11.2428 17.77 11.036C17.6166 10.8293 17.4183 10.6795 17.175 10.5864L12.9443 9.07967C12.7911 9.02656 12.643 9 12.5 9C12.357 9 12.2089 9.02656 12.0557 9.07967L7.825 10.5864C7.58169 10.6795 7.38336 10.8293 7.23002 11.036C7.07667 11.2428 7 11.4754 7 11.7338V14.9604C7 16.5347 7.45585 17.9978 8.36754 19.3496C9.27909 20.7013 10.5079 21.6596 12.0539 22.2247C12.1227 22.2498 12.1963 22.2686 12.2749 22.2812ZM12.8579 17.3125H12.1421C12.0744 17.3125 12.0157 17.2836 11.9661 17.2257C11.9164 17.1678 11.8999 17.1041 11.9165 17.0347L12.1536 15.6948C11.9969 15.6258 11.8707 15.5173 11.7751 15.3694C11.6794 15.2216 11.6316 15.0581 11.6316 14.879C11.6316 14.6338 11.7165 14.4239 11.8863 14.2493C12.0562 14.0748 12.2606 13.9875 12.4995 13.9875C12.7385 13.9875 12.943 14.0748 13.1132 14.2493C13.2834 14.4239 13.3684 14.6338 13.3684 14.879C13.3684 15.0581 13.3206 15.2216 13.225 15.3694C13.1293 15.5173 13.0032 15.6258 12.8465 15.6948L13.0835 17.0347C13.1001 17.1041 13.0836 17.1678 13.034 17.2257C12.9843 17.2836 12.9256 17.3125 12.8579 17.3125Z" fill="#2D65F2"/>
</svg>
